<?xml version="1.0" encoding="UTF-8" standalone="no"?>
<!-- Created with Inkscape (http://www.inkscape.org/) -->

<svg
   xmlns:dc="http://purl.org/dc/elements/1.1/"
   xmlns:cc="http://creativecommons.org/ns#"
   xmlns:rdf="http://www.w3.org/1999/02/22-rdf-syntax-ns#"
   xmlns:svg="http://www.w3.org/2000/svg"
   xmlns="http://www.w3.org/2000/svg"
   xmlns:sodipodi="http://sodipodi.sourceforge.net/DTD/sodipodi-0.dtd"
   xmlns:inkscape="http://www.inkscape.org/namespaces/inkscape"
   width="210mm"
   height="297mm"
   viewBox="0 0 210 297"
   version="1.1"
   id="svg8"
   inkscape:version="0.92.2 5c3e80d, 2017-08-06"
   sodipodi:docname="drawing.svg">
  <defs
     id="defs2" />
  <sodipodi:namedview
     id="base"
     pagecolor="#ffffff"
     bordercolor="#666666"
     borderopacity="1.0"
     inkscape:pageopacity="0.0"
     inkscape:pageshadow="2"
     inkscape:zoom="0.98994949"
     inkscape:cx="1861.6126"
     inkscape:cy="206.87397"
     inkscape:document-units="mm"
     inkscape:current-layer="layer1"
     showgrid="false"
     inkscape:snap-global="false"
     inkscape:window-width="1440"
     inkscape:window-height="855"
     inkscape:window-x="0"
     inkscape:window-y="1"
     inkscape:window-maximized="1" />
  <metadata
     id="metadata5">
    <rdf:RDF>
      <cc:Work
         rdf:about="">
        <dc:format>image/svg+xml</dc:format>
        <dc:type
           rdf:resource="http://purl.org/dc/dcmitype/StillImage" />
        <dc:title></dc:title>
      </cc:Work>
    </rdf:RDF>
  </metadata>
  <g
     inkscape:label="Layer 1"
     inkscape:groupmode="layer"
     id="layer1">
    <path
       style="fill:#6c5353;fill-opacity:1;fill-rule:evenodd;stroke:#6c5353;stroke-width:0.26458332px;stroke-linecap:butt;stroke-linejoin:miter;stroke-opacity:1"
       d="m 141.65285,136.71467 c -2.67825,0.39067 -9.34999,5.28768 -14.29892,5.7463 -4.94893,0.45862 -11.16148,-0.22185 -14.43256,-2.00453 -3.27108,-1.78268 -4.26061,-4.66661 -5.34539,-7.3499 -1.08478,-2.68329 -1.16141,-6.36773 -0.4009,-9.62171 0.76051,-3.25398 2.51922,-6.05441 5.07812,-8.28536 2.5589,-2.23095 6.93238,-3.86586 9.75534,-4.27631 2.82296,-0.41045 4.51988,-0.10681 6.41447,0.80181 1.89459,0.90862 3.75674,2.81208 4.40994,4.27631 0.6532,1.46423 0.13364,3.47451 0.13364,3.47451 0,0 1.50224,-2.13786 1.73725,-4.81085 0.23501,-2.67299 -1.29793,-6.37301 -3.2883,-9.12353 -1.99037,-2.75052 -4.00186,-3.16851 -7.13521,-3.97268 -5.84752,-0.4798 -10.68093,0.22678 -15.7689,2.93996 0,0 -3.82514,5.70564 -5.61266,9.48807 -1.78752,3.78243 -3.72214,9.64624 -4.810856,13.22984 -1.088716,3.5836 -1.785361,6.34268 -2.00452,8.15172 -0.219159,1.80904 0,2.53906 0,2.53906 l 24.722426,17.10525 c 0,0 8.64181,-5.12342 11.75986,-7.34991 3.11805,-2.22649 5.30641,-3.86216 7.08265,-5.74629 1.77624,-1.88413 3.74177,-5.21176 3.74177,-5.21176 0,0 0.941,-0.39067 -1.73725,0 z"
       id="path898"
       inkscape:connector-curvature="0"
       sodipodi:nodetypes="zzzzzzzzzczzcczzzcczzcz" />
    <g
       id="g896"
       transform="rotate(25.919293,125.57857,109.30397)">
      <g
         transform="rotate(18.059466,128.83288,151.02892)"
         id="g888">
        <path
           sodipodi:nodetypes="zzzzzzz"
           inkscape:connector-curvature="0"
           id="path864"
           d="m 113.31458,109.52381 c 0.0693,-1.22304 3.57735,-1.15293 4.53572,-0.75596 0.95837,0.39697 0.87453,0.78745 0.94494,1.32292 0.0704,0.53547 -0.19136,1.30313 -0.56697,1.51191 -0.37561,0.20878 -0.53943,0.008 -0.94494,-0.18899 -0.40551,-0.19739 -0.66325,-0.77914 -1.32291,-1.13393 -0.65966,-0.35479 -2.71511,0.46709 -2.64584,-0.75595 z"
           style="fill:#6c5353;fill-opacity:1;fill-rule:evenodd;stroke:#6c5353;stroke-width:0.26458332px;stroke-linecap:butt;stroke-linejoin:miter;stroke-opacity:1" />
        <path
           style="opacity:1;fill:#6c5353;fill-opacity:1;stroke:#6c5353;stroke-width:2.02030516;stroke-linecap:round;stroke-miterlimit:4;stroke-dasharray:none;stroke-dashoffset:0;stroke-opacity:1"
           d="m 107.76769,110.90342 c -2.48358,0.11927 -4.18897,2.2686 -5.60779,4.06593 -1.15388,1.5419 -2.208706,3.16605 -3.239507,4.78529 0.234908,4.1624 0.481769,8.38402 1.857557,12.35798 1.24041,3.99212 3.36055,7.63065 5.10842,11.40969 1.49959,2.99022 3.10494,5.96677 5.1512,8.62101 0.3017,0.32564 0.59183,0.84038 1.11712,0.56805 9.38389,-1.45351 18.76216,-2.94312 28.14289,-4.41684 0.42938,-1.00415 0.72749,-2.1274 1.01061,-3.20253 -0.34779,-0.2714 -0.89402,0.20536 -1.2985,0.20515 -4.65112,1.19449 -9.50114,1.40065 -14.29267,1.30445 -3.11133,-0.0278 -6.23057,-0.7107 -8.96839,-2.22867 -4.21683,-2.18168 -7.68076,-5.75687 -9.66242,-10.07907 -2.75148,-5.62378 -2.93629,-12.48189 -0.18143,-18.13966 0.79987,-1.55988 2.01402,-3.18071 3.76773,-3.61443 0.67217,0.0398 1.44862,0.5741 2.0984,0.24106 0.28931,-0.54446 -0.59578,-0.81319 -0.95007,-1.00434 -1.2837,-0.51231 -2.66549,-0.86234 -4.05315,-0.87307 z"
           id="path866"
           inkscape:connector-curvature="0" />
      </g>
      <g
         transform="rotate(9.2079073,138.3937,166.14682)"
         id="g832">
        <path
           style="fill:none;fill-rule:evenodd;stroke:#000000;stroke-width:2;stroke-linecap:butt;stroke-linejoin:miter;stroke-miterlimit:4;stroke-dasharray:none;stroke-opacity:1"
           d="m 100.35268,118.02827 v 4.34673 4.15774 l 0.75595,5.29166 2.07887,6.99256 1.88988,6.04762 2.07887,5.10268 1.5119,2.45684 h 30.2381 l 2.45684,-4.91369 2.07887,-5.85863 1.88988,-6.04762 1.32292,-6.61458 0.37798,-5.66964 0.37797,-5.48066 z"
           id="path826"
           inkscape:connector-curvature="0" />
        <path
           style="fill:none;fill-rule:evenodd;stroke:#000000;stroke-width:4;stroke-linecap:butt;stroke-linejoin:miter;stroke-miterlimit:4;stroke-dasharray:none;stroke-opacity:1"
           d="m 99.785714,123.31994 c -5.900352,-0.35534 -8.162069,1.97677 -7.748514,7.74851 0.583052,5.06229 6.540029,6.67546 10.96131,7.37054"
           id="path828"
           inkscape:connector-curvature="0"
           sodipodi:nodetypes="ccc" />
      </g>
    </g>
    <ellipse
       style="opacity:1;fill:none;fill-opacity:1;stroke:#000000;stroke-width:4;stroke-linecap:round;stroke-miterlimit:4;stroke-dasharray:none;stroke-dashoffset:0;stroke-opacity:1"
       id="path868"
       cx="186.27411"
       cy="106.30008"
       rx="8.4189901"
       ry="20.045216"
       transform="rotate(19.039884)" />
    <ellipse
       transform="rotate(19.039884)"
       ry="20.045216"
       rx="8.4189901"
       cy="123.09068"
       cx="137.62079"
       id="ellipse870"
       style="opacity:1;fill:none;fill-opacity:1;stroke:#000000;stroke-width:4;stroke-linecap:round;stroke-miterlimit:4;stroke-dasharray:none;stroke-dashoffset:0;stroke-opacity:1" />
    <path
       style="fill:#6c5353;fill-opacity:1;fill-rule:evenodd;stroke:#6c5353;stroke-width:0.26458332px;stroke-linecap:butt;stroke-linejoin:miter;stroke-opacity:1"
       d="m 113.31458,9.0304677 c 0.0693,-1.22304 3.57735,-1.15293 4.53572,-0.75596 0.95837,0.39697 0.87453,0.78745 0.94494,1.32292 0.0704,0.5354703 -0.19136,1.3031303 -0.56697,1.5119103 -0.37561,0.20878 -0.53943,0.008 -0.94494,-0.18899 -0.40551,-0.19739 -0.66325,-0.77914 -1.32291,-1.1339303 -0.65966,-0.35479 -2.71511,0.4670903 -2.64584,-0.75595 z"
       id="path872"
       inkscape:connector-curvature="0"
       sodipodi:nodetypes="zzzzzzz" />
    <path
       inkscape:connector-curvature="0"
       id="path874"
       d="m 107.76769,10.410078 c -2.48358,0.11927 -4.18897,2.2686 -5.60779,4.06593 -1.15388,1.5419 -2.208706,3.16605 -3.239507,4.78529 0.234908,4.1624 0.481769,8.38402 1.857557,12.35798 1.24041,3.99212 3.36055,7.63065 5.10842,11.40969 1.49959,2.99022 3.10494,5.96677 5.1512,8.62101 0.3017,0.32564 0.59183,0.84038 1.11712,0.56805 9.38389,-1.45351 18.76216,-2.94312 28.14289,-4.41684 0.42938,-1.00415 0.72749,-2.1274 1.01061,-3.20253 -0.34779,-0.2714 -0.89402,0.20536 -1.2985,0.20515 -4.65112,1.19449 -9.50114,1.40065 -14.29267,1.30445 -3.11133,-0.0278 -6.23057,-0.7107 -8.96839,-2.22867 -4.21683,-2.18168 -7.68076,-5.75687 -9.66242,-10.07907 -2.75148,-5.62378 -2.93629,-12.48189 -0.18143,-18.13966 0.79987,-1.55988 2.01402,-3.18071 3.76773,-3.61443 0.67217,0.0398 1.44862,0.5741 2.0984,0.24106 0.28931,-0.54446 -0.59578,-0.81319 -0.95007,-1.00434 -1.2837,-0.51231 -2.66549,-0.86234 -4.05315,-0.87307 z"
       style="opacity:1;fill:#6c5353;fill-opacity:1;stroke:#6c5353;stroke-width:2.02030516;stroke-linecap:round;stroke-miterlimit:4;stroke-dasharray:none;stroke-dashoffset:0;stroke-opacity:1" />
    <g
       transform="matrix(-0.98711419,0.16001742,0.16001742,0.98711419,224.11452,-120.49781)"
       id="g880">
      <path
         style="fill:none;fill-rule:evenodd;stroke:#000000;stroke-width:2;stroke-linecap:butt;stroke-linejoin:miter;stroke-miterlimit:4;stroke-dasharray:none;stroke-opacity:1"
         d="m 100.35268,118.02827 v 4.34673 4.15774 l 0.75595,5.29166 2.07887,6.99256 1.88988,6.04762 2.07887,5.10268 1.5119,2.45684 h 30.2381 l 2.45684,-4.91369 2.07887,-5.85863 1.88988,-6.04762 1.32292,-6.61458 0.37798,-5.66964 0.37797,-5.48066 z"
         id="path876"
         inkscape:connector-curvature="0" />
      <path
         style="fill:none;fill-rule:evenodd;stroke:#000000;stroke-width:4;stroke-linecap:butt;stroke-linejoin:miter;stroke-miterlimit:4;stroke-dasharray:none;stroke-opacity:1"
         d="m 99.785714,123.31994 c -5.900352,-0.35534 -8.162069,1.97677 -7.748514,7.74851 0.583052,5.06229 6.540029,6.67546 10.96131,7.37054"
         id="path878"
         inkscape:connector-curvature="0"
         sodipodi:nodetypes="ccc" />
    </g>
    <ellipse
       transform="rotate(19.039884)"
       ry="20.045216"
       rx="8.4189901"
       cy="-0.75555664"
       cx="161.32379"
       id="ellipse882"
       style="opacity:1;fill:none;fill-opacity:1;stroke:#000000;stroke-width:4;stroke-linecap:round;stroke-miterlimit:4;stroke-dasharray:none;stroke-dashoffset:0;stroke-opacity:1" />
    <ellipse
       style="opacity:1;fill:none;fill-opacity:1;stroke:#000000;stroke-width:4;stroke-linecap:round;stroke-miterlimit:4;stroke-dasharray:none;stroke-dashoffset:0;stroke-opacity:1"
       id="ellipse884"
       cx="101.95158"
       cy="19.734175"
       rx="8.4189901"
       ry="20.045216"
       transform="rotate(19.039884)" />
    <path
       style="fill:#6c5353;fill-opacity:1;fill-rule:evenodd;stroke:#6c5353;stroke-width:0.26499999;stroke-linecap:butt;stroke-linejoin:miter;stroke-miterlimit:4;stroke-dasharray:none;stroke-opacity:1"
       d="m 144.32556,122.95028 c 0,0 3.25311,0.0576 4.54358,0.66818 1.29047,0.61055 2.63845,1.58649 2.93996,2.67269 0.30151,1.0862 -0.0177,2.0893 -0.8018,2.6727 -0.7841,0.5834 -2.36998,0.38625 -3.0736,0 -0.70362,-0.38625 -0.79647,-0.78715 -0.93545,-1.46998 -0.13898,-0.68283 0.80117,-1.45588 0.40091,-2.40543 -0.40026,-0.94955 -3.0736,-2.13816 -3.0736,-2.13816 z"
       id="path900"
       inkscape:connector-curvature="0"
       sodipodi:nodetypes="czzzzzzc" />
    <path
       sodipodi:nodetypes="czzzzzzc"
       inkscape:connector-curvature="0"
       id="path902"
       d="m 146.11069,113.5987 c 0,0 2.95558,-1.36038 4.38317,-1.37057 1.42758,-0.0102 3.06559,0.28376 3.80875,1.13136 0.74317,0.84761 0.89109,1.88984 0.438,2.75579 -0.45309,0.86596 -1.96731,1.37684 -2.76885,1.33435 -0.80154,-0.0425 -1.05923,-0.36334 -1.48086,-0.91813 -0.42165,-0.55479 0.0897,-1.65934 -0.68311,-2.34098 -0.77281,-0.68164 -3.6971,-0.59182 -3.6971,-0.59182 z"
       style="fill:#6c5353;fill-opacity:1;fill-rule:evenodd;stroke:#6c5353;stroke-width:0.26499999;stroke-linecap:butt;stroke-linejoin:miter;stroke-miterlimit:4;stroke-dasharray:none;stroke-opacity:1"
       inkscape:transform-center-x="1.5708066"
       inkscape:transform-center-y="4.7717145" />
    <path
       inkscape:transform-center-y="4.7981729"
       inkscape:transform-center-x="1.3862002"
       style="fill:#6c5353;fill-opacity:1;fill-rule:evenodd;stroke:#6c5353;stroke-width:0.26499999;stroke-linecap:butt;stroke-linejoin:miter;stroke-miterlimit:4;stroke-dasharray:none;stroke-opacity:1"
       d="m 138.64956,102.62669 c 0,0 2.89486,-1.48521 4.32072,-1.55628 1.42585,-0.0711 3.0749,0.15274 3.85355,0.96787 0.77865,0.81513 0.97089,1.85011 0.55515,2.7346 -0.41574,0.8845 -1.90679,1.4595 -2.70942,1.45124 -0.80262,-0.008 -1.07376,-0.31786 -1.51868,-0.85413 -0.44511,-0.53614 0.0188,-1.66166 -0.78233,-2.30972 -0.80118,-0.64805 -3.71899,-0.43358 -3.71899,-0.43358 z"
       id="path904"
       inkscape:connector-curvature="0"
       sodipodi:nodetypes="czzzzzzc" />
    <path
       sodipodi:nodetypes="czzzzzzc"
       inkscape:connector-curvature="0"
       id="path906"
       d="m 136.17323,131.70316 c 0,0 -0.59366,3.199 -1.40883,4.37102 -0.81514,1.17202 -2.00015,2.34046 -3.12122,2.45858 -1.12106,0.11812 -2.05773,-0.36225 -2.50373,-1.23187 -0.44601,-0.86963 0.0101,-2.40123 0.50722,-3.03146 0.49707,-0.63023 0.9078,-0.65565 1.6042,-0.68004 0.69641,-0.0244 1.30371,1.03045 2.30629,0.79237 1.00259,-0.23807 2.61607,-2.6786 2.61607,-2.6786 z"
       style="fill:#6c5353;fill-opacity:1;fill-rule:evenodd;stroke:#6c5353;stroke-width:0.26499999;stroke-linecap:butt;stroke-linejoin:miter;stroke-miterlimit:4;stroke-dasharray:none;stroke-opacity:1"
       inkscape:transform-center-x="-1.872644"
       inkscape:transform-center-y="0.77221616" />
    <path
       sodipodi:open="true"
       d="m 182.93413,128.17873 a 8.4189901,20.045216 0 0 1 -7.89454,-10.90094"
       sodipodi:end="2.6691467"
       sodipodi:start="1.5235302"
       sodipodi:ry="20.045216"
       sodipodi:rx="8.4189901"
       sodipodi:cy="108.1559"
       sodipodi:cx="182.53635"
       sodipodi:type="arc"
       transform="rotate(19.039884)"
       id="path914"
       style="opacity:1;fill:none;fill-opacity:1;stroke:#000000;stroke-width:1;stroke-linecap:round;stroke-miterlimit:4;stroke-dasharray:none;stroke-dashoffset:0;stroke-opacity:1" />
    <path
       style="opacity:1;fill:none;fill-opacity:1;stroke:#000000;stroke-width:1;stroke-linecap:round;stroke-miterlimit:4;stroke-dasharray:none;stroke-dashoffset:0;stroke-opacity:1"
       id="path916"
       transform="rotate(19.039884)"
       sodipodi:type="arc"
       sodipodi:cx="178.53464"
       sodipodi:cy="109.53687"
       sodipodi:rx="8.4189901"
       sodipodi:ry="20.045216"
       sodipodi:start="1.5235302"
       sodipodi:end="2.4289081"
       d="m 178.93242,129.5597 a 8.4189901,20.045216 0 0 1 -6.76767,-6.91592"
       sodipodi:open="true" />
    <path
       sodipodi:open="true"
       d="m 174.4305,131.11333 a 8.4189901,20.045216 0 0 1 -5.03025,-3.28495"
       sodipodi:end="2.1534481"
       sodipodi:start="1.5235302"
       sodipodi:ry="20.045216"
       sodipodi:rx="8.4189901"
       sodipodi:cy="111.0905"
       sodipodi:cx="174.03271"
       sodipodi:type="arc"
       transform="rotate(19.039884)"
       id="path918"
       style="opacity:1;fill:none;fill-opacity:1;stroke:#000000;stroke-width:1;stroke-linecap:round;stroke-miterlimit:4;stroke-dasharray:none;stroke-dashoffset:0;stroke-opacity:1" />
    <path
       style="opacity:1;fill:none;fill-opacity:1;stroke:#000000;stroke-width:1;stroke-linecap:round;stroke-miterlimit:4;stroke-dasharray:none;stroke-dashoffset:0;stroke-opacity:1"
       id="path962"
       transform="rotate(19.039884)"
       sodipodi:type="arc"
       sodipodi:cx="133.51541"
       sodipodi:cy="125.07291"
       sodipodi:rx="8.4189901"
       sodipodi:ry="20.045216"
       sodipodi:start="1.5235302"
       sodipodi:end="2.6691467"
       d="M 133.9132,145.09573 A 8.4189901,20.045216 0 0 1 126.01866,134.1948"
       sodipodi:open="true" />
    <path
       sodipodi:open="true"
       d="m 129.91149,146.47673 a 8.4189901,20.045216 0 0 1 -6.76767,-6.91592"
       sodipodi:end="2.4289081"
       sodipodi:start="1.5235302"
       sodipodi:ry="20.045216"
       sodipodi:rx="8.4189901"
       sodipodi:cy="126.4539"
       sodipodi:cx="129.5137"
       sodipodi:type="arc"
       transform="rotate(19.039884)"
       id="path964"
       style="opacity:1;fill:none;fill-opacity:1;stroke:#000000;stroke-width:1;stroke-linecap:round;stroke-miterlimit:4;stroke-dasharray:none;stroke-dashoffset:0;stroke-opacity:1" />
    <path
       style="opacity:1;fill:none;fill-opacity:1;stroke:#000000;stroke-width:1;stroke-linecap:round;stroke-miterlimit:4;stroke-dasharray:none;stroke-dashoffset:0;stroke-opacity:1"
       id="path966"
       transform="rotate(19.039884)"
       sodipodi:type="arc"
       sodipodi:cx="125.01166"
       sodipodi:cy="128.00749"
       sodipodi:rx="8.4189901"
       sodipodi:ry="20.045216"
       sodipodi:start="1.5235302"
       sodipodi:end="2.1534481"
       d="m 125.40944,148.03032 a 8.4189901,20.045216 0 0 1 -5.03025,-3.28494"
       sodipodi:open="true" />
    <g
       id="g1192"
       transform="translate(2.8881643e-6)">
      <path
         style="fill:#6c5353;fill-opacity:1;fill-rule:evenodd;stroke:#6c5353;stroke-width:0.26458332px;stroke-linecap:butt;stroke-linejoin:miter;stroke-opacity:1"
         d="m 141.65285,247.31099 c -2.67825,0.39067 -9.34999,5.28768 -14.29892,5.7463 -4.94893,0.45862 -11.16148,-0.22185 -14.43256,-2.00453 -3.27108,-1.78268 -4.26061,-4.66661 -5.34539,-7.3499 -1.08478,-2.68329 -1.16141,-6.36773 -0.4009,-9.62171 0.76051,-3.25398 2.51922,-6.05441 5.07812,-8.28536 2.5589,-2.23095 6.93238,-3.86586 9.75534,-4.27631 2.82296,-0.41045 4.51988,-0.10681 6.41447,0.80181 1.89459,0.90862 3.75674,2.81208 4.40994,4.27631 0.6532,1.46423 0.13364,3.47451 0.13364,3.47451 0,0 1.50224,-2.13786 1.73725,-4.81085 0.23501,-2.67299 -1.29793,-6.37301 -3.2883,-9.12353 -1.99037,-2.75052 -4.00186,-3.16851 -7.13521,-3.97268 -5.84752,-0.4798 -10.68093,0.22678 -15.7689,2.93996 0,0 -3.82514,5.70564 -5.61266,9.48807 -1.78752,3.78243 -3.72214,9.64624 -4.810856,13.22984 -1.088716,3.5836 -1.785361,6.34268 -2.00452,8.15172 -0.219159,1.80904 0,2.53906 0,2.53906 l 24.722426,17.10525 c 0,0 8.64181,-5.12342 11.75986,-7.34991 3.11805,-2.22649 5.30641,-3.86216 7.08265,-5.74629 1.77624,-1.88413 3.74177,-5.21176 3.74177,-5.21176 0,0 0.941,-0.39067 -1.73725,0 z"
         id="path922"
         inkscape:connector-curvature="0"
         sodipodi:nodetypes="zzzzzzzzzczzcczzzcczzcz" />
      <g
         id="g936"
         transform="rotate(25.919293,-114.71501,164.6014)">
        <g
           transform="rotate(18.059466,128.83288,151.02892)"
           id="g928">
          <path
             sodipodi:nodetypes="zzzzzzz"
             inkscape:connector-curvature="0"
             id="path924"
             d="m 113.31458,109.52381 c 0.0693,-1.22304 3.57735,-1.15293 4.53572,-0.75596 0.95837,0.39697 0.87453,0.78745 0.94494,1.32292 0.0704,0.53547 -0.19136,1.30313 -0.56697,1.51191 -0.37561,0.20878 -0.53943,0.008 -0.94494,-0.18899 -0.40551,-0.19739 -0.66325,-0.77914 -1.32291,-1.13393 -0.65966,-0.35479 -2.71511,0.46709 -2.64584,-0.75595 z"
             style="fill:#6c5353;fill-opacity:1;fill-rule:evenodd;stroke:#6c5353;stroke-width:0.26458332px;stroke-linecap:butt;stroke-linejoin:miter;stroke-opacity:1" />
          <path
             style="opacity:1;fill:#6c5353;fill-opacity:1;stroke:#6c5353;stroke-width:2.02030516;stroke-linecap:round;stroke-miterlimit:4;stroke-dasharray:none;stroke-dashoffset:0;stroke-opacity:1"
             d="m 107.76769,110.90342 c -2.48358,0.11927 -4.18897,2.2686 -5.60779,4.06593 -1.15388,1.5419 -2.208706,3.16605 -3.239507,4.78529 0.234908,4.1624 0.481769,8.38402 1.857557,12.35798 1.24041,3.99212 3.36055,7.63065 5.10842,11.40969 1.49959,2.99022 3.10494,5.96677 5.1512,8.62101 0.3017,0.32564 0.59183,0.84038 1.11712,0.56805 9.38389,-1.45351 18.76216,-2.94312 28.14289,-4.41684 0.42938,-1.00415 0.72749,-2.1274 1.01061,-3.20253 -0.34779,-0.2714 -0.89402,0.20536 -1.2985,0.20515 -4.65112,1.19449 -9.50114,1.40065 -14.29267,1.30445 -3.11133,-0.0278 -6.23057,-0.7107 -8.96839,-2.22867 -4.21683,-2.18168 -7.68076,-5.75687 -9.66242,-10.07907 -2.75148,-5.62378 -2.93629,-12.48189 -0.18143,-18.13966 0.79987,-1.55988 2.01402,-3.18071 3.76773,-3.61443 0.67217,0.0398 1.44862,0.5741 2.0984,0.24106 0.28931,-0.54446 -0.59578,-0.81319 -0.95007,-1.00434 -1.2837,-0.51231 -2.66549,-0.86234 -4.05315,-0.87307 z"
             id="path926"
             inkscape:connector-curvature="0" />
        </g>
        <g
           transform="rotate(9.2079073,138.3937,166.14682)"
           id="g934">
          <path
             style="fill:none;fill-rule:evenodd;stroke:#000000;stroke-width:2;stroke-linecap:butt;stroke-linejoin:miter;stroke-miterlimit:4;stroke-dasharray:none;stroke-opacity:1"
             d="m 100.35268,118.02827 v 4.34673 4.15774 l 0.75595,5.29166 2.07887,6.99256 1.88988,6.04762 2.07887,5.10268 1.5119,2.45684 h 30.2381 l 2.45684,-4.91369 2.07887,-5.85863 1.88988,-6.04762 1.32292,-6.61458 0.37798,-5.66964 0.37797,-5.48066 z"
             id="path930"
             inkscape:connector-curvature="0" />
          <path
             style="fill:none;fill-rule:evenodd;stroke:#000000;stroke-width:4;stroke-linecap:butt;stroke-linejoin:miter;stroke-miterlimit:4;stroke-dasharray:none;stroke-opacity:1"
             d="m 99.785714,123.31994 c -5.900352,-0.35534 -8.162069,1.97677 -7.748514,7.74851 0.583052,5.06229 6.540029,6.67546 10.96131,7.37054"
             id="path932"
             inkscape:connector-curvature="0"
             sodipodi:nodetypes="ccc" />
        </g>
      </g>
      <ellipse
         style="opacity:1;fill:none;fill-opacity:1;stroke:#000000;stroke-width:4;stroke-linecap:round;stroke-miterlimit:4;stroke-dasharray:none;stroke-dashoffset:0;stroke-opacity:1"
         id="ellipse938"
         cx="222.35257"
         cy="210.84485"
         rx="8.4189901"
         ry="20.045216"
         transform="rotate(19.039884)" />
      <ellipse
         transform="rotate(19.039884)"
         ry="20.045216"
         rx="8.4189901"
         cy="227.63547"
         cx="173.69925"
         id="ellipse940"
         style="opacity:1;fill:none;fill-opacity:1;stroke:#000000;stroke-width:4;stroke-linecap:round;stroke-miterlimit:4;stroke-dasharray:none;stroke-dashoffset:0;stroke-opacity:1" />
      <path
         style="fill:#6c5353;fill-opacity:1;fill-rule:evenodd;stroke:#6c5353;stroke-width:0.26499999;stroke-linecap:butt;stroke-linejoin:miter;stroke-miterlimit:4;stroke-dasharray:none;stroke-opacity:1"
         d="m 144.32556,233.5466 c 0,0 3.25311,0.0576 4.54358,0.66818 1.29047,0.61055 2.63845,1.58649 2.93996,2.67269 0.30151,1.0862 -0.0177,2.0893 -0.8018,2.6727 -0.7841,0.5834 -2.36998,0.38625 -3.0736,0 -0.70362,-0.38625 -0.79647,-0.78715 -0.93545,-1.46998 -0.13898,-0.68283 0.80117,-1.45588 0.40091,-2.40543 -0.40026,-0.94955 -3.0736,-2.13816 -3.0736,-2.13816 z"
         id="path942"
         inkscape:connector-curvature="0"
         sodipodi:nodetypes="czzzzzzc" />
      <path
         sodipodi:nodetypes="czzzzzzc"
         inkscape:connector-curvature="0"
         id="path944"
         d="m 146.11069,224.19502 c 0,0 2.95558,-1.36038 4.38317,-1.37057 1.42758,-0.0102 3.06559,0.28376 3.80875,1.13136 0.74317,0.84761 0.89109,1.88984 0.438,2.75579 -0.45309,0.86596 -1.96731,1.37684 -2.76885,1.33435 -0.80154,-0.0425 -1.05923,-0.36334 -1.48086,-0.91813 -0.42165,-0.55479 0.0897,-1.65934 -0.68311,-2.34098 -0.77281,-0.68164 -3.6971,-0.59182 -3.6971,-0.59182 z"
         style="fill:#6c5353;fill-opacity:1;fill-rule:evenodd;stroke:#6c5353;stroke-width:0.26499999;stroke-linecap:butt;stroke-linejoin:miter;stroke-miterlimit:4;stroke-dasharray:none;stroke-opacity:1"
         inkscape:transform-center-x="1.5708066"
         inkscape:transform-center-y="4.7717145" />
      <path
         inkscape:transform-center-y="4.7981729"
         inkscape:transform-center-x="1.3862002"
         style="fill:#6c5353;fill-opacity:1;fill-rule:evenodd;stroke:#6c5353;stroke-width:0.26499999;stroke-linecap:butt;stroke-linejoin:miter;stroke-miterlimit:4;stroke-dasharray:none;stroke-opacity:1"
         d="m 138.64956,213.22301 c 0,0 2.89486,-1.48521 4.32072,-1.55628 1.42585,-0.0711 3.0749,0.15274 3.85355,0.96787 0.77865,0.81513 0.97089,1.85011 0.55515,2.7346 -0.41574,0.8845 -1.90679,1.4595 -2.70942,1.45124 -0.80262,-0.008 -1.07376,-0.31786 -1.51868,-0.85413 -0.44511,-0.53614 0.0188,-1.66166 -0.78233,-2.30972 -0.80118,-0.64805 -3.71899,-0.43358 -3.71899,-0.43358 z"
         id="path946"
         inkscape:connector-curvature="0"
         sodipodi:nodetypes="czzzzzzc" />
      <path
         sodipodi:nodetypes="czzzzzzc"
         inkscape:connector-curvature="0"
         id="path948"
         d="m 136.17323,242.29948 c 0,0 -0.59366,3.199 -1.40883,4.37102 -0.81514,1.17202 -2.00015,2.34046 -3.12122,2.45858 -1.12106,0.11812 -2.05773,-0.36225 -2.50373,-1.23187 -0.44601,-0.86963 0.0101,-2.40123 0.50722,-3.03146 0.49707,-0.63023 0.9078,-0.65565 1.6042,-0.68004 0.69641,-0.0244 1.30371,1.03045 2.30629,0.79237 1.00259,-0.23807 2.61607,-2.6786 2.61607,-2.6786 z"
         style="fill:#6c5353;fill-opacity:1;fill-rule:evenodd;stroke:#6c5353;stroke-width:0.26499999;stroke-linecap:butt;stroke-linejoin:miter;stroke-miterlimit:4;stroke-dasharray:none;stroke-opacity:1"
         inkscape:transform-center-x="-1.872644"
         inkscape:transform-center-y="0.77221616" />
      <path
         style="opacity:1;fill:none;fill-opacity:1;stroke:#000000;stroke-width:1;stroke-linecap:round;stroke-miterlimit:4;stroke-dasharray:none;stroke-dashoffset:0;stroke-opacity:1"
         id="path950"
         transform="rotate(19.039884)"
         sodipodi:type="arc"
         sodipodi:cx="168.59344"
         sodipodi:cy="229.96297"
         sodipodi:rx="8.4189901"
         sodipodi:ry="20.045216"
         sodipodi:start="2.3187354"
         sodipodi:end="3.916812"
         d="m 162.86744,244.65796 a 8.4189901,20.045216 0 0 1 -2.6906,-14.21758 8.4189901,20.045216 0 0 1 2.40319,-14.50651"
         sodipodi:open="true" />
      <path
         sodipodi:open="true"
         d="m 157.86359,243.39342 a 8.4189901,20.045216 0 0 1 -0.76876,-21.17068"
         sodipodi:end="3.6140003"
         sodipodi:start="2.4966977"
         sodipodi:ry="20.045216"
         sodipodi:rx="8.4189901"
         sodipodi:cy="231.34395"
         sodipodi:cx="164.59174"
         sodipodi:type="arc"
         transform="rotate(19.039884)"
         id="path952"
         style="opacity:1;fill:none;fill-opacity:1;stroke:#000000;stroke-width:1;stroke-linecap:round;stroke-miterlimit:4;stroke-dasharray:none;stroke-dashoffset:0;stroke-opacity:1" />
      <path
         style="opacity:1;fill:none;fill-opacity:1;stroke:#000000;stroke-width:1;stroke-linecap:round;stroke-miterlimit:4;stroke-dasharray:none;stroke-dashoffset:0;stroke-opacity:1"
         id="path954"
         transform="rotate(19.039884)"
         sodipodi:type="arc"
         sodipodi:cx="160.08981"
         sodipodi:cy="232.89755"
         sodipodi:rx="8.4189901"
         sodipodi:ry="20.045216"
         sodipodi:start="2.6023529"
         sodipodi:end="3.256371"
         d="m 152.86548,243.19045 a 8.4189901,20.045216 0 0 1 -1.13926,-12.58861"
         sodipodi:open="true" />
      <path
         sodipodi:open="true"
         d="m 211.38822,227.91336 a 8.4189901,20.045216 0 0 1 -1.86787,-23.34948"
         sodipodi:end="3.588023"
         sodipodi:start="2.3187354"
         sodipodi:ry="20.045216"
         sodipodi:rx="8.4189901"
         sodipodi:cy="213.21837"
         sodipodi:cx="217.11423"
         sodipodi:type="arc"
         transform="rotate(19.039884)"
         id="path968"
         style="opacity:1;fill:none;fill-opacity:1;stroke:#000000;stroke-width:1;stroke-linecap:round;stroke-miterlimit:4;stroke-dasharray:none;stroke-dashoffset:0;stroke-opacity:1" />
      <path
         style="opacity:1;fill:none;fill-opacity:1;stroke:#000000;stroke-width:1;stroke-linecap:round;stroke-miterlimit:4;stroke-dasharray:none;stroke-dashoffset:0;stroke-opacity:1"
         id="path970"
         transform="rotate(19.039884)"
         sodipodi:type="arc"
         sodipodi:cx="213.11252"
         sodipodi:cy="214.59935"
         sodipodi:rx="8.4189901"
         sodipodi:ry="20.045216"
         sodipodi:start="2.4966977"
         sodipodi:end="3.3436185"
         d="m 206.38437,226.64882 a 8.4189901,20.045216 0 0 1 -1.51962,-16.07163"
         sodipodi:open="true" />
      <path
         sodipodi:open="true"
         d="m 201.38627,226.44585 a 8.4189901,20.045216 0 0 1 -1.18209,-9.19784"
         sodipodi:end="3.0869363"
         sodipodi:start="2.6023529"
         sodipodi:ry="20.045216"
         sodipodi:rx="8.4189901"
         sodipodi:cy="216.15295"
         sodipodi:cx="208.6106"
         sodipodi:type="arc"
         transform="rotate(19.039884)"
         id="path972"
         style="opacity:1;fill:none;fill-opacity:1;stroke:#000000;stroke-width:1;stroke-linecap:round;stroke-miterlimit:4;stroke-dasharray:none;stroke-dashoffset:0;stroke-opacity:1" />
    </g>
    <g
       id="g1085"
       transform="matrix(-1,0,0,1,615.71113,-207.05537)">
      <g
         transform="matrix(-1,0,0,1,658.04446,0)"
         id="g1062">
        <path
           style="fill:#6c5353;fill-opacity:1;fill-rule:evenodd;stroke:#6c5353;stroke-width:0.26458332px;stroke-linecap:butt;stroke-linejoin:miter;stroke-opacity:1"
           d="m 342.63953,247.31099 c -2.67825,0.39067 -9.34999,5.28768 -14.29892,5.7463 -4.94893,0.45862 -11.16148,-0.22185 -14.43256,-2.00453 -3.27108,-1.78268 -4.26061,-4.66661 -5.34539,-7.3499 -1.08478,-2.68329 -1.16141,-6.36773 -0.4009,-9.62171 0.76051,-3.25398 2.51922,-6.05441 5.07812,-8.28536 2.5589,-2.23095 6.93238,-3.86586 9.75534,-4.27631 2.82296,-0.41045 4.51988,-0.10681 6.41447,0.80181 1.89459,0.90862 3.75674,2.81208 4.40994,4.27631 0.6532,1.46423 0.13364,3.47451 0.13364,3.47451 0,0 1.50224,-2.13786 1.73725,-4.81085 0.23501,-2.67299 -1.29793,-6.37301 -3.2883,-9.12353 -1.99037,-2.75052 -4.00186,-3.16851 -7.13521,-3.97268 -5.84752,-0.4798 -10.68093,0.22678 -15.7689,2.93996 0,0 -3.82514,5.70564 -5.61266,9.48807 -1.78752,3.78243 -3.72214,9.64624 -4.81085,13.22984 -1.08872,3.5836 -1.78536,6.34268 -2.00452,8.15172 -0.21916,1.80904 0,2.53906 0,2.53906 l 24.72242,17.10525 c 0,0 8.64181,-5.12342 11.75986,-7.34991 3.11805,-2.22649 5.30641,-3.86216 7.08265,-5.74629 1.77624,-1.88413 3.74177,-5.21176 3.74177,-5.21176 0,0 0.941,-0.39067 -1.73725,0 z"
           id="path974"
           inkscape:connector-curvature="0"
           sodipodi:nodetypes="zzzzzzzzzczzcczzzcczzcz" />
        <g
           id="g988"
           transform="rotate(25.919293,-14.221668,601.28885)">
          <g
             transform="rotate(18.059466,128.83288,151.02892)"
             id="g980">
            <path
               sodipodi:nodetypes="zzzzzzz"
               inkscape:connector-curvature="0"
               id="path976"
               d="m 113.31458,109.52381 c 0.0693,-1.22304 3.57735,-1.15293 4.53572,-0.75596 0.95837,0.39697 0.87453,0.78745 0.94494,1.32292 0.0704,0.53547 -0.19136,1.30313 -0.56697,1.51191 -0.37561,0.20878 -0.53943,0.008 -0.94494,-0.18899 -0.40551,-0.19739 -0.66325,-0.77914 -1.32291,-1.13393 -0.65966,-0.35479 -2.71511,0.46709 -2.64584,-0.75595 z"
               style="fill:#6c5353;fill-opacity:1;fill-rule:evenodd;stroke:#6c5353;stroke-width:0.26458332px;stroke-linecap:butt;stroke-linejoin:miter;stroke-opacity:1" />
            <path
               style="opacity:1;fill:#6c5353;fill-opacity:1;stroke:#6c5353;stroke-width:2.02030516;stroke-linecap:round;stroke-miterlimit:4;stroke-dasharray:none;stroke-dashoffset:0;stroke-opacity:1"
               d="m 107.76769,110.90342 c -2.48358,0.11927 -4.18897,2.2686 -5.60779,4.06593 -1.15388,1.5419 -2.208706,3.16605 -3.239507,4.78529 0.234908,4.1624 0.481769,8.38402 1.857557,12.35798 1.24041,3.99212 3.36055,7.63065 5.10842,11.40969 1.49959,2.99022 3.10494,5.96677 5.1512,8.62101 0.3017,0.32564 0.59183,0.84038 1.11712,0.56805 9.38389,-1.45351 18.76216,-2.94312 28.14289,-4.41684 0.42938,-1.00415 0.72749,-2.1274 1.01061,-3.20253 -0.34779,-0.2714 -0.89402,0.20536 -1.2985,0.20515 -4.65112,1.19449 -9.50114,1.40065 -14.29267,1.30445 -3.11133,-0.0278 -6.23057,-0.7107 -8.96839,-2.22867 -4.21683,-2.18168 -7.68076,-5.75687 -9.66242,-10.07907 -2.75148,-5.62378 -2.93629,-12.48189 -0.18143,-18.13966 0.79987,-1.55988 2.01402,-3.18071 3.76773,-3.61443 0.67217,0.0398 1.44862,0.5741 2.0984,0.24106 0.28931,-0.54446 -0.59578,-0.81319 -0.95007,-1.00434 -1.2837,-0.51231 -2.66549,-0.86234 -4.05315,-0.87307 z"
               id="path978"
               inkscape:connector-curvature="0" />
          </g>
          <g
             transform="rotate(9.2079073,138.3937,166.14682)"
             id="g986">
            <path
               style="fill:none;fill-rule:evenodd;stroke:#000000;stroke-width:2;stroke-linecap:butt;stroke-linejoin:miter;stroke-miterlimit:4;stroke-dasharray:none;stroke-opacity:1"
               d="m 100.35268,118.02827 v 4.34673 4.15774 l 0.75595,5.29166 2.07887,6.99256 1.88988,6.04762 2.07887,5.10268 1.5119,2.45684 h 30.2381 l 2.45684,-4.91369 2.07887,-5.85863 1.88988,-6.04762 1.32292,-6.61458 0.37798,-5.66964 0.37797,-5.48066 z"
               id="path982"
               inkscape:connector-curvature="0" />
            <path
               style="fill:none;fill-rule:evenodd;stroke:#000000;stroke-width:4;stroke-linecap:butt;stroke-linejoin:miter;stroke-miterlimit:4;stroke-dasharray:none;stroke-opacity:1"
               d="m 99.785714,123.31994 c -5.900352,-0.35534 -8.162069,1.97677 -7.748514,7.74851 0.583052,5.06229 6.540029,6.67546 10.96131,7.37054"
               id="path984"
               inkscape:connector-curvature="0"
               sodipodi:nodetypes="ccc" />
          </g>
        </g>
        <ellipse
           style="opacity:1;fill:none;fill-opacity:1;stroke:#000000;stroke-width:4;stroke-linecap:round;stroke-miterlimit:4;stroke-dasharray:none;stroke-dashoffset:0;stroke-opacity:1"
           id="ellipse990"
           cx="412.34363"
           cy="145.27771"
           rx="8.4189901"
           ry="20.045216"
           transform="rotate(19.039884)" />
        <ellipse
           transform="rotate(19.039884)"
           ry="20.045216"
           rx="8.4189901"
           cy="162.06833"
           cx="363.69031"
           id="ellipse992"
           style="opacity:1;fill:none;fill-opacity:1;stroke:#000000;stroke-width:4;stroke-linecap:round;stroke-miterlimit:4;stroke-dasharray:none;stroke-dashoffset:0;stroke-opacity:1" />
        <text
           id="text1020"
           y="243.54962"
           x="320.44675"
           style="font-style:italic;font-variant:normal;font-weight:normal;font-stretch:normal;font-size:15.23991776px;line-height:125%;font-family:'Times New Roman';-inkscape-font-specification:'Times New Roman, Italic';font-variant-ligatures:normal;font-variant-caps:normal;font-variant-numeric:normal;text-align:center;letter-spacing:0px;word-spacing:0px;writing-mode:lr-tb;text-anchor:middle;fill:#000000;fill-opacity:1;stroke:none;stroke-width:0.50799721px;stroke-linecap:butt;stroke-linejoin:miter;stroke-opacity:1"
           xml:space="preserve"><tspan
             style="stroke-width:0.50799721px"
             y="243.54962"
             x="320.44675"
             id="tspan1018"
             sodipodi:role="line">afe</tspan></text>
        <text
           xml:space="preserve"
           style="font-style:italic;font-variant:normal;font-weight:normal;font-stretch:normal;font-size:15.23991776px;line-height:125%;font-family:'Times New Roman';-inkscape-font-specification:'Times New Roman, Italic';font-variant-ligatures:normal;font-variant-caps:normal;font-variant-numeric:normal;text-align:center;letter-spacing:0px;word-spacing:0px;writing-mode:lr-tb;text-anchor:middle;fill:#000000;fill-opacity:1;stroke:none;stroke-width:0.50799721px;stroke-linecap:butt;stroke-linejoin:miter;stroke-opacity:1"
           x="359.75626"
           y="232.96628"
           id="text1024"><tspan
             sodipodi:role="line"
             id="tspan1022"
             x="359.75626"
             y="232.96628"
             style="stroke-width:0.50799721px">Veloce</tspan></text>
        <path
           style="fill:none;fill-rule:evenodd;stroke:#000000;stroke-width:0.26458332px;stroke-linecap:butt;stroke-linejoin:miter;stroke-opacity:0.51470588"
           d="m 341.61342,224.25012 c -0.59523,8.48361 -0.60184,8.57788 -0.60184,8.57788"
           id="path1026"
           inkscape:connector-curvature="0" />
        <path
           style="fill:none;fill-rule:evenodd;stroke:#000000;stroke-width:0.26458332px;stroke-linecap:butt;stroke-linejoin:miter;stroke-opacity:0.51470588"
           d="m 347.17114,224.42857 -2.59861,3.82701"
           id="path1032"
           inkscape:connector-curvature="0" />
        <path
           inkscape:connector-curvature="0"
           id="path1034"
           d="m 346.1128,224.42857 -2.59861,3.82701"
           style="fill:none;fill-rule:evenodd;stroke:#000000;stroke-width:0.26458332px;stroke-linecap:butt;stroke-linejoin:miter;stroke-opacity:0.51470588" />
        <path
           style="fill:none;fill-rule:evenodd;stroke:#000000;stroke-width:0.26458332px;stroke-linecap:butt;stroke-linejoin:miter;stroke-opacity:0.51470588"
           d="m 345.05446,224.42857 -1.60642,2.4096"
           id="path1036"
           inkscape:connector-curvature="0"
           sodipodi:nodetypes="cc" />
        <path
           inkscape:connector-curvature="0"
           id="path1038"
           d="m 340.55508,224.25012 c -0.59523,8.48361 -0.60184,8.57788 -0.60184,8.57788"
           style="fill:none;fill-rule:evenodd;stroke:#000000;stroke-width:0.26458332px;stroke-linecap:butt;stroke-linejoin:miter;stroke-opacity:0.51470588" />
        <path
           style="fill:none;fill-rule:evenodd;stroke:#000000;stroke-width:0.26458332px;stroke-linecap:butt;stroke-linejoin:miter;stroke-opacity:0.51470588"
           d="m 339.49674,224.25012 c -0.59523,8.48361 -0.60184,8.57788 -0.60184,8.57788"
           id="path1040"
           inkscape:connector-curvature="0" />
      </g>
    </g>
    <path
       sodipodi:nodetypes="zzzzzzzzzczzcczzzcczzcz"
       inkscape:connector-curvature="0"
       id="path1087"
       d="m 271.5597,155.38756 c 2.67825,0.39067 9.34999,5.28768 14.29892,5.7463 4.94893,0.45862 11.16148,-0.22185 14.43256,-2.00453 3.27108,-1.78268 4.26061,-4.66661 5.34539,-7.3499 1.08478,-2.68329 1.16141,-6.36773 0.4009,-9.62171 -0.76051,-3.25398 -2.51922,-6.05441 -5.07812,-8.28536 -2.5589,-2.23095 -6.93238,-3.86586 -9.75534,-4.27631 -2.82296,-0.41045 -4.51988,-0.10681 -6.41447,0.80181 -1.89459,0.90862 -3.75674,2.81208 -4.40994,4.27631 -0.6532,1.46423 -0.13364,3.47451 -0.13364,3.47451 0,0 -1.50224,-2.13786 -1.73725,-4.81085 -0.23501,-2.67299 1.29793,-6.37301 3.2883,-9.12353 1.99037,-2.75052 4.00186,-3.16851 7.13521,-3.97268 5.84752,-0.4798 10.68093,0.22678 15.7689,2.93996 0,0 3.82514,5.70564 5.61266,9.48807 1.78752,3.78243 3.72214,9.64624 4.81085,13.22984 1.08872,3.5836 1.78536,6.34268 2.00452,8.15172 0.21916,1.80904 0,2.53906 0,2.53906 l -24.72242,17.10525 c 0,0 -8.64181,-5.12342 -11.75986,-7.34991 -3.11805,-2.22649 -5.30641,-3.86216 -7.08265,-5.74629 -1.77624,-1.88413 -3.74177,-5.21176 -3.74177,-5.21176 0,0 -0.941,-0.39067 1.73725,0 z"
       style="fill:#6c5353;fill-opacity:1;fill-rule:evenodd;stroke:#6c5353;stroke-width:0.26458332px;stroke-linecap:butt;stroke-linejoin:miter;stroke-opacity:1" />
    <g
       transform="matrix(-0.89941065,0.43710467,0.43710467,0.89941065,352.80361,-25.223811)"
       id="g1101">
      <g
         id="g1093"
         transform="rotate(18.059466,128.83288,151.02892)">
        <path
           style="fill:#6c5353;fill-opacity:1;fill-rule:evenodd;stroke:#6c5353;stroke-width:0.26458332px;stroke-linecap:butt;stroke-linejoin:miter;stroke-opacity:1"
           d="m 113.31458,109.52381 c 0.0693,-1.22304 3.57735,-1.15293 4.53572,-0.75596 0.95837,0.39697 0.87453,0.78745 0.94494,1.32292 0.0704,0.53547 -0.19136,1.30313 -0.56697,1.51191 -0.37561,0.20878 -0.53943,0.008 -0.94494,-0.18899 -0.40551,-0.19739 -0.66325,-0.77914 -1.32291,-1.13393 -0.65966,-0.35479 -2.71511,0.46709 -2.64584,-0.75595 z"
           id="path1089"
           inkscape:connector-curvature="0"
           sodipodi:nodetypes="zzzzzzz" />
        <path
           inkscape:connector-curvature="0"
           id="path1091"
           d="m 107.76769,110.90342 c -2.48358,0.11927 -4.18897,2.2686 -5.60779,4.06593 -1.15388,1.5419 -2.208706,3.16605 -3.239507,4.78529 0.234908,4.1624 0.481769,8.38402 1.857557,12.35798 1.24041,3.99212 3.36055,7.63065 5.10842,11.40969 1.49959,2.99022 3.10494,5.96677 5.1512,8.62101 0.3017,0.32564 0.59183,0.84038 1.11712,0.56805 9.38389,-1.45351 18.76216,-2.94312 28.14289,-4.41684 0.42938,-1.00415 0.72749,-2.1274 1.01061,-3.20253 -0.34779,-0.2714 -0.89402,0.20536 -1.2985,0.20515 -4.65112,1.19449 -9.50114,1.40065 -14.29267,1.30445 -3.11133,-0.0278 -6.23057,-0.7107 -8.96839,-2.22867 -4.21683,-2.18168 -7.68076,-5.75687 -9.66242,-10.07907 -2.75148,-5.62378 -2.93629,-12.48189 -0.18143,-18.13966 0.79987,-1.55988 2.01402,-3.18071 3.76773,-3.61443 0.67217,0.0398 1.44862,0.5741 2.0984,0.24106 0.28931,-0.54446 -0.59578,-0.81319 -0.95007,-1.00434 -1.2837,-0.51231 -2.66549,-0.86234 -4.05315,-0.87307 z"
           style="opacity:1;fill:#6c5353;fill-opacity:1;stroke:#6c5353;stroke-width:2.02030516;stroke-linecap:round;stroke-miterlimit:4;stroke-dasharray:none;stroke-dashoffset:0;stroke-opacity:1" />
      </g>
      <g
         id="g1099"
         transform="rotate(9.2079073,138.3937,166.14682)">
        <path
           inkscape:connector-curvature="0"
           id="path1095"
           d="m 100.35268,118.02827 v 4.34673 4.15774 l 0.75595,5.29166 2.07887,6.99256 1.88988,6.04762 2.07887,5.10268 1.5119,2.45684 h 30.2381 l 2.45684,-4.91369 2.07887,-5.85863 1.88988,-6.04762 1.32292,-6.61458 0.37798,-5.66964 0.37797,-5.48066 z"
           style="fill:none;fill-rule:evenodd;stroke:#000000;stroke-width:2;stroke-linecap:butt;stroke-linejoin:miter;stroke-miterlimit:4;stroke-dasharray:none;stroke-opacity:1" />
        <path
           sodipodi:nodetypes="ccc"
           inkscape:connector-curvature="0"
           id="path1097"
           d="m 99.785714,123.31994 c -5.900352,-0.35534 -8.162069,1.97677 -7.748514,7.74851 0.583052,5.06229 6.540029,6.67546 10.96131,7.37054"
           style="fill:none;fill-rule:evenodd;stroke:#000000;stroke-width:4;stroke-linecap:butt;stroke-linejoin:miter;stroke-miterlimit:4;stroke-dasharray:none;stroke-opacity:1" />
      </g>
    </g>
    <ellipse
       transform="matrix(-0.94529172,0.32622626,0.32622626,0.94529172,0,0)"
       ry="20.045216"
       rx="8.4189901"
       cy="258.75116"
       cx="-198.24164"
       id="ellipse1103"
       style="opacity:1;fill:none;fill-opacity:1;stroke:#000000;stroke-width:4;stroke-linecap:round;stroke-miterlimit:4;stroke-dasharray:none;stroke-dashoffset:0;stroke-opacity:1" />
    <ellipse
       style="opacity:1;fill:none;fill-opacity:1;stroke:#000000;stroke-width:4;stroke-linecap:round;stroke-miterlimit:4;stroke-dasharray:none;stroke-dashoffset:0;stroke-opacity:1"
       id="ellipse1105"
       cx="-246.89496"
       cy="275.54178"
       rx="8.4189901"
       ry="20.045216"
       transform="matrix(-0.94529172,0.32622626,0.32622626,0.94529172,0,0)" />
    <g
       id="g1320"
       transform="rotate(-33.138852,528.16357,332.83181)">
      <path
         sodipodi:nodetypes="cscccccc"
         inkscape:connector-curvature="0"
         id="path1312"
         d="m 494.58183,163.4799 c 0,0 2.81099,13.90237 9.26043,22.77307 5.95339,8.18841 16.18811,17.8566 16.18811,17.8566 l -12.78634,7.08983 -25.70236,-17.00893 6.0476,-19.65476 3.02382,-6.04762 z"
         style="fill:#4d3c00;fill-opacity:1;fill-rule:evenodd;stroke:#4d3c00;stroke-width:0.26458332px;stroke-linecap:butt;stroke-linejoin:miter;stroke-opacity:1" />
      <g
         transform="rotate(35.1272,228.73494,763.48207)"
         id="g1206">
        <path
           style="fill:none;fill-rule:evenodd;stroke:#000000;stroke-width:2;stroke-linecap:butt;stroke-linejoin:miter;stroke-miterlimit:4;stroke-dasharray:none;stroke-opacity:1"
           d="m 100.35268,118.02827 v 4.34673 4.15774 l 0.75595,5.29166 2.07887,6.99256 1.88988,6.04762 2.07887,5.10268 1.5119,2.45684 h 30.2381 l 2.45684,-4.91369 2.07887,-5.85863 1.88988,-6.04762 1.32292,-6.61458 0.37798,-5.66964 0.37797,-5.48066 z"
           id="path1202"
           inkscape:connector-curvature="0" />
        <path
           style="fill:none;fill-rule:evenodd;stroke:#000000;stroke-width:4;stroke-linecap:butt;stroke-linejoin:miter;stroke-miterlimit:4;stroke-dasharray:none;stroke-opacity:1"
           d="m 99.785714,123.31994 c -5.900352,-0.35534 -8.162069,1.97677 -7.748514,7.74851 0.583052,5.06229 6.540029,6.67546 10.96131,7.37054"
           id="path1204"
           inkscape:connector-curvature="0"
           sodipodi:nodetypes="ccc" />
      </g>
    </g>
    <ellipse
       style="opacity:1;fill:none;fill-opacity:1;stroke:#000000;stroke-width:4;stroke-linecap:round;stroke-miterlimit:4;stroke-dasharray:none;stroke-dashoffset:0;stroke-opacity:1"
       id="ellipse1210"
       cx="518.47668"
       cy="101.4532"
       rx="8.4189901"
       ry="20.045216"
       transform="rotate(19.039884)" />
    <ellipse
       transform="rotate(19.039884)"
       ry="20.045216"
       rx="8.4189901"
       cy="118.24382"
       cx="469.82339"
       id="ellipse1212"
       style="opacity:1;fill:none;fill-opacity:1;stroke:#000000;stroke-width:4;stroke-linecap:round;stroke-miterlimit:4;stroke-dasharray:none;stroke-dashoffset:0;stroke-opacity:1" />
    <g
       id="g1310"
       transform="translate(36.285714,-97.517857)">
      <path
         sodipodi:nodetypes="zzzzzzzzzczzcczzzcczzcz"
         inkscape:connector-curvature="0"
         id="path1194"
         d="m 457.26298,240.50741 c -2.67825,0.39067 -9.34999,5.28768 -14.29892,5.7463 -4.94893,0.45862 -11.16148,-0.22185 -14.43256,-2.00453 -3.27108,-1.78268 -4.26061,-4.66661 -5.34539,-7.3499 -1.08478,-2.68329 -1.16141,-6.36773 -0.4009,-9.62171 0.76051,-3.25398 2.51922,-6.05441 5.07812,-8.28536 2.5589,-2.23095 6.93238,-3.86586 9.75534,-4.27631 2.82296,-0.41045 4.51988,-0.10681 6.41447,0.80181 1.89459,0.90862 3.75674,2.81208 4.40994,4.27631 0.6532,1.46423 0.13364,3.47451 0.13364,3.47451 0,0 1.50224,-2.13786 1.73725,-4.81085 0.23501,-2.67299 -1.29793,-6.37301 -3.2883,-9.12353 -1.99037,-2.75052 -4.00186,-3.16851 -7.13521,-3.97268 -5.84752,-0.4798 -10.68093,0.22678 -15.7689,2.93996 0,0 -3.82514,5.70564 -5.61266,9.48807 -1.78752,3.78243 -3.72214,9.64624 -4.81086,13.22984 -1.08871,3.5836 -1.78536,6.34268 -2.00452,8.15172 -0.21915,1.80904 0,2.53906 0,2.53906 l 24.72243,17.10525 c 0,0 8.64181,-5.12342 11.75986,-7.34991 3.11805,-2.22649 5.30641,-3.86216 7.08265,-5.74629 1.77624,-1.88413 3.74177,-5.21176 3.74177,-5.21176 0,0 0.941,-0.39067 -1.73725,0 z"
         style="fill:#4d3c00;fill-opacity:1;fill-rule:evenodd;stroke:#6c5353;stroke-width:0.26458332px;stroke-linecap:butt;stroke-linejoin:miter;stroke-opacity:1" />
      <path
         sodipodi:nodetypes="czzzzzzc"
         inkscape:connector-curvature="0"
         id="path1214"
         d="m 459.93569,226.74302 c 0,0 3.25311,0.0576 4.54358,0.66818 1.29047,0.61055 2.63845,1.58649 2.93996,2.67269 0.30151,1.0862 -0.0177,2.0893 -0.8018,2.6727 -0.7841,0.5834 -2.36998,0.38625 -3.0736,0 -0.70362,-0.38625 -0.79647,-0.78715 -0.93545,-1.46998 -0.13898,-0.68283 0.80117,-1.45588 0.40091,-2.40543 -0.40026,-0.94955 -3.0736,-2.13816 -3.0736,-2.13816 z"
         style="fill:#4d3c00;fill-opacity:1;fill-rule:evenodd;stroke:#6c5353;stroke-width:0.26499999;stroke-linecap:butt;stroke-linejoin:miter;stroke-miterlimit:4;stroke-dasharray:none;stroke-opacity:1" />
      <path
         inkscape:transform-center-y="4.7270576"
         inkscape:transform-center-x="2.3670653"
         style="fill:#4d3c00;fill-opacity:1;fill-rule:evenodd;stroke:#6c5353;stroke-width:0.32377836;stroke-linecap:butt;stroke-linejoin:miter;stroke-miterlimit:4;stroke-dasharray:none;stroke-opacity:1"
         d="m 457.18151,217.40306 c 0,0 4.45379,-1.34765 6.60505,-1.35774 2.15123,-0.0101 4.61957,0.2811 5.73945,1.12077 1.11989,0.83967 1.34279,1.87215 0.66003,2.72999 -0.68277,0.85786 -2.96457,1.36396 -4.17242,1.32187 -1.20785,-0.0421 -1.59616,-0.35994 -2.23152,-0.90954 -0.63539,-0.5496 0.13517,-1.64381 -1.02939,-2.31907 -1.16456,-0.67526 -5.5712,-0.58628 -5.5712,-0.58628 z"
         id="path1216"
         inkscape:connector-curvature="0"
         sodipodi:nodetypes="czzzzzzc" />
      <path
         sodipodi:nodetypes="czzzzzzc"
         inkscape:connector-curvature="0"
         id="path1218"
         d="m 443.76284,204.02846 c 0,0 6.26524,-1.66551 9.35118,-1.7452 3.0859,-0.0797 6.6549,0.17128 8.34011,1.08537 1.68519,0.91408 2.10125,2.0747 1.20149,3.06656 -0.89978,0.99188 -4.1268,1.63669 -5.86391,1.62743 -1.73708,-0.009 -2.3239,-0.35645 -3.28683,-0.95783 -0.96333,-0.60122 0.0408,-1.86338 -1.69316,-2.59011 -1.73396,-0.72672 -8.04888,-0.48622 -8.04888,-0.48622 z"
         style="fill:#4d3c00;fill-opacity:1;fill-rule:evenodd;stroke:#6c5353;stroke-width:0.41283906;stroke-linecap:butt;stroke-linejoin:miter;stroke-miterlimit:4;stroke-dasharray:none;stroke-opacity:1"
         inkscape:transform-center-x="3.0001033"
         inkscape:transform-center-y="5.3806658" />
    </g>
    <path
       style="opacity:1;fill:none;fill-opacity:1;stroke:#000000;stroke-width:1;stroke-linecap:round;stroke-miterlimit:4;stroke-dasharray:none;stroke-dashoffset:0;stroke-opacity:1"
       id="path1222"
       transform="rotate(19.039884)"
       sodipodi:type="arc"
       sodipodi:cx="464.71759"
       sodipodi:cy="120.5713"
       sodipodi:rx="8.4189901"
       sodipodi:ry="20.045216"
       sodipodi:start="2.3187354"
       sodipodi:end="3.916812"
       d="m 458.99159,135.26629 a 8.4189901,20.045216 0 0 1 -2.6906,-14.21758 8.4189901,20.045216 0 0 1 2.40319,-14.50651"
       sodipodi:open="true" />
    <path
       sodipodi:open="true"
       d="m 453.98774,134.00176 a 8.4189901,20.045216 0 0 1 -0.76876,-21.17067"
       sodipodi:end="3.6140003"
       sodipodi:start="2.4966977"
       sodipodi:ry="20.045216"
       sodipodi:rx="8.4189901"
       sodipodi:cy="121.95229"
       sodipodi:cx="460.71588"
       sodipodi:type="arc"
       transform="rotate(19.039884)"
       id="path1224"
       style="opacity:1;fill:none;fill-opacity:1;stroke:#000000;stroke-width:1;stroke-linecap:round;stroke-miterlimit:4;stroke-dasharray:none;stroke-dashoffset:0;stroke-opacity:1" />
    <path
       style="opacity:1;fill:none;fill-opacity:1;stroke:#000000;stroke-width:1;stroke-linecap:round;stroke-miterlimit:4;stroke-dasharray:none;stroke-dashoffset:0;stroke-opacity:1"
       id="path1226"
       transform="rotate(19.039884)"
       sodipodi:type="arc"
       sodipodi:cx="456.21396"
       sodipodi:cy="123.50591"
       sodipodi:rx="8.4189901"
       sodipodi:ry="20.045216"
       sodipodi:start="2.6023529"
       sodipodi:end="3.256371"
       d="M 448.98963,133.79881 A 8.4189901,20.045216 0 0 1 447.85036,121.2102"
       sodipodi:open="true" />
    <path
       sodipodi:open="true"
       d="M 507.51234,118.5217 A 8.4189901,20.045216 0 0 1 505.64446,95.172222"
       sodipodi:end="3.588023"
       sodipodi:start="2.3187354"
       sodipodi:ry="20.045216"
       sodipodi:rx="8.4189901"
       sodipodi:cy="103.82671"
       sodipodi:cx="513.23834"
       sodipodi:type="arc"
       transform="rotate(19.039884)"
       id="path1228"
       style="opacity:1;fill:none;fill-opacity:1;stroke:#000000;stroke-width:1;stroke-linecap:round;stroke-miterlimit:4;stroke-dasharray:none;stroke-dashoffset:0;stroke-opacity:1" />
    <path
       style="opacity:1;fill:none;fill-opacity:1;stroke:#000000;stroke-width:1;stroke-linecap:round;stroke-miterlimit:4;stroke-dasharray:none;stroke-dashoffset:0;stroke-opacity:1"
       id="path1230"
       transform="rotate(19.039884)"
       sodipodi:type="arc"
       sodipodi:cx="509.23666"
       sodipodi:cy="105.20769"
       sodipodi:rx="8.4189901"
       sodipodi:ry="20.045216"
       sodipodi:start="2.4966977"
       sodipodi:end="3.3436185"
       d="M 502.50852,117.25716 A 8.4189901,20.045216 0 0 1 500.9889,101.18553"
       sodipodi:open="true" />
    <path
       sodipodi:open="true"
       d="m 497.51041,117.0542 a 8.4189901,20.045216 0 0 1 -1.18209,-9.19784"
       sodipodi:end="3.0869363"
       sodipodi:start="2.6023529"
       sodipodi:ry="20.045216"
       sodipodi:rx="8.4189901"
       sodipodi:cy="106.76131"
       sodipodi:cx="504.73474"
       sodipodi:type="arc"
       transform="rotate(19.039884)"
       id="path1232"
       style="opacity:1;fill:none;fill-opacity:1;stroke:#000000;stroke-width:1;stroke-linecap:round;stroke-miterlimit:4;stroke-dasharray:none;stroke-dashoffset:0;stroke-opacity:1" />
    <rect
       style="opacity:1;fill:#b3b3b3;fill-opacity:1;stroke:#000000;stroke-width:1;stroke-linecap:round;stroke-miterlimit:4;stroke-dasharray:none;stroke-dashoffset:0;stroke-opacity:1"
       id="rect1314"
       width="50.270832"
       height="6.4255953"
       x="304.39783"
       y="371.01724"
       transform="rotate(-17.947224)" />
    <path
       style="fill:none;fill-rule:evenodd;stroke:#000000;stroke-width:1;stroke-linecap:butt;stroke-linejoin:miter;stroke-miterlimit:4;stroke-dasharray:none;stroke-opacity:1"
       d="m 449.63902,236.18775 c 6.80357,25.32441 9.07145,27.97025 9.07145,27.97025"
       id="path1324"
       inkscape:connector-curvature="0" />
  </g>
</svg>
