%TF.GenerationSoftware,KiCad,Pcbnew,5.1.9-73d0e3b20d~88~ubuntu20.04.1*%
%TF.CreationDate,2021-09-23T17:55:38+05:30*%
%TF.ProjectId,veloce,76656c6f-6365-42e6-9b69-6361645f7063,rev?*%
%TF.SameCoordinates,Original*%
%TF.FileFunction,Soldermask,Bot*%
%TF.FilePolarity,Negative*%
%FSLAX46Y46*%
G04 Gerber Fmt 4.6, Leading zero omitted, Abs format (unit mm)*
G04 Created by KiCad (PCBNEW 5.1.9-73d0e3b20d~88~ubuntu20.04.1) date 2021-09-23 17:55:38*
%MOMM*%
%LPD*%
G01*
G04 APERTURE LIST*
%ADD10C,0.100000*%
%ADD11R,1.600000X1.600000*%
%ADD12O,1.800000X2.600000*%
%ADD13O,2.600000X1.800000*%
%ADD14C,3.800000*%
%ADD15C,0.800000*%
%ADD16C,6.400000*%
%ADD17O,1.600000X1.600000*%
%ADD18C,1.600000*%
%ADD19C,2.600000*%
%ADD20R,2.600000X2.600000*%
%ADD21C,0.650000*%
%ADD22O,1.108000X2.516000*%
%ADD23O,1.108000X2.216000*%
%ADD24C,3.300000*%
G04 APERTURE END LIST*
D10*
%TO.C,JP1*%
G36*
X219969509Y-139651921D02*
G01*
X219988268Y-139657612D01*
X220005557Y-139666853D01*
X220020711Y-139679289D01*
X220033147Y-139694443D01*
X220042388Y-139711732D01*
X220048079Y-139730491D01*
X220050000Y-139750000D01*
X220050000Y-141250000D01*
X220048079Y-141269509D01*
X220042388Y-141288268D01*
X220033147Y-141305557D01*
X220020711Y-141320711D01*
X220005557Y-141333147D01*
X219988268Y-141342388D01*
X219969509Y-141348079D01*
X219950000Y-141350000D01*
X219400000Y-141350000D01*
X219393886Y-141349398D01*
X219375466Y-141349398D01*
X219365663Y-141348916D01*
X219316832Y-141344106D01*
X219307127Y-141342667D01*
X219259002Y-141333095D01*
X219249481Y-141330710D01*
X219202526Y-141316466D01*
X219193288Y-141313160D01*
X219147955Y-141294383D01*
X219139081Y-141290186D01*
X219095808Y-141267055D01*
X219087393Y-141262012D01*
X219046594Y-141234752D01*
X219038710Y-141228905D01*
X219000781Y-141197777D01*
X218993510Y-141191187D01*
X218958813Y-141156490D01*
X218952223Y-141149219D01*
X218921095Y-141111290D01*
X218915248Y-141103406D01*
X218887988Y-141062607D01*
X218882945Y-141054192D01*
X218859814Y-141010919D01*
X218855617Y-141002045D01*
X218836840Y-140956712D01*
X218833534Y-140947474D01*
X218819290Y-140900519D01*
X218816905Y-140890998D01*
X218807333Y-140842873D01*
X218805894Y-140833168D01*
X218801084Y-140784337D01*
X218800602Y-140774534D01*
X218800602Y-140756114D01*
X218800000Y-140750000D01*
X218800000Y-140250000D01*
X218800602Y-140243886D01*
X218800602Y-140225466D01*
X218801084Y-140215663D01*
X218805894Y-140166832D01*
X218807333Y-140157127D01*
X218816905Y-140109002D01*
X218819290Y-140099481D01*
X218833534Y-140052526D01*
X218836840Y-140043288D01*
X218855617Y-139997955D01*
X218859814Y-139989081D01*
X218882945Y-139945808D01*
X218887988Y-139937393D01*
X218915248Y-139896594D01*
X218921095Y-139888710D01*
X218952223Y-139850781D01*
X218958813Y-139843510D01*
X218993510Y-139808813D01*
X219000781Y-139802223D01*
X219038710Y-139771095D01*
X219046594Y-139765248D01*
X219087393Y-139737988D01*
X219095808Y-139732945D01*
X219139081Y-139709814D01*
X219147955Y-139705617D01*
X219193288Y-139686840D01*
X219202526Y-139683534D01*
X219249481Y-139669290D01*
X219259002Y-139666905D01*
X219307127Y-139657333D01*
X219316832Y-139655894D01*
X219365663Y-139651084D01*
X219375466Y-139650602D01*
X219393886Y-139650602D01*
X219400000Y-139650000D01*
X219950000Y-139650000D01*
X219969509Y-139651921D01*
G37*
G36*
X222606114Y-139650602D02*
G01*
X222624534Y-139650602D01*
X222634337Y-139651084D01*
X222683168Y-139655894D01*
X222692873Y-139657333D01*
X222740998Y-139666905D01*
X222750519Y-139669290D01*
X222797474Y-139683534D01*
X222806712Y-139686840D01*
X222852045Y-139705617D01*
X222860919Y-139709814D01*
X222904192Y-139732945D01*
X222912607Y-139737988D01*
X222953406Y-139765248D01*
X222961290Y-139771095D01*
X222999219Y-139802223D01*
X223006490Y-139808813D01*
X223041187Y-139843510D01*
X223047777Y-139850781D01*
X223078905Y-139888710D01*
X223084752Y-139896594D01*
X223112012Y-139937393D01*
X223117055Y-139945808D01*
X223140186Y-139989081D01*
X223144383Y-139997955D01*
X223163160Y-140043288D01*
X223166466Y-140052526D01*
X223180710Y-140099481D01*
X223183095Y-140109002D01*
X223192667Y-140157127D01*
X223194106Y-140166832D01*
X223198916Y-140215663D01*
X223199398Y-140225466D01*
X223199398Y-140243886D01*
X223200000Y-140250000D01*
X223200000Y-140750000D01*
X223199398Y-140756114D01*
X223199398Y-140774534D01*
X223198916Y-140784337D01*
X223194106Y-140833168D01*
X223192667Y-140842873D01*
X223183095Y-140890998D01*
X223180710Y-140900519D01*
X223166466Y-140947474D01*
X223163160Y-140956712D01*
X223144383Y-141002045D01*
X223140186Y-141010919D01*
X223117055Y-141054192D01*
X223112012Y-141062607D01*
X223084752Y-141103406D01*
X223078905Y-141111290D01*
X223047777Y-141149219D01*
X223041187Y-141156490D01*
X223006490Y-141191187D01*
X222999219Y-141197777D01*
X222961290Y-141228905D01*
X222953406Y-141234752D01*
X222912607Y-141262012D01*
X222904192Y-141267055D01*
X222860919Y-141290186D01*
X222852045Y-141294383D01*
X222806712Y-141313160D01*
X222797474Y-141316466D01*
X222750519Y-141330710D01*
X222740998Y-141333095D01*
X222692873Y-141342667D01*
X222683168Y-141344106D01*
X222634337Y-141348916D01*
X222624534Y-141349398D01*
X222606114Y-141349398D01*
X222600000Y-141350000D01*
X222050000Y-141350000D01*
X222030491Y-141348079D01*
X222011732Y-141342388D01*
X221994443Y-141333147D01*
X221979289Y-141320711D01*
X221966853Y-141305557D01*
X221957612Y-141288268D01*
X221951921Y-141269509D01*
X221950000Y-141250000D01*
X221950000Y-139750000D01*
X221951921Y-139730491D01*
X221957612Y-139711732D01*
X221966853Y-139694443D01*
X221979289Y-139679289D01*
X221994443Y-139666853D01*
X222011732Y-139657612D01*
X222030491Y-139651921D01*
X222050000Y-139650000D01*
X222600000Y-139650000D01*
X222606114Y-139650602D01*
G37*
D11*
X221000000Y-140500000D03*
%TD*%
D10*
%TO.C,JP9*%
G36*
X219969509Y-134651921D02*
G01*
X219988268Y-134657612D01*
X220005557Y-134666853D01*
X220020711Y-134679289D01*
X220033147Y-134694443D01*
X220042388Y-134711732D01*
X220048079Y-134730491D01*
X220050000Y-134750000D01*
X220050000Y-136250000D01*
X220048079Y-136269509D01*
X220042388Y-136288268D01*
X220033147Y-136305557D01*
X220020711Y-136320711D01*
X220005557Y-136333147D01*
X219988268Y-136342388D01*
X219969509Y-136348079D01*
X219950000Y-136350000D01*
X219400000Y-136350000D01*
X219393886Y-136349398D01*
X219375466Y-136349398D01*
X219365663Y-136348916D01*
X219316832Y-136344106D01*
X219307127Y-136342667D01*
X219259002Y-136333095D01*
X219249481Y-136330710D01*
X219202526Y-136316466D01*
X219193288Y-136313160D01*
X219147955Y-136294383D01*
X219139081Y-136290186D01*
X219095808Y-136267055D01*
X219087393Y-136262012D01*
X219046594Y-136234752D01*
X219038710Y-136228905D01*
X219000781Y-136197777D01*
X218993510Y-136191187D01*
X218958813Y-136156490D01*
X218952223Y-136149219D01*
X218921095Y-136111290D01*
X218915248Y-136103406D01*
X218887988Y-136062607D01*
X218882945Y-136054192D01*
X218859814Y-136010919D01*
X218855617Y-136002045D01*
X218836840Y-135956712D01*
X218833534Y-135947474D01*
X218819290Y-135900519D01*
X218816905Y-135890998D01*
X218807333Y-135842873D01*
X218805894Y-135833168D01*
X218801084Y-135784337D01*
X218800602Y-135774534D01*
X218800602Y-135756114D01*
X218800000Y-135750000D01*
X218800000Y-135250000D01*
X218800602Y-135243886D01*
X218800602Y-135225466D01*
X218801084Y-135215663D01*
X218805894Y-135166832D01*
X218807333Y-135157127D01*
X218816905Y-135109002D01*
X218819290Y-135099481D01*
X218833534Y-135052526D01*
X218836840Y-135043288D01*
X218855617Y-134997955D01*
X218859814Y-134989081D01*
X218882945Y-134945808D01*
X218887988Y-134937393D01*
X218915248Y-134896594D01*
X218921095Y-134888710D01*
X218952223Y-134850781D01*
X218958813Y-134843510D01*
X218993510Y-134808813D01*
X219000781Y-134802223D01*
X219038710Y-134771095D01*
X219046594Y-134765248D01*
X219087393Y-134737988D01*
X219095808Y-134732945D01*
X219139081Y-134709814D01*
X219147955Y-134705617D01*
X219193288Y-134686840D01*
X219202526Y-134683534D01*
X219249481Y-134669290D01*
X219259002Y-134666905D01*
X219307127Y-134657333D01*
X219316832Y-134655894D01*
X219365663Y-134651084D01*
X219375466Y-134650602D01*
X219393886Y-134650602D01*
X219400000Y-134650000D01*
X219950000Y-134650000D01*
X219969509Y-134651921D01*
G37*
G36*
X222606114Y-134650602D02*
G01*
X222624534Y-134650602D01*
X222634337Y-134651084D01*
X222683168Y-134655894D01*
X222692873Y-134657333D01*
X222740998Y-134666905D01*
X222750519Y-134669290D01*
X222797474Y-134683534D01*
X222806712Y-134686840D01*
X222852045Y-134705617D01*
X222860919Y-134709814D01*
X222904192Y-134732945D01*
X222912607Y-134737988D01*
X222953406Y-134765248D01*
X222961290Y-134771095D01*
X222999219Y-134802223D01*
X223006490Y-134808813D01*
X223041187Y-134843510D01*
X223047777Y-134850781D01*
X223078905Y-134888710D01*
X223084752Y-134896594D01*
X223112012Y-134937393D01*
X223117055Y-134945808D01*
X223140186Y-134989081D01*
X223144383Y-134997955D01*
X223163160Y-135043288D01*
X223166466Y-135052526D01*
X223180710Y-135099481D01*
X223183095Y-135109002D01*
X223192667Y-135157127D01*
X223194106Y-135166832D01*
X223198916Y-135215663D01*
X223199398Y-135225466D01*
X223199398Y-135243886D01*
X223200000Y-135250000D01*
X223200000Y-135750000D01*
X223199398Y-135756114D01*
X223199398Y-135774534D01*
X223198916Y-135784337D01*
X223194106Y-135833168D01*
X223192667Y-135842873D01*
X223183095Y-135890998D01*
X223180710Y-135900519D01*
X223166466Y-135947474D01*
X223163160Y-135956712D01*
X223144383Y-136002045D01*
X223140186Y-136010919D01*
X223117055Y-136054192D01*
X223112012Y-136062607D01*
X223084752Y-136103406D01*
X223078905Y-136111290D01*
X223047777Y-136149219D01*
X223041187Y-136156490D01*
X223006490Y-136191187D01*
X222999219Y-136197777D01*
X222961290Y-136228905D01*
X222953406Y-136234752D01*
X222912607Y-136262012D01*
X222904192Y-136267055D01*
X222860919Y-136290186D01*
X222852045Y-136294383D01*
X222806712Y-136313160D01*
X222797474Y-136316466D01*
X222750519Y-136330710D01*
X222740998Y-136333095D01*
X222692873Y-136342667D01*
X222683168Y-136344106D01*
X222634337Y-136348916D01*
X222624534Y-136349398D01*
X222606114Y-136349398D01*
X222600000Y-136350000D01*
X222050000Y-136350000D01*
X222030491Y-136348079D01*
X222011732Y-136342388D01*
X221994443Y-136333147D01*
X221979289Y-136320711D01*
X221966853Y-136305557D01*
X221957612Y-136288268D01*
X221951921Y-136269509D01*
X221950000Y-136250000D01*
X221950000Y-134750000D01*
X221951921Y-134730491D01*
X221957612Y-134711732D01*
X221966853Y-134694443D01*
X221979289Y-134679289D01*
X221994443Y-134666853D01*
X222011732Y-134657612D01*
X222030491Y-134651921D01*
X222050000Y-134650000D01*
X222600000Y-134650000D01*
X222606114Y-134650602D01*
G37*
D11*
X221000000Y-135500000D03*
%TD*%
D10*
%TO.C,JP8*%
G36*
X219969509Y-124651921D02*
G01*
X219988268Y-124657612D01*
X220005557Y-124666853D01*
X220020711Y-124679289D01*
X220033147Y-124694443D01*
X220042388Y-124711732D01*
X220048079Y-124730491D01*
X220050000Y-124750000D01*
X220050000Y-126250000D01*
X220048079Y-126269509D01*
X220042388Y-126288268D01*
X220033147Y-126305557D01*
X220020711Y-126320711D01*
X220005557Y-126333147D01*
X219988268Y-126342388D01*
X219969509Y-126348079D01*
X219950000Y-126350000D01*
X219400000Y-126350000D01*
X219393886Y-126349398D01*
X219375466Y-126349398D01*
X219365663Y-126348916D01*
X219316832Y-126344106D01*
X219307127Y-126342667D01*
X219259002Y-126333095D01*
X219249481Y-126330710D01*
X219202526Y-126316466D01*
X219193288Y-126313160D01*
X219147955Y-126294383D01*
X219139081Y-126290186D01*
X219095808Y-126267055D01*
X219087393Y-126262012D01*
X219046594Y-126234752D01*
X219038710Y-126228905D01*
X219000781Y-126197777D01*
X218993510Y-126191187D01*
X218958813Y-126156490D01*
X218952223Y-126149219D01*
X218921095Y-126111290D01*
X218915248Y-126103406D01*
X218887988Y-126062607D01*
X218882945Y-126054192D01*
X218859814Y-126010919D01*
X218855617Y-126002045D01*
X218836840Y-125956712D01*
X218833534Y-125947474D01*
X218819290Y-125900519D01*
X218816905Y-125890998D01*
X218807333Y-125842873D01*
X218805894Y-125833168D01*
X218801084Y-125784337D01*
X218800602Y-125774534D01*
X218800602Y-125756114D01*
X218800000Y-125750000D01*
X218800000Y-125250000D01*
X218800602Y-125243886D01*
X218800602Y-125225466D01*
X218801084Y-125215663D01*
X218805894Y-125166832D01*
X218807333Y-125157127D01*
X218816905Y-125109002D01*
X218819290Y-125099481D01*
X218833534Y-125052526D01*
X218836840Y-125043288D01*
X218855617Y-124997955D01*
X218859814Y-124989081D01*
X218882945Y-124945808D01*
X218887988Y-124937393D01*
X218915248Y-124896594D01*
X218921095Y-124888710D01*
X218952223Y-124850781D01*
X218958813Y-124843510D01*
X218993510Y-124808813D01*
X219000781Y-124802223D01*
X219038710Y-124771095D01*
X219046594Y-124765248D01*
X219087393Y-124737988D01*
X219095808Y-124732945D01*
X219139081Y-124709814D01*
X219147955Y-124705617D01*
X219193288Y-124686840D01*
X219202526Y-124683534D01*
X219249481Y-124669290D01*
X219259002Y-124666905D01*
X219307127Y-124657333D01*
X219316832Y-124655894D01*
X219365663Y-124651084D01*
X219375466Y-124650602D01*
X219393886Y-124650602D01*
X219400000Y-124650000D01*
X219950000Y-124650000D01*
X219969509Y-124651921D01*
G37*
G36*
X222606114Y-124650602D02*
G01*
X222624534Y-124650602D01*
X222634337Y-124651084D01*
X222683168Y-124655894D01*
X222692873Y-124657333D01*
X222740998Y-124666905D01*
X222750519Y-124669290D01*
X222797474Y-124683534D01*
X222806712Y-124686840D01*
X222852045Y-124705617D01*
X222860919Y-124709814D01*
X222904192Y-124732945D01*
X222912607Y-124737988D01*
X222953406Y-124765248D01*
X222961290Y-124771095D01*
X222999219Y-124802223D01*
X223006490Y-124808813D01*
X223041187Y-124843510D01*
X223047777Y-124850781D01*
X223078905Y-124888710D01*
X223084752Y-124896594D01*
X223112012Y-124937393D01*
X223117055Y-124945808D01*
X223140186Y-124989081D01*
X223144383Y-124997955D01*
X223163160Y-125043288D01*
X223166466Y-125052526D01*
X223180710Y-125099481D01*
X223183095Y-125109002D01*
X223192667Y-125157127D01*
X223194106Y-125166832D01*
X223198916Y-125215663D01*
X223199398Y-125225466D01*
X223199398Y-125243886D01*
X223200000Y-125250000D01*
X223200000Y-125750000D01*
X223199398Y-125756114D01*
X223199398Y-125774534D01*
X223198916Y-125784337D01*
X223194106Y-125833168D01*
X223192667Y-125842873D01*
X223183095Y-125890998D01*
X223180710Y-125900519D01*
X223166466Y-125947474D01*
X223163160Y-125956712D01*
X223144383Y-126002045D01*
X223140186Y-126010919D01*
X223117055Y-126054192D01*
X223112012Y-126062607D01*
X223084752Y-126103406D01*
X223078905Y-126111290D01*
X223047777Y-126149219D01*
X223041187Y-126156490D01*
X223006490Y-126191187D01*
X222999219Y-126197777D01*
X222961290Y-126228905D01*
X222953406Y-126234752D01*
X222912607Y-126262012D01*
X222904192Y-126267055D01*
X222860919Y-126290186D01*
X222852045Y-126294383D01*
X222806712Y-126313160D01*
X222797474Y-126316466D01*
X222750519Y-126330710D01*
X222740998Y-126333095D01*
X222692873Y-126342667D01*
X222683168Y-126344106D01*
X222634337Y-126348916D01*
X222624534Y-126349398D01*
X222606114Y-126349398D01*
X222600000Y-126350000D01*
X222050000Y-126350000D01*
X222030491Y-126348079D01*
X222011732Y-126342388D01*
X221994443Y-126333147D01*
X221979289Y-126320711D01*
X221966853Y-126305557D01*
X221957612Y-126288268D01*
X221951921Y-126269509D01*
X221950000Y-126250000D01*
X221950000Y-124750000D01*
X221951921Y-124730491D01*
X221957612Y-124711732D01*
X221966853Y-124694443D01*
X221979289Y-124679289D01*
X221994443Y-124666853D01*
X222011732Y-124657612D01*
X222030491Y-124651921D01*
X222050000Y-124650000D01*
X222600000Y-124650000D01*
X222606114Y-124650602D01*
G37*
D11*
X221000000Y-125500000D03*
%TD*%
D10*
%TO.C,JP7*%
G36*
X219969509Y-114651921D02*
G01*
X219988268Y-114657612D01*
X220005557Y-114666853D01*
X220020711Y-114679289D01*
X220033147Y-114694443D01*
X220042388Y-114711732D01*
X220048079Y-114730491D01*
X220050000Y-114750000D01*
X220050000Y-116250000D01*
X220048079Y-116269509D01*
X220042388Y-116288268D01*
X220033147Y-116305557D01*
X220020711Y-116320711D01*
X220005557Y-116333147D01*
X219988268Y-116342388D01*
X219969509Y-116348079D01*
X219950000Y-116350000D01*
X219400000Y-116350000D01*
X219393886Y-116349398D01*
X219375466Y-116349398D01*
X219365663Y-116348916D01*
X219316832Y-116344106D01*
X219307127Y-116342667D01*
X219259002Y-116333095D01*
X219249481Y-116330710D01*
X219202526Y-116316466D01*
X219193288Y-116313160D01*
X219147955Y-116294383D01*
X219139081Y-116290186D01*
X219095808Y-116267055D01*
X219087393Y-116262012D01*
X219046594Y-116234752D01*
X219038710Y-116228905D01*
X219000781Y-116197777D01*
X218993510Y-116191187D01*
X218958813Y-116156490D01*
X218952223Y-116149219D01*
X218921095Y-116111290D01*
X218915248Y-116103406D01*
X218887988Y-116062607D01*
X218882945Y-116054192D01*
X218859814Y-116010919D01*
X218855617Y-116002045D01*
X218836840Y-115956712D01*
X218833534Y-115947474D01*
X218819290Y-115900519D01*
X218816905Y-115890998D01*
X218807333Y-115842873D01*
X218805894Y-115833168D01*
X218801084Y-115784337D01*
X218800602Y-115774534D01*
X218800602Y-115756114D01*
X218800000Y-115750000D01*
X218800000Y-115250000D01*
X218800602Y-115243886D01*
X218800602Y-115225466D01*
X218801084Y-115215663D01*
X218805894Y-115166832D01*
X218807333Y-115157127D01*
X218816905Y-115109002D01*
X218819290Y-115099481D01*
X218833534Y-115052526D01*
X218836840Y-115043288D01*
X218855617Y-114997955D01*
X218859814Y-114989081D01*
X218882945Y-114945808D01*
X218887988Y-114937393D01*
X218915248Y-114896594D01*
X218921095Y-114888710D01*
X218952223Y-114850781D01*
X218958813Y-114843510D01*
X218993510Y-114808813D01*
X219000781Y-114802223D01*
X219038710Y-114771095D01*
X219046594Y-114765248D01*
X219087393Y-114737988D01*
X219095808Y-114732945D01*
X219139081Y-114709814D01*
X219147955Y-114705617D01*
X219193288Y-114686840D01*
X219202526Y-114683534D01*
X219249481Y-114669290D01*
X219259002Y-114666905D01*
X219307127Y-114657333D01*
X219316832Y-114655894D01*
X219365663Y-114651084D01*
X219375466Y-114650602D01*
X219393886Y-114650602D01*
X219400000Y-114650000D01*
X219950000Y-114650000D01*
X219969509Y-114651921D01*
G37*
G36*
X222606114Y-114650602D02*
G01*
X222624534Y-114650602D01*
X222634337Y-114651084D01*
X222683168Y-114655894D01*
X222692873Y-114657333D01*
X222740998Y-114666905D01*
X222750519Y-114669290D01*
X222797474Y-114683534D01*
X222806712Y-114686840D01*
X222852045Y-114705617D01*
X222860919Y-114709814D01*
X222904192Y-114732945D01*
X222912607Y-114737988D01*
X222953406Y-114765248D01*
X222961290Y-114771095D01*
X222999219Y-114802223D01*
X223006490Y-114808813D01*
X223041187Y-114843510D01*
X223047777Y-114850781D01*
X223078905Y-114888710D01*
X223084752Y-114896594D01*
X223112012Y-114937393D01*
X223117055Y-114945808D01*
X223140186Y-114989081D01*
X223144383Y-114997955D01*
X223163160Y-115043288D01*
X223166466Y-115052526D01*
X223180710Y-115099481D01*
X223183095Y-115109002D01*
X223192667Y-115157127D01*
X223194106Y-115166832D01*
X223198916Y-115215663D01*
X223199398Y-115225466D01*
X223199398Y-115243886D01*
X223200000Y-115250000D01*
X223200000Y-115750000D01*
X223199398Y-115756114D01*
X223199398Y-115774534D01*
X223198916Y-115784337D01*
X223194106Y-115833168D01*
X223192667Y-115842873D01*
X223183095Y-115890998D01*
X223180710Y-115900519D01*
X223166466Y-115947474D01*
X223163160Y-115956712D01*
X223144383Y-116002045D01*
X223140186Y-116010919D01*
X223117055Y-116054192D01*
X223112012Y-116062607D01*
X223084752Y-116103406D01*
X223078905Y-116111290D01*
X223047777Y-116149219D01*
X223041187Y-116156490D01*
X223006490Y-116191187D01*
X222999219Y-116197777D01*
X222961290Y-116228905D01*
X222953406Y-116234752D01*
X222912607Y-116262012D01*
X222904192Y-116267055D01*
X222860919Y-116290186D01*
X222852045Y-116294383D01*
X222806712Y-116313160D01*
X222797474Y-116316466D01*
X222750519Y-116330710D01*
X222740998Y-116333095D01*
X222692873Y-116342667D01*
X222683168Y-116344106D01*
X222634337Y-116348916D01*
X222624534Y-116349398D01*
X222606114Y-116349398D01*
X222600000Y-116350000D01*
X222050000Y-116350000D01*
X222030491Y-116348079D01*
X222011732Y-116342388D01*
X221994443Y-116333147D01*
X221979289Y-116320711D01*
X221966853Y-116305557D01*
X221957612Y-116288268D01*
X221951921Y-116269509D01*
X221950000Y-116250000D01*
X221950000Y-114750000D01*
X221951921Y-114730491D01*
X221957612Y-114711732D01*
X221966853Y-114694443D01*
X221979289Y-114679289D01*
X221994443Y-114666853D01*
X222011732Y-114657612D01*
X222030491Y-114651921D01*
X222050000Y-114650000D01*
X222600000Y-114650000D01*
X222606114Y-114650602D01*
G37*
D11*
X221000000Y-115500000D03*
%TD*%
D10*
%TO.C,JP6*%
G36*
X219969509Y-104651921D02*
G01*
X219988268Y-104657612D01*
X220005557Y-104666853D01*
X220020711Y-104679289D01*
X220033147Y-104694443D01*
X220042388Y-104711732D01*
X220048079Y-104730491D01*
X220050000Y-104750000D01*
X220050000Y-106250000D01*
X220048079Y-106269509D01*
X220042388Y-106288268D01*
X220033147Y-106305557D01*
X220020711Y-106320711D01*
X220005557Y-106333147D01*
X219988268Y-106342388D01*
X219969509Y-106348079D01*
X219950000Y-106350000D01*
X219400000Y-106350000D01*
X219393886Y-106349398D01*
X219375466Y-106349398D01*
X219365663Y-106348916D01*
X219316832Y-106344106D01*
X219307127Y-106342667D01*
X219259002Y-106333095D01*
X219249481Y-106330710D01*
X219202526Y-106316466D01*
X219193288Y-106313160D01*
X219147955Y-106294383D01*
X219139081Y-106290186D01*
X219095808Y-106267055D01*
X219087393Y-106262012D01*
X219046594Y-106234752D01*
X219038710Y-106228905D01*
X219000781Y-106197777D01*
X218993510Y-106191187D01*
X218958813Y-106156490D01*
X218952223Y-106149219D01*
X218921095Y-106111290D01*
X218915248Y-106103406D01*
X218887988Y-106062607D01*
X218882945Y-106054192D01*
X218859814Y-106010919D01*
X218855617Y-106002045D01*
X218836840Y-105956712D01*
X218833534Y-105947474D01*
X218819290Y-105900519D01*
X218816905Y-105890998D01*
X218807333Y-105842873D01*
X218805894Y-105833168D01*
X218801084Y-105784337D01*
X218800602Y-105774534D01*
X218800602Y-105756114D01*
X218800000Y-105750000D01*
X218800000Y-105250000D01*
X218800602Y-105243886D01*
X218800602Y-105225466D01*
X218801084Y-105215663D01*
X218805894Y-105166832D01*
X218807333Y-105157127D01*
X218816905Y-105109002D01*
X218819290Y-105099481D01*
X218833534Y-105052526D01*
X218836840Y-105043288D01*
X218855617Y-104997955D01*
X218859814Y-104989081D01*
X218882945Y-104945808D01*
X218887988Y-104937393D01*
X218915248Y-104896594D01*
X218921095Y-104888710D01*
X218952223Y-104850781D01*
X218958813Y-104843510D01*
X218993510Y-104808813D01*
X219000781Y-104802223D01*
X219038710Y-104771095D01*
X219046594Y-104765248D01*
X219087393Y-104737988D01*
X219095808Y-104732945D01*
X219139081Y-104709814D01*
X219147955Y-104705617D01*
X219193288Y-104686840D01*
X219202526Y-104683534D01*
X219249481Y-104669290D01*
X219259002Y-104666905D01*
X219307127Y-104657333D01*
X219316832Y-104655894D01*
X219365663Y-104651084D01*
X219375466Y-104650602D01*
X219393886Y-104650602D01*
X219400000Y-104650000D01*
X219950000Y-104650000D01*
X219969509Y-104651921D01*
G37*
G36*
X222606114Y-104650602D02*
G01*
X222624534Y-104650602D01*
X222634337Y-104651084D01*
X222683168Y-104655894D01*
X222692873Y-104657333D01*
X222740998Y-104666905D01*
X222750519Y-104669290D01*
X222797474Y-104683534D01*
X222806712Y-104686840D01*
X222852045Y-104705617D01*
X222860919Y-104709814D01*
X222904192Y-104732945D01*
X222912607Y-104737988D01*
X222953406Y-104765248D01*
X222961290Y-104771095D01*
X222999219Y-104802223D01*
X223006490Y-104808813D01*
X223041187Y-104843510D01*
X223047777Y-104850781D01*
X223078905Y-104888710D01*
X223084752Y-104896594D01*
X223112012Y-104937393D01*
X223117055Y-104945808D01*
X223140186Y-104989081D01*
X223144383Y-104997955D01*
X223163160Y-105043288D01*
X223166466Y-105052526D01*
X223180710Y-105099481D01*
X223183095Y-105109002D01*
X223192667Y-105157127D01*
X223194106Y-105166832D01*
X223198916Y-105215663D01*
X223199398Y-105225466D01*
X223199398Y-105243886D01*
X223200000Y-105250000D01*
X223200000Y-105750000D01*
X223199398Y-105756114D01*
X223199398Y-105774534D01*
X223198916Y-105784337D01*
X223194106Y-105833168D01*
X223192667Y-105842873D01*
X223183095Y-105890998D01*
X223180710Y-105900519D01*
X223166466Y-105947474D01*
X223163160Y-105956712D01*
X223144383Y-106002045D01*
X223140186Y-106010919D01*
X223117055Y-106054192D01*
X223112012Y-106062607D01*
X223084752Y-106103406D01*
X223078905Y-106111290D01*
X223047777Y-106149219D01*
X223041187Y-106156490D01*
X223006490Y-106191187D01*
X222999219Y-106197777D01*
X222961290Y-106228905D01*
X222953406Y-106234752D01*
X222912607Y-106262012D01*
X222904192Y-106267055D01*
X222860919Y-106290186D01*
X222852045Y-106294383D01*
X222806712Y-106313160D01*
X222797474Y-106316466D01*
X222750519Y-106330710D01*
X222740998Y-106333095D01*
X222692873Y-106342667D01*
X222683168Y-106344106D01*
X222634337Y-106348916D01*
X222624534Y-106349398D01*
X222606114Y-106349398D01*
X222600000Y-106350000D01*
X222050000Y-106350000D01*
X222030491Y-106348079D01*
X222011732Y-106342388D01*
X221994443Y-106333147D01*
X221979289Y-106320711D01*
X221966853Y-106305557D01*
X221957612Y-106288268D01*
X221951921Y-106269509D01*
X221950000Y-106250000D01*
X221950000Y-104750000D01*
X221951921Y-104730491D01*
X221957612Y-104711732D01*
X221966853Y-104694443D01*
X221979289Y-104679289D01*
X221994443Y-104666853D01*
X222011732Y-104657612D01*
X222030491Y-104651921D01*
X222050000Y-104650000D01*
X222600000Y-104650000D01*
X222606114Y-104650602D01*
G37*
D11*
X221000000Y-105500000D03*
%TD*%
D10*
%TO.C,JP5*%
G36*
X219969509Y-94651921D02*
G01*
X219988268Y-94657612D01*
X220005557Y-94666853D01*
X220020711Y-94679289D01*
X220033147Y-94694443D01*
X220042388Y-94711732D01*
X220048079Y-94730491D01*
X220050000Y-94750000D01*
X220050000Y-96250000D01*
X220048079Y-96269509D01*
X220042388Y-96288268D01*
X220033147Y-96305557D01*
X220020711Y-96320711D01*
X220005557Y-96333147D01*
X219988268Y-96342388D01*
X219969509Y-96348079D01*
X219950000Y-96350000D01*
X219400000Y-96350000D01*
X219393886Y-96349398D01*
X219375466Y-96349398D01*
X219365663Y-96348916D01*
X219316832Y-96344106D01*
X219307127Y-96342667D01*
X219259002Y-96333095D01*
X219249481Y-96330710D01*
X219202526Y-96316466D01*
X219193288Y-96313160D01*
X219147955Y-96294383D01*
X219139081Y-96290186D01*
X219095808Y-96267055D01*
X219087393Y-96262012D01*
X219046594Y-96234752D01*
X219038710Y-96228905D01*
X219000781Y-96197777D01*
X218993510Y-96191187D01*
X218958813Y-96156490D01*
X218952223Y-96149219D01*
X218921095Y-96111290D01*
X218915248Y-96103406D01*
X218887988Y-96062607D01*
X218882945Y-96054192D01*
X218859814Y-96010919D01*
X218855617Y-96002045D01*
X218836840Y-95956712D01*
X218833534Y-95947474D01*
X218819290Y-95900519D01*
X218816905Y-95890998D01*
X218807333Y-95842873D01*
X218805894Y-95833168D01*
X218801084Y-95784337D01*
X218800602Y-95774534D01*
X218800602Y-95756114D01*
X218800000Y-95750000D01*
X218800000Y-95250000D01*
X218800602Y-95243886D01*
X218800602Y-95225466D01*
X218801084Y-95215663D01*
X218805894Y-95166832D01*
X218807333Y-95157127D01*
X218816905Y-95109002D01*
X218819290Y-95099481D01*
X218833534Y-95052526D01*
X218836840Y-95043288D01*
X218855617Y-94997955D01*
X218859814Y-94989081D01*
X218882945Y-94945808D01*
X218887988Y-94937393D01*
X218915248Y-94896594D01*
X218921095Y-94888710D01*
X218952223Y-94850781D01*
X218958813Y-94843510D01*
X218993510Y-94808813D01*
X219000781Y-94802223D01*
X219038710Y-94771095D01*
X219046594Y-94765248D01*
X219087393Y-94737988D01*
X219095808Y-94732945D01*
X219139081Y-94709814D01*
X219147955Y-94705617D01*
X219193288Y-94686840D01*
X219202526Y-94683534D01*
X219249481Y-94669290D01*
X219259002Y-94666905D01*
X219307127Y-94657333D01*
X219316832Y-94655894D01*
X219365663Y-94651084D01*
X219375466Y-94650602D01*
X219393886Y-94650602D01*
X219400000Y-94650000D01*
X219950000Y-94650000D01*
X219969509Y-94651921D01*
G37*
G36*
X222606114Y-94650602D02*
G01*
X222624534Y-94650602D01*
X222634337Y-94651084D01*
X222683168Y-94655894D01*
X222692873Y-94657333D01*
X222740998Y-94666905D01*
X222750519Y-94669290D01*
X222797474Y-94683534D01*
X222806712Y-94686840D01*
X222852045Y-94705617D01*
X222860919Y-94709814D01*
X222904192Y-94732945D01*
X222912607Y-94737988D01*
X222953406Y-94765248D01*
X222961290Y-94771095D01*
X222999219Y-94802223D01*
X223006490Y-94808813D01*
X223041187Y-94843510D01*
X223047777Y-94850781D01*
X223078905Y-94888710D01*
X223084752Y-94896594D01*
X223112012Y-94937393D01*
X223117055Y-94945808D01*
X223140186Y-94989081D01*
X223144383Y-94997955D01*
X223163160Y-95043288D01*
X223166466Y-95052526D01*
X223180710Y-95099481D01*
X223183095Y-95109002D01*
X223192667Y-95157127D01*
X223194106Y-95166832D01*
X223198916Y-95215663D01*
X223199398Y-95225466D01*
X223199398Y-95243886D01*
X223200000Y-95250000D01*
X223200000Y-95750000D01*
X223199398Y-95756114D01*
X223199398Y-95774534D01*
X223198916Y-95784337D01*
X223194106Y-95833168D01*
X223192667Y-95842873D01*
X223183095Y-95890998D01*
X223180710Y-95900519D01*
X223166466Y-95947474D01*
X223163160Y-95956712D01*
X223144383Y-96002045D01*
X223140186Y-96010919D01*
X223117055Y-96054192D01*
X223112012Y-96062607D01*
X223084752Y-96103406D01*
X223078905Y-96111290D01*
X223047777Y-96149219D01*
X223041187Y-96156490D01*
X223006490Y-96191187D01*
X222999219Y-96197777D01*
X222961290Y-96228905D01*
X222953406Y-96234752D01*
X222912607Y-96262012D01*
X222904192Y-96267055D01*
X222860919Y-96290186D01*
X222852045Y-96294383D01*
X222806712Y-96313160D01*
X222797474Y-96316466D01*
X222750519Y-96330710D01*
X222740998Y-96333095D01*
X222692873Y-96342667D01*
X222683168Y-96344106D01*
X222634337Y-96348916D01*
X222624534Y-96349398D01*
X222606114Y-96349398D01*
X222600000Y-96350000D01*
X222050000Y-96350000D01*
X222030491Y-96348079D01*
X222011732Y-96342388D01*
X221994443Y-96333147D01*
X221979289Y-96320711D01*
X221966853Y-96305557D01*
X221957612Y-96288268D01*
X221951921Y-96269509D01*
X221950000Y-96250000D01*
X221950000Y-94750000D01*
X221951921Y-94730491D01*
X221957612Y-94711732D01*
X221966853Y-94694443D01*
X221979289Y-94679289D01*
X221994443Y-94666853D01*
X222011732Y-94657612D01*
X222030491Y-94651921D01*
X222050000Y-94650000D01*
X222600000Y-94650000D01*
X222606114Y-94650602D01*
G37*
D11*
X221000000Y-95500000D03*
%TD*%
D10*
%TO.C,JP4*%
G36*
X219969509Y-84651921D02*
G01*
X219988268Y-84657612D01*
X220005557Y-84666853D01*
X220020711Y-84679289D01*
X220033147Y-84694443D01*
X220042388Y-84711732D01*
X220048079Y-84730491D01*
X220050000Y-84750000D01*
X220050000Y-86250000D01*
X220048079Y-86269509D01*
X220042388Y-86288268D01*
X220033147Y-86305557D01*
X220020711Y-86320711D01*
X220005557Y-86333147D01*
X219988268Y-86342388D01*
X219969509Y-86348079D01*
X219950000Y-86350000D01*
X219400000Y-86350000D01*
X219393886Y-86349398D01*
X219375466Y-86349398D01*
X219365663Y-86348916D01*
X219316832Y-86344106D01*
X219307127Y-86342667D01*
X219259002Y-86333095D01*
X219249481Y-86330710D01*
X219202526Y-86316466D01*
X219193288Y-86313160D01*
X219147955Y-86294383D01*
X219139081Y-86290186D01*
X219095808Y-86267055D01*
X219087393Y-86262012D01*
X219046594Y-86234752D01*
X219038710Y-86228905D01*
X219000781Y-86197777D01*
X218993510Y-86191187D01*
X218958813Y-86156490D01*
X218952223Y-86149219D01*
X218921095Y-86111290D01*
X218915248Y-86103406D01*
X218887988Y-86062607D01*
X218882945Y-86054192D01*
X218859814Y-86010919D01*
X218855617Y-86002045D01*
X218836840Y-85956712D01*
X218833534Y-85947474D01*
X218819290Y-85900519D01*
X218816905Y-85890998D01*
X218807333Y-85842873D01*
X218805894Y-85833168D01*
X218801084Y-85784337D01*
X218800602Y-85774534D01*
X218800602Y-85756114D01*
X218800000Y-85750000D01*
X218800000Y-85250000D01*
X218800602Y-85243886D01*
X218800602Y-85225466D01*
X218801084Y-85215663D01*
X218805894Y-85166832D01*
X218807333Y-85157127D01*
X218816905Y-85109002D01*
X218819290Y-85099481D01*
X218833534Y-85052526D01*
X218836840Y-85043288D01*
X218855617Y-84997955D01*
X218859814Y-84989081D01*
X218882945Y-84945808D01*
X218887988Y-84937393D01*
X218915248Y-84896594D01*
X218921095Y-84888710D01*
X218952223Y-84850781D01*
X218958813Y-84843510D01*
X218993510Y-84808813D01*
X219000781Y-84802223D01*
X219038710Y-84771095D01*
X219046594Y-84765248D01*
X219087393Y-84737988D01*
X219095808Y-84732945D01*
X219139081Y-84709814D01*
X219147955Y-84705617D01*
X219193288Y-84686840D01*
X219202526Y-84683534D01*
X219249481Y-84669290D01*
X219259002Y-84666905D01*
X219307127Y-84657333D01*
X219316832Y-84655894D01*
X219365663Y-84651084D01*
X219375466Y-84650602D01*
X219393886Y-84650602D01*
X219400000Y-84650000D01*
X219950000Y-84650000D01*
X219969509Y-84651921D01*
G37*
G36*
X222606114Y-84650602D02*
G01*
X222624534Y-84650602D01*
X222634337Y-84651084D01*
X222683168Y-84655894D01*
X222692873Y-84657333D01*
X222740998Y-84666905D01*
X222750519Y-84669290D01*
X222797474Y-84683534D01*
X222806712Y-84686840D01*
X222852045Y-84705617D01*
X222860919Y-84709814D01*
X222904192Y-84732945D01*
X222912607Y-84737988D01*
X222953406Y-84765248D01*
X222961290Y-84771095D01*
X222999219Y-84802223D01*
X223006490Y-84808813D01*
X223041187Y-84843510D01*
X223047777Y-84850781D01*
X223078905Y-84888710D01*
X223084752Y-84896594D01*
X223112012Y-84937393D01*
X223117055Y-84945808D01*
X223140186Y-84989081D01*
X223144383Y-84997955D01*
X223163160Y-85043288D01*
X223166466Y-85052526D01*
X223180710Y-85099481D01*
X223183095Y-85109002D01*
X223192667Y-85157127D01*
X223194106Y-85166832D01*
X223198916Y-85215663D01*
X223199398Y-85225466D01*
X223199398Y-85243886D01*
X223200000Y-85250000D01*
X223200000Y-85750000D01*
X223199398Y-85756114D01*
X223199398Y-85774534D01*
X223198916Y-85784337D01*
X223194106Y-85833168D01*
X223192667Y-85842873D01*
X223183095Y-85890998D01*
X223180710Y-85900519D01*
X223166466Y-85947474D01*
X223163160Y-85956712D01*
X223144383Y-86002045D01*
X223140186Y-86010919D01*
X223117055Y-86054192D01*
X223112012Y-86062607D01*
X223084752Y-86103406D01*
X223078905Y-86111290D01*
X223047777Y-86149219D01*
X223041187Y-86156490D01*
X223006490Y-86191187D01*
X222999219Y-86197777D01*
X222961290Y-86228905D01*
X222953406Y-86234752D01*
X222912607Y-86262012D01*
X222904192Y-86267055D01*
X222860919Y-86290186D01*
X222852045Y-86294383D01*
X222806712Y-86313160D01*
X222797474Y-86316466D01*
X222750519Y-86330710D01*
X222740998Y-86333095D01*
X222692873Y-86342667D01*
X222683168Y-86344106D01*
X222634337Y-86348916D01*
X222624534Y-86349398D01*
X222606114Y-86349398D01*
X222600000Y-86350000D01*
X222050000Y-86350000D01*
X222030491Y-86348079D01*
X222011732Y-86342388D01*
X221994443Y-86333147D01*
X221979289Y-86320711D01*
X221966853Y-86305557D01*
X221957612Y-86288268D01*
X221951921Y-86269509D01*
X221950000Y-86250000D01*
X221950000Y-84750000D01*
X221951921Y-84730491D01*
X221957612Y-84711732D01*
X221966853Y-84694443D01*
X221979289Y-84679289D01*
X221994443Y-84666853D01*
X222011732Y-84657612D01*
X222030491Y-84651921D01*
X222050000Y-84650000D01*
X222600000Y-84650000D01*
X222606114Y-84650602D01*
G37*
D11*
X221000000Y-85500000D03*
%TD*%
D10*
%TO.C,JP3*%
G36*
X219969509Y-74651921D02*
G01*
X219988268Y-74657612D01*
X220005557Y-74666853D01*
X220020711Y-74679289D01*
X220033147Y-74694443D01*
X220042388Y-74711732D01*
X220048079Y-74730491D01*
X220050000Y-74750000D01*
X220050000Y-76250000D01*
X220048079Y-76269509D01*
X220042388Y-76288268D01*
X220033147Y-76305557D01*
X220020711Y-76320711D01*
X220005557Y-76333147D01*
X219988268Y-76342388D01*
X219969509Y-76348079D01*
X219950000Y-76350000D01*
X219400000Y-76350000D01*
X219393886Y-76349398D01*
X219375466Y-76349398D01*
X219365663Y-76348916D01*
X219316832Y-76344106D01*
X219307127Y-76342667D01*
X219259002Y-76333095D01*
X219249481Y-76330710D01*
X219202526Y-76316466D01*
X219193288Y-76313160D01*
X219147955Y-76294383D01*
X219139081Y-76290186D01*
X219095808Y-76267055D01*
X219087393Y-76262012D01*
X219046594Y-76234752D01*
X219038710Y-76228905D01*
X219000781Y-76197777D01*
X218993510Y-76191187D01*
X218958813Y-76156490D01*
X218952223Y-76149219D01*
X218921095Y-76111290D01*
X218915248Y-76103406D01*
X218887988Y-76062607D01*
X218882945Y-76054192D01*
X218859814Y-76010919D01*
X218855617Y-76002045D01*
X218836840Y-75956712D01*
X218833534Y-75947474D01*
X218819290Y-75900519D01*
X218816905Y-75890998D01*
X218807333Y-75842873D01*
X218805894Y-75833168D01*
X218801084Y-75784337D01*
X218800602Y-75774534D01*
X218800602Y-75756114D01*
X218800000Y-75750000D01*
X218800000Y-75250000D01*
X218800602Y-75243886D01*
X218800602Y-75225466D01*
X218801084Y-75215663D01*
X218805894Y-75166832D01*
X218807333Y-75157127D01*
X218816905Y-75109002D01*
X218819290Y-75099481D01*
X218833534Y-75052526D01*
X218836840Y-75043288D01*
X218855617Y-74997955D01*
X218859814Y-74989081D01*
X218882945Y-74945808D01*
X218887988Y-74937393D01*
X218915248Y-74896594D01*
X218921095Y-74888710D01*
X218952223Y-74850781D01*
X218958813Y-74843510D01*
X218993510Y-74808813D01*
X219000781Y-74802223D01*
X219038710Y-74771095D01*
X219046594Y-74765248D01*
X219087393Y-74737988D01*
X219095808Y-74732945D01*
X219139081Y-74709814D01*
X219147955Y-74705617D01*
X219193288Y-74686840D01*
X219202526Y-74683534D01*
X219249481Y-74669290D01*
X219259002Y-74666905D01*
X219307127Y-74657333D01*
X219316832Y-74655894D01*
X219365663Y-74651084D01*
X219375466Y-74650602D01*
X219393886Y-74650602D01*
X219400000Y-74650000D01*
X219950000Y-74650000D01*
X219969509Y-74651921D01*
G37*
G36*
X222606114Y-74650602D02*
G01*
X222624534Y-74650602D01*
X222634337Y-74651084D01*
X222683168Y-74655894D01*
X222692873Y-74657333D01*
X222740998Y-74666905D01*
X222750519Y-74669290D01*
X222797474Y-74683534D01*
X222806712Y-74686840D01*
X222852045Y-74705617D01*
X222860919Y-74709814D01*
X222904192Y-74732945D01*
X222912607Y-74737988D01*
X222953406Y-74765248D01*
X222961290Y-74771095D01*
X222999219Y-74802223D01*
X223006490Y-74808813D01*
X223041187Y-74843510D01*
X223047777Y-74850781D01*
X223078905Y-74888710D01*
X223084752Y-74896594D01*
X223112012Y-74937393D01*
X223117055Y-74945808D01*
X223140186Y-74989081D01*
X223144383Y-74997955D01*
X223163160Y-75043288D01*
X223166466Y-75052526D01*
X223180710Y-75099481D01*
X223183095Y-75109002D01*
X223192667Y-75157127D01*
X223194106Y-75166832D01*
X223198916Y-75215663D01*
X223199398Y-75225466D01*
X223199398Y-75243886D01*
X223200000Y-75250000D01*
X223200000Y-75750000D01*
X223199398Y-75756114D01*
X223199398Y-75774534D01*
X223198916Y-75784337D01*
X223194106Y-75833168D01*
X223192667Y-75842873D01*
X223183095Y-75890998D01*
X223180710Y-75900519D01*
X223166466Y-75947474D01*
X223163160Y-75956712D01*
X223144383Y-76002045D01*
X223140186Y-76010919D01*
X223117055Y-76054192D01*
X223112012Y-76062607D01*
X223084752Y-76103406D01*
X223078905Y-76111290D01*
X223047777Y-76149219D01*
X223041187Y-76156490D01*
X223006490Y-76191187D01*
X222999219Y-76197777D01*
X222961290Y-76228905D01*
X222953406Y-76234752D01*
X222912607Y-76262012D01*
X222904192Y-76267055D01*
X222860919Y-76290186D01*
X222852045Y-76294383D01*
X222806712Y-76313160D01*
X222797474Y-76316466D01*
X222750519Y-76330710D01*
X222740998Y-76333095D01*
X222692873Y-76342667D01*
X222683168Y-76344106D01*
X222634337Y-76348916D01*
X222624534Y-76349398D01*
X222606114Y-76349398D01*
X222600000Y-76350000D01*
X222050000Y-76350000D01*
X222030491Y-76348079D01*
X222011732Y-76342388D01*
X221994443Y-76333147D01*
X221979289Y-76320711D01*
X221966853Y-76305557D01*
X221957612Y-76288268D01*
X221951921Y-76269509D01*
X221950000Y-76250000D01*
X221950000Y-74750000D01*
X221951921Y-74730491D01*
X221957612Y-74711732D01*
X221966853Y-74694443D01*
X221979289Y-74679289D01*
X221994443Y-74666853D01*
X222011732Y-74657612D01*
X222030491Y-74651921D01*
X222050000Y-74650000D01*
X222600000Y-74650000D01*
X222606114Y-74650602D01*
G37*
D11*
X221000000Y-75500000D03*
%TD*%
D10*
%TO.C,JP2*%
G36*
X219969509Y-64651921D02*
G01*
X219988268Y-64657612D01*
X220005557Y-64666853D01*
X220020711Y-64679289D01*
X220033147Y-64694443D01*
X220042388Y-64711732D01*
X220048079Y-64730491D01*
X220050000Y-64750000D01*
X220050000Y-66250000D01*
X220048079Y-66269509D01*
X220042388Y-66288268D01*
X220033147Y-66305557D01*
X220020711Y-66320711D01*
X220005557Y-66333147D01*
X219988268Y-66342388D01*
X219969509Y-66348079D01*
X219950000Y-66350000D01*
X219400000Y-66350000D01*
X219393886Y-66349398D01*
X219375466Y-66349398D01*
X219365663Y-66348916D01*
X219316832Y-66344106D01*
X219307127Y-66342667D01*
X219259002Y-66333095D01*
X219249481Y-66330710D01*
X219202526Y-66316466D01*
X219193288Y-66313160D01*
X219147955Y-66294383D01*
X219139081Y-66290186D01*
X219095808Y-66267055D01*
X219087393Y-66262012D01*
X219046594Y-66234752D01*
X219038710Y-66228905D01*
X219000781Y-66197777D01*
X218993510Y-66191187D01*
X218958813Y-66156490D01*
X218952223Y-66149219D01*
X218921095Y-66111290D01*
X218915248Y-66103406D01*
X218887988Y-66062607D01*
X218882945Y-66054192D01*
X218859814Y-66010919D01*
X218855617Y-66002045D01*
X218836840Y-65956712D01*
X218833534Y-65947474D01*
X218819290Y-65900519D01*
X218816905Y-65890998D01*
X218807333Y-65842873D01*
X218805894Y-65833168D01*
X218801084Y-65784337D01*
X218800602Y-65774534D01*
X218800602Y-65756114D01*
X218800000Y-65750000D01*
X218800000Y-65250000D01*
X218800602Y-65243886D01*
X218800602Y-65225466D01*
X218801084Y-65215663D01*
X218805894Y-65166832D01*
X218807333Y-65157127D01*
X218816905Y-65109002D01*
X218819290Y-65099481D01*
X218833534Y-65052526D01*
X218836840Y-65043288D01*
X218855617Y-64997955D01*
X218859814Y-64989081D01*
X218882945Y-64945808D01*
X218887988Y-64937393D01*
X218915248Y-64896594D01*
X218921095Y-64888710D01*
X218952223Y-64850781D01*
X218958813Y-64843510D01*
X218993510Y-64808813D01*
X219000781Y-64802223D01*
X219038710Y-64771095D01*
X219046594Y-64765248D01*
X219087393Y-64737988D01*
X219095808Y-64732945D01*
X219139081Y-64709814D01*
X219147955Y-64705617D01*
X219193288Y-64686840D01*
X219202526Y-64683534D01*
X219249481Y-64669290D01*
X219259002Y-64666905D01*
X219307127Y-64657333D01*
X219316832Y-64655894D01*
X219365663Y-64651084D01*
X219375466Y-64650602D01*
X219393886Y-64650602D01*
X219400000Y-64650000D01*
X219950000Y-64650000D01*
X219969509Y-64651921D01*
G37*
G36*
X222606114Y-64650602D02*
G01*
X222624534Y-64650602D01*
X222634337Y-64651084D01*
X222683168Y-64655894D01*
X222692873Y-64657333D01*
X222740998Y-64666905D01*
X222750519Y-64669290D01*
X222797474Y-64683534D01*
X222806712Y-64686840D01*
X222852045Y-64705617D01*
X222860919Y-64709814D01*
X222904192Y-64732945D01*
X222912607Y-64737988D01*
X222953406Y-64765248D01*
X222961290Y-64771095D01*
X222999219Y-64802223D01*
X223006490Y-64808813D01*
X223041187Y-64843510D01*
X223047777Y-64850781D01*
X223078905Y-64888710D01*
X223084752Y-64896594D01*
X223112012Y-64937393D01*
X223117055Y-64945808D01*
X223140186Y-64989081D01*
X223144383Y-64997955D01*
X223163160Y-65043288D01*
X223166466Y-65052526D01*
X223180710Y-65099481D01*
X223183095Y-65109002D01*
X223192667Y-65157127D01*
X223194106Y-65166832D01*
X223198916Y-65215663D01*
X223199398Y-65225466D01*
X223199398Y-65243886D01*
X223200000Y-65250000D01*
X223200000Y-65750000D01*
X223199398Y-65756114D01*
X223199398Y-65774534D01*
X223198916Y-65784337D01*
X223194106Y-65833168D01*
X223192667Y-65842873D01*
X223183095Y-65890998D01*
X223180710Y-65900519D01*
X223166466Y-65947474D01*
X223163160Y-65956712D01*
X223144383Y-66002045D01*
X223140186Y-66010919D01*
X223117055Y-66054192D01*
X223112012Y-66062607D01*
X223084752Y-66103406D01*
X223078905Y-66111290D01*
X223047777Y-66149219D01*
X223041187Y-66156490D01*
X223006490Y-66191187D01*
X222999219Y-66197777D01*
X222961290Y-66228905D01*
X222953406Y-66234752D01*
X222912607Y-66262012D01*
X222904192Y-66267055D01*
X222860919Y-66290186D01*
X222852045Y-66294383D01*
X222806712Y-66313160D01*
X222797474Y-66316466D01*
X222750519Y-66330710D01*
X222740998Y-66333095D01*
X222692873Y-66342667D01*
X222683168Y-66344106D01*
X222634337Y-66348916D01*
X222624534Y-66349398D01*
X222606114Y-66349398D01*
X222600000Y-66350000D01*
X222050000Y-66350000D01*
X222030491Y-66348079D01*
X222011732Y-66342388D01*
X221994443Y-66333147D01*
X221979289Y-66320711D01*
X221966853Y-66305557D01*
X221957612Y-66288268D01*
X221951921Y-66269509D01*
X221950000Y-66250000D01*
X221950000Y-64750000D01*
X221951921Y-64730491D01*
X221957612Y-64711732D01*
X221966853Y-64694443D01*
X221979289Y-64679289D01*
X221994443Y-64666853D01*
X222011732Y-64657612D01*
X222030491Y-64651921D01*
X222050000Y-64650000D01*
X222600000Y-64650000D01*
X222606114Y-64650602D01*
G37*
D11*
X221000000Y-65500000D03*
%TD*%
D12*
%TO.C,U1*%
X205430000Y-124364000D03*
X202890000Y-124364000D03*
X200350000Y-124364000D03*
X197810000Y-124364000D03*
X195270000Y-124364000D03*
X192730000Y-124364000D03*
D13*
X214320000Y-95916000D03*
X214320000Y-93376000D03*
X214320000Y-106076000D03*
X214320000Y-103536000D03*
X214320000Y-100996000D03*
X214320000Y-98456000D03*
X214320000Y-80676000D03*
X214320000Y-83216000D03*
X214320000Y-85756000D03*
X214320000Y-88296000D03*
X214320000Y-90836000D03*
X214320000Y-116236000D03*
X214320000Y-113696000D03*
X214320000Y-111156000D03*
X214320000Y-108616000D03*
X183840000Y-83216000D03*
G36*
G01*
X182540000Y-81126000D02*
X182540000Y-80226000D01*
G75*
G02*
X182990000Y-79776000I450000J0D01*
G01*
X184690000Y-79776000D01*
G75*
G02*
X185140000Y-80226000I0J-450000D01*
G01*
X185140000Y-81126000D01*
G75*
G02*
X184690000Y-81576000I-450000J0D01*
G01*
X182990000Y-81576000D01*
G75*
G02*
X182540000Y-81126000I0J450000D01*
G01*
G37*
X183840000Y-95916000D03*
X183840000Y-93376000D03*
X183840000Y-90836000D03*
X183840000Y-88296000D03*
X183840000Y-85756000D03*
X183840000Y-116236000D03*
X183840000Y-113696000D03*
X183840000Y-111156000D03*
X183840000Y-108362000D03*
X183840000Y-106076000D03*
X183840000Y-103536000D03*
X183840000Y-100996000D03*
X183840000Y-98456000D03*
X209240000Y-80676000D03*
X209240000Y-83216000D03*
X209240000Y-85756000D03*
X209240000Y-88296000D03*
X209240000Y-90836000D03*
X188920000Y-116236000D03*
X188920000Y-113696000D03*
X188920000Y-111156000D03*
X188920000Y-108362000D03*
X188920000Y-106076000D03*
D12*
X205430000Y-119284000D03*
X202890000Y-119284000D03*
X200350000Y-119284000D03*
X197810000Y-119284000D03*
X195270000Y-119284000D03*
X192730000Y-119284000D03*
D14*
X209240000Y-119284000D03*
X188920000Y-119284000D03*
D13*
X209240000Y-116236000D03*
X188920000Y-103536000D03*
X209240000Y-113696000D03*
X188920000Y-100996000D03*
X209240000Y-111156000D03*
X188920000Y-98456000D03*
X209240000Y-108616000D03*
X188920000Y-95916000D03*
X209240000Y-106076000D03*
X188920000Y-93376000D03*
X209240000Y-103536000D03*
X188920000Y-90836000D03*
X209240000Y-100996000D03*
X188920000Y-88296000D03*
X209240000Y-98456000D03*
X188920000Y-85756000D03*
X209240000Y-95916000D03*
X188920000Y-83216000D03*
X209240000Y-93376000D03*
G36*
G01*
X187620000Y-81126000D02*
X187620000Y-80226000D01*
G75*
G02*
X188070000Y-79776000I450000J0D01*
G01*
X189770000Y-79776000D01*
G75*
G02*
X190220000Y-80226000I0J-450000D01*
G01*
X190220000Y-81126000D01*
G75*
G02*
X189770000Y-81576000I-450000J0D01*
G01*
X188070000Y-81576000D01*
G75*
G02*
X187620000Y-81126000I0J450000D01*
G01*
G37*
%TD*%
%TO.C,J16*%
G36*
G01*
X222200000Y-150150000D02*
X222200000Y-148850000D01*
G75*
G02*
X222850000Y-148200000I650000J0D01*
G01*
X224150000Y-148200000D01*
G75*
G02*
X224800000Y-148850000I0J-650000D01*
G01*
X224800000Y-150150000D01*
G75*
G02*
X224150000Y-150800000I-650000J0D01*
G01*
X222850000Y-150800000D01*
G75*
G02*
X222200000Y-150150000I0J650000D01*
G01*
G37*
G36*
G01*
X227200000Y-150150000D02*
X227200000Y-148850000D01*
G75*
G02*
X227850000Y-148200000I650000J0D01*
G01*
X229150000Y-148200000D01*
G75*
G02*
X229800000Y-148850000I0J-650000D01*
G01*
X229800000Y-150150000D01*
G75*
G02*
X229150000Y-150800000I-650000J0D01*
G01*
X227850000Y-150800000D01*
G75*
G02*
X227200000Y-150150000I0J650000D01*
G01*
G37*
%TD*%
%TO.C,J15*%
G36*
G01*
X212200000Y-150150000D02*
X212200000Y-148850000D01*
G75*
G02*
X212850000Y-148200000I650000J0D01*
G01*
X214150000Y-148200000D01*
G75*
G02*
X214800000Y-148850000I0J-650000D01*
G01*
X214800000Y-150150000D01*
G75*
G02*
X214150000Y-150800000I-650000J0D01*
G01*
X212850000Y-150800000D01*
G75*
G02*
X212200000Y-150150000I0J650000D01*
G01*
G37*
G36*
G01*
X217200000Y-150150000D02*
X217200000Y-148850000D01*
G75*
G02*
X217850000Y-148200000I650000J0D01*
G01*
X219150000Y-148200000D01*
G75*
G02*
X219800000Y-148850000I0J-650000D01*
G01*
X219800000Y-150150000D01*
G75*
G02*
X219150000Y-150800000I-650000J0D01*
G01*
X217850000Y-150800000D01*
G75*
G02*
X217200000Y-150150000I0J650000D01*
G01*
G37*
%TD*%
%TO.C,J14*%
G36*
G01*
X202200000Y-150150000D02*
X202200000Y-148850000D01*
G75*
G02*
X202850000Y-148200000I650000J0D01*
G01*
X204150000Y-148200000D01*
G75*
G02*
X204800000Y-148850000I0J-650000D01*
G01*
X204800000Y-150150000D01*
G75*
G02*
X204150000Y-150800000I-650000J0D01*
G01*
X202850000Y-150800000D01*
G75*
G02*
X202200000Y-150150000I0J650000D01*
G01*
G37*
G36*
G01*
X207200000Y-150150000D02*
X207200000Y-148850000D01*
G75*
G02*
X207850000Y-148200000I650000J0D01*
G01*
X209150000Y-148200000D01*
G75*
G02*
X209800000Y-148850000I0J-650000D01*
G01*
X209800000Y-150150000D01*
G75*
G02*
X209150000Y-150800000I-650000J0D01*
G01*
X207850000Y-150800000D01*
G75*
G02*
X207200000Y-150150000I0J650000D01*
G01*
G37*
%TD*%
%TO.C,J13*%
G36*
G01*
X192200000Y-150150000D02*
X192200000Y-148850000D01*
G75*
G02*
X192850000Y-148200000I650000J0D01*
G01*
X194150000Y-148200000D01*
G75*
G02*
X194800000Y-148850000I0J-650000D01*
G01*
X194800000Y-150150000D01*
G75*
G02*
X194150000Y-150800000I-650000J0D01*
G01*
X192850000Y-150800000D01*
G75*
G02*
X192200000Y-150150000I0J650000D01*
G01*
G37*
G36*
G01*
X197200000Y-150150000D02*
X197200000Y-148850000D01*
G75*
G02*
X197850000Y-148200000I650000J0D01*
G01*
X199150000Y-148200000D01*
G75*
G02*
X199800000Y-148850000I0J-650000D01*
G01*
X199800000Y-150150000D01*
G75*
G02*
X199150000Y-150800000I-650000J0D01*
G01*
X197850000Y-150800000D01*
G75*
G02*
X197200000Y-150150000I0J650000D01*
G01*
G37*
%TD*%
%TO.C,J12*%
G36*
G01*
X182200000Y-150150000D02*
X182200000Y-148850000D01*
G75*
G02*
X182850000Y-148200000I650000J0D01*
G01*
X184150000Y-148200000D01*
G75*
G02*
X184800000Y-148850000I0J-650000D01*
G01*
X184800000Y-150150000D01*
G75*
G02*
X184150000Y-150800000I-650000J0D01*
G01*
X182850000Y-150800000D01*
G75*
G02*
X182200000Y-150150000I0J650000D01*
G01*
G37*
G36*
G01*
X187200000Y-150150000D02*
X187200000Y-148850000D01*
G75*
G02*
X187850000Y-148200000I650000J0D01*
G01*
X189150000Y-148200000D01*
G75*
G02*
X189800000Y-148850000I0J-650000D01*
G01*
X189800000Y-150150000D01*
G75*
G02*
X189150000Y-150800000I-650000J0D01*
G01*
X187850000Y-150800000D01*
G75*
G02*
X187200000Y-150150000I0J650000D01*
G01*
G37*
%TD*%
%TO.C,J11*%
G36*
G01*
X172200000Y-150150000D02*
X172200000Y-148850000D01*
G75*
G02*
X172850000Y-148200000I650000J0D01*
G01*
X174150000Y-148200000D01*
G75*
G02*
X174800000Y-148850000I0J-650000D01*
G01*
X174800000Y-150150000D01*
G75*
G02*
X174150000Y-150800000I-650000J0D01*
G01*
X172850000Y-150800000D01*
G75*
G02*
X172200000Y-150150000I0J650000D01*
G01*
G37*
G36*
G01*
X177200000Y-150150000D02*
X177200000Y-148850000D01*
G75*
G02*
X177850000Y-148200000I650000J0D01*
G01*
X179150000Y-148200000D01*
G75*
G02*
X179800000Y-148850000I0J-650000D01*
G01*
X179800000Y-150150000D01*
G75*
G02*
X179150000Y-150800000I-650000J0D01*
G01*
X177850000Y-150800000D01*
G75*
G02*
X177200000Y-150150000I0J650000D01*
G01*
G37*
%TD*%
%TO.C,J10*%
G36*
G01*
X162200000Y-150150000D02*
X162200000Y-148850000D01*
G75*
G02*
X162850000Y-148200000I650000J0D01*
G01*
X164150000Y-148200000D01*
G75*
G02*
X164800000Y-148850000I0J-650000D01*
G01*
X164800000Y-150150000D01*
G75*
G02*
X164150000Y-150800000I-650000J0D01*
G01*
X162850000Y-150800000D01*
G75*
G02*
X162200000Y-150150000I0J650000D01*
G01*
G37*
G36*
G01*
X167200000Y-150150000D02*
X167200000Y-148850000D01*
G75*
G02*
X167850000Y-148200000I650000J0D01*
G01*
X169150000Y-148200000D01*
G75*
G02*
X169800000Y-148850000I0J-650000D01*
G01*
X169800000Y-150150000D01*
G75*
G02*
X169150000Y-150800000I-650000J0D01*
G01*
X167850000Y-150800000D01*
G75*
G02*
X167200000Y-150150000I0J650000D01*
G01*
G37*
%TD*%
%TO.C,J9*%
G36*
G01*
X152200000Y-150150000D02*
X152200000Y-148850000D01*
G75*
G02*
X152850000Y-148200000I650000J0D01*
G01*
X154150000Y-148200000D01*
G75*
G02*
X154800000Y-148850000I0J-650000D01*
G01*
X154800000Y-150150000D01*
G75*
G02*
X154150000Y-150800000I-650000J0D01*
G01*
X152850000Y-150800000D01*
G75*
G02*
X152200000Y-150150000I0J650000D01*
G01*
G37*
G36*
G01*
X157200000Y-150150000D02*
X157200000Y-148850000D01*
G75*
G02*
X157850000Y-148200000I650000J0D01*
G01*
X159150000Y-148200000D01*
G75*
G02*
X159800000Y-148850000I0J-650000D01*
G01*
X159800000Y-150150000D01*
G75*
G02*
X159150000Y-150800000I-650000J0D01*
G01*
X157850000Y-150800000D01*
G75*
G02*
X157200000Y-150150000I0J650000D01*
G01*
G37*
%TD*%
%TO.C,J8*%
G36*
G01*
X145350000Y-134200000D02*
X146650000Y-134200000D01*
G75*
G02*
X147300000Y-134850000I0J-650000D01*
G01*
X147300000Y-136150000D01*
G75*
G02*
X146650000Y-136800000I-650000J0D01*
G01*
X145350000Y-136800000D01*
G75*
G02*
X144700000Y-136150000I0J650000D01*
G01*
X144700000Y-134850000D01*
G75*
G02*
X145350000Y-134200000I650000J0D01*
G01*
G37*
G36*
G01*
X145350000Y-139200000D02*
X146650000Y-139200000D01*
G75*
G02*
X147300000Y-139850000I0J-650000D01*
G01*
X147300000Y-141150000D01*
G75*
G02*
X146650000Y-141800000I-650000J0D01*
G01*
X145350000Y-141800000D01*
G75*
G02*
X144700000Y-141150000I0J650000D01*
G01*
X144700000Y-139850000D01*
G75*
G02*
X145350000Y-139200000I650000J0D01*
G01*
G37*
%TD*%
%TO.C,J7*%
G36*
G01*
X145350000Y-124200000D02*
X146650000Y-124200000D01*
G75*
G02*
X147300000Y-124850000I0J-650000D01*
G01*
X147300000Y-126150000D01*
G75*
G02*
X146650000Y-126800000I-650000J0D01*
G01*
X145350000Y-126800000D01*
G75*
G02*
X144700000Y-126150000I0J650000D01*
G01*
X144700000Y-124850000D01*
G75*
G02*
X145350000Y-124200000I650000J0D01*
G01*
G37*
G36*
G01*
X145350000Y-129200000D02*
X146650000Y-129200000D01*
G75*
G02*
X147300000Y-129850000I0J-650000D01*
G01*
X147300000Y-131150000D01*
G75*
G02*
X146650000Y-131800000I-650000J0D01*
G01*
X145350000Y-131800000D01*
G75*
G02*
X144700000Y-131150000I0J650000D01*
G01*
X144700000Y-129850000D01*
G75*
G02*
X145350000Y-129200000I650000J0D01*
G01*
G37*
%TD*%
%TO.C,J6*%
G36*
G01*
X145350000Y-114200000D02*
X146650000Y-114200000D01*
G75*
G02*
X147300000Y-114850000I0J-650000D01*
G01*
X147300000Y-116150000D01*
G75*
G02*
X146650000Y-116800000I-650000J0D01*
G01*
X145350000Y-116800000D01*
G75*
G02*
X144700000Y-116150000I0J650000D01*
G01*
X144700000Y-114850000D01*
G75*
G02*
X145350000Y-114200000I650000J0D01*
G01*
G37*
G36*
G01*
X145350000Y-119200000D02*
X146650000Y-119200000D01*
G75*
G02*
X147300000Y-119850000I0J-650000D01*
G01*
X147300000Y-121150000D01*
G75*
G02*
X146650000Y-121800000I-650000J0D01*
G01*
X145350000Y-121800000D01*
G75*
G02*
X144700000Y-121150000I0J650000D01*
G01*
X144700000Y-119850000D01*
G75*
G02*
X145350000Y-119200000I650000J0D01*
G01*
G37*
%TD*%
%TO.C,J5*%
G36*
G01*
X145350000Y-104200000D02*
X146650000Y-104200000D01*
G75*
G02*
X147300000Y-104850000I0J-650000D01*
G01*
X147300000Y-106150000D01*
G75*
G02*
X146650000Y-106800000I-650000J0D01*
G01*
X145350000Y-106800000D01*
G75*
G02*
X144700000Y-106150000I0J650000D01*
G01*
X144700000Y-104850000D01*
G75*
G02*
X145350000Y-104200000I650000J0D01*
G01*
G37*
G36*
G01*
X145350000Y-109200000D02*
X146650000Y-109200000D01*
G75*
G02*
X147300000Y-109850000I0J-650000D01*
G01*
X147300000Y-111150000D01*
G75*
G02*
X146650000Y-111800000I-650000J0D01*
G01*
X145350000Y-111800000D01*
G75*
G02*
X144700000Y-111150000I0J650000D01*
G01*
X144700000Y-109850000D01*
G75*
G02*
X145350000Y-109200000I650000J0D01*
G01*
G37*
%TD*%
%TO.C,J4*%
G36*
G01*
X145350000Y-94200000D02*
X146650000Y-94200000D01*
G75*
G02*
X147300000Y-94850000I0J-650000D01*
G01*
X147300000Y-96150000D01*
G75*
G02*
X146650000Y-96800000I-650000J0D01*
G01*
X145350000Y-96800000D01*
G75*
G02*
X144700000Y-96150000I0J650000D01*
G01*
X144700000Y-94850000D01*
G75*
G02*
X145350000Y-94200000I650000J0D01*
G01*
G37*
G36*
G01*
X145350000Y-99200000D02*
X146650000Y-99200000D01*
G75*
G02*
X147300000Y-99850000I0J-650000D01*
G01*
X147300000Y-101150000D01*
G75*
G02*
X146650000Y-101800000I-650000J0D01*
G01*
X145350000Y-101800000D01*
G75*
G02*
X144700000Y-101150000I0J650000D01*
G01*
X144700000Y-99850000D01*
G75*
G02*
X145350000Y-99200000I650000J0D01*
G01*
G37*
%TD*%
%TO.C,J3*%
G36*
G01*
X145350000Y-84200000D02*
X146650000Y-84200000D01*
G75*
G02*
X147300000Y-84850000I0J-650000D01*
G01*
X147300000Y-86150000D01*
G75*
G02*
X146650000Y-86800000I-650000J0D01*
G01*
X145350000Y-86800000D01*
G75*
G02*
X144700000Y-86150000I0J650000D01*
G01*
X144700000Y-84850000D01*
G75*
G02*
X145350000Y-84200000I650000J0D01*
G01*
G37*
G36*
G01*
X145350000Y-89200000D02*
X146650000Y-89200000D01*
G75*
G02*
X147300000Y-89850000I0J-650000D01*
G01*
X147300000Y-91150000D01*
G75*
G02*
X146650000Y-91800000I-650000J0D01*
G01*
X145350000Y-91800000D01*
G75*
G02*
X144700000Y-91150000I0J650000D01*
G01*
X144700000Y-89850000D01*
G75*
G02*
X145350000Y-89200000I650000J0D01*
G01*
G37*
%TD*%
%TO.C,J2*%
G36*
G01*
X145350000Y-74200000D02*
X146650000Y-74200000D01*
G75*
G02*
X147300000Y-74850000I0J-650000D01*
G01*
X147300000Y-76150000D01*
G75*
G02*
X146650000Y-76800000I-650000J0D01*
G01*
X145350000Y-76800000D01*
G75*
G02*
X144700000Y-76150000I0J650000D01*
G01*
X144700000Y-74850000D01*
G75*
G02*
X145350000Y-74200000I650000J0D01*
G01*
G37*
G36*
G01*
X145350000Y-79200000D02*
X146650000Y-79200000D01*
G75*
G02*
X147300000Y-79850000I0J-650000D01*
G01*
X147300000Y-81150000D01*
G75*
G02*
X146650000Y-81800000I-650000J0D01*
G01*
X145350000Y-81800000D01*
G75*
G02*
X144700000Y-81150000I0J650000D01*
G01*
X144700000Y-79850000D01*
G75*
G02*
X145350000Y-79200000I650000J0D01*
G01*
G37*
%TD*%
%TO.C,J1*%
G36*
G01*
X145350000Y-64200000D02*
X146650000Y-64200000D01*
G75*
G02*
X147300000Y-64850000I0J-650000D01*
G01*
X147300000Y-66150000D01*
G75*
G02*
X146650000Y-66800000I-650000J0D01*
G01*
X145350000Y-66800000D01*
G75*
G02*
X144700000Y-66150000I0J650000D01*
G01*
X144700000Y-64850000D01*
G75*
G02*
X145350000Y-64200000I650000J0D01*
G01*
G37*
G36*
G01*
X145350000Y-69200000D02*
X146650000Y-69200000D01*
G75*
G02*
X147300000Y-69850000I0J-650000D01*
G01*
X147300000Y-71150000D01*
G75*
G02*
X146650000Y-71800000I-650000J0D01*
G01*
X145350000Y-71800000D01*
G75*
G02*
X144700000Y-71150000I0J650000D01*
G01*
X144700000Y-69850000D01*
G75*
G02*
X145350000Y-69200000I650000J0D01*
G01*
G37*
%TD*%
D15*
%TO.C,H4*%
X146697056Y-149302944D03*
X145000000Y-148600000D03*
X143302944Y-149302944D03*
X142600000Y-151000000D03*
X143302944Y-152697056D03*
X145000000Y-153400000D03*
X146697056Y-152697056D03*
X147400000Y-151000000D03*
D16*
X145000000Y-151000000D03*
%TD*%
D15*
%TO.C,H3*%
X238697056Y-57302944D03*
X237000000Y-56600000D03*
X235302944Y-57302944D03*
X234600000Y-59000000D03*
X235302944Y-60697056D03*
X237000000Y-61400000D03*
X238697056Y-60697056D03*
X239400000Y-59000000D03*
D16*
X237000000Y-59000000D03*
%TD*%
D15*
%TO.C,H2*%
X238697056Y-149302944D03*
X237000000Y-148600000D03*
X235302944Y-149302944D03*
X234600000Y-151000000D03*
X235302944Y-152697056D03*
X237000000Y-153400000D03*
X238697056Y-152697056D03*
X239400000Y-151000000D03*
D16*
X237000000Y-151000000D03*
%TD*%
D15*
%TO.C,H1*%
X146697056Y-57302944D03*
X145000000Y-56600000D03*
X143302944Y-57302944D03*
X142600000Y-59000000D03*
X143302944Y-60697056D03*
X145000000Y-61400000D03*
X146697056Y-60697056D03*
X147400000Y-59000000D03*
D16*
X145000000Y-59000000D03*
%TD*%
D17*
%TO.C,R29*%
X228620000Y-135500000D03*
D18*
X221000000Y-135500000D03*
%TD*%
D17*
%TO.C,R28*%
X221000000Y-125500000D03*
D18*
X228620000Y-125500000D03*
%TD*%
D17*
%TO.C,R27*%
X228620000Y-115500000D03*
D18*
X221000000Y-115500000D03*
%TD*%
D17*
%TO.C,R26*%
X221000000Y-105500000D03*
D18*
X228620000Y-105500000D03*
%TD*%
D17*
%TO.C,R25*%
X228620000Y-95500000D03*
D18*
X221000000Y-95500000D03*
%TD*%
D17*
%TO.C,R24*%
X221000000Y-85500000D03*
D18*
X228620000Y-85500000D03*
%TD*%
D17*
%TO.C,R23*%
X228620000Y-75500000D03*
D18*
X221000000Y-75500000D03*
%TD*%
D17*
%TO.C,R22*%
X221000000Y-65500000D03*
D18*
X228620000Y-65500000D03*
%TD*%
D17*
%TO.C,R21*%
X221000000Y-140500000D03*
D18*
X228620000Y-140500000D03*
%TD*%
D17*
%TO.C,R20*%
X215120000Y-71000000D03*
D18*
X207500000Y-71000000D03*
%TD*%
D17*
%TO.C,R19*%
X215120000Y-68000000D03*
D18*
X207500000Y-68000000D03*
%TD*%
D17*
%TO.C,R18*%
X204120000Y-71000000D03*
D18*
X196500000Y-71000000D03*
%TD*%
D17*
%TO.C,R17*%
X204120000Y-68000000D03*
D18*
X196500000Y-68000000D03*
%TD*%
D19*
%TO.C,J20*%
X235500000Y-65500000D03*
X235500000Y-70500000D03*
X235500000Y-75500000D03*
X235500000Y-80500000D03*
X235500000Y-85500000D03*
X235500000Y-90500000D03*
X235500000Y-95500000D03*
X235500000Y-100500000D03*
X235500000Y-105500000D03*
X235500000Y-110500000D03*
X235500000Y-115500000D03*
X235500000Y-120500000D03*
X235500000Y-125500000D03*
X235500000Y-130500000D03*
X235500000Y-135500000D03*
D20*
X235500000Y-140500000D03*
%TD*%
D21*
%TO.C,J19*%
X214475000Y-62025000D03*
X213625000Y-62025000D03*
X212775000Y-62025000D03*
X211925000Y-62025000D03*
X211075000Y-62025000D03*
X210225000Y-62025000D03*
X209375000Y-62025000D03*
X208525000Y-62025000D03*
X208525000Y-60675000D03*
X209375000Y-60675000D03*
X210225000Y-60675000D03*
X211075000Y-60675000D03*
X211925000Y-60675000D03*
X212775000Y-60675000D03*
X213625000Y-60675000D03*
X214475000Y-60675000D03*
D22*
X215825000Y-61045000D03*
X207175000Y-61045000D03*
D23*
X207175000Y-57665000D03*
X215825000Y-57665000D03*
%TD*%
D21*
%TO.C,J18*%
X203475000Y-62025000D03*
X202625000Y-62025000D03*
X201775000Y-62025000D03*
X200925000Y-62025000D03*
X200075000Y-62025000D03*
X199225000Y-62025000D03*
X198375000Y-62025000D03*
X197525000Y-62025000D03*
X197525000Y-60675000D03*
X198375000Y-60675000D03*
X199225000Y-60675000D03*
X200075000Y-60675000D03*
X200925000Y-60675000D03*
X201775000Y-60675000D03*
X202625000Y-60675000D03*
X203475000Y-60675000D03*
D22*
X204825000Y-61045000D03*
X196175000Y-61045000D03*
D23*
X196175000Y-57665000D03*
X204825000Y-57665000D03*
%TD*%
D24*
%TO.C,J17*%
X178930000Y-64350000D03*
X192070000Y-64350000D03*
G36*
G01*
X189750000Y-63625000D02*
X189750000Y-64375000D01*
G75*
G02*
X189375000Y-64750000I-375000J0D01*
G01*
X188625000Y-64750000D01*
G75*
G02*
X188250000Y-64375000I0J375000D01*
G01*
X188250000Y-63625000D01*
G75*
G02*
X188625000Y-63250000I375000J0D01*
G01*
X189375000Y-63250000D01*
G75*
G02*
X189750000Y-63625000I0J-375000D01*
G01*
G37*
G36*
G01*
X187250000Y-63625000D02*
X187250000Y-64375000D01*
G75*
G02*
X186875000Y-64750000I-375000J0D01*
G01*
X186125000Y-64750000D01*
G75*
G02*
X185750000Y-64375000I0J375000D01*
G01*
X185750000Y-63625000D01*
G75*
G02*
X186125000Y-63250000I375000J0D01*
G01*
X186875000Y-63250000D01*
G75*
G02*
X187250000Y-63625000I0J-375000D01*
G01*
G37*
G36*
G01*
X185250000Y-63625000D02*
X185250000Y-64375000D01*
G75*
G02*
X184875000Y-64750000I-375000J0D01*
G01*
X184125000Y-64750000D01*
G75*
G02*
X183750000Y-64375000I0J375000D01*
G01*
X183750000Y-63625000D01*
G75*
G02*
X184125000Y-63250000I375000J0D01*
G01*
X184875000Y-63250000D01*
G75*
G02*
X185250000Y-63625000I0J-375000D01*
G01*
G37*
G36*
G01*
X182750000Y-63625000D02*
X182750000Y-64375000D01*
G75*
G02*
X182375000Y-64750000I-375000J0D01*
G01*
X181625000Y-64750000D01*
G75*
G02*
X181250000Y-64375000I0J375000D01*
G01*
X181250000Y-63625000D01*
G75*
G02*
X181625000Y-63250000I375000J0D01*
G01*
X182375000Y-63250000D01*
G75*
G02*
X182750000Y-63625000I0J-375000D01*
G01*
G37*
X192070000Y-58670000D03*
X178930000Y-58670000D03*
G36*
G01*
X189750000Y-61005000D02*
X189750000Y-61755000D01*
G75*
G02*
X189375000Y-62130000I-375000J0D01*
G01*
X188625000Y-62130000D01*
G75*
G02*
X188250000Y-61755000I0J375000D01*
G01*
X188250000Y-61005000D01*
G75*
G02*
X188625000Y-60630000I375000J0D01*
G01*
X189375000Y-60630000D01*
G75*
G02*
X189750000Y-61005000I0J-375000D01*
G01*
G37*
G36*
G01*
X187250000Y-61005000D02*
X187250000Y-61755000D01*
G75*
G02*
X186875000Y-62130000I-375000J0D01*
G01*
X186125000Y-62130000D01*
G75*
G02*
X185750000Y-61755000I0J375000D01*
G01*
X185750000Y-61005000D01*
G75*
G02*
X186125000Y-60630000I375000J0D01*
G01*
X186875000Y-60630000D01*
G75*
G02*
X187250000Y-61005000I0J-375000D01*
G01*
G37*
G36*
G01*
X185250000Y-61005000D02*
X185250000Y-61755000D01*
G75*
G02*
X184875000Y-62130000I-375000J0D01*
G01*
X184125000Y-62130000D01*
G75*
G02*
X183750000Y-61755000I0J375000D01*
G01*
X183750000Y-61005000D01*
G75*
G02*
X184125000Y-60630000I375000J0D01*
G01*
X184875000Y-60630000D01*
G75*
G02*
X185250000Y-61005000I0J-375000D01*
G01*
G37*
G36*
G01*
X182750000Y-61005000D02*
X182750000Y-61755000D01*
G75*
G02*
X182375000Y-62130000I-375000J0D01*
G01*
X181625000Y-62130000D01*
G75*
G02*
X181250000Y-61755000I0J375000D01*
G01*
X181250000Y-61005000D01*
G75*
G02*
X181625000Y-60630000I375000J0D01*
G01*
X182375000Y-60630000D01*
G75*
G02*
X182750000Y-61005000I0J-375000D01*
G01*
G37*
%TD*%
M02*
