%TF.GenerationSoftware,KiCad,Pcbnew,5.1.9-73d0e3b20d~88~ubuntu20.04.1*%
%TF.CreationDate,2021-09-23T17:55:38+05:30*%
%TF.ProjectId,veloce,76656c6f-6365-42e6-9b69-6361645f7063,rev?*%
%TF.SameCoordinates,Original*%
%TF.FileFunction,Legend,Top*%
%TF.FilePolarity,Positive*%
%FSLAX46Y46*%
G04 Gerber Fmt 4.6, Leading zero omitted, Abs format (unit mm)*
G04 Created by KiCad (PCBNEW 5.1.9-73d0e3b20d~88~ubuntu20.04.1) date 2021-09-23 17:55:38*
%MOMM*%
%LPD*%
G01*
G04 APERTURE LIST*
%ADD10C,0.120000*%
%ADD11C,0.200000*%
%ADD12C,0.150000*%
G04 APERTURE END LIST*
D10*
%TO.C,Q1*%
X160261500Y-70517140D02*
X160261500Y-71492500D01*
X160261500Y-71492500D02*
X166738500Y-71492500D01*
X160261500Y-64507500D02*
X160261500Y-65482860D01*
X166738500Y-64507500D02*
X160261500Y-64507500D01*
X166738500Y-67428500D02*
X166738500Y-64507500D01*
X167754500Y-67428500D02*
X166738500Y-67428500D01*
X167754500Y-68571500D02*
X167754500Y-67428500D01*
X166738500Y-68571500D02*
X167754500Y-68571500D01*
X166738500Y-71492500D02*
X166738500Y-68571500D01*
%TO.C,Q2*%
X160261500Y-80517140D02*
X160261500Y-81492500D01*
X160261500Y-81492500D02*
X166738500Y-81492500D01*
X160261500Y-74507500D02*
X160261500Y-75482860D01*
X166738500Y-74507500D02*
X160261500Y-74507500D01*
X166738500Y-77428500D02*
X166738500Y-74507500D01*
X167754500Y-77428500D02*
X166738500Y-77428500D01*
X167754500Y-78571500D02*
X167754500Y-77428500D01*
X166738500Y-78571500D02*
X167754500Y-78571500D01*
X166738500Y-81492500D02*
X166738500Y-78571500D01*
%TO.C,U1*%
X210610000Y-79660000D02*
X207870000Y-79660000D01*
X210610000Y-117252000D02*
X210610000Y-79660000D01*
X207870000Y-117252000D02*
X210610000Y-117252000D01*
X207870000Y-79660000D02*
X207870000Y-117252000D01*
X190290000Y-79660000D02*
X187550000Y-79660000D01*
X190290000Y-117252000D02*
X190290000Y-79660000D01*
X187550000Y-117252000D02*
X190290000Y-117252000D01*
X187550000Y-79660000D02*
X187550000Y-117252000D01*
X188920000Y-78136000D02*
X209240000Y-78136000D01*
X211780000Y-80676000D02*
X211780000Y-119284000D01*
X209240000Y-121824000D02*
X188920000Y-121824000D01*
X186380000Y-119284000D02*
X186380000Y-80676000D01*
X216864000Y-84744000D02*
X216864000Y-84744000D01*
X211780000Y-119284000D02*
G75*
G02*
X209240000Y-121824000I-2540000J0D01*
G01*
X188920000Y-121824000D02*
G75*
G02*
X186380000Y-119284000I0J2540000D01*
G01*
X209240000Y-78136000D02*
G75*
G02*
X211780000Y-80676000I0J-2540000D01*
G01*
X186380000Y-80676000D02*
G75*
G02*
X188920000Y-78136000I2540000J0D01*
G01*
%TO.C,J16*%
X220700000Y-154400000D02*
X221200000Y-154400000D01*
X220700000Y-153660000D02*
X220700000Y-154400000D01*
X227273000Y-150523000D02*
X227226000Y-150569000D01*
X229570000Y-148225000D02*
X229535000Y-148261000D01*
X227466000Y-150739000D02*
X227431000Y-150774000D01*
X229775000Y-148431000D02*
X229728000Y-148477000D01*
X231060000Y-144239000D02*
X231060000Y-154160000D01*
X220940000Y-144239000D02*
X220940000Y-154160000D01*
X220940000Y-154160000D02*
X231060000Y-154160000D01*
X220940000Y-144239000D02*
X231060000Y-144239000D01*
X220940000Y-147199000D02*
X231060000Y-147199000D01*
X220940000Y-152100000D02*
X231060000Y-152100000D01*
X220940000Y-153600000D02*
X231060000Y-153600000D01*
X230180000Y-149500000D02*
G75*
G03*
X230180000Y-149500000I-1680000J0D01*
G01*
X224183318Y-151034756D02*
G75*
G02*
X223500000Y-151180000I-683318J1534756D01*
G01*
X225035426Y-148816958D02*
G75*
G02*
X225035000Y-150184000I-1535426J-683042D01*
G01*
X222816958Y-147964574D02*
G75*
G02*
X224184000Y-147965000I683042J-1535426D01*
G01*
X221964574Y-150183042D02*
G75*
G02*
X221965000Y-148816000I1535426J683042D01*
G01*
X223528805Y-151180253D02*
G75*
G02*
X222816000Y-151035000I-28805J1680253D01*
G01*
%TO.C,J15*%
X210700000Y-154400000D02*
X211200000Y-154400000D01*
X210700000Y-153660000D02*
X210700000Y-154400000D01*
X217273000Y-150523000D02*
X217226000Y-150569000D01*
X219570000Y-148225000D02*
X219535000Y-148261000D01*
X217466000Y-150739000D02*
X217431000Y-150774000D01*
X219775000Y-148431000D02*
X219728000Y-148477000D01*
X221060000Y-144239000D02*
X221060000Y-154160000D01*
X210940000Y-144239000D02*
X210940000Y-154160000D01*
X210940000Y-154160000D02*
X221060000Y-154160000D01*
X210940000Y-144239000D02*
X221060000Y-144239000D01*
X210940000Y-147199000D02*
X221060000Y-147199000D01*
X210940000Y-152100000D02*
X221060000Y-152100000D01*
X210940000Y-153600000D02*
X221060000Y-153600000D01*
X220180000Y-149500000D02*
G75*
G03*
X220180000Y-149500000I-1680000J0D01*
G01*
X214183318Y-151034756D02*
G75*
G02*
X213500000Y-151180000I-683318J1534756D01*
G01*
X215035426Y-148816958D02*
G75*
G02*
X215035000Y-150184000I-1535426J-683042D01*
G01*
X212816958Y-147964574D02*
G75*
G02*
X214184000Y-147965000I683042J-1535426D01*
G01*
X211964574Y-150183042D02*
G75*
G02*
X211965000Y-148816000I1535426J683042D01*
G01*
X213528805Y-151180253D02*
G75*
G02*
X212816000Y-151035000I-28805J1680253D01*
G01*
%TO.C,J14*%
X200700000Y-154400000D02*
X201200000Y-154400000D01*
X200700000Y-153660000D02*
X200700000Y-154400000D01*
X207273000Y-150523000D02*
X207226000Y-150569000D01*
X209570000Y-148225000D02*
X209535000Y-148261000D01*
X207466000Y-150739000D02*
X207431000Y-150774000D01*
X209775000Y-148431000D02*
X209728000Y-148477000D01*
X211060000Y-144239000D02*
X211060000Y-154160000D01*
X200940000Y-144239000D02*
X200940000Y-154160000D01*
X200940000Y-154160000D02*
X211060000Y-154160000D01*
X200940000Y-144239000D02*
X211060000Y-144239000D01*
X200940000Y-147199000D02*
X211060000Y-147199000D01*
X200940000Y-152100000D02*
X211060000Y-152100000D01*
X200940000Y-153600000D02*
X211060000Y-153600000D01*
X210180000Y-149500000D02*
G75*
G03*
X210180000Y-149500000I-1680000J0D01*
G01*
X204183318Y-151034756D02*
G75*
G02*
X203500000Y-151180000I-683318J1534756D01*
G01*
X205035426Y-148816958D02*
G75*
G02*
X205035000Y-150184000I-1535426J-683042D01*
G01*
X202816958Y-147964574D02*
G75*
G02*
X204184000Y-147965000I683042J-1535426D01*
G01*
X201964574Y-150183042D02*
G75*
G02*
X201965000Y-148816000I1535426J683042D01*
G01*
X203528805Y-151180253D02*
G75*
G02*
X202816000Y-151035000I-28805J1680253D01*
G01*
%TO.C,J13*%
X190700000Y-154400000D02*
X191200000Y-154400000D01*
X190700000Y-153660000D02*
X190700000Y-154400000D01*
X197273000Y-150523000D02*
X197226000Y-150569000D01*
X199570000Y-148225000D02*
X199535000Y-148261000D01*
X197466000Y-150739000D02*
X197431000Y-150774000D01*
X199775000Y-148431000D02*
X199728000Y-148477000D01*
X201060000Y-144239000D02*
X201060000Y-154160000D01*
X190940000Y-144239000D02*
X190940000Y-154160000D01*
X190940000Y-154160000D02*
X201060000Y-154160000D01*
X190940000Y-144239000D02*
X201060000Y-144239000D01*
X190940000Y-147199000D02*
X201060000Y-147199000D01*
X190940000Y-152100000D02*
X201060000Y-152100000D01*
X190940000Y-153600000D02*
X201060000Y-153600000D01*
X200180000Y-149500000D02*
G75*
G03*
X200180000Y-149500000I-1680000J0D01*
G01*
X194183318Y-151034756D02*
G75*
G02*
X193500000Y-151180000I-683318J1534756D01*
G01*
X195035426Y-148816958D02*
G75*
G02*
X195035000Y-150184000I-1535426J-683042D01*
G01*
X192816958Y-147964574D02*
G75*
G02*
X194184000Y-147965000I683042J-1535426D01*
G01*
X191964574Y-150183042D02*
G75*
G02*
X191965000Y-148816000I1535426J683042D01*
G01*
X193528805Y-151180253D02*
G75*
G02*
X192816000Y-151035000I-28805J1680253D01*
G01*
%TO.C,J12*%
X180700000Y-154400000D02*
X181200000Y-154400000D01*
X180700000Y-153660000D02*
X180700000Y-154400000D01*
X187273000Y-150523000D02*
X187226000Y-150569000D01*
X189570000Y-148225000D02*
X189535000Y-148261000D01*
X187466000Y-150739000D02*
X187431000Y-150774000D01*
X189775000Y-148431000D02*
X189728000Y-148477000D01*
X191060000Y-144239000D02*
X191060000Y-154160000D01*
X180940000Y-144239000D02*
X180940000Y-154160000D01*
X180940000Y-154160000D02*
X191060000Y-154160000D01*
X180940000Y-144239000D02*
X191060000Y-144239000D01*
X180940000Y-147199000D02*
X191060000Y-147199000D01*
X180940000Y-152100000D02*
X191060000Y-152100000D01*
X180940000Y-153600000D02*
X191060000Y-153600000D01*
X190180000Y-149500000D02*
G75*
G03*
X190180000Y-149500000I-1680000J0D01*
G01*
X184183318Y-151034756D02*
G75*
G02*
X183500000Y-151180000I-683318J1534756D01*
G01*
X185035426Y-148816958D02*
G75*
G02*
X185035000Y-150184000I-1535426J-683042D01*
G01*
X182816958Y-147964574D02*
G75*
G02*
X184184000Y-147965000I683042J-1535426D01*
G01*
X181964574Y-150183042D02*
G75*
G02*
X181965000Y-148816000I1535426J683042D01*
G01*
X183528805Y-151180253D02*
G75*
G02*
X182816000Y-151035000I-28805J1680253D01*
G01*
%TO.C,J11*%
X170700000Y-154400000D02*
X171200000Y-154400000D01*
X170700000Y-153660000D02*
X170700000Y-154400000D01*
X177273000Y-150523000D02*
X177226000Y-150569000D01*
X179570000Y-148225000D02*
X179535000Y-148261000D01*
X177466000Y-150739000D02*
X177431000Y-150774000D01*
X179775000Y-148431000D02*
X179728000Y-148477000D01*
X181060000Y-144239000D02*
X181060000Y-154160000D01*
X170940000Y-144239000D02*
X170940000Y-154160000D01*
X170940000Y-154160000D02*
X181060000Y-154160000D01*
X170940000Y-144239000D02*
X181060000Y-144239000D01*
X170940000Y-147199000D02*
X181060000Y-147199000D01*
X170940000Y-152100000D02*
X181060000Y-152100000D01*
X170940000Y-153600000D02*
X181060000Y-153600000D01*
X180180000Y-149500000D02*
G75*
G03*
X180180000Y-149500000I-1680000J0D01*
G01*
X174183318Y-151034756D02*
G75*
G02*
X173500000Y-151180000I-683318J1534756D01*
G01*
X175035426Y-148816958D02*
G75*
G02*
X175035000Y-150184000I-1535426J-683042D01*
G01*
X172816958Y-147964574D02*
G75*
G02*
X174184000Y-147965000I683042J-1535426D01*
G01*
X171964574Y-150183042D02*
G75*
G02*
X171965000Y-148816000I1535426J683042D01*
G01*
X173528805Y-151180253D02*
G75*
G02*
X172816000Y-151035000I-28805J1680253D01*
G01*
%TO.C,J10*%
X160700000Y-154400000D02*
X161200000Y-154400000D01*
X160700000Y-153660000D02*
X160700000Y-154400000D01*
X167273000Y-150523000D02*
X167226000Y-150569000D01*
X169570000Y-148225000D02*
X169535000Y-148261000D01*
X167466000Y-150739000D02*
X167431000Y-150774000D01*
X169775000Y-148431000D02*
X169728000Y-148477000D01*
X171060000Y-144239000D02*
X171060000Y-154160000D01*
X160940000Y-144239000D02*
X160940000Y-154160000D01*
X160940000Y-154160000D02*
X171060000Y-154160000D01*
X160940000Y-144239000D02*
X171060000Y-144239000D01*
X160940000Y-147199000D02*
X171060000Y-147199000D01*
X160940000Y-152100000D02*
X171060000Y-152100000D01*
X160940000Y-153600000D02*
X171060000Y-153600000D01*
X170180000Y-149500000D02*
G75*
G03*
X170180000Y-149500000I-1680000J0D01*
G01*
X164183318Y-151034756D02*
G75*
G02*
X163500000Y-151180000I-683318J1534756D01*
G01*
X165035426Y-148816958D02*
G75*
G02*
X165035000Y-150184000I-1535426J-683042D01*
G01*
X162816958Y-147964574D02*
G75*
G02*
X164184000Y-147965000I683042J-1535426D01*
G01*
X161964574Y-150183042D02*
G75*
G02*
X161965000Y-148816000I1535426J683042D01*
G01*
X163528805Y-151180253D02*
G75*
G02*
X162816000Y-151035000I-28805J1680253D01*
G01*
%TO.C,J9*%
X150700000Y-154400000D02*
X151200000Y-154400000D01*
X150700000Y-153660000D02*
X150700000Y-154400000D01*
X157273000Y-150523000D02*
X157226000Y-150569000D01*
X159570000Y-148225000D02*
X159535000Y-148261000D01*
X157466000Y-150739000D02*
X157431000Y-150774000D01*
X159775000Y-148431000D02*
X159728000Y-148477000D01*
X161060000Y-144239000D02*
X161060000Y-154160000D01*
X150940000Y-144239000D02*
X150940000Y-154160000D01*
X150940000Y-154160000D02*
X161060000Y-154160000D01*
X150940000Y-144239000D02*
X161060000Y-144239000D01*
X150940000Y-147199000D02*
X161060000Y-147199000D01*
X150940000Y-152100000D02*
X161060000Y-152100000D01*
X150940000Y-153600000D02*
X161060000Y-153600000D01*
X160180000Y-149500000D02*
G75*
G03*
X160180000Y-149500000I-1680000J0D01*
G01*
X154183318Y-151034756D02*
G75*
G02*
X153500000Y-151180000I-683318J1534756D01*
G01*
X155035426Y-148816958D02*
G75*
G02*
X155035000Y-150184000I-1535426J-683042D01*
G01*
X152816958Y-147964574D02*
G75*
G02*
X154184000Y-147965000I683042J-1535426D01*
G01*
X151964574Y-150183042D02*
G75*
G02*
X151965000Y-148816000I1535426J683042D01*
G01*
X153528805Y-151180253D02*
G75*
G02*
X152816000Y-151035000I-28805J1680253D01*
G01*
%TO.C,J8*%
X141100000Y-132700000D02*
X141100000Y-133200000D01*
X141840000Y-132700000D02*
X141100000Y-132700000D01*
X144977000Y-139273000D02*
X144931000Y-139226000D01*
X147275000Y-141570000D02*
X147239000Y-141535000D01*
X144761000Y-139466000D02*
X144726000Y-139431000D01*
X147069000Y-141775000D02*
X147023000Y-141728000D01*
X151261000Y-143060000D02*
X141340000Y-143060000D01*
X151261000Y-132940000D02*
X141340000Y-132940000D01*
X141340000Y-132940000D02*
X141340000Y-143060000D01*
X151261000Y-132940000D02*
X151261000Y-143060000D01*
X148301000Y-132940000D02*
X148301000Y-143060000D01*
X143400000Y-132940000D02*
X143400000Y-143060000D01*
X141900000Y-132940000D02*
X141900000Y-143060000D01*
X147680000Y-140500000D02*
G75*
G03*
X147680000Y-140500000I-1680000J0D01*
G01*
X144465244Y-136183318D02*
G75*
G02*
X144320000Y-135500000I1534756J683318D01*
G01*
X146683042Y-137035426D02*
G75*
G02*
X145316000Y-137035000I-683042J1535426D01*
G01*
X147535426Y-134816958D02*
G75*
G02*
X147535000Y-136184000I-1535426J-683042D01*
G01*
X145316958Y-133964574D02*
G75*
G02*
X146684000Y-133965000I683042J-1535426D01*
G01*
X144319747Y-135528805D02*
G75*
G02*
X144465000Y-134816000I1680253J28805D01*
G01*
%TO.C,J7*%
X141100000Y-122700000D02*
X141100000Y-123200000D01*
X141840000Y-122700000D02*
X141100000Y-122700000D01*
X144977000Y-129273000D02*
X144931000Y-129226000D01*
X147275000Y-131570000D02*
X147239000Y-131535000D01*
X144761000Y-129466000D02*
X144726000Y-129431000D01*
X147069000Y-131775000D02*
X147023000Y-131728000D01*
X151261000Y-133060000D02*
X141340000Y-133060000D01*
X151261000Y-122940000D02*
X141340000Y-122940000D01*
X141340000Y-122940000D02*
X141340000Y-133060000D01*
X151261000Y-122940000D02*
X151261000Y-133060000D01*
X148301000Y-122940000D02*
X148301000Y-133060000D01*
X143400000Y-122940000D02*
X143400000Y-133060000D01*
X141900000Y-122940000D02*
X141900000Y-133060000D01*
X147680000Y-130500000D02*
G75*
G03*
X147680000Y-130500000I-1680000J0D01*
G01*
X144465244Y-126183318D02*
G75*
G02*
X144320000Y-125500000I1534756J683318D01*
G01*
X146683042Y-127035426D02*
G75*
G02*
X145316000Y-127035000I-683042J1535426D01*
G01*
X147535426Y-124816958D02*
G75*
G02*
X147535000Y-126184000I-1535426J-683042D01*
G01*
X145316958Y-123964574D02*
G75*
G02*
X146684000Y-123965000I683042J-1535426D01*
G01*
X144319747Y-125528805D02*
G75*
G02*
X144465000Y-124816000I1680253J28805D01*
G01*
%TO.C,J6*%
X141100000Y-112700000D02*
X141100000Y-113200000D01*
X141840000Y-112700000D02*
X141100000Y-112700000D01*
X144977000Y-119273000D02*
X144931000Y-119226000D01*
X147275000Y-121570000D02*
X147239000Y-121535000D01*
X144761000Y-119466000D02*
X144726000Y-119431000D01*
X147069000Y-121775000D02*
X147023000Y-121728000D01*
X151261000Y-123060000D02*
X141340000Y-123060000D01*
X151261000Y-112940000D02*
X141340000Y-112940000D01*
X141340000Y-112940000D02*
X141340000Y-123060000D01*
X151261000Y-112940000D02*
X151261000Y-123060000D01*
X148301000Y-112940000D02*
X148301000Y-123060000D01*
X143400000Y-112940000D02*
X143400000Y-123060000D01*
X141900000Y-112940000D02*
X141900000Y-123060000D01*
X147680000Y-120500000D02*
G75*
G03*
X147680000Y-120500000I-1680000J0D01*
G01*
X144465244Y-116183318D02*
G75*
G02*
X144320000Y-115500000I1534756J683318D01*
G01*
X146683042Y-117035426D02*
G75*
G02*
X145316000Y-117035000I-683042J1535426D01*
G01*
X147535426Y-114816958D02*
G75*
G02*
X147535000Y-116184000I-1535426J-683042D01*
G01*
X145316958Y-113964574D02*
G75*
G02*
X146684000Y-113965000I683042J-1535426D01*
G01*
X144319747Y-115528805D02*
G75*
G02*
X144465000Y-114816000I1680253J28805D01*
G01*
%TO.C,J5*%
X141100000Y-102700000D02*
X141100000Y-103200000D01*
X141840000Y-102700000D02*
X141100000Y-102700000D01*
X144977000Y-109273000D02*
X144931000Y-109226000D01*
X147275000Y-111570000D02*
X147239000Y-111535000D01*
X144761000Y-109466000D02*
X144726000Y-109431000D01*
X147069000Y-111775000D02*
X147023000Y-111728000D01*
X151261000Y-113060000D02*
X141340000Y-113060000D01*
X151261000Y-102940000D02*
X141340000Y-102940000D01*
X141340000Y-102940000D02*
X141340000Y-113060000D01*
X151261000Y-102940000D02*
X151261000Y-113060000D01*
X148301000Y-102940000D02*
X148301000Y-113060000D01*
X143400000Y-102940000D02*
X143400000Y-113060000D01*
X141900000Y-102940000D02*
X141900000Y-113060000D01*
X147680000Y-110500000D02*
G75*
G03*
X147680000Y-110500000I-1680000J0D01*
G01*
X144465244Y-106183318D02*
G75*
G02*
X144320000Y-105500000I1534756J683318D01*
G01*
X146683042Y-107035426D02*
G75*
G02*
X145316000Y-107035000I-683042J1535426D01*
G01*
X147535426Y-104816958D02*
G75*
G02*
X147535000Y-106184000I-1535426J-683042D01*
G01*
X145316958Y-103964574D02*
G75*
G02*
X146684000Y-103965000I683042J-1535426D01*
G01*
X144319747Y-105528805D02*
G75*
G02*
X144465000Y-104816000I1680253J28805D01*
G01*
%TO.C,J4*%
X141100000Y-92700000D02*
X141100000Y-93200000D01*
X141840000Y-92700000D02*
X141100000Y-92700000D01*
X144977000Y-99273000D02*
X144931000Y-99226000D01*
X147275000Y-101570000D02*
X147239000Y-101535000D01*
X144761000Y-99466000D02*
X144726000Y-99431000D01*
X147069000Y-101775000D02*
X147023000Y-101728000D01*
X151261000Y-103060000D02*
X141340000Y-103060000D01*
X151261000Y-92940000D02*
X141340000Y-92940000D01*
X141340000Y-92940000D02*
X141340000Y-103060000D01*
X151261000Y-92940000D02*
X151261000Y-103060000D01*
X148301000Y-92940000D02*
X148301000Y-103060000D01*
X143400000Y-92940000D02*
X143400000Y-103060000D01*
X141900000Y-92940000D02*
X141900000Y-103060000D01*
X147680000Y-100500000D02*
G75*
G03*
X147680000Y-100500000I-1680000J0D01*
G01*
X144465244Y-96183318D02*
G75*
G02*
X144320000Y-95500000I1534756J683318D01*
G01*
X146683042Y-97035426D02*
G75*
G02*
X145316000Y-97035000I-683042J1535426D01*
G01*
X147535426Y-94816958D02*
G75*
G02*
X147535000Y-96184000I-1535426J-683042D01*
G01*
X145316958Y-93964574D02*
G75*
G02*
X146684000Y-93965000I683042J-1535426D01*
G01*
X144319747Y-95528805D02*
G75*
G02*
X144465000Y-94816000I1680253J28805D01*
G01*
%TO.C,J3*%
X141100000Y-82700000D02*
X141100000Y-83200000D01*
X141840000Y-82700000D02*
X141100000Y-82700000D01*
X144977000Y-89273000D02*
X144931000Y-89226000D01*
X147275000Y-91570000D02*
X147239000Y-91535000D01*
X144761000Y-89466000D02*
X144726000Y-89431000D01*
X147069000Y-91775000D02*
X147023000Y-91728000D01*
X151261000Y-93060000D02*
X141340000Y-93060000D01*
X151261000Y-82940000D02*
X141340000Y-82940000D01*
X141340000Y-82940000D02*
X141340000Y-93060000D01*
X151261000Y-82940000D02*
X151261000Y-93060000D01*
X148301000Y-82940000D02*
X148301000Y-93060000D01*
X143400000Y-82940000D02*
X143400000Y-93060000D01*
X141900000Y-82940000D02*
X141900000Y-93060000D01*
X147680000Y-90500000D02*
G75*
G03*
X147680000Y-90500000I-1680000J0D01*
G01*
X144465244Y-86183318D02*
G75*
G02*
X144320000Y-85500000I1534756J683318D01*
G01*
X146683042Y-87035426D02*
G75*
G02*
X145316000Y-87035000I-683042J1535426D01*
G01*
X147535426Y-84816958D02*
G75*
G02*
X147535000Y-86184000I-1535426J-683042D01*
G01*
X145316958Y-83964574D02*
G75*
G02*
X146684000Y-83965000I683042J-1535426D01*
G01*
X144319747Y-85528805D02*
G75*
G02*
X144465000Y-84816000I1680253J28805D01*
G01*
%TO.C,J2*%
X141100000Y-72700000D02*
X141100000Y-73200000D01*
X141840000Y-72700000D02*
X141100000Y-72700000D01*
X144977000Y-79273000D02*
X144931000Y-79226000D01*
X147275000Y-81570000D02*
X147239000Y-81535000D01*
X144761000Y-79466000D02*
X144726000Y-79431000D01*
X147069000Y-81775000D02*
X147023000Y-81728000D01*
X151261000Y-83060000D02*
X141340000Y-83060000D01*
X151261000Y-72940000D02*
X141340000Y-72940000D01*
X141340000Y-72940000D02*
X141340000Y-83060000D01*
X151261000Y-72940000D02*
X151261000Y-83060000D01*
X148301000Y-72940000D02*
X148301000Y-83060000D01*
X143400000Y-72940000D02*
X143400000Y-83060000D01*
X141900000Y-72940000D02*
X141900000Y-83060000D01*
X147680000Y-80500000D02*
G75*
G03*
X147680000Y-80500000I-1680000J0D01*
G01*
X144465244Y-76183318D02*
G75*
G02*
X144320000Y-75500000I1534756J683318D01*
G01*
X146683042Y-77035426D02*
G75*
G02*
X145316000Y-77035000I-683042J1535426D01*
G01*
X147535426Y-74816958D02*
G75*
G02*
X147535000Y-76184000I-1535426J-683042D01*
G01*
X145316958Y-73964574D02*
G75*
G02*
X146684000Y-73965000I683042J-1535426D01*
G01*
X144319747Y-75528805D02*
G75*
G02*
X144465000Y-74816000I1680253J28805D01*
G01*
%TO.C,J1*%
X141100000Y-62700000D02*
X141100000Y-63200000D01*
X141840000Y-62700000D02*
X141100000Y-62700000D01*
X144977000Y-69273000D02*
X144931000Y-69226000D01*
X147275000Y-71570000D02*
X147239000Y-71535000D01*
X144761000Y-69466000D02*
X144726000Y-69431000D01*
X147069000Y-71775000D02*
X147023000Y-71728000D01*
X151261000Y-73060000D02*
X141340000Y-73060000D01*
X151261000Y-62940000D02*
X141340000Y-62940000D01*
X141340000Y-62940000D02*
X141340000Y-73060000D01*
X151261000Y-62940000D02*
X151261000Y-73060000D01*
X148301000Y-62940000D02*
X148301000Y-73060000D01*
X143400000Y-62940000D02*
X143400000Y-73060000D01*
X141900000Y-62940000D02*
X141900000Y-73060000D01*
X147680000Y-70500000D02*
G75*
G03*
X147680000Y-70500000I-1680000J0D01*
G01*
X144465244Y-66183318D02*
G75*
G02*
X144320000Y-65500000I1534756J683318D01*
G01*
X146683042Y-67035426D02*
G75*
G02*
X145316000Y-67035000I-683042J1535426D01*
G01*
X147535426Y-64816958D02*
G75*
G02*
X147535000Y-66184000I-1535426J-683042D01*
G01*
X145316958Y-63964574D02*
G75*
G02*
X146684000Y-63965000I683042J-1535426D01*
G01*
X144319747Y-65528805D02*
G75*
G02*
X144465000Y-64816000I1680253J28805D01*
G01*
%TO.C,R29*%
X221540000Y-134460000D02*
X221540000Y-134130000D01*
X221540000Y-134130000D02*
X228080000Y-134130000D01*
X228080000Y-134130000D02*
X228080000Y-134460000D01*
X221540000Y-136540000D02*
X221540000Y-136870000D01*
X221540000Y-136870000D02*
X228080000Y-136870000D01*
X228080000Y-136870000D02*
X228080000Y-136540000D01*
%TO.C,R28*%
X228080000Y-126540000D02*
X228080000Y-126870000D01*
X228080000Y-126870000D02*
X221540000Y-126870000D01*
X221540000Y-126870000D02*
X221540000Y-126540000D01*
X228080000Y-124460000D02*
X228080000Y-124130000D01*
X228080000Y-124130000D02*
X221540000Y-124130000D01*
X221540000Y-124130000D02*
X221540000Y-124460000D01*
%TO.C,R27*%
X221540000Y-114460000D02*
X221540000Y-114130000D01*
X221540000Y-114130000D02*
X228080000Y-114130000D01*
X228080000Y-114130000D02*
X228080000Y-114460000D01*
X221540000Y-116540000D02*
X221540000Y-116870000D01*
X221540000Y-116870000D02*
X228080000Y-116870000D01*
X228080000Y-116870000D02*
X228080000Y-116540000D01*
%TO.C,R26*%
X228080000Y-106540000D02*
X228080000Y-106870000D01*
X228080000Y-106870000D02*
X221540000Y-106870000D01*
X221540000Y-106870000D02*
X221540000Y-106540000D01*
X228080000Y-104460000D02*
X228080000Y-104130000D01*
X228080000Y-104130000D02*
X221540000Y-104130000D01*
X221540000Y-104130000D02*
X221540000Y-104460000D01*
%TO.C,R25*%
X221540000Y-94460000D02*
X221540000Y-94130000D01*
X221540000Y-94130000D02*
X228080000Y-94130000D01*
X228080000Y-94130000D02*
X228080000Y-94460000D01*
X221540000Y-96540000D02*
X221540000Y-96870000D01*
X221540000Y-96870000D02*
X228080000Y-96870000D01*
X228080000Y-96870000D02*
X228080000Y-96540000D01*
%TO.C,R24*%
X228080000Y-86540000D02*
X228080000Y-86870000D01*
X228080000Y-86870000D02*
X221540000Y-86870000D01*
X221540000Y-86870000D02*
X221540000Y-86540000D01*
X228080000Y-84460000D02*
X228080000Y-84130000D01*
X228080000Y-84130000D02*
X221540000Y-84130000D01*
X221540000Y-84130000D02*
X221540000Y-84460000D01*
%TO.C,R23*%
X221540000Y-74460000D02*
X221540000Y-74130000D01*
X221540000Y-74130000D02*
X228080000Y-74130000D01*
X228080000Y-74130000D02*
X228080000Y-74460000D01*
X221540000Y-76540000D02*
X221540000Y-76870000D01*
X221540000Y-76870000D02*
X228080000Y-76870000D01*
X228080000Y-76870000D02*
X228080000Y-76540000D01*
%TO.C,R22*%
X228080000Y-66540000D02*
X228080000Y-66870000D01*
X228080000Y-66870000D02*
X221540000Y-66870000D01*
X221540000Y-66870000D02*
X221540000Y-66540000D01*
X228080000Y-64460000D02*
X228080000Y-64130000D01*
X228080000Y-64130000D02*
X221540000Y-64130000D01*
X221540000Y-64130000D02*
X221540000Y-64460000D01*
%TO.C,R21*%
X228080000Y-141540000D02*
X228080000Y-141870000D01*
X228080000Y-141870000D02*
X221540000Y-141870000D01*
X221540000Y-141870000D02*
X221540000Y-141540000D01*
X228080000Y-139460000D02*
X228080000Y-139130000D01*
X228080000Y-139130000D02*
X221540000Y-139130000D01*
X221540000Y-139130000D02*
X221540000Y-139460000D01*
%TO.C,R20*%
X208040000Y-69960000D02*
X208040000Y-69630000D01*
X208040000Y-69630000D02*
X214580000Y-69630000D01*
X214580000Y-69630000D02*
X214580000Y-69960000D01*
X208040000Y-72040000D02*
X208040000Y-72370000D01*
X208040000Y-72370000D02*
X214580000Y-72370000D01*
X214580000Y-72370000D02*
X214580000Y-72040000D01*
%TO.C,R19*%
X208040000Y-66960000D02*
X208040000Y-66630000D01*
X208040000Y-66630000D02*
X214580000Y-66630000D01*
X214580000Y-66630000D02*
X214580000Y-66960000D01*
X208040000Y-69040000D02*
X208040000Y-69370000D01*
X208040000Y-69370000D02*
X214580000Y-69370000D01*
X214580000Y-69370000D02*
X214580000Y-69040000D01*
%TO.C,R18*%
X197040000Y-69960000D02*
X197040000Y-69630000D01*
X197040000Y-69630000D02*
X203580000Y-69630000D01*
X203580000Y-69630000D02*
X203580000Y-69960000D01*
X197040000Y-72040000D02*
X197040000Y-72370000D01*
X197040000Y-72370000D02*
X203580000Y-72370000D01*
X203580000Y-72370000D02*
X203580000Y-72040000D01*
%TO.C,R17*%
X197040000Y-66960000D02*
X197040000Y-66630000D01*
X197040000Y-66630000D02*
X203580000Y-66630000D01*
X203580000Y-66630000D02*
X203580000Y-66960000D01*
X197040000Y-69040000D02*
X197040000Y-69370000D01*
X197040000Y-69370000D02*
X203580000Y-69370000D01*
X203580000Y-69370000D02*
X203580000Y-69040000D01*
%TO.C,J20*%
X237180000Y-135500000D02*
G75*
G03*
X237180000Y-135500000I-1680000J0D01*
G01*
X237180000Y-130500000D02*
G75*
G03*
X237180000Y-130500000I-1680000J0D01*
G01*
X237180000Y-125500000D02*
G75*
G03*
X237180000Y-125500000I-1680000J0D01*
G01*
X237180000Y-120500000D02*
G75*
G03*
X237180000Y-120500000I-1680000J0D01*
G01*
X237180000Y-115500000D02*
G75*
G03*
X237180000Y-115500000I-1680000J0D01*
G01*
X237180000Y-110500000D02*
G75*
G03*
X237180000Y-110500000I-1680000J0D01*
G01*
X237180000Y-105500000D02*
G75*
G03*
X237180000Y-105500000I-1680000J0D01*
G01*
X237180000Y-100500000D02*
G75*
G03*
X237180000Y-100500000I-1680000J0D01*
G01*
X237180000Y-95500000D02*
G75*
G03*
X237180000Y-95500000I-1680000J0D01*
G01*
X237180000Y-90500000D02*
G75*
G03*
X237180000Y-90500000I-1680000J0D01*
G01*
X237180000Y-85500000D02*
G75*
G03*
X237180000Y-85500000I-1680000J0D01*
G01*
X237180000Y-80500000D02*
G75*
G03*
X237180000Y-80500000I-1680000J0D01*
G01*
X237180000Y-75500000D02*
G75*
G03*
X237180000Y-75500000I-1680000J0D01*
G01*
X237180000Y-70500000D02*
G75*
G03*
X237180000Y-70500000I-1680000J0D01*
G01*
X237180000Y-65500000D02*
G75*
G03*
X237180000Y-65500000I-1680000J0D01*
G01*
X239600000Y-143100000D02*
X239600000Y-63000000D01*
X238100000Y-143100000D02*
X238100000Y-63000000D01*
X233199000Y-143100000D02*
X233199000Y-63000000D01*
X230239000Y-143100000D02*
X230239000Y-63000000D01*
X240160000Y-143100000D02*
X240160000Y-63000000D01*
X230239000Y-143100000D02*
X240160000Y-143100000D01*
X230239000Y-63000000D02*
X240160000Y-63000000D01*
X234431000Y-134225000D02*
X234477000Y-134272000D01*
X236739000Y-136534000D02*
X236774000Y-136569000D01*
X234225000Y-134430000D02*
X234261000Y-134465000D01*
X236523000Y-136727000D02*
X236569000Y-136774000D01*
X234431000Y-129225000D02*
X234477000Y-129272000D01*
X236739000Y-131534000D02*
X236774000Y-131569000D01*
X234225000Y-129430000D02*
X234261000Y-129465000D01*
X236523000Y-131727000D02*
X236569000Y-131774000D01*
X234431000Y-124225000D02*
X234477000Y-124272000D01*
X236739000Y-126534000D02*
X236774000Y-126569000D01*
X234225000Y-124430000D02*
X234261000Y-124465000D01*
X236523000Y-126727000D02*
X236569000Y-126774000D01*
X234431000Y-119225000D02*
X234477000Y-119272000D01*
X236739000Y-121534000D02*
X236774000Y-121569000D01*
X234225000Y-119430000D02*
X234261000Y-119465000D01*
X236523000Y-121727000D02*
X236569000Y-121774000D01*
X234431000Y-114225000D02*
X234477000Y-114272000D01*
X236739000Y-116534000D02*
X236774000Y-116569000D01*
X234225000Y-114430000D02*
X234261000Y-114465000D01*
X236523000Y-116727000D02*
X236569000Y-116774000D01*
X234431000Y-109225000D02*
X234477000Y-109272000D01*
X236739000Y-111534000D02*
X236774000Y-111569000D01*
X234225000Y-109430000D02*
X234261000Y-109465000D01*
X236523000Y-111727000D02*
X236569000Y-111774000D01*
X234431000Y-104225000D02*
X234477000Y-104272000D01*
X236739000Y-106534000D02*
X236774000Y-106569000D01*
X234225000Y-104430000D02*
X234261000Y-104465000D01*
X236523000Y-106727000D02*
X236569000Y-106774000D01*
X234431000Y-99225000D02*
X234477000Y-99272000D01*
X236739000Y-101534000D02*
X236774000Y-101569000D01*
X234225000Y-99430000D02*
X234261000Y-99465000D01*
X236523000Y-101727000D02*
X236569000Y-101774000D01*
X234431000Y-94225000D02*
X234477000Y-94272000D01*
X236739000Y-96534000D02*
X236774000Y-96569000D01*
X234225000Y-94430000D02*
X234261000Y-94465000D01*
X236523000Y-96727000D02*
X236569000Y-96774000D01*
X234431000Y-89225000D02*
X234477000Y-89272000D01*
X236739000Y-91534000D02*
X236774000Y-91569000D01*
X234225000Y-89430000D02*
X234261000Y-89465000D01*
X236523000Y-91727000D02*
X236569000Y-91774000D01*
X234431000Y-84225000D02*
X234477000Y-84272000D01*
X236739000Y-86534000D02*
X236774000Y-86569000D01*
X234225000Y-84430000D02*
X234261000Y-84465000D01*
X236523000Y-86727000D02*
X236569000Y-86774000D01*
X234431000Y-79305000D02*
X234477000Y-79352000D01*
X236739000Y-81534000D02*
X236774000Y-81569000D01*
X234225000Y-79510000D02*
X234261000Y-79545000D01*
X236523000Y-81727000D02*
X236569000Y-81774000D01*
X234431000Y-74305000D02*
X234477000Y-74352000D01*
X236739000Y-76534000D02*
X236774000Y-76569000D01*
X234225000Y-74510000D02*
X234261000Y-74545000D01*
X236523000Y-76727000D02*
X236569000Y-76774000D01*
X234431000Y-69305000D02*
X234477000Y-69352000D01*
X236739000Y-71534000D02*
X236774000Y-71569000D01*
X234225000Y-69510000D02*
X234261000Y-69545000D01*
X236523000Y-71727000D02*
X236569000Y-71774000D01*
X234431000Y-64305000D02*
X234477000Y-64352000D01*
X236739000Y-66454000D02*
X236774000Y-66489000D01*
X234225000Y-64510000D02*
X234261000Y-64545000D01*
X236523000Y-66647000D02*
X236569000Y-66694000D01*
X239660000Y-143340000D02*
X240400000Y-143340000D01*
X240400000Y-143340000D02*
X240400000Y-142840000D01*
X237180253Y-140471195D02*
G75*
G02*
X237035000Y-141184000I-1680253J-28805D01*
G01*
X236183042Y-142035426D02*
G75*
G02*
X234816000Y-142035000I-683042J1535426D01*
G01*
X233964574Y-141183042D02*
G75*
G02*
X233965000Y-139816000I1535426J683042D01*
G01*
X234816958Y-138964574D02*
G75*
G02*
X236184000Y-138965000I683042J-1535426D01*
G01*
X237034756Y-139816682D02*
G75*
G02*
X237180000Y-140500000I-1534756J-683318D01*
G01*
%TO.C,R16*%
X164727064Y-137735000D02*
X164272936Y-137735000D01*
X164727064Y-136265000D02*
X164272936Y-136265000D01*
%TO.C,R15*%
X164727064Y-127735000D02*
X164272936Y-127735000D01*
X164727064Y-126265000D02*
X164272936Y-126265000D01*
%TO.C,R14*%
X164272936Y-138265000D02*
X164727064Y-138265000D01*
X164272936Y-139735000D02*
X164727064Y-139735000D01*
%TO.C,R13*%
X164272936Y-128265000D02*
X164727064Y-128265000D01*
X164272936Y-129735000D02*
X164727064Y-129735000D01*
%TO.C,R12*%
X164727064Y-117735000D02*
X164272936Y-117735000D01*
X164727064Y-116265000D02*
X164272936Y-116265000D01*
%TO.C,R11*%
X164727064Y-107735000D02*
X164272936Y-107735000D01*
X164727064Y-106265000D02*
X164272936Y-106265000D01*
%TO.C,R10*%
X164272936Y-118265000D02*
X164727064Y-118265000D01*
X164272936Y-119735000D02*
X164727064Y-119735000D01*
%TO.C,R9*%
X164272936Y-108265000D02*
X164727064Y-108265000D01*
X164272936Y-109735000D02*
X164727064Y-109735000D01*
%TO.C,R8*%
X164727064Y-97735000D02*
X164272936Y-97735000D01*
X164727064Y-96265000D02*
X164272936Y-96265000D01*
%TO.C,R7*%
X164727064Y-87735000D02*
X164272936Y-87735000D01*
X164727064Y-86265000D02*
X164272936Y-86265000D01*
%TO.C,R6*%
X164272936Y-98265000D02*
X164727064Y-98265000D01*
X164272936Y-99735000D02*
X164727064Y-99735000D01*
%TO.C,R5*%
X164272936Y-88265000D02*
X164727064Y-88265000D01*
X164272936Y-89735000D02*
X164727064Y-89735000D01*
%TO.C,R4*%
X172727064Y-76235000D02*
X172272936Y-76235000D01*
X172727064Y-74765000D02*
X172272936Y-74765000D01*
%TO.C,R3*%
X172727064Y-66235000D02*
X172272936Y-66235000D01*
X172727064Y-64765000D02*
X172272936Y-64765000D01*
%TO.C,R2*%
X172272936Y-79765000D02*
X172727064Y-79765000D01*
X172272936Y-81235000D02*
X172727064Y-81235000D01*
%TO.C,R1*%
X172272936Y-69765000D02*
X172727064Y-69765000D01*
X172272936Y-71235000D02*
X172727064Y-71235000D01*
%TO.C,Q8*%
X159740000Y-136420000D02*
X159740000Y-137350000D01*
X159740000Y-139580000D02*
X159740000Y-138650000D01*
X159740000Y-139580000D02*
X161900000Y-139580000D01*
X159740000Y-136420000D02*
X161200000Y-136420000D01*
%TO.C,Q7*%
X159740000Y-126420000D02*
X159740000Y-127350000D01*
X159740000Y-129580000D02*
X159740000Y-128650000D01*
X159740000Y-129580000D02*
X161900000Y-129580000D01*
X159740000Y-126420000D02*
X161200000Y-126420000D01*
%TO.C,Q6*%
X159740000Y-116420000D02*
X159740000Y-117350000D01*
X159740000Y-119580000D02*
X159740000Y-118650000D01*
X159740000Y-119580000D02*
X161900000Y-119580000D01*
X159740000Y-116420000D02*
X161200000Y-116420000D01*
%TO.C,Q5*%
X159740000Y-106420000D02*
X159740000Y-107350000D01*
X159740000Y-109580000D02*
X159740000Y-108650000D01*
X159740000Y-109580000D02*
X161900000Y-109580000D01*
X159740000Y-106420000D02*
X161200000Y-106420000D01*
%TO.C,Q4*%
X159740000Y-96420000D02*
X159740000Y-97350000D01*
X159740000Y-99580000D02*
X159740000Y-98650000D01*
X159740000Y-99580000D02*
X161900000Y-99580000D01*
X159740000Y-96420000D02*
X161200000Y-96420000D01*
%TO.C,Q3*%
X159740000Y-86420000D02*
X159740000Y-87350000D01*
X159740000Y-89580000D02*
X159740000Y-88650000D01*
X159740000Y-89580000D02*
X161900000Y-89580000D01*
X159740000Y-86420000D02*
X161200000Y-86420000D01*
D11*
%TO.C,J19*%
X215975000Y-62585000D02*
X207025000Y-62585000D01*
X215975000Y-56275000D02*
X215975000Y-55925000D01*
X215975000Y-55925000D02*
X207025000Y-55925000D01*
X207025000Y-55925000D02*
X207025000Y-56275000D01*
%TO.C,J18*%
X204975000Y-62585000D02*
X196025000Y-62585000D01*
X204975000Y-56275000D02*
X204975000Y-55925000D01*
X204975000Y-55925000D02*
X196025000Y-55925000D01*
X196025000Y-55925000D02*
X196025000Y-56275000D01*
D10*
%TO.C,J17*%
X179190000Y-60420000D02*
X179190000Y-62600000D01*
X191810000Y-60420000D02*
X191810000Y-62600000D01*
X179190000Y-56920000D02*
X179190000Y-48950000D01*
X179190000Y-48950000D02*
X178190000Y-48950000D01*
X178190000Y-48950000D02*
X178190000Y-48330000D01*
X178190000Y-48330000D02*
X192810000Y-48330000D01*
X192810000Y-48330000D02*
X192810000Y-48950000D01*
X192810000Y-48950000D02*
X191810000Y-48950000D01*
X191810000Y-48950000D02*
X191810000Y-56920000D01*
X190690000Y-65450000D02*
X180310000Y-65450000D01*
X188600000Y-65600000D02*
X189400000Y-65600000D01*
%TO.C,D8*%
X158150000Y-134450000D02*
X153850000Y-134450000D01*
X153850000Y-134450000D02*
X153850000Y-140150000D01*
X158150000Y-134450000D02*
X158150000Y-140150000D01*
%TO.C,D7*%
X158150000Y-124450000D02*
X153850000Y-124450000D01*
X153850000Y-124450000D02*
X153850000Y-130150000D01*
X158150000Y-124450000D02*
X158150000Y-130150000D01*
%TO.C,D6*%
X158150000Y-114450000D02*
X153850000Y-114450000D01*
X153850000Y-114450000D02*
X153850000Y-120150000D01*
X158150000Y-114450000D02*
X158150000Y-120150000D01*
%TO.C,D5*%
X158150000Y-104450000D02*
X153850000Y-104450000D01*
X153850000Y-104450000D02*
X153850000Y-110150000D01*
X158150000Y-104450000D02*
X158150000Y-110150000D01*
%TO.C,D4*%
X158150000Y-94450000D02*
X153850000Y-94450000D01*
X153850000Y-94450000D02*
X153850000Y-100150000D01*
X158150000Y-94450000D02*
X158150000Y-100150000D01*
%TO.C,D3*%
X158150000Y-84450000D02*
X153850000Y-84450000D01*
X153850000Y-84450000D02*
X153850000Y-90150000D01*
X158150000Y-84450000D02*
X158150000Y-90150000D01*
%TO.C,D2*%
X158150000Y-74450000D02*
X153850000Y-74450000D01*
X153850000Y-74450000D02*
X153850000Y-80150000D01*
X158150000Y-74450000D02*
X158150000Y-80150000D01*
%TO.C,D1*%
X158150000Y-64450000D02*
X153850000Y-64450000D01*
X153850000Y-64450000D02*
X153850000Y-70150000D01*
X158150000Y-64450000D02*
X158150000Y-70150000D01*
%TO.C,Q1*%
D12*
X168904761Y-68547619D02*
X168809523Y-68500000D01*
X168714285Y-68404761D01*
X168571428Y-68261904D01*
X168476190Y-68214285D01*
X168380952Y-68214285D01*
X168428571Y-68452380D02*
X168333333Y-68404761D01*
X168238095Y-68309523D01*
X168190476Y-68119047D01*
X168190476Y-67785714D01*
X168238095Y-67595238D01*
X168333333Y-67500000D01*
X168428571Y-67452380D01*
X168619047Y-67452380D01*
X168714285Y-67500000D01*
X168809523Y-67595238D01*
X168857142Y-67785714D01*
X168857142Y-68119047D01*
X168809523Y-68309523D01*
X168714285Y-68404761D01*
X168619047Y-68452380D01*
X168428571Y-68452380D01*
X169809523Y-68452380D02*
X169238095Y-68452380D01*
X169523809Y-68452380D02*
X169523809Y-67452380D01*
X169428571Y-67595238D01*
X169333333Y-67690476D01*
X169238095Y-67738095D01*
%TO.C,Q2*%
X168904761Y-78547619D02*
X168809523Y-78500000D01*
X168714285Y-78404761D01*
X168571428Y-78261904D01*
X168476190Y-78214285D01*
X168380952Y-78214285D01*
X168428571Y-78452380D02*
X168333333Y-78404761D01*
X168238095Y-78309523D01*
X168190476Y-78119047D01*
X168190476Y-77785714D01*
X168238095Y-77595238D01*
X168333333Y-77500000D01*
X168428571Y-77452380D01*
X168619047Y-77452380D01*
X168714285Y-77500000D01*
X168809523Y-77595238D01*
X168857142Y-77785714D01*
X168857142Y-78119047D01*
X168809523Y-78309523D01*
X168714285Y-78404761D01*
X168619047Y-78452380D01*
X168428571Y-78452380D01*
X169238095Y-77547619D02*
X169285714Y-77500000D01*
X169380952Y-77452380D01*
X169619047Y-77452380D01*
X169714285Y-77500000D01*
X169761904Y-77547619D01*
X169809523Y-77642857D01*
X169809523Y-77738095D01*
X169761904Y-77880952D01*
X169190476Y-78452380D01*
X169809523Y-78452380D01*
%TO.C,U1*%
X198318095Y-79112380D02*
X198318095Y-79921904D01*
X198365714Y-80017142D01*
X198413333Y-80064761D01*
X198508571Y-80112380D01*
X198699047Y-80112380D01*
X198794285Y-80064761D01*
X198841904Y-80017142D01*
X198889523Y-79921904D01*
X198889523Y-79112380D01*
X199889523Y-80112380D02*
X199318095Y-80112380D01*
X199603809Y-80112380D02*
X199603809Y-79112380D01*
X199508571Y-79255238D01*
X199413333Y-79350476D01*
X199318095Y-79398095D01*
%TO.C,J16*%
X225190476Y-142692380D02*
X225190476Y-143406666D01*
X225142857Y-143549523D01*
X225047619Y-143644761D01*
X224904761Y-143692380D01*
X224809523Y-143692380D01*
X226190476Y-143692380D02*
X225619047Y-143692380D01*
X225904761Y-143692380D02*
X225904761Y-142692380D01*
X225809523Y-142835238D01*
X225714285Y-142930476D01*
X225619047Y-142978095D01*
X227047619Y-142692380D02*
X226857142Y-142692380D01*
X226761904Y-142740000D01*
X226714285Y-142787619D01*
X226619047Y-142930476D01*
X226571428Y-143120952D01*
X226571428Y-143501904D01*
X226619047Y-143597142D01*
X226666666Y-143644761D01*
X226761904Y-143692380D01*
X226952380Y-143692380D01*
X227047619Y-143644761D01*
X227095238Y-143597142D01*
X227142857Y-143501904D01*
X227142857Y-143263809D01*
X227095238Y-143168571D01*
X227047619Y-143120952D01*
X226952380Y-143073333D01*
X226761904Y-143073333D01*
X226666666Y-143120952D01*
X226619047Y-143168571D01*
X226571428Y-143263809D01*
%TO.C,J15*%
X215190476Y-142692380D02*
X215190476Y-143406666D01*
X215142857Y-143549523D01*
X215047619Y-143644761D01*
X214904761Y-143692380D01*
X214809523Y-143692380D01*
X216190476Y-143692380D02*
X215619047Y-143692380D01*
X215904761Y-143692380D02*
X215904761Y-142692380D01*
X215809523Y-142835238D01*
X215714285Y-142930476D01*
X215619047Y-142978095D01*
X217095238Y-142692380D02*
X216619047Y-142692380D01*
X216571428Y-143168571D01*
X216619047Y-143120952D01*
X216714285Y-143073333D01*
X216952380Y-143073333D01*
X217047619Y-143120952D01*
X217095238Y-143168571D01*
X217142857Y-143263809D01*
X217142857Y-143501904D01*
X217095238Y-143597142D01*
X217047619Y-143644761D01*
X216952380Y-143692380D01*
X216714285Y-143692380D01*
X216619047Y-143644761D01*
X216571428Y-143597142D01*
%TO.C,J14*%
X205190476Y-142692380D02*
X205190476Y-143406666D01*
X205142857Y-143549523D01*
X205047619Y-143644761D01*
X204904761Y-143692380D01*
X204809523Y-143692380D01*
X206190476Y-143692380D02*
X205619047Y-143692380D01*
X205904761Y-143692380D02*
X205904761Y-142692380D01*
X205809523Y-142835238D01*
X205714285Y-142930476D01*
X205619047Y-142978095D01*
X207047619Y-143025714D02*
X207047619Y-143692380D01*
X206809523Y-142644761D02*
X206571428Y-143359047D01*
X207190476Y-143359047D01*
%TO.C,J13*%
X195190476Y-142692380D02*
X195190476Y-143406666D01*
X195142857Y-143549523D01*
X195047619Y-143644761D01*
X194904761Y-143692380D01*
X194809523Y-143692380D01*
X196190476Y-143692380D02*
X195619047Y-143692380D01*
X195904761Y-143692380D02*
X195904761Y-142692380D01*
X195809523Y-142835238D01*
X195714285Y-142930476D01*
X195619047Y-142978095D01*
X196523809Y-142692380D02*
X197142857Y-142692380D01*
X196809523Y-143073333D01*
X196952380Y-143073333D01*
X197047619Y-143120952D01*
X197095238Y-143168571D01*
X197142857Y-143263809D01*
X197142857Y-143501904D01*
X197095238Y-143597142D01*
X197047619Y-143644761D01*
X196952380Y-143692380D01*
X196666666Y-143692380D01*
X196571428Y-143644761D01*
X196523809Y-143597142D01*
%TO.C,J12*%
X185190476Y-142692380D02*
X185190476Y-143406666D01*
X185142857Y-143549523D01*
X185047619Y-143644761D01*
X184904761Y-143692380D01*
X184809523Y-143692380D01*
X186190476Y-143692380D02*
X185619047Y-143692380D01*
X185904761Y-143692380D02*
X185904761Y-142692380D01*
X185809523Y-142835238D01*
X185714285Y-142930476D01*
X185619047Y-142978095D01*
X186571428Y-142787619D02*
X186619047Y-142740000D01*
X186714285Y-142692380D01*
X186952380Y-142692380D01*
X187047619Y-142740000D01*
X187095238Y-142787619D01*
X187142857Y-142882857D01*
X187142857Y-142978095D01*
X187095238Y-143120952D01*
X186523809Y-143692380D01*
X187142857Y-143692380D01*
%TO.C,J11*%
X175190476Y-142692380D02*
X175190476Y-143406666D01*
X175142857Y-143549523D01*
X175047619Y-143644761D01*
X174904761Y-143692380D01*
X174809523Y-143692380D01*
X176190476Y-143692380D02*
X175619047Y-143692380D01*
X175904761Y-143692380D02*
X175904761Y-142692380D01*
X175809523Y-142835238D01*
X175714285Y-142930476D01*
X175619047Y-142978095D01*
X177142857Y-143692380D02*
X176571428Y-143692380D01*
X176857142Y-143692380D02*
X176857142Y-142692380D01*
X176761904Y-142835238D01*
X176666666Y-142930476D01*
X176571428Y-142978095D01*
%TO.C,J10*%
X165190476Y-142692380D02*
X165190476Y-143406666D01*
X165142857Y-143549523D01*
X165047619Y-143644761D01*
X164904761Y-143692380D01*
X164809523Y-143692380D01*
X166190476Y-143692380D02*
X165619047Y-143692380D01*
X165904761Y-143692380D02*
X165904761Y-142692380D01*
X165809523Y-142835238D01*
X165714285Y-142930476D01*
X165619047Y-142978095D01*
X166809523Y-142692380D02*
X166904761Y-142692380D01*
X167000000Y-142740000D01*
X167047619Y-142787619D01*
X167095238Y-142882857D01*
X167142857Y-143073333D01*
X167142857Y-143311428D01*
X167095238Y-143501904D01*
X167047619Y-143597142D01*
X167000000Y-143644761D01*
X166904761Y-143692380D01*
X166809523Y-143692380D01*
X166714285Y-143644761D01*
X166666666Y-143597142D01*
X166619047Y-143501904D01*
X166571428Y-143311428D01*
X166571428Y-143073333D01*
X166619047Y-142882857D01*
X166666666Y-142787619D01*
X166714285Y-142740000D01*
X166809523Y-142692380D01*
%TO.C,J9*%
X155666666Y-142692380D02*
X155666666Y-143406666D01*
X155619047Y-143549523D01*
X155523809Y-143644761D01*
X155380952Y-143692380D01*
X155285714Y-143692380D01*
X156190476Y-143692380D02*
X156380952Y-143692380D01*
X156476190Y-143644761D01*
X156523809Y-143597142D01*
X156619047Y-143454285D01*
X156666666Y-143263809D01*
X156666666Y-142882857D01*
X156619047Y-142787619D01*
X156571428Y-142740000D01*
X156476190Y-142692380D01*
X156285714Y-142692380D01*
X156190476Y-142740000D01*
X156142857Y-142787619D01*
X156095238Y-142882857D01*
X156095238Y-143120952D01*
X156142857Y-143216190D01*
X156190476Y-143263809D01*
X156285714Y-143311428D01*
X156476190Y-143311428D01*
X156571428Y-143263809D01*
X156619047Y-143216190D01*
X156666666Y-143120952D01*
%TO.C,J8*%
X151926666Y-137452380D02*
X151926666Y-138166666D01*
X151879047Y-138309523D01*
X151783809Y-138404761D01*
X151640952Y-138452380D01*
X151545714Y-138452380D01*
X152545714Y-137880952D02*
X152450476Y-137833333D01*
X152402857Y-137785714D01*
X152355238Y-137690476D01*
X152355238Y-137642857D01*
X152402857Y-137547619D01*
X152450476Y-137500000D01*
X152545714Y-137452380D01*
X152736190Y-137452380D01*
X152831428Y-137500000D01*
X152879047Y-137547619D01*
X152926666Y-137642857D01*
X152926666Y-137690476D01*
X152879047Y-137785714D01*
X152831428Y-137833333D01*
X152736190Y-137880952D01*
X152545714Y-137880952D01*
X152450476Y-137928571D01*
X152402857Y-137976190D01*
X152355238Y-138071428D01*
X152355238Y-138261904D01*
X152402857Y-138357142D01*
X152450476Y-138404761D01*
X152545714Y-138452380D01*
X152736190Y-138452380D01*
X152831428Y-138404761D01*
X152879047Y-138357142D01*
X152926666Y-138261904D01*
X152926666Y-138071428D01*
X152879047Y-137976190D01*
X152831428Y-137928571D01*
X152736190Y-137880952D01*
%TO.C,J7*%
X151926666Y-127452380D02*
X151926666Y-128166666D01*
X151879047Y-128309523D01*
X151783809Y-128404761D01*
X151640952Y-128452380D01*
X151545714Y-128452380D01*
X152307619Y-127452380D02*
X152974285Y-127452380D01*
X152545714Y-128452380D01*
%TO.C,J6*%
X151926666Y-117452380D02*
X151926666Y-118166666D01*
X151879047Y-118309523D01*
X151783809Y-118404761D01*
X151640952Y-118452380D01*
X151545714Y-118452380D01*
X152831428Y-117452380D02*
X152640952Y-117452380D01*
X152545714Y-117500000D01*
X152498095Y-117547619D01*
X152402857Y-117690476D01*
X152355238Y-117880952D01*
X152355238Y-118261904D01*
X152402857Y-118357142D01*
X152450476Y-118404761D01*
X152545714Y-118452380D01*
X152736190Y-118452380D01*
X152831428Y-118404761D01*
X152879047Y-118357142D01*
X152926666Y-118261904D01*
X152926666Y-118023809D01*
X152879047Y-117928571D01*
X152831428Y-117880952D01*
X152736190Y-117833333D01*
X152545714Y-117833333D01*
X152450476Y-117880952D01*
X152402857Y-117928571D01*
X152355238Y-118023809D01*
%TO.C,J5*%
X151926666Y-107452380D02*
X151926666Y-108166666D01*
X151879047Y-108309523D01*
X151783809Y-108404761D01*
X151640952Y-108452380D01*
X151545714Y-108452380D01*
X152879047Y-107452380D02*
X152402857Y-107452380D01*
X152355238Y-107928571D01*
X152402857Y-107880952D01*
X152498095Y-107833333D01*
X152736190Y-107833333D01*
X152831428Y-107880952D01*
X152879047Y-107928571D01*
X152926666Y-108023809D01*
X152926666Y-108261904D01*
X152879047Y-108357142D01*
X152831428Y-108404761D01*
X152736190Y-108452380D01*
X152498095Y-108452380D01*
X152402857Y-108404761D01*
X152355238Y-108357142D01*
%TO.C,J4*%
X151926666Y-97452380D02*
X151926666Y-98166666D01*
X151879047Y-98309523D01*
X151783809Y-98404761D01*
X151640952Y-98452380D01*
X151545714Y-98452380D01*
X152831428Y-97785714D02*
X152831428Y-98452380D01*
X152593333Y-97404761D02*
X152355238Y-98119047D01*
X152974285Y-98119047D01*
%TO.C,J3*%
X151926666Y-87452380D02*
X151926666Y-88166666D01*
X151879047Y-88309523D01*
X151783809Y-88404761D01*
X151640952Y-88452380D01*
X151545714Y-88452380D01*
X152307619Y-87452380D02*
X152926666Y-87452380D01*
X152593333Y-87833333D01*
X152736190Y-87833333D01*
X152831428Y-87880952D01*
X152879047Y-87928571D01*
X152926666Y-88023809D01*
X152926666Y-88261904D01*
X152879047Y-88357142D01*
X152831428Y-88404761D01*
X152736190Y-88452380D01*
X152450476Y-88452380D01*
X152355238Y-88404761D01*
X152307619Y-88357142D01*
%TO.C,J2*%
X151926666Y-77452380D02*
X151926666Y-78166666D01*
X151879047Y-78309523D01*
X151783809Y-78404761D01*
X151640952Y-78452380D01*
X151545714Y-78452380D01*
X152355238Y-77547619D02*
X152402857Y-77500000D01*
X152498095Y-77452380D01*
X152736190Y-77452380D01*
X152831428Y-77500000D01*
X152879047Y-77547619D01*
X152926666Y-77642857D01*
X152926666Y-77738095D01*
X152879047Y-77880952D01*
X152307619Y-78452380D01*
X152926666Y-78452380D01*
%TO.C,J1*%
X151926666Y-67452380D02*
X151926666Y-68166666D01*
X151879047Y-68309523D01*
X151783809Y-68404761D01*
X151640952Y-68452380D01*
X151545714Y-68452380D01*
X152926666Y-68452380D02*
X152355238Y-68452380D01*
X152640952Y-68452380D02*
X152640952Y-67452380D01*
X152545714Y-67595238D01*
X152450476Y-67690476D01*
X152355238Y-67738095D01*
%TO.C,R29*%
X224357142Y-135952380D02*
X224023809Y-135476190D01*
X223785714Y-135952380D02*
X223785714Y-134952380D01*
X224166666Y-134952380D01*
X224261904Y-135000000D01*
X224309523Y-135047619D01*
X224357142Y-135142857D01*
X224357142Y-135285714D01*
X224309523Y-135380952D01*
X224261904Y-135428571D01*
X224166666Y-135476190D01*
X223785714Y-135476190D01*
X224738095Y-135047619D02*
X224785714Y-135000000D01*
X224880952Y-134952380D01*
X225119047Y-134952380D01*
X225214285Y-135000000D01*
X225261904Y-135047619D01*
X225309523Y-135142857D01*
X225309523Y-135238095D01*
X225261904Y-135380952D01*
X224690476Y-135952380D01*
X225309523Y-135952380D01*
X225785714Y-135952380D02*
X225976190Y-135952380D01*
X226071428Y-135904761D01*
X226119047Y-135857142D01*
X226214285Y-135714285D01*
X226261904Y-135523809D01*
X226261904Y-135142857D01*
X226214285Y-135047619D01*
X226166666Y-135000000D01*
X226071428Y-134952380D01*
X225880952Y-134952380D01*
X225785714Y-135000000D01*
X225738095Y-135047619D01*
X225690476Y-135142857D01*
X225690476Y-135380952D01*
X225738095Y-135476190D01*
X225785714Y-135523809D01*
X225880952Y-135571428D01*
X226071428Y-135571428D01*
X226166666Y-135523809D01*
X226214285Y-135476190D01*
X226261904Y-135380952D01*
%TO.C,R28*%
X224357142Y-125952380D02*
X224023809Y-125476190D01*
X223785714Y-125952380D02*
X223785714Y-124952380D01*
X224166666Y-124952380D01*
X224261904Y-125000000D01*
X224309523Y-125047619D01*
X224357142Y-125142857D01*
X224357142Y-125285714D01*
X224309523Y-125380952D01*
X224261904Y-125428571D01*
X224166666Y-125476190D01*
X223785714Y-125476190D01*
X224738095Y-125047619D02*
X224785714Y-125000000D01*
X224880952Y-124952380D01*
X225119047Y-124952380D01*
X225214285Y-125000000D01*
X225261904Y-125047619D01*
X225309523Y-125142857D01*
X225309523Y-125238095D01*
X225261904Y-125380952D01*
X224690476Y-125952380D01*
X225309523Y-125952380D01*
X225880952Y-125380952D02*
X225785714Y-125333333D01*
X225738095Y-125285714D01*
X225690476Y-125190476D01*
X225690476Y-125142857D01*
X225738095Y-125047619D01*
X225785714Y-125000000D01*
X225880952Y-124952380D01*
X226071428Y-124952380D01*
X226166666Y-125000000D01*
X226214285Y-125047619D01*
X226261904Y-125142857D01*
X226261904Y-125190476D01*
X226214285Y-125285714D01*
X226166666Y-125333333D01*
X226071428Y-125380952D01*
X225880952Y-125380952D01*
X225785714Y-125428571D01*
X225738095Y-125476190D01*
X225690476Y-125571428D01*
X225690476Y-125761904D01*
X225738095Y-125857142D01*
X225785714Y-125904761D01*
X225880952Y-125952380D01*
X226071428Y-125952380D01*
X226166666Y-125904761D01*
X226214285Y-125857142D01*
X226261904Y-125761904D01*
X226261904Y-125571428D01*
X226214285Y-125476190D01*
X226166666Y-125428571D01*
X226071428Y-125380952D01*
%TO.C,R27*%
X224357142Y-115952380D02*
X224023809Y-115476190D01*
X223785714Y-115952380D02*
X223785714Y-114952380D01*
X224166666Y-114952380D01*
X224261904Y-115000000D01*
X224309523Y-115047619D01*
X224357142Y-115142857D01*
X224357142Y-115285714D01*
X224309523Y-115380952D01*
X224261904Y-115428571D01*
X224166666Y-115476190D01*
X223785714Y-115476190D01*
X224738095Y-115047619D02*
X224785714Y-115000000D01*
X224880952Y-114952380D01*
X225119047Y-114952380D01*
X225214285Y-115000000D01*
X225261904Y-115047619D01*
X225309523Y-115142857D01*
X225309523Y-115238095D01*
X225261904Y-115380952D01*
X224690476Y-115952380D01*
X225309523Y-115952380D01*
X225642857Y-114952380D02*
X226309523Y-114952380D01*
X225880952Y-115952380D01*
%TO.C,R26*%
X224167142Y-105952380D02*
X223833809Y-105476190D01*
X223595714Y-105952380D02*
X223595714Y-104952380D01*
X223976666Y-104952380D01*
X224071904Y-105000000D01*
X224119523Y-105047619D01*
X224167142Y-105142857D01*
X224167142Y-105285714D01*
X224119523Y-105380952D01*
X224071904Y-105428571D01*
X223976666Y-105476190D01*
X223595714Y-105476190D01*
X224548095Y-105047619D02*
X224595714Y-105000000D01*
X224690952Y-104952380D01*
X224929047Y-104952380D01*
X225024285Y-105000000D01*
X225071904Y-105047619D01*
X225119523Y-105142857D01*
X225119523Y-105238095D01*
X225071904Y-105380952D01*
X224500476Y-105952380D01*
X225119523Y-105952380D01*
X225976666Y-104952380D02*
X225786190Y-104952380D01*
X225690952Y-105000000D01*
X225643333Y-105047619D01*
X225548095Y-105190476D01*
X225500476Y-105380952D01*
X225500476Y-105761904D01*
X225548095Y-105857142D01*
X225595714Y-105904761D01*
X225690952Y-105952380D01*
X225881428Y-105952380D01*
X225976666Y-105904761D01*
X226024285Y-105857142D01*
X226071904Y-105761904D01*
X226071904Y-105523809D01*
X226024285Y-105428571D01*
X225976666Y-105380952D01*
X225881428Y-105333333D01*
X225690952Y-105333333D01*
X225595714Y-105380952D01*
X225548095Y-105428571D01*
X225500476Y-105523809D01*
%TO.C,R25*%
X224167142Y-95952380D02*
X223833809Y-95476190D01*
X223595714Y-95952380D02*
X223595714Y-94952380D01*
X223976666Y-94952380D01*
X224071904Y-95000000D01*
X224119523Y-95047619D01*
X224167142Y-95142857D01*
X224167142Y-95285714D01*
X224119523Y-95380952D01*
X224071904Y-95428571D01*
X223976666Y-95476190D01*
X223595714Y-95476190D01*
X224548095Y-95047619D02*
X224595714Y-95000000D01*
X224690952Y-94952380D01*
X224929047Y-94952380D01*
X225024285Y-95000000D01*
X225071904Y-95047619D01*
X225119523Y-95142857D01*
X225119523Y-95238095D01*
X225071904Y-95380952D01*
X224500476Y-95952380D01*
X225119523Y-95952380D01*
X226024285Y-94952380D02*
X225548095Y-94952380D01*
X225500476Y-95428571D01*
X225548095Y-95380952D01*
X225643333Y-95333333D01*
X225881428Y-95333333D01*
X225976666Y-95380952D01*
X226024285Y-95428571D01*
X226071904Y-95523809D01*
X226071904Y-95761904D01*
X226024285Y-95857142D01*
X225976666Y-95904761D01*
X225881428Y-95952380D01*
X225643333Y-95952380D01*
X225548095Y-95904761D01*
X225500476Y-95857142D01*
%TO.C,R24*%
X224167142Y-85952380D02*
X223833809Y-85476190D01*
X223595714Y-85952380D02*
X223595714Y-84952380D01*
X223976666Y-84952380D01*
X224071904Y-85000000D01*
X224119523Y-85047619D01*
X224167142Y-85142857D01*
X224167142Y-85285714D01*
X224119523Y-85380952D01*
X224071904Y-85428571D01*
X223976666Y-85476190D01*
X223595714Y-85476190D01*
X224548095Y-85047619D02*
X224595714Y-85000000D01*
X224690952Y-84952380D01*
X224929047Y-84952380D01*
X225024285Y-85000000D01*
X225071904Y-85047619D01*
X225119523Y-85142857D01*
X225119523Y-85238095D01*
X225071904Y-85380952D01*
X224500476Y-85952380D01*
X225119523Y-85952380D01*
X225976666Y-85285714D02*
X225976666Y-85952380D01*
X225738571Y-84904761D02*
X225500476Y-85619047D01*
X226119523Y-85619047D01*
%TO.C,R23*%
X224167142Y-75952380D02*
X223833809Y-75476190D01*
X223595714Y-75952380D02*
X223595714Y-74952380D01*
X223976666Y-74952380D01*
X224071904Y-75000000D01*
X224119523Y-75047619D01*
X224167142Y-75142857D01*
X224167142Y-75285714D01*
X224119523Y-75380952D01*
X224071904Y-75428571D01*
X223976666Y-75476190D01*
X223595714Y-75476190D01*
X224548095Y-75047619D02*
X224595714Y-75000000D01*
X224690952Y-74952380D01*
X224929047Y-74952380D01*
X225024285Y-75000000D01*
X225071904Y-75047619D01*
X225119523Y-75142857D01*
X225119523Y-75238095D01*
X225071904Y-75380952D01*
X224500476Y-75952380D01*
X225119523Y-75952380D01*
X225452857Y-74952380D02*
X226071904Y-74952380D01*
X225738571Y-75333333D01*
X225881428Y-75333333D01*
X225976666Y-75380952D01*
X226024285Y-75428571D01*
X226071904Y-75523809D01*
X226071904Y-75761904D01*
X226024285Y-75857142D01*
X225976666Y-75904761D01*
X225881428Y-75952380D01*
X225595714Y-75952380D01*
X225500476Y-75904761D01*
X225452857Y-75857142D01*
%TO.C,R22*%
X224167142Y-65952380D02*
X223833809Y-65476190D01*
X223595714Y-65952380D02*
X223595714Y-64952380D01*
X223976666Y-64952380D01*
X224071904Y-65000000D01*
X224119523Y-65047619D01*
X224167142Y-65142857D01*
X224167142Y-65285714D01*
X224119523Y-65380952D01*
X224071904Y-65428571D01*
X223976666Y-65476190D01*
X223595714Y-65476190D01*
X224548095Y-65047619D02*
X224595714Y-65000000D01*
X224690952Y-64952380D01*
X224929047Y-64952380D01*
X225024285Y-65000000D01*
X225071904Y-65047619D01*
X225119523Y-65142857D01*
X225119523Y-65238095D01*
X225071904Y-65380952D01*
X224500476Y-65952380D01*
X225119523Y-65952380D01*
X225500476Y-65047619D02*
X225548095Y-65000000D01*
X225643333Y-64952380D01*
X225881428Y-64952380D01*
X225976666Y-65000000D01*
X226024285Y-65047619D01*
X226071904Y-65142857D01*
X226071904Y-65238095D01*
X226024285Y-65380952D01*
X225452857Y-65952380D01*
X226071904Y-65952380D01*
%TO.C,R21*%
X224357142Y-140952380D02*
X224023809Y-140476190D01*
X223785714Y-140952380D02*
X223785714Y-139952380D01*
X224166666Y-139952380D01*
X224261904Y-140000000D01*
X224309523Y-140047619D01*
X224357142Y-140142857D01*
X224357142Y-140285714D01*
X224309523Y-140380952D01*
X224261904Y-140428571D01*
X224166666Y-140476190D01*
X223785714Y-140476190D01*
X224738095Y-140047619D02*
X224785714Y-140000000D01*
X224880952Y-139952380D01*
X225119047Y-139952380D01*
X225214285Y-140000000D01*
X225261904Y-140047619D01*
X225309523Y-140142857D01*
X225309523Y-140238095D01*
X225261904Y-140380952D01*
X224690476Y-140952380D01*
X225309523Y-140952380D01*
X226261904Y-140952380D02*
X225690476Y-140952380D01*
X225976190Y-140952380D02*
X225976190Y-139952380D01*
X225880952Y-140095238D01*
X225785714Y-140190476D01*
X225690476Y-140238095D01*
%TO.C,R20*%
X210667142Y-71452380D02*
X210333809Y-70976190D01*
X210095714Y-71452380D02*
X210095714Y-70452380D01*
X210476666Y-70452380D01*
X210571904Y-70500000D01*
X210619523Y-70547619D01*
X210667142Y-70642857D01*
X210667142Y-70785714D01*
X210619523Y-70880952D01*
X210571904Y-70928571D01*
X210476666Y-70976190D01*
X210095714Y-70976190D01*
X211048095Y-70547619D02*
X211095714Y-70500000D01*
X211190952Y-70452380D01*
X211429047Y-70452380D01*
X211524285Y-70500000D01*
X211571904Y-70547619D01*
X211619523Y-70642857D01*
X211619523Y-70738095D01*
X211571904Y-70880952D01*
X211000476Y-71452380D01*
X211619523Y-71452380D01*
X212238571Y-70452380D02*
X212333809Y-70452380D01*
X212429047Y-70500000D01*
X212476666Y-70547619D01*
X212524285Y-70642857D01*
X212571904Y-70833333D01*
X212571904Y-71071428D01*
X212524285Y-71261904D01*
X212476666Y-71357142D01*
X212429047Y-71404761D01*
X212333809Y-71452380D01*
X212238571Y-71452380D01*
X212143333Y-71404761D01*
X212095714Y-71357142D01*
X212048095Y-71261904D01*
X212000476Y-71071428D01*
X212000476Y-70833333D01*
X212048095Y-70642857D01*
X212095714Y-70547619D01*
X212143333Y-70500000D01*
X212238571Y-70452380D01*
%TO.C,R19*%
X210667142Y-68452380D02*
X210333809Y-67976190D01*
X210095714Y-68452380D02*
X210095714Y-67452380D01*
X210476666Y-67452380D01*
X210571904Y-67500000D01*
X210619523Y-67547619D01*
X210667142Y-67642857D01*
X210667142Y-67785714D01*
X210619523Y-67880952D01*
X210571904Y-67928571D01*
X210476666Y-67976190D01*
X210095714Y-67976190D01*
X211619523Y-68452380D02*
X211048095Y-68452380D01*
X211333809Y-68452380D02*
X211333809Y-67452380D01*
X211238571Y-67595238D01*
X211143333Y-67690476D01*
X211048095Y-67738095D01*
X212095714Y-68452380D02*
X212286190Y-68452380D01*
X212381428Y-68404761D01*
X212429047Y-68357142D01*
X212524285Y-68214285D01*
X212571904Y-68023809D01*
X212571904Y-67642857D01*
X212524285Y-67547619D01*
X212476666Y-67500000D01*
X212381428Y-67452380D01*
X212190952Y-67452380D01*
X212095714Y-67500000D01*
X212048095Y-67547619D01*
X212000476Y-67642857D01*
X212000476Y-67880952D01*
X212048095Y-67976190D01*
X212095714Y-68023809D01*
X212190952Y-68071428D01*
X212381428Y-68071428D01*
X212476666Y-68023809D01*
X212524285Y-67976190D01*
X212571904Y-67880952D01*
%TO.C,R18*%
X199667142Y-71452380D02*
X199333809Y-70976190D01*
X199095714Y-71452380D02*
X199095714Y-70452380D01*
X199476666Y-70452380D01*
X199571904Y-70500000D01*
X199619523Y-70547619D01*
X199667142Y-70642857D01*
X199667142Y-70785714D01*
X199619523Y-70880952D01*
X199571904Y-70928571D01*
X199476666Y-70976190D01*
X199095714Y-70976190D01*
X200619523Y-71452380D02*
X200048095Y-71452380D01*
X200333809Y-71452380D02*
X200333809Y-70452380D01*
X200238571Y-70595238D01*
X200143333Y-70690476D01*
X200048095Y-70738095D01*
X201190952Y-70880952D02*
X201095714Y-70833333D01*
X201048095Y-70785714D01*
X201000476Y-70690476D01*
X201000476Y-70642857D01*
X201048095Y-70547619D01*
X201095714Y-70500000D01*
X201190952Y-70452380D01*
X201381428Y-70452380D01*
X201476666Y-70500000D01*
X201524285Y-70547619D01*
X201571904Y-70642857D01*
X201571904Y-70690476D01*
X201524285Y-70785714D01*
X201476666Y-70833333D01*
X201381428Y-70880952D01*
X201190952Y-70880952D01*
X201095714Y-70928571D01*
X201048095Y-70976190D01*
X201000476Y-71071428D01*
X201000476Y-71261904D01*
X201048095Y-71357142D01*
X201095714Y-71404761D01*
X201190952Y-71452380D01*
X201381428Y-71452380D01*
X201476666Y-71404761D01*
X201524285Y-71357142D01*
X201571904Y-71261904D01*
X201571904Y-71071428D01*
X201524285Y-70976190D01*
X201476666Y-70928571D01*
X201381428Y-70880952D01*
%TO.C,R17*%
X199667142Y-68452380D02*
X199333809Y-67976190D01*
X199095714Y-68452380D02*
X199095714Y-67452380D01*
X199476666Y-67452380D01*
X199571904Y-67500000D01*
X199619523Y-67547619D01*
X199667142Y-67642857D01*
X199667142Y-67785714D01*
X199619523Y-67880952D01*
X199571904Y-67928571D01*
X199476666Y-67976190D01*
X199095714Y-67976190D01*
X200619523Y-68452380D02*
X200048095Y-68452380D01*
X200333809Y-68452380D02*
X200333809Y-67452380D01*
X200238571Y-67595238D01*
X200143333Y-67690476D01*
X200048095Y-67738095D01*
X200952857Y-67452380D02*
X201619523Y-67452380D01*
X201190952Y-68452380D01*
%TO.C,J20*%
X234690476Y-143452380D02*
X234690476Y-144166666D01*
X234642857Y-144309523D01*
X234547619Y-144404761D01*
X234404761Y-144452380D01*
X234309523Y-144452380D01*
X235119047Y-143547619D02*
X235166666Y-143500000D01*
X235261904Y-143452380D01*
X235500000Y-143452380D01*
X235595238Y-143500000D01*
X235642857Y-143547619D01*
X235690476Y-143642857D01*
X235690476Y-143738095D01*
X235642857Y-143880952D01*
X235071428Y-144452380D01*
X235690476Y-144452380D01*
X236309523Y-143452380D02*
X236404761Y-143452380D01*
X236500000Y-143500000D01*
X236547619Y-143547619D01*
X236595238Y-143642857D01*
X236642857Y-143833333D01*
X236642857Y-144071428D01*
X236595238Y-144261904D01*
X236547619Y-144357142D01*
X236500000Y-144404761D01*
X236404761Y-144452380D01*
X236309523Y-144452380D01*
X236214285Y-144404761D01*
X236166666Y-144357142D01*
X236119047Y-144261904D01*
X236071428Y-144071428D01*
X236071428Y-143833333D01*
X236119047Y-143642857D01*
X236166666Y-143547619D01*
X236214285Y-143500000D01*
X236309523Y-143452380D01*
%TO.C,R16*%
X166857142Y-137452380D02*
X166523809Y-136976190D01*
X166285714Y-137452380D02*
X166285714Y-136452380D01*
X166666666Y-136452380D01*
X166761904Y-136500000D01*
X166809523Y-136547619D01*
X166857142Y-136642857D01*
X166857142Y-136785714D01*
X166809523Y-136880952D01*
X166761904Y-136928571D01*
X166666666Y-136976190D01*
X166285714Y-136976190D01*
X167809523Y-137452380D02*
X167238095Y-137452380D01*
X167523809Y-137452380D02*
X167523809Y-136452380D01*
X167428571Y-136595238D01*
X167333333Y-136690476D01*
X167238095Y-136738095D01*
X168666666Y-136452380D02*
X168476190Y-136452380D01*
X168380952Y-136500000D01*
X168333333Y-136547619D01*
X168238095Y-136690476D01*
X168190476Y-136880952D01*
X168190476Y-137261904D01*
X168238095Y-137357142D01*
X168285714Y-137404761D01*
X168380952Y-137452380D01*
X168571428Y-137452380D01*
X168666666Y-137404761D01*
X168714285Y-137357142D01*
X168761904Y-137261904D01*
X168761904Y-137023809D01*
X168714285Y-136928571D01*
X168666666Y-136880952D01*
X168571428Y-136833333D01*
X168380952Y-136833333D01*
X168285714Y-136880952D01*
X168238095Y-136928571D01*
X168190476Y-137023809D01*
%TO.C,R15*%
X166857142Y-127452380D02*
X166523809Y-126976190D01*
X166285714Y-127452380D02*
X166285714Y-126452380D01*
X166666666Y-126452380D01*
X166761904Y-126500000D01*
X166809523Y-126547619D01*
X166857142Y-126642857D01*
X166857142Y-126785714D01*
X166809523Y-126880952D01*
X166761904Y-126928571D01*
X166666666Y-126976190D01*
X166285714Y-126976190D01*
X167809523Y-127452380D02*
X167238095Y-127452380D01*
X167523809Y-127452380D02*
X167523809Y-126452380D01*
X167428571Y-126595238D01*
X167333333Y-126690476D01*
X167238095Y-126738095D01*
X168714285Y-126452380D02*
X168238095Y-126452380D01*
X168190476Y-126928571D01*
X168238095Y-126880952D01*
X168333333Y-126833333D01*
X168571428Y-126833333D01*
X168666666Y-126880952D01*
X168714285Y-126928571D01*
X168761904Y-127023809D01*
X168761904Y-127261904D01*
X168714285Y-127357142D01*
X168666666Y-127404761D01*
X168571428Y-127452380D01*
X168333333Y-127452380D01*
X168238095Y-127404761D01*
X168190476Y-127357142D01*
%TO.C,R14*%
X166857142Y-139452380D02*
X166523809Y-138976190D01*
X166285714Y-139452380D02*
X166285714Y-138452380D01*
X166666666Y-138452380D01*
X166761904Y-138500000D01*
X166809523Y-138547619D01*
X166857142Y-138642857D01*
X166857142Y-138785714D01*
X166809523Y-138880952D01*
X166761904Y-138928571D01*
X166666666Y-138976190D01*
X166285714Y-138976190D01*
X167809523Y-139452380D02*
X167238095Y-139452380D01*
X167523809Y-139452380D02*
X167523809Y-138452380D01*
X167428571Y-138595238D01*
X167333333Y-138690476D01*
X167238095Y-138738095D01*
X168666666Y-138785714D02*
X168666666Y-139452380D01*
X168428571Y-138404761D02*
X168190476Y-139119047D01*
X168809523Y-139119047D01*
%TO.C,R13*%
X166857142Y-129452380D02*
X166523809Y-128976190D01*
X166285714Y-129452380D02*
X166285714Y-128452380D01*
X166666666Y-128452380D01*
X166761904Y-128500000D01*
X166809523Y-128547619D01*
X166857142Y-128642857D01*
X166857142Y-128785714D01*
X166809523Y-128880952D01*
X166761904Y-128928571D01*
X166666666Y-128976190D01*
X166285714Y-128976190D01*
X167809523Y-129452380D02*
X167238095Y-129452380D01*
X167523809Y-129452380D02*
X167523809Y-128452380D01*
X167428571Y-128595238D01*
X167333333Y-128690476D01*
X167238095Y-128738095D01*
X168142857Y-128452380D02*
X168761904Y-128452380D01*
X168428571Y-128833333D01*
X168571428Y-128833333D01*
X168666666Y-128880952D01*
X168714285Y-128928571D01*
X168761904Y-129023809D01*
X168761904Y-129261904D01*
X168714285Y-129357142D01*
X168666666Y-129404761D01*
X168571428Y-129452380D01*
X168285714Y-129452380D01*
X168190476Y-129404761D01*
X168142857Y-129357142D01*
%TO.C,R12*%
X166857142Y-117452380D02*
X166523809Y-116976190D01*
X166285714Y-117452380D02*
X166285714Y-116452380D01*
X166666666Y-116452380D01*
X166761904Y-116500000D01*
X166809523Y-116547619D01*
X166857142Y-116642857D01*
X166857142Y-116785714D01*
X166809523Y-116880952D01*
X166761904Y-116928571D01*
X166666666Y-116976190D01*
X166285714Y-116976190D01*
X167809523Y-117452380D02*
X167238095Y-117452380D01*
X167523809Y-117452380D02*
X167523809Y-116452380D01*
X167428571Y-116595238D01*
X167333333Y-116690476D01*
X167238095Y-116738095D01*
X168190476Y-116547619D02*
X168238095Y-116500000D01*
X168333333Y-116452380D01*
X168571428Y-116452380D01*
X168666666Y-116500000D01*
X168714285Y-116547619D01*
X168761904Y-116642857D01*
X168761904Y-116738095D01*
X168714285Y-116880952D01*
X168142857Y-117452380D01*
X168761904Y-117452380D01*
%TO.C,R11*%
X166857142Y-107452380D02*
X166523809Y-106976190D01*
X166285714Y-107452380D02*
X166285714Y-106452380D01*
X166666666Y-106452380D01*
X166761904Y-106500000D01*
X166809523Y-106547619D01*
X166857142Y-106642857D01*
X166857142Y-106785714D01*
X166809523Y-106880952D01*
X166761904Y-106928571D01*
X166666666Y-106976190D01*
X166285714Y-106976190D01*
X167809523Y-107452380D02*
X167238095Y-107452380D01*
X167523809Y-107452380D02*
X167523809Y-106452380D01*
X167428571Y-106595238D01*
X167333333Y-106690476D01*
X167238095Y-106738095D01*
X168761904Y-107452380D02*
X168190476Y-107452380D01*
X168476190Y-107452380D02*
X168476190Y-106452380D01*
X168380952Y-106595238D01*
X168285714Y-106690476D01*
X168190476Y-106738095D01*
%TO.C,R10*%
X166857142Y-119452380D02*
X166523809Y-118976190D01*
X166285714Y-119452380D02*
X166285714Y-118452380D01*
X166666666Y-118452380D01*
X166761904Y-118500000D01*
X166809523Y-118547619D01*
X166857142Y-118642857D01*
X166857142Y-118785714D01*
X166809523Y-118880952D01*
X166761904Y-118928571D01*
X166666666Y-118976190D01*
X166285714Y-118976190D01*
X167809523Y-119452380D02*
X167238095Y-119452380D01*
X167523809Y-119452380D02*
X167523809Y-118452380D01*
X167428571Y-118595238D01*
X167333333Y-118690476D01*
X167238095Y-118738095D01*
X168428571Y-118452380D02*
X168523809Y-118452380D01*
X168619047Y-118500000D01*
X168666666Y-118547619D01*
X168714285Y-118642857D01*
X168761904Y-118833333D01*
X168761904Y-119071428D01*
X168714285Y-119261904D01*
X168666666Y-119357142D01*
X168619047Y-119404761D01*
X168523809Y-119452380D01*
X168428571Y-119452380D01*
X168333333Y-119404761D01*
X168285714Y-119357142D01*
X168238095Y-119261904D01*
X168190476Y-119071428D01*
X168190476Y-118833333D01*
X168238095Y-118642857D01*
X168285714Y-118547619D01*
X168333333Y-118500000D01*
X168428571Y-118452380D01*
%TO.C,R9*%
X166833333Y-109452380D02*
X166500000Y-108976190D01*
X166261904Y-109452380D02*
X166261904Y-108452380D01*
X166642857Y-108452380D01*
X166738095Y-108500000D01*
X166785714Y-108547619D01*
X166833333Y-108642857D01*
X166833333Y-108785714D01*
X166785714Y-108880952D01*
X166738095Y-108928571D01*
X166642857Y-108976190D01*
X166261904Y-108976190D01*
X167309523Y-109452380D02*
X167500000Y-109452380D01*
X167595238Y-109404761D01*
X167642857Y-109357142D01*
X167738095Y-109214285D01*
X167785714Y-109023809D01*
X167785714Y-108642857D01*
X167738095Y-108547619D01*
X167690476Y-108500000D01*
X167595238Y-108452380D01*
X167404761Y-108452380D01*
X167309523Y-108500000D01*
X167261904Y-108547619D01*
X167214285Y-108642857D01*
X167214285Y-108880952D01*
X167261904Y-108976190D01*
X167309523Y-109023809D01*
X167404761Y-109071428D01*
X167595238Y-109071428D01*
X167690476Y-109023809D01*
X167738095Y-108976190D01*
X167785714Y-108880952D01*
%TO.C,R8*%
X166833333Y-97452380D02*
X166500000Y-96976190D01*
X166261904Y-97452380D02*
X166261904Y-96452380D01*
X166642857Y-96452380D01*
X166738095Y-96500000D01*
X166785714Y-96547619D01*
X166833333Y-96642857D01*
X166833333Y-96785714D01*
X166785714Y-96880952D01*
X166738095Y-96928571D01*
X166642857Y-96976190D01*
X166261904Y-96976190D01*
X167404761Y-96880952D02*
X167309523Y-96833333D01*
X167261904Y-96785714D01*
X167214285Y-96690476D01*
X167214285Y-96642857D01*
X167261904Y-96547619D01*
X167309523Y-96500000D01*
X167404761Y-96452380D01*
X167595238Y-96452380D01*
X167690476Y-96500000D01*
X167738095Y-96547619D01*
X167785714Y-96642857D01*
X167785714Y-96690476D01*
X167738095Y-96785714D01*
X167690476Y-96833333D01*
X167595238Y-96880952D01*
X167404761Y-96880952D01*
X167309523Y-96928571D01*
X167261904Y-96976190D01*
X167214285Y-97071428D01*
X167214285Y-97261904D01*
X167261904Y-97357142D01*
X167309523Y-97404761D01*
X167404761Y-97452380D01*
X167595238Y-97452380D01*
X167690476Y-97404761D01*
X167738095Y-97357142D01*
X167785714Y-97261904D01*
X167785714Y-97071428D01*
X167738095Y-96976190D01*
X167690476Y-96928571D01*
X167595238Y-96880952D01*
%TO.C,R7*%
X166833333Y-87452380D02*
X166500000Y-86976190D01*
X166261904Y-87452380D02*
X166261904Y-86452380D01*
X166642857Y-86452380D01*
X166738095Y-86500000D01*
X166785714Y-86547619D01*
X166833333Y-86642857D01*
X166833333Y-86785714D01*
X166785714Y-86880952D01*
X166738095Y-86928571D01*
X166642857Y-86976190D01*
X166261904Y-86976190D01*
X167166666Y-86452380D02*
X167833333Y-86452380D01*
X167404761Y-87452380D01*
%TO.C,R6*%
X166833333Y-99452380D02*
X166500000Y-98976190D01*
X166261904Y-99452380D02*
X166261904Y-98452380D01*
X166642857Y-98452380D01*
X166738095Y-98500000D01*
X166785714Y-98547619D01*
X166833333Y-98642857D01*
X166833333Y-98785714D01*
X166785714Y-98880952D01*
X166738095Y-98928571D01*
X166642857Y-98976190D01*
X166261904Y-98976190D01*
X167690476Y-98452380D02*
X167500000Y-98452380D01*
X167404761Y-98500000D01*
X167357142Y-98547619D01*
X167261904Y-98690476D01*
X167214285Y-98880952D01*
X167214285Y-99261904D01*
X167261904Y-99357142D01*
X167309523Y-99404761D01*
X167404761Y-99452380D01*
X167595238Y-99452380D01*
X167690476Y-99404761D01*
X167738095Y-99357142D01*
X167785714Y-99261904D01*
X167785714Y-99023809D01*
X167738095Y-98928571D01*
X167690476Y-98880952D01*
X167595238Y-98833333D01*
X167404761Y-98833333D01*
X167309523Y-98880952D01*
X167261904Y-98928571D01*
X167214285Y-99023809D01*
%TO.C,R5*%
X166833333Y-89452380D02*
X166500000Y-88976190D01*
X166261904Y-89452380D02*
X166261904Y-88452380D01*
X166642857Y-88452380D01*
X166738095Y-88500000D01*
X166785714Y-88547619D01*
X166833333Y-88642857D01*
X166833333Y-88785714D01*
X166785714Y-88880952D01*
X166738095Y-88928571D01*
X166642857Y-88976190D01*
X166261904Y-88976190D01*
X167738095Y-88452380D02*
X167261904Y-88452380D01*
X167214285Y-88928571D01*
X167261904Y-88880952D01*
X167357142Y-88833333D01*
X167595238Y-88833333D01*
X167690476Y-88880952D01*
X167738095Y-88928571D01*
X167785714Y-89023809D01*
X167785714Y-89261904D01*
X167738095Y-89357142D01*
X167690476Y-89404761D01*
X167595238Y-89452380D01*
X167357142Y-89452380D01*
X167261904Y-89404761D01*
X167214285Y-89357142D01*
%TO.C,R4*%
X174833333Y-75952380D02*
X174500000Y-75476190D01*
X174261904Y-75952380D02*
X174261904Y-74952380D01*
X174642857Y-74952380D01*
X174738095Y-75000000D01*
X174785714Y-75047619D01*
X174833333Y-75142857D01*
X174833333Y-75285714D01*
X174785714Y-75380952D01*
X174738095Y-75428571D01*
X174642857Y-75476190D01*
X174261904Y-75476190D01*
X175690476Y-75285714D02*
X175690476Y-75952380D01*
X175452380Y-74904761D02*
X175214285Y-75619047D01*
X175833333Y-75619047D01*
%TO.C,R3*%
X174833333Y-65952380D02*
X174500000Y-65476190D01*
X174261904Y-65952380D02*
X174261904Y-64952380D01*
X174642857Y-64952380D01*
X174738095Y-65000000D01*
X174785714Y-65047619D01*
X174833333Y-65142857D01*
X174833333Y-65285714D01*
X174785714Y-65380952D01*
X174738095Y-65428571D01*
X174642857Y-65476190D01*
X174261904Y-65476190D01*
X175166666Y-64952380D02*
X175785714Y-64952380D01*
X175452380Y-65333333D01*
X175595238Y-65333333D01*
X175690476Y-65380952D01*
X175738095Y-65428571D01*
X175785714Y-65523809D01*
X175785714Y-65761904D01*
X175738095Y-65857142D01*
X175690476Y-65904761D01*
X175595238Y-65952380D01*
X175309523Y-65952380D01*
X175214285Y-65904761D01*
X175166666Y-65857142D01*
%TO.C,R2*%
X174833333Y-80952380D02*
X174500000Y-80476190D01*
X174261904Y-80952380D02*
X174261904Y-79952380D01*
X174642857Y-79952380D01*
X174738095Y-80000000D01*
X174785714Y-80047619D01*
X174833333Y-80142857D01*
X174833333Y-80285714D01*
X174785714Y-80380952D01*
X174738095Y-80428571D01*
X174642857Y-80476190D01*
X174261904Y-80476190D01*
X175214285Y-80047619D02*
X175261904Y-80000000D01*
X175357142Y-79952380D01*
X175595238Y-79952380D01*
X175690476Y-80000000D01*
X175738095Y-80047619D01*
X175785714Y-80142857D01*
X175785714Y-80238095D01*
X175738095Y-80380952D01*
X175166666Y-80952380D01*
X175785714Y-80952380D01*
%TO.C,R1*%
X174833333Y-70952380D02*
X174500000Y-70476190D01*
X174261904Y-70952380D02*
X174261904Y-69952380D01*
X174642857Y-69952380D01*
X174738095Y-70000000D01*
X174785714Y-70047619D01*
X174833333Y-70142857D01*
X174833333Y-70285714D01*
X174785714Y-70380952D01*
X174738095Y-70428571D01*
X174642857Y-70476190D01*
X174261904Y-70476190D01*
X175785714Y-70952380D02*
X175214285Y-70952380D01*
X175500000Y-70952380D02*
X175500000Y-69952380D01*
X175404761Y-70095238D01*
X175309523Y-70190476D01*
X175214285Y-70238095D01*
%TO.C,Q8*%
X160404761Y-141047619D02*
X160309523Y-141000000D01*
X160214285Y-140904761D01*
X160071428Y-140761904D01*
X159976190Y-140714285D01*
X159880952Y-140714285D01*
X159928571Y-140952380D02*
X159833333Y-140904761D01*
X159738095Y-140809523D01*
X159690476Y-140619047D01*
X159690476Y-140285714D01*
X159738095Y-140095238D01*
X159833333Y-140000000D01*
X159928571Y-139952380D01*
X160119047Y-139952380D01*
X160214285Y-140000000D01*
X160309523Y-140095238D01*
X160357142Y-140285714D01*
X160357142Y-140619047D01*
X160309523Y-140809523D01*
X160214285Y-140904761D01*
X160119047Y-140952380D01*
X159928571Y-140952380D01*
X160928571Y-140380952D02*
X160833333Y-140333333D01*
X160785714Y-140285714D01*
X160738095Y-140190476D01*
X160738095Y-140142857D01*
X160785714Y-140047619D01*
X160833333Y-140000000D01*
X160928571Y-139952380D01*
X161119047Y-139952380D01*
X161214285Y-140000000D01*
X161261904Y-140047619D01*
X161309523Y-140142857D01*
X161309523Y-140190476D01*
X161261904Y-140285714D01*
X161214285Y-140333333D01*
X161119047Y-140380952D01*
X160928571Y-140380952D01*
X160833333Y-140428571D01*
X160785714Y-140476190D01*
X160738095Y-140571428D01*
X160738095Y-140761904D01*
X160785714Y-140857142D01*
X160833333Y-140904761D01*
X160928571Y-140952380D01*
X161119047Y-140952380D01*
X161214285Y-140904761D01*
X161261904Y-140857142D01*
X161309523Y-140761904D01*
X161309523Y-140571428D01*
X161261904Y-140476190D01*
X161214285Y-140428571D01*
X161119047Y-140380952D01*
%TO.C,Q7*%
X160404761Y-131047619D02*
X160309523Y-131000000D01*
X160214285Y-130904761D01*
X160071428Y-130761904D01*
X159976190Y-130714285D01*
X159880952Y-130714285D01*
X159928571Y-130952380D02*
X159833333Y-130904761D01*
X159738095Y-130809523D01*
X159690476Y-130619047D01*
X159690476Y-130285714D01*
X159738095Y-130095238D01*
X159833333Y-130000000D01*
X159928571Y-129952380D01*
X160119047Y-129952380D01*
X160214285Y-130000000D01*
X160309523Y-130095238D01*
X160357142Y-130285714D01*
X160357142Y-130619047D01*
X160309523Y-130809523D01*
X160214285Y-130904761D01*
X160119047Y-130952380D01*
X159928571Y-130952380D01*
X160690476Y-129952380D02*
X161357142Y-129952380D01*
X160928571Y-130952380D01*
%TO.C,Q6*%
X160404761Y-121047619D02*
X160309523Y-121000000D01*
X160214285Y-120904761D01*
X160071428Y-120761904D01*
X159976190Y-120714285D01*
X159880952Y-120714285D01*
X159928571Y-120952380D02*
X159833333Y-120904761D01*
X159738095Y-120809523D01*
X159690476Y-120619047D01*
X159690476Y-120285714D01*
X159738095Y-120095238D01*
X159833333Y-120000000D01*
X159928571Y-119952380D01*
X160119047Y-119952380D01*
X160214285Y-120000000D01*
X160309523Y-120095238D01*
X160357142Y-120285714D01*
X160357142Y-120619047D01*
X160309523Y-120809523D01*
X160214285Y-120904761D01*
X160119047Y-120952380D01*
X159928571Y-120952380D01*
X161214285Y-119952380D02*
X161023809Y-119952380D01*
X160928571Y-120000000D01*
X160880952Y-120047619D01*
X160785714Y-120190476D01*
X160738095Y-120380952D01*
X160738095Y-120761904D01*
X160785714Y-120857142D01*
X160833333Y-120904761D01*
X160928571Y-120952380D01*
X161119047Y-120952380D01*
X161214285Y-120904761D01*
X161261904Y-120857142D01*
X161309523Y-120761904D01*
X161309523Y-120523809D01*
X161261904Y-120428571D01*
X161214285Y-120380952D01*
X161119047Y-120333333D01*
X160928571Y-120333333D01*
X160833333Y-120380952D01*
X160785714Y-120428571D01*
X160738095Y-120523809D01*
%TO.C,Q5*%
X160404761Y-111047619D02*
X160309523Y-111000000D01*
X160214285Y-110904761D01*
X160071428Y-110761904D01*
X159976190Y-110714285D01*
X159880952Y-110714285D01*
X159928571Y-110952380D02*
X159833333Y-110904761D01*
X159738095Y-110809523D01*
X159690476Y-110619047D01*
X159690476Y-110285714D01*
X159738095Y-110095238D01*
X159833333Y-110000000D01*
X159928571Y-109952380D01*
X160119047Y-109952380D01*
X160214285Y-110000000D01*
X160309523Y-110095238D01*
X160357142Y-110285714D01*
X160357142Y-110619047D01*
X160309523Y-110809523D01*
X160214285Y-110904761D01*
X160119047Y-110952380D01*
X159928571Y-110952380D01*
X161261904Y-109952380D02*
X160785714Y-109952380D01*
X160738095Y-110428571D01*
X160785714Y-110380952D01*
X160880952Y-110333333D01*
X161119047Y-110333333D01*
X161214285Y-110380952D01*
X161261904Y-110428571D01*
X161309523Y-110523809D01*
X161309523Y-110761904D01*
X161261904Y-110857142D01*
X161214285Y-110904761D01*
X161119047Y-110952380D01*
X160880952Y-110952380D01*
X160785714Y-110904761D01*
X160738095Y-110857142D01*
%TO.C,Q4*%
X160404761Y-101047619D02*
X160309523Y-101000000D01*
X160214285Y-100904761D01*
X160071428Y-100761904D01*
X159976190Y-100714285D01*
X159880952Y-100714285D01*
X159928571Y-100952380D02*
X159833333Y-100904761D01*
X159738095Y-100809523D01*
X159690476Y-100619047D01*
X159690476Y-100285714D01*
X159738095Y-100095238D01*
X159833333Y-100000000D01*
X159928571Y-99952380D01*
X160119047Y-99952380D01*
X160214285Y-100000000D01*
X160309523Y-100095238D01*
X160357142Y-100285714D01*
X160357142Y-100619047D01*
X160309523Y-100809523D01*
X160214285Y-100904761D01*
X160119047Y-100952380D01*
X159928571Y-100952380D01*
X161214285Y-100285714D02*
X161214285Y-100952380D01*
X160976190Y-99904761D02*
X160738095Y-100619047D01*
X161357142Y-100619047D01*
%TO.C,Q3*%
X160404761Y-91047619D02*
X160309523Y-91000000D01*
X160214285Y-90904761D01*
X160071428Y-90761904D01*
X159976190Y-90714285D01*
X159880952Y-90714285D01*
X159928571Y-90952380D02*
X159833333Y-90904761D01*
X159738095Y-90809523D01*
X159690476Y-90619047D01*
X159690476Y-90285714D01*
X159738095Y-90095238D01*
X159833333Y-90000000D01*
X159928571Y-89952380D01*
X160119047Y-89952380D01*
X160214285Y-90000000D01*
X160309523Y-90095238D01*
X160357142Y-90285714D01*
X160357142Y-90619047D01*
X160309523Y-90809523D01*
X160214285Y-90904761D01*
X160119047Y-90952380D01*
X159928571Y-90952380D01*
X160690476Y-89952380D02*
X161309523Y-89952380D01*
X160976190Y-90333333D01*
X161119047Y-90333333D01*
X161214285Y-90380952D01*
X161261904Y-90428571D01*
X161309523Y-90523809D01*
X161309523Y-90761904D01*
X161261904Y-90857142D01*
X161214285Y-90904761D01*
X161119047Y-90952380D01*
X160833333Y-90952380D01*
X160738095Y-90904761D01*
X160690476Y-90857142D01*
%TO.C,J19*%
X211787779Y-63967713D02*
X211787779Y-64682106D01*
X211740153Y-64824985D01*
X211644901Y-64920237D01*
X211502022Y-64967863D01*
X211406770Y-64967863D01*
X212787929Y-64967863D02*
X212216415Y-64967863D01*
X212502172Y-64967863D02*
X212502172Y-63967713D01*
X212406920Y-64110592D01*
X212311667Y-64205844D01*
X212216415Y-64253470D01*
X213264191Y-64967863D02*
X213454696Y-64967863D01*
X213549948Y-64920237D01*
X213597575Y-64872611D01*
X213692827Y-64729732D01*
X213740453Y-64539228D01*
X213740453Y-64158218D01*
X213692827Y-64062966D01*
X213645201Y-64015340D01*
X213549948Y-63967713D01*
X213359444Y-63967713D01*
X213264191Y-64015340D01*
X213216565Y-64062966D01*
X213168939Y-64158218D01*
X213168939Y-64396349D01*
X213216565Y-64491601D01*
X213264191Y-64539228D01*
X213359444Y-64586854D01*
X213549948Y-64586854D01*
X213645201Y-64539228D01*
X213692827Y-64491601D01*
X213740453Y-64396349D01*
%TO.C,J18*%
X200787779Y-63967713D02*
X200787779Y-64682106D01*
X200740153Y-64824985D01*
X200644901Y-64920237D01*
X200502022Y-64967863D01*
X200406770Y-64967863D01*
X201787929Y-64967863D02*
X201216415Y-64967863D01*
X201502172Y-64967863D02*
X201502172Y-63967713D01*
X201406920Y-64110592D01*
X201311667Y-64205844D01*
X201216415Y-64253470D01*
X202359444Y-64396349D02*
X202264191Y-64348723D01*
X202216565Y-64301097D01*
X202168939Y-64205844D01*
X202168939Y-64158218D01*
X202216565Y-64062966D01*
X202264191Y-64015340D01*
X202359444Y-63967713D01*
X202549948Y-63967713D01*
X202645201Y-64015340D01*
X202692827Y-64062966D01*
X202740453Y-64158218D01*
X202740453Y-64205844D01*
X202692827Y-64301097D01*
X202645201Y-64348723D01*
X202549948Y-64396349D01*
X202359444Y-64396349D01*
X202264191Y-64443975D01*
X202216565Y-64491601D01*
X202168939Y-64586854D01*
X202168939Y-64777359D01*
X202216565Y-64872611D01*
X202264191Y-64920237D01*
X202359444Y-64967863D01*
X202549948Y-64967863D01*
X202645201Y-64920237D01*
X202692827Y-64872611D01*
X202740453Y-64777359D01*
X202740453Y-64586854D01*
X202692827Y-64491601D01*
X202645201Y-64443975D01*
X202549948Y-64396349D01*
%TO.C,J17*%
X184690476Y-66452380D02*
X184690476Y-67166666D01*
X184642857Y-67309523D01*
X184547619Y-67404761D01*
X184404761Y-67452380D01*
X184309523Y-67452380D01*
X185690476Y-67452380D02*
X185119047Y-67452380D01*
X185404761Y-67452380D02*
X185404761Y-66452380D01*
X185309523Y-66595238D01*
X185214285Y-66690476D01*
X185119047Y-66738095D01*
X186023809Y-66452380D02*
X186690476Y-66452380D01*
X186261904Y-67452380D01*
%TO.C,D8*%
X155261904Y-133952380D02*
X155261904Y-132952380D01*
X155500000Y-132952380D01*
X155642857Y-133000000D01*
X155738095Y-133095238D01*
X155785714Y-133190476D01*
X155833333Y-133380952D01*
X155833333Y-133523809D01*
X155785714Y-133714285D01*
X155738095Y-133809523D01*
X155642857Y-133904761D01*
X155500000Y-133952380D01*
X155261904Y-133952380D01*
X156404761Y-133380952D02*
X156309523Y-133333333D01*
X156261904Y-133285714D01*
X156214285Y-133190476D01*
X156214285Y-133142857D01*
X156261904Y-133047619D01*
X156309523Y-133000000D01*
X156404761Y-132952380D01*
X156595238Y-132952380D01*
X156690476Y-133000000D01*
X156738095Y-133047619D01*
X156785714Y-133142857D01*
X156785714Y-133190476D01*
X156738095Y-133285714D01*
X156690476Y-133333333D01*
X156595238Y-133380952D01*
X156404761Y-133380952D01*
X156309523Y-133428571D01*
X156261904Y-133476190D01*
X156214285Y-133571428D01*
X156214285Y-133761904D01*
X156261904Y-133857142D01*
X156309523Y-133904761D01*
X156404761Y-133952380D01*
X156595238Y-133952380D01*
X156690476Y-133904761D01*
X156738095Y-133857142D01*
X156785714Y-133761904D01*
X156785714Y-133571428D01*
X156738095Y-133476190D01*
X156690476Y-133428571D01*
X156595238Y-133380952D01*
%TO.C,D7*%
X155261904Y-123952380D02*
X155261904Y-122952380D01*
X155500000Y-122952380D01*
X155642857Y-123000000D01*
X155738095Y-123095238D01*
X155785714Y-123190476D01*
X155833333Y-123380952D01*
X155833333Y-123523809D01*
X155785714Y-123714285D01*
X155738095Y-123809523D01*
X155642857Y-123904761D01*
X155500000Y-123952380D01*
X155261904Y-123952380D01*
X156166666Y-122952380D02*
X156833333Y-122952380D01*
X156404761Y-123952380D01*
%TO.C,D6*%
X155261904Y-113952380D02*
X155261904Y-112952380D01*
X155500000Y-112952380D01*
X155642857Y-113000000D01*
X155738095Y-113095238D01*
X155785714Y-113190476D01*
X155833333Y-113380952D01*
X155833333Y-113523809D01*
X155785714Y-113714285D01*
X155738095Y-113809523D01*
X155642857Y-113904761D01*
X155500000Y-113952380D01*
X155261904Y-113952380D01*
X156690476Y-112952380D02*
X156500000Y-112952380D01*
X156404761Y-113000000D01*
X156357142Y-113047619D01*
X156261904Y-113190476D01*
X156214285Y-113380952D01*
X156214285Y-113761904D01*
X156261904Y-113857142D01*
X156309523Y-113904761D01*
X156404761Y-113952380D01*
X156595238Y-113952380D01*
X156690476Y-113904761D01*
X156738095Y-113857142D01*
X156785714Y-113761904D01*
X156785714Y-113523809D01*
X156738095Y-113428571D01*
X156690476Y-113380952D01*
X156595238Y-113333333D01*
X156404761Y-113333333D01*
X156309523Y-113380952D01*
X156261904Y-113428571D01*
X156214285Y-113523809D01*
%TO.C,D5*%
X155261904Y-103952380D02*
X155261904Y-102952380D01*
X155500000Y-102952380D01*
X155642857Y-103000000D01*
X155738095Y-103095238D01*
X155785714Y-103190476D01*
X155833333Y-103380952D01*
X155833333Y-103523809D01*
X155785714Y-103714285D01*
X155738095Y-103809523D01*
X155642857Y-103904761D01*
X155500000Y-103952380D01*
X155261904Y-103952380D01*
X156738095Y-102952380D02*
X156261904Y-102952380D01*
X156214285Y-103428571D01*
X156261904Y-103380952D01*
X156357142Y-103333333D01*
X156595238Y-103333333D01*
X156690476Y-103380952D01*
X156738095Y-103428571D01*
X156785714Y-103523809D01*
X156785714Y-103761904D01*
X156738095Y-103857142D01*
X156690476Y-103904761D01*
X156595238Y-103952380D01*
X156357142Y-103952380D01*
X156261904Y-103904761D01*
X156214285Y-103857142D01*
%TO.C,D4*%
X155261904Y-93952380D02*
X155261904Y-92952380D01*
X155500000Y-92952380D01*
X155642857Y-93000000D01*
X155738095Y-93095238D01*
X155785714Y-93190476D01*
X155833333Y-93380952D01*
X155833333Y-93523809D01*
X155785714Y-93714285D01*
X155738095Y-93809523D01*
X155642857Y-93904761D01*
X155500000Y-93952380D01*
X155261904Y-93952380D01*
X156690476Y-93285714D02*
X156690476Y-93952380D01*
X156452380Y-92904761D02*
X156214285Y-93619047D01*
X156833333Y-93619047D01*
%TO.C,D3*%
X155261904Y-83952380D02*
X155261904Y-82952380D01*
X155500000Y-82952380D01*
X155642857Y-83000000D01*
X155738095Y-83095238D01*
X155785714Y-83190476D01*
X155833333Y-83380952D01*
X155833333Y-83523809D01*
X155785714Y-83714285D01*
X155738095Y-83809523D01*
X155642857Y-83904761D01*
X155500000Y-83952380D01*
X155261904Y-83952380D01*
X156166666Y-82952380D02*
X156785714Y-82952380D01*
X156452380Y-83333333D01*
X156595238Y-83333333D01*
X156690476Y-83380952D01*
X156738095Y-83428571D01*
X156785714Y-83523809D01*
X156785714Y-83761904D01*
X156738095Y-83857142D01*
X156690476Y-83904761D01*
X156595238Y-83952380D01*
X156309523Y-83952380D01*
X156214285Y-83904761D01*
X156166666Y-83857142D01*
%TO.C,D2*%
X155261904Y-73952380D02*
X155261904Y-72952380D01*
X155500000Y-72952380D01*
X155642857Y-73000000D01*
X155738095Y-73095238D01*
X155785714Y-73190476D01*
X155833333Y-73380952D01*
X155833333Y-73523809D01*
X155785714Y-73714285D01*
X155738095Y-73809523D01*
X155642857Y-73904761D01*
X155500000Y-73952380D01*
X155261904Y-73952380D01*
X156214285Y-73047619D02*
X156261904Y-73000000D01*
X156357142Y-72952380D01*
X156595238Y-72952380D01*
X156690476Y-73000000D01*
X156738095Y-73047619D01*
X156785714Y-73142857D01*
X156785714Y-73238095D01*
X156738095Y-73380952D01*
X156166666Y-73952380D01*
X156785714Y-73952380D01*
%TO.C,D1*%
X155261904Y-63952380D02*
X155261904Y-62952380D01*
X155500000Y-62952380D01*
X155642857Y-63000000D01*
X155738095Y-63095238D01*
X155785714Y-63190476D01*
X155833333Y-63380952D01*
X155833333Y-63523809D01*
X155785714Y-63714285D01*
X155738095Y-63809523D01*
X155642857Y-63904761D01*
X155500000Y-63952380D01*
X155261904Y-63952380D01*
X156785714Y-63952380D02*
X156214285Y-63952380D01*
X156500000Y-63952380D02*
X156500000Y-62952380D01*
X156404761Y-63095238D01*
X156309523Y-63190476D01*
X156214285Y-63238095D01*
%TD*%
M02*
