%TF.GenerationSoftware,KiCad,Pcbnew,5.1.9-73d0e3b20d~88~ubuntu20.04.1*%
%TF.CreationDate,2021-09-23T17:55:38+05:30*%
%TF.ProjectId,veloce,76656c6f-6365-42e6-9b69-6361645f7063,rev?*%
%TF.SameCoordinates,Original*%
%TF.FileFunction,Soldermask,Top*%
%TF.FilePolarity,Negative*%
%FSLAX46Y46*%
G04 Gerber Fmt 4.6, Leading zero omitted, Abs format (unit mm)*
G04 Created by KiCad (PCBNEW 5.1.9-73d0e3b20d~88~ubuntu20.04.1) date 2021-09-23 17:55:38*
%MOMM*%
%LPD*%
G01*
G04 APERTURE LIST*
%ADD10R,5.918200X4.368800*%
%ADD11R,2.489200X0.939800*%
%ADD12R,1.600000X1.600000*%
%ADD13O,1.800000X2.600000*%
%ADD14O,2.600000X1.800000*%
%ADD15C,3.800000*%
%ADD16C,0.800000*%
%ADD17C,6.400000*%
%ADD18O,1.600000X1.600000*%
%ADD19C,1.600000*%
%ADD20C,2.600000*%
%ADD21R,2.600000X2.600000*%
%ADD22R,0.900000X0.800000*%
%ADD23C,0.650000*%
%ADD24O,1.108000X2.516000*%
%ADD25O,1.108000X2.216000*%
%ADD26C,3.300000*%
%ADD27R,2.300000X2.500000*%
G04 APERTURE END LIST*
D10*
%TO.C,Q1*%
X161544200Y-68000000D03*
D11*
X168643500Y-65714000D03*
X168643500Y-70286000D03*
%TD*%
D10*
%TO.C,Q2*%
X161544200Y-78000000D03*
D11*
X168643500Y-75714000D03*
X168643500Y-80286000D03*
%TD*%
D12*
%TO.C,JP1*%
X221000000Y-140500000D03*
%TD*%
%TO.C,JP9*%
X221000000Y-135500000D03*
%TD*%
%TO.C,JP8*%
X221000000Y-125500000D03*
%TD*%
%TO.C,JP7*%
X221000000Y-115500000D03*
%TD*%
%TO.C,JP6*%
X221000000Y-105500000D03*
%TD*%
%TO.C,JP5*%
X221000000Y-95500000D03*
%TD*%
%TO.C,JP4*%
X221000000Y-85500000D03*
%TD*%
%TO.C,JP3*%
X221000000Y-75500000D03*
%TD*%
%TO.C,JP2*%
X221000000Y-65500000D03*
%TD*%
D13*
%TO.C,U1*%
X205430000Y-124364000D03*
X202890000Y-124364000D03*
X200350000Y-124364000D03*
X197810000Y-124364000D03*
X195270000Y-124364000D03*
X192730000Y-124364000D03*
D14*
X214320000Y-95916000D03*
X214320000Y-93376000D03*
X214320000Y-106076000D03*
X214320000Y-103536000D03*
X214320000Y-100996000D03*
X214320000Y-98456000D03*
X214320000Y-80676000D03*
X214320000Y-83216000D03*
X214320000Y-85756000D03*
X214320000Y-88296000D03*
X214320000Y-90836000D03*
X214320000Y-116236000D03*
X214320000Y-113696000D03*
X214320000Y-111156000D03*
X214320000Y-108616000D03*
X183840000Y-83216000D03*
G36*
G01*
X182540000Y-81126000D02*
X182540000Y-80226000D01*
G75*
G02*
X182990000Y-79776000I450000J0D01*
G01*
X184690000Y-79776000D01*
G75*
G02*
X185140000Y-80226000I0J-450000D01*
G01*
X185140000Y-81126000D01*
G75*
G02*
X184690000Y-81576000I-450000J0D01*
G01*
X182990000Y-81576000D01*
G75*
G02*
X182540000Y-81126000I0J450000D01*
G01*
G37*
X183840000Y-95916000D03*
X183840000Y-93376000D03*
X183840000Y-90836000D03*
X183840000Y-88296000D03*
X183840000Y-85756000D03*
X183840000Y-116236000D03*
X183840000Y-113696000D03*
X183840000Y-111156000D03*
X183840000Y-108362000D03*
X183840000Y-106076000D03*
X183840000Y-103536000D03*
X183840000Y-100996000D03*
X183840000Y-98456000D03*
X209240000Y-80676000D03*
X209240000Y-83216000D03*
X209240000Y-85756000D03*
X209240000Y-88296000D03*
X209240000Y-90836000D03*
X188920000Y-116236000D03*
X188920000Y-113696000D03*
X188920000Y-111156000D03*
X188920000Y-108362000D03*
X188920000Y-106076000D03*
D13*
X205430000Y-119284000D03*
X202890000Y-119284000D03*
X200350000Y-119284000D03*
X197810000Y-119284000D03*
X195270000Y-119284000D03*
X192730000Y-119284000D03*
D15*
X209240000Y-119284000D03*
X188920000Y-119284000D03*
D14*
X209240000Y-116236000D03*
X188920000Y-103536000D03*
X209240000Y-113696000D03*
X188920000Y-100996000D03*
X209240000Y-111156000D03*
X188920000Y-98456000D03*
X209240000Y-108616000D03*
X188920000Y-95916000D03*
X209240000Y-106076000D03*
X188920000Y-93376000D03*
X209240000Y-103536000D03*
X188920000Y-90836000D03*
X209240000Y-100996000D03*
X188920000Y-88296000D03*
X209240000Y-98456000D03*
X188920000Y-85756000D03*
X209240000Y-95916000D03*
X188920000Y-83216000D03*
X209240000Y-93376000D03*
G36*
G01*
X187620000Y-81126000D02*
X187620000Y-80226000D01*
G75*
G02*
X188070000Y-79776000I450000J0D01*
G01*
X189770000Y-79776000D01*
G75*
G02*
X190220000Y-80226000I0J-450000D01*
G01*
X190220000Y-81126000D01*
G75*
G02*
X189770000Y-81576000I-450000J0D01*
G01*
X188070000Y-81576000D01*
G75*
G02*
X187620000Y-81126000I0J450000D01*
G01*
G37*
%TD*%
%TO.C,J16*%
G36*
G01*
X222200000Y-150150000D02*
X222200000Y-148850000D01*
G75*
G02*
X222850000Y-148200000I650000J0D01*
G01*
X224150000Y-148200000D01*
G75*
G02*
X224800000Y-148850000I0J-650000D01*
G01*
X224800000Y-150150000D01*
G75*
G02*
X224150000Y-150800000I-650000J0D01*
G01*
X222850000Y-150800000D01*
G75*
G02*
X222200000Y-150150000I0J650000D01*
G01*
G37*
G36*
G01*
X227200000Y-150150000D02*
X227200000Y-148850000D01*
G75*
G02*
X227850000Y-148200000I650000J0D01*
G01*
X229150000Y-148200000D01*
G75*
G02*
X229800000Y-148850000I0J-650000D01*
G01*
X229800000Y-150150000D01*
G75*
G02*
X229150000Y-150800000I-650000J0D01*
G01*
X227850000Y-150800000D01*
G75*
G02*
X227200000Y-150150000I0J650000D01*
G01*
G37*
%TD*%
%TO.C,J15*%
G36*
G01*
X212200000Y-150150000D02*
X212200000Y-148850000D01*
G75*
G02*
X212850000Y-148200000I650000J0D01*
G01*
X214150000Y-148200000D01*
G75*
G02*
X214800000Y-148850000I0J-650000D01*
G01*
X214800000Y-150150000D01*
G75*
G02*
X214150000Y-150800000I-650000J0D01*
G01*
X212850000Y-150800000D01*
G75*
G02*
X212200000Y-150150000I0J650000D01*
G01*
G37*
G36*
G01*
X217200000Y-150150000D02*
X217200000Y-148850000D01*
G75*
G02*
X217850000Y-148200000I650000J0D01*
G01*
X219150000Y-148200000D01*
G75*
G02*
X219800000Y-148850000I0J-650000D01*
G01*
X219800000Y-150150000D01*
G75*
G02*
X219150000Y-150800000I-650000J0D01*
G01*
X217850000Y-150800000D01*
G75*
G02*
X217200000Y-150150000I0J650000D01*
G01*
G37*
%TD*%
%TO.C,J14*%
G36*
G01*
X202200000Y-150150000D02*
X202200000Y-148850000D01*
G75*
G02*
X202850000Y-148200000I650000J0D01*
G01*
X204150000Y-148200000D01*
G75*
G02*
X204800000Y-148850000I0J-650000D01*
G01*
X204800000Y-150150000D01*
G75*
G02*
X204150000Y-150800000I-650000J0D01*
G01*
X202850000Y-150800000D01*
G75*
G02*
X202200000Y-150150000I0J650000D01*
G01*
G37*
G36*
G01*
X207200000Y-150150000D02*
X207200000Y-148850000D01*
G75*
G02*
X207850000Y-148200000I650000J0D01*
G01*
X209150000Y-148200000D01*
G75*
G02*
X209800000Y-148850000I0J-650000D01*
G01*
X209800000Y-150150000D01*
G75*
G02*
X209150000Y-150800000I-650000J0D01*
G01*
X207850000Y-150800000D01*
G75*
G02*
X207200000Y-150150000I0J650000D01*
G01*
G37*
%TD*%
%TO.C,J13*%
G36*
G01*
X192200000Y-150150000D02*
X192200000Y-148850000D01*
G75*
G02*
X192850000Y-148200000I650000J0D01*
G01*
X194150000Y-148200000D01*
G75*
G02*
X194800000Y-148850000I0J-650000D01*
G01*
X194800000Y-150150000D01*
G75*
G02*
X194150000Y-150800000I-650000J0D01*
G01*
X192850000Y-150800000D01*
G75*
G02*
X192200000Y-150150000I0J650000D01*
G01*
G37*
G36*
G01*
X197200000Y-150150000D02*
X197200000Y-148850000D01*
G75*
G02*
X197850000Y-148200000I650000J0D01*
G01*
X199150000Y-148200000D01*
G75*
G02*
X199800000Y-148850000I0J-650000D01*
G01*
X199800000Y-150150000D01*
G75*
G02*
X199150000Y-150800000I-650000J0D01*
G01*
X197850000Y-150800000D01*
G75*
G02*
X197200000Y-150150000I0J650000D01*
G01*
G37*
%TD*%
%TO.C,J12*%
G36*
G01*
X182200000Y-150150000D02*
X182200000Y-148850000D01*
G75*
G02*
X182850000Y-148200000I650000J0D01*
G01*
X184150000Y-148200000D01*
G75*
G02*
X184800000Y-148850000I0J-650000D01*
G01*
X184800000Y-150150000D01*
G75*
G02*
X184150000Y-150800000I-650000J0D01*
G01*
X182850000Y-150800000D01*
G75*
G02*
X182200000Y-150150000I0J650000D01*
G01*
G37*
G36*
G01*
X187200000Y-150150000D02*
X187200000Y-148850000D01*
G75*
G02*
X187850000Y-148200000I650000J0D01*
G01*
X189150000Y-148200000D01*
G75*
G02*
X189800000Y-148850000I0J-650000D01*
G01*
X189800000Y-150150000D01*
G75*
G02*
X189150000Y-150800000I-650000J0D01*
G01*
X187850000Y-150800000D01*
G75*
G02*
X187200000Y-150150000I0J650000D01*
G01*
G37*
%TD*%
%TO.C,J11*%
G36*
G01*
X172200000Y-150150000D02*
X172200000Y-148850000D01*
G75*
G02*
X172850000Y-148200000I650000J0D01*
G01*
X174150000Y-148200000D01*
G75*
G02*
X174800000Y-148850000I0J-650000D01*
G01*
X174800000Y-150150000D01*
G75*
G02*
X174150000Y-150800000I-650000J0D01*
G01*
X172850000Y-150800000D01*
G75*
G02*
X172200000Y-150150000I0J650000D01*
G01*
G37*
G36*
G01*
X177200000Y-150150000D02*
X177200000Y-148850000D01*
G75*
G02*
X177850000Y-148200000I650000J0D01*
G01*
X179150000Y-148200000D01*
G75*
G02*
X179800000Y-148850000I0J-650000D01*
G01*
X179800000Y-150150000D01*
G75*
G02*
X179150000Y-150800000I-650000J0D01*
G01*
X177850000Y-150800000D01*
G75*
G02*
X177200000Y-150150000I0J650000D01*
G01*
G37*
%TD*%
%TO.C,J10*%
G36*
G01*
X162200000Y-150150000D02*
X162200000Y-148850000D01*
G75*
G02*
X162850000Y-148200000I650000J0D01*
G01*
X164150000Y-148200000D01*
G75*
G02*
X164800000Y-148850000I0J-650000D01*
G01*
X164800000Y-150150000D01*
G75*
G02*
X164150000Y-150800000I-650000J0D01*
G01*
X162850000Y-150800000D01*
G75*
G02*
X162200000Y-150150000I0J650000D01*
G01*
G37*
G36*
G01*
X167200000Y-150150000D02*
X167200000Y-148850000D01*
G75*
G02*
X167850000Y-148200000I650000J0D01*
G01*
X169150000Y-148200000D01*
G75*
G02*
X169800000Y-148850000I0J-650000D01*
G01*
X169800000Y-150150000D01*
G75*
G02*
X169150000Y-150800000I-650000J0D01*
G01*
X167850000Y-150800000D01*
G75*
G02*
X167200000Y-150150000I0J650000D01*
G01*
G37*
%TD*%
%TO.C,J9*%
G36*
G01*
X152200000Y-150150000D02*
X152200000Y-148850000D01*
G75*
G02*
X152850000Y-148200000I650000J0D01*
G01*
X154150000Y-148200000D01*
G75*
G02*
X154800000Y-148850000I0J-650000D01*
G01*
X154800000Y-150150000D01*
G75*
G02*
X154150000Y-150800000I-650000J0D01*
G01*
X152850000Y-150800000D01*
G75*
G02*
X152200000Y-150150000I0J650000D01*
G01*
G37*
G36*
G01*
X157200000Y-150150000D02*
X157200000Y-148850000D01*
G75*
G02*
X157850000Y-148200000I650000J0D01*
G01*
X159150000Y-148200000D01*
G75*
G02*
X159800000Y-148850000I0J-650000D01*
G01*
X159800000Y-150150000D01*
G75*
G02*
X159150000Y-150800000I-650000J0D01*
G01*
X157850000Y-150800000D01*
G75*
G02*
X157200000Y-150150000I0J650000D01*
G01*
G37*
%TD*%
%TO.C,J8*%
G36*
G01*
X145350000Y-134200000D02*
X146650000Y-134200000D01*
G75*
G02*
X147300000Y-134850000I0J-650000D01*
G01*
X147300000Y-136150000D01*
G75*
G02*
X146650000Y-136800000I-650000J0D01*
G01*
X145350000Y-136800000D01*
G75*
G02*
X144700000Y-136150000I0J650000D01*
G01*
X144700000Y-134850000D01*
G75*
G02*
X145350000Y-134200000I650000J0D01*
G01*
G37*
G36*
G01*
X145350000Y-139200000D02*
X146650000Y-139200000D01*
G75*
G02*
X147300000Y-139850000I0J-650000D01*
G01*
X147300000Y-141150000D01*
G75*
G02*
X146650000Y-141800000I-650000J0D01*
G01*
X145350000Y-141800000D01*
G75*
G02*
X144700000Y-141150000I0J650000D01*
G01*
X144700000Y-139850000D01*
G75*
G02*
X145350000Y-139200000I650000J0D01*
G01*
G37*
%TD*%
%TO.C,J7*%
G36*
G01*
X145350000Y-124200000D02*
X146650000Y-124200000D01*
G75*
G02*
X147300000Y-124850000I0J-650000D01*
G01*
X147300000Y-126150000D01*
G75*
G02*
X146650000Y-126800000I-650000J0D01*
G01*
X145350000Y-126800000D01*
G75*
G02*
X144700000Y-126150000I0J650000D01*
G01*
X144700000Y-124850000D01*
G75*
G02*
X145350000Y-124200000I650000J0D01*
G01*
G37*
G36*
G01*
X145350000Y-129200000D02*
X146650000Y-129200000D01*
G75*
G02*
X147300000Y-129850000I0J-650000D01*
G01*
X147300000Y-131150000D01*
G75*
G02*
X146650000Y-131800000I-650000J0D01*
G01*
X145350000Y-131800000D01*
G75*
G02*
X144700000Y-131150000I0J650000D01*
G01*
X144700000Y-129850000D01*
G75*
G02*
X145350000Y-129200000I650000J0D01*
G01*
G37*
%TD*%
%TO.C,J6*%
G36*
G01*
X145350000Y-114200000D02*
X146650000Y-114200000D01*
G75*
G02*
X147300000Y-114850000I0J-650000D01*
G01*
X147300000Y-116150000D01*
G75*
G02*
X146650000Y-116800000I-650000J0D01*
G01*
X145350000Y-116800000D01*
G75*
G02*
X144700000Y-116150000I0J650000D01*
G01*
X144700000Y-114850000D01*
G75*
G02*
X145350000Y-114200000I650000J0D01*
G01*
G37*
G36*
G01*
X145350000Y-119200000D02*
X146650000Y-119200000D01*
G75*
G02*
X147300000Y-119850000I0J-650000D01*
G01*
X147300000Y-121150000D01*
G75*
G02*
X146650000Y-121800000I-650000J0D01*
G01*
X145350000Y-121800000D01*
G75*
G02*
X144700000Y-121150000I0J650000D01*
G01*
X144700000Y-119850000D01*
G75*
G02*
X145350000Y-119200000I650000J0D01*
G01*
G37*
%TD*%
%TO.C,J5*%
G36*
G01*
X145350000Y-104200000D02*
X146650000Y-104200000D01*
G75*
G02*
X147300000Y-104850000I0J-650000D01*
G01*
X147300000Y-106150000D01*
G75*
G02*
X146650000Y-106800000I-650000J0D01*
G01*
X145350000Y-106800000D01*
G75*
G02*
X144700000Y-106150000I0J650000D01*
G01*
X144700000Y-104850000D01*
G75*
G02*
X145350000Y-104200000I650000J0D01*
G01*
G37*
G36*
G01*
X145350000Y-109200000D02*
X146650000Y-109200000D01*
G75*
G02*
X147300000Y-109850000I0J-650000D01*
G01*
X147300000Y-111150000D01*
G75*
G02*
X146650000Y-111800000I-650000J0D01*
G01*
X145350000Y-111800000D01*
G75*
G02*
X144700000Y-111150000I0J650000D01*
G01*
X144700000Y-109850000D01*
G75*
G02*
X145350000Y-109200000I650000J0D01*
G01*
G37*
%TD*%
%TO.C,J4*%
G36*
G01*
X145350000Y-94200000D02*
X146650000Y-94200000D01*
G75*
G02*
X147300000Y-94850000I0J-650000D01*
G01*
X147300000Y-96150000D01*
G75*
G02*
X146650000Y-96800000I-650000J0D01*
G01*
X145350000Y-96800000D01*
G75*
G02*
X144700000Y-96150000I0J650000D01*
G01*
X144700000Y-94850000D01*
G75*
G02*
X145350000Y-94200000I650000J0D01*
G01*
G37*
G36*
G01*
X145350000Y-99200000D02*
X146650000Y-99200000D01*
G75*
G02*
X147300000Y-99850000I0J-650000D01*
G01*
X147300000Y-101150000D01*
G75*
G02*
X146650000Y-101800000I-650000J0D01*
G01*
X145350000Y-101800000D01*
G75*
G02*
X144700000Y-101150000I0J650000D01*
G01*
X144700000Y-99850000D01*
G75*
G02*
X145350000Y-99200000I650000J0D01*
G01*
G37*
%TD*%
%TO.C,J3*%
G36*
G01*
X145350000Y-84200000D02*
X146650000Y-84200000D01*
G75*
G02*
X147300000Y-84850000I0J-650000D01*
G01*
X147300000Y-86150000D01*
G75*
G02*
X146650000Y-86800000I-650000J0D01*
G01*
X145350000Y-86800000D01*
G75*
G02*
X144700000Y-86150000I0J650000D01*
G01*
X144700000Y-84850000D01*
G75*
G02*
X145350000Y-84200000I650000J0D01*
G01*
G37*
G36*
G01*
X145350000Y-89200000D02*
X146650000Y-89200000D01*
G75*
G02*
X147300000Y-89850000I0J-650000D01*
G01*
X147300000Y-91150000D01*
G75*
G02*
X146650000Y-91800000I-650000J0D01*
G01*
X145350000Y-91800000D01*
G75*
G02*
X144700000Y-91150000I0J650000D01*
G01*
X144700000Y-89850000D01*
G75*
G02*
X145350000Y-89200000I650000J0D01*
G01*
G37*
%TD*%
%TO.C,J2*%
G36*
G01*
X145350000Y-74200000D02*
X146650000Y-74200000D01*
G75*
G02*
X147300000Y-74850000I0J-650000D01*
G01*
X147300000Y-76150000D01*
G75*
G02*
X146650000Y-76800000I-650000J0D01*
G01*
X145350000Y-76800000D01*
G75*
G02*
X144700000Y-76150000I0J650000D01*
G01*
X144700000Y-74850000D01*
G75*
G02*
X145350000Y-74200000I650000J0D01*
G01*
G37*
G36*
G01*
X145350000Y-79200000D02*
X146650000Y-79200000D01*
G75*
G02*
X147300000Y-79850000I0J-650000D01*
G01*
X147300000Y-81150000D01*
G75*
G02*
X146650000Y-81800000I-650000J0D01*
G01*
X145350000Y-81800000D01*
G75*
G02*
X144700000Y-81150000I0J650000D01*
G01*
X144700000Y-79850000D01*
G75*
G02*
X145350000Y-79200000I650000J0D01*
G01*
G37*
%TD*%
%TO.C,J1*%
G36*
G01*
X145350000Y-64200000D02*
X146650000Y-64200000D01*
G75*
G02*
X147300000Y-64850000I0J-650000D01*
G01*
X147300000Y-66150000D01*
G75*
G02*
X146650000Y-66800000I-650000J0D01*
G01*
X145350000Y-66800000D01*
G75*
G02*
X144700000Y-66150000I0J650000D01*
G01*
X144700000Y-64850000D01*
G75*
G02*
X145350000Y-64200000I650000J0D01*
G01*
G37*
G36*
G01*
X145350000Y-69200000D02*
X146650000Y-69200000D01*
G75*
G02*
X147300000Y-69850000I0J-650000D01*
G01*
X147300000Y-71150000D01*
G75*
G02*
X146650000Y-71800000I-650000J0D01*
G01*
X145350000Y-71800000D01*
G75*
G02*
X144700000Y-71150000I0J650000D01*
G01*
X144700000Y-69850000D01*
G75*
G02*
X145350000Y-69200000I650000J0D01*
G01*
G37*
%TD*%
D16*
%TO.C,H4*%
X146697056Y-149302944D03*
X145000000Y-148600000D03*
X143302944Y-149302944D03*
X142600000Y-151000000D03*
X143302944Y-152697056D03*
X145000000Y-153400000D03*
X146697056Y-152697056D03*
X147400000Y-151000000D03*
D17*
X145000000Y-151000000D03*
%TD*%
D16*
%TO.C,H3*%
X238697056Y-57302944D03*
X237000000Y-56600000D03*
X235302944Y-57302944D03*
X234600000Y-59000000D03*
X235302944Y-60697056D03*
X237000000Y-61400000D03*
X238697056Y-60697056D03*
X239400000Y-59000000D03*
D17*
X237000000Y-59000000D03*
%TD*%
D16*
%TO.C,H2*%
X238697056Y-149302944D03*
X237000000Y-148600000D03*
X235302944Y-149302944D03*
X234600000Y-151000000D03*
X235302944Y-152697056D03*
X237000000Y-153400000D03*
X238697056Y-152697056D03*
X239400000Y-151000000D03*
D17*
X237000000Y-151000000D03*
%TD*%
D16*
%TO.C,H1*%
X146697056Y-57302944D03*
X145000000Y-56600000D03*
X143302944Y-57302944D03*
X142600000Y-59000000D03*
X143302944Y-60697056D03*
X145000000Y-61400000D03*
X146697056Y-60697056D03*
X147400000Y-59000000D03*
D17*
X145000000Y-59000000D03*
%TD*%
D18*
%TO.C,R29*%
X228620000Y-135500000D03*
D19*
X221000000Y-135500000D03*
%TD*%
D18*
%TO.C,R28*%
X221000000Y-125500000D03*
D19*
X228620000Y-125500000D03*
%TD*%
D18*
%TO.C,R27*%
X228620000Y-115500000D03*
D19*
X221000000Y-115500000D03*
%TD*%
D18*
%TO.C,R26*%
X221000000Y-105500000D03*
D19*
X228620000Y-105500000D03*
%TD*%
D18*
%TO.C,R25*%
X228620000Y-95500000D03*
D19*
X221000000Y-95500000D03*
%TD*%
D18*
%TO.C,R24*%
X221000000Y-85500000D03*
D19*
X228620000Y-85500000D03*
%TD*%
D18*
%TO.C,R23*%
X228620000Y-75500000D03*
D19*
X221000000Y-75500000D03*
%TD*%
D18*
%TO.C,R22*%
X221000000Y-65500000D03*
D19*
X228620000Y-65500000D03*
%TD*%
D18*
%TO.C,R21*%
X221000000Y-140500000D03*
D19*
X228620000Y-140500000D03*
%TD*%
D18*
%TO.C,R20*%
X215120000Y-71000000D03*
D19*
X207500000Y-71000000D03*
%TD*%
D18*
%TO.C,R19*%
X215120000Y-68000000D03*
D19*
X207500000Y-68000000D03*
%TD*%
D18*
%TO.C,R18*%
X204120000Y-71000000D03*
D19*
X196500000Y-71000000D03*
%TD*%
D18*
%TO.C,R17*%
X204120000Y-68000000D03*
D19*
X196500000Y-68000000D03*
%TD*%
D20*
%TO.C,J20*%
X235500000Y-65500000D03*
X235500000Y-70500000D03*
X235500000Y-75500000D03*
X235500000Y-80500000D03*
X235500000Y-85500000D03*
X235500000Y-90500000D03*
X235500000Y-95500000D03*
X235500000Y-100500000D03*
X235500000Y-105500000D03*
X235500000Y-110500000D03*
X235500000Y-115500000D03*
X235500000Y-120500000D03*
X235500000Y-125500000D03*
X235500000Y-130500000D03*
X235500000Y-135500000D03*
D21*
X235500000Y-140500000D03*
%TD*%
%TO.C,R16*%
G36*
G01*
X164100000Y-136549998D02*
X164100000Y-137450002D01*
G75*
G02*
X163850002Y-137700000I-249998J0D01*
G01*
X163324998Y-137700000D01*
G75*
G02*
X163075000Y-137450002I0J249998D01*
G01*
X163075000Y-136549998D01*
G75*
G02*
X163324998Y-136300000I249998J0D01*
G01*
X163850002Y-136300000D01*
G75*
G02*
X164100000Y-136549998I0J-249998D01*
G01*
G37*
G36*
G01*
X165925000Y-136549998D02*
X165925000Y-137450002D01*
G75*
G02*
X165675002Y-137700000I-249998J0D01*
G01*
X165149998Y-137700000D01*
G75*
G02*
X164900000Y-137450002I0J249998D01*
G01*
X164900000Y-136549998D01*
G75*
G02*
X165149998Y-136300000I249998J0D01*
G01*
X165675002Y-136300000D01*
G75*
G02*
X165925000Y-136549998I0J-249998D01*
G01*
G37*
%TD*%
%TO.C,R15*%
G36*
G01*
X164100000Y-126549998D02*
X164100000Y-127450002D01*
G75*
G02*
X163850002Y-127700000I-249998J0D01*
G01*
X163324998Y-127700000D01*
G75*
G02*
X163075000Y-127450002I0J249998D01*
G01*
X163075000Y-126549998D01*
G75*
G02*
X163324998Y-126300000I249998J0D01*
G01*
X163850002Y-126300000D01*
G75*
G02*
X164100000Y-126549998I0J-249998D01*
G01*
G37*
G36*
G01*
X165925000Y-126549998D02*
X165925000Y-127450002D01*
G75*
G02*
X165675002Y-127700000I-249998J0D01*
G01*
X165149998Y-127700000D01*
G75*
G02*
X164900000Y-127450002I0J249998D01*
G01*
X164900000Y-126549998D01*
G75*
G02*
X165149998Y-126300000I249998J0D01*
G01*
X165675002Y-126300000D01*
G75*
G02*
X165925000Y-126549998I0J-249998D01*
G01*
G37*
%TD*%
%TO.C,R14*%
G36*
G01*
X164900000Y-139450002D02*
X164900000Y-138549998D01*
G75*
G02*
X165149998Y-138300000I249998J0D01*
G01*
X165675002Y-138300000D01*
G75*
G02*
X165925000Y-138549998I0J-249998D01*
G01*
X165925000Y-139450002D01*
G75*
G02*
X165675002Y-139700000I-249998J0D01*
G01*
X165149998Y-139700000D01*
G75*
G02*
X164900000Y-139450002I0J249998D01*
G01*
G37*
G36*
G01*
X163075000Y-139450002D02*
X163075000Y-138549998D01*
G75*
G02*
X163324998Y-138300000I249998J0D01*
G01*
X163850002Y-138300000D01*
G75*
G02*
X164100000Y-138549998I0J-249998D01*
G01*
X164100000Y-139450002D01*
G75*
G02*
X163850002Y-139700000I-249998J0D01*
G01*
X163324998Y-139700000D01*
G75*
G02*
X163075000Y-139450002I0J249998D01*
G01*
G37*
%TD*%
%TO.C,R13*%
G36*
G01*
X164900000Y-129450002D02*
X164900000Y-128549998D01*
G75*
G02*
X165149998Y-128300000I249998J0D01*
G01*
X165675002Y-128300000D01*
G75*
G02*
X165925000Y-128549998I0J-249998D01*
G01*
X165925000Y-129450002D01*
G75*
G02*
X165675002Y-129700000I-249998J0D01*
G01*
X165149998Y-129700000D01*
G75*
G02*
X164900000Y-129450002I0J249998D01*
G01*
G37*
G36*
G01*
X163075000Y-129450002D02*
X163075000Y-128549998D01*
G75*
G02*
X163324998Y-128300000I249998J0D01*
G01*
X163850002Y-128300000D01*
G75*
G02*
X164100000Y-128549998I0J-249998D01*
G01*
X164100000Y-129450002D01*
G75*
G02*
X163850002Y-129700000I-249998J0D01*
G01*
X163324998Y-129700000D01*
G75*
G02*
X163075000Y-129450002I0J249998D01*
G01*
G37*
%TD*%
%TO.C,R12*%
G36*
G01*
X164100000Y-116549998D02*
X164100000Y-117450002D01*
G75*
G02*
X163850002Y-117700000I-249998J0D01*
G01*
X163324998Y-117700000D01*
G75*
G02*
X163075000Y-117450002I0J249998D01*
G01*
X163075000Y-116549998D01*
G75*
G02*
X163324998Y-116300000I249998J0D01*
G01*
X163850002Y-116300000D01*
G75*
G02*
X164100000Y-116549998I0J-249998D01*
G01*
G37*
G36*
G01*
X165925000Y-116549998D02*
X165925000Y-117450002D01*
G75*
G02*
X165675002Y-117700000I-249998J0D01*
G01*
X165149998Y-117700000D01*
G75*
G02*
X164900000Y-117450002I0J249998D01*
G01*
X164900000Y-116549998D01*
G75*
G02*
X165149998Y-116300000I249998J0D01*
G01*
X165675002Y-116300000D01*
G75*
G02*
X165925000Y-116549998I0J-249998D01*
G01*
G37*
%TD*%
%TO.C,R11*%
G36*
G01*
X164100000Y-106549998D02*
X164100000Y-107450002D01*
G75*
G02*
X163850002Y-107700000I-249998J0D01*
G01*
X163324998Y-107700000D01*
G75*
G02*
X163075000Y-107450002I0J249998D01*
G01*
X163075000Y-106549998D01*
G75*
G02*
X163324998Y-106300000I249998J0D01*
G01*
X163850002Y-106300000D01*
G75*
G02*
X164100000Y-106549998I0J-249998D01*
G01*
G37*
G36*
G01*
X165925000Y-106549998D02*
X165925000Y-107450002D01*
G75*
G02*
X165675002Y-107700000I-249998J0D01*
G01*
X165149998Y-107700000D01*
G75*
G02*
X164900000Y-107450002I0J249998D01*
G01*
X164900000Y-106549998D01*
G75*
G02*
X165149998Y-106300000I249998J0D01*
G01*
X165675002Y-106300000D01*
G75*
G02*
X165925000Y-106549998I0J-249998D01*
G01*
G37*
%TD*%
%TO.C,R10*%
G36*
G01*
X164900000Y-119450002D02*
X164900000Y-118549998D01*
G75*
G02*
X165149998Y-118300000I249998J0D01*
G01*
X165675002Y-118300000D01*
G75*
G02*
X165925000Y-118549998I0J-249998D01*
G01*
X165925000Y-119450002D01*
G75*
G02*
X165675002Y-119700000I-249998J0D01*
G01*
X165149998Y-119700000D01*
G75*
G02*
X164900000Y-119450002I0J249998D01*
G01*
G37*
G36*
G01*
X163075000Y-119450002D02*
X163075000Y-118549998D01*
G75*
G02*
X163324998Y-118300000I249998J0D01*
G01*
X163850002Y-118300000D01*
G75*
G02*
X164100000Y-118549998I0J-249998D01*
G01*
X164100000Y-119450002D01*
G75*
G02*
X163850002Y-119700000I-249998J0D01*
G01*
X163324998Y-119700000D01*
G75*
G02*
X163075000Y-119450002I0J249998D01*
G01*
G37*
%TD*%
%TO.C,R9*%
G36*
G01*
X164900000Y-109450002D02*
X164900000Y-108549998D01*
G75*
G02*
X165149998Y-108300000I249998J0D01*
G01*
X165675002Y-108300000D01*
G75*
G02*
X165925000Y-108549998I0J-249998D01*
G01*
X165925000Y-109450002D01*
G75*
G02*
X165675002Y-109700000I-249998J0D01*
G01*
X165149998Y-109700000D01*
G75*
G02*
X164900000Y-109450002I0J249998D01*
G01*
G37*
G36*
G01*
X163075000Y-109450002D02*
X163075000Y-108549998D01*
G75*
G02*
X163324998Y-108300000I249998J0D01*
G01*
X163850002Y-108300000D01*
G75*
G02*
X164100000Y-108549998I0J-249998D01*
G01*
X164100000Y-109450002D01*
G75*
G02*
X163850002Y-109700000I-249998J0D01*
G01*
X163324998Y-109700000D01*
G75*
G02*
X163075000Y-109450002I0J249998D01*
G01*
G37*
%TD*%
%TO.C,R8*%
G36*
G01*
X164100000Y-96549998D02*
X164100000Y-97450002D01*
G75*
G02*
X163850002Y-97700000I-249998J0D01*
G01*
X163324998Y-97700000D01*
G75*
G02*
X163075000Y-97450002I0J249998D01*
G01*
X163075000Y-96549998D01*
G75*
G02*
X163324998Y-96300000I249998J0D01*
G01*
X163850002Y-96300000D01*
G75*
G02*
X164100000Y-96549998I0J-249998D01*
G01*
G37*
G36*
G01*
X165925000Y-96549998D02*
X165925000Y-97450002D01*
G75*
G02*
X165675002Y-97700000I-249998J0D01*
G01*
X165149998Y-97700000D01*
G75*
G02*
X164900000Y-97450002I0J249998D01*
G01*
X164900000Y-96549998D01*
G75*
G02*
X165149998Y-96300000I249998J0D01*
G01*
X165675002Y-96300000D01*
G75*
G02*
X165925000Y-96549998I0J-249998D01*
G01*
G37*
%TD*%
%TO.C,R7*%
G36*
G01*
X164100000Y-86549998D02*
X164100000Y-87450002D01*
G75*
G02*
X163850002Y-87700000I-249998J0D01*
G01*
X163324998Y-87700000D01*
G75*
G02*
X163075000Y-87450002I0J249998D01*
G01*
X163075000Y-86549998D01*
G75*
G02*
X163324998Y-86300000I249998J0D01*
G01*
X163850002Y-86300000D01*
G75*
G02*
X164100000Y-86549998I0J-249998D01*
G01*
G37*
G36*
G01*
X165925000Y-86549998D02*
X165925000Y-87450002D01*
G75*
G02*
X165675002Y-87700000I-249998J0D01*
G01*
X165149998Y-87700000D01*
G75*
G02*
X164900000Y-87450002I0J249998D01*
G01*
X164900000Y-86549998D01*
G75*
G02*
X165149998Y-86300000I249998J0D01*
G01*
X165675002Y-86300000D01*
G75*
G02*
X165925000Y-86549998I0J-249998D01*
G01*
G37*
%TD*%
%TO.C,R6*%
G36*
G01*
X164900000Y-99450002D02*
X164900000Y-98549998D01*
G75*
G02*
X165149998Y-98300000I249998J0D01*
G01*
X165675002Y-98300000D01*
G75*
G02*
X165925000Y-98549998I0J-249998D01*
G01*
X165925000Y-99450002D01*
G75*
G02*
X165675002Y-99700000I-249998J0D01*
G01*
X165149998Y-99700000D01*
G75*
G02*
X164900000Y-99450002I0J249998D01*
G01*
G37*
G36*
G01*
X163075000Y-99450002D02*
X163075000Y-98549998D01*
G75*
G02*
X163324998Y-98300000I249998J0D01*
G01*
X163850002Y-98300000D01*
G75*
G02*
X164100000Y-98549998I0J-249998D01*
G01*
X164100000Y-99450002D01*
G75*
G02*
X163850002Y-99700000I-249998J0D01*
G01*
X163324998Y-99700000D01*
G75*
G02*
X163075000Y-99450002I0J249998D01*
G01*
G37*
%TD*%
%TO.C,R5*%
G36*
G01*
X164900000Y-89450002D02*
X164900000Y-88549998D01*
G75*
G02*
X165149998Y-88300000I249998J0D01*
G01*
X165675002Y-88300000D01*
G75*
G02*
X165925000Y-88549998I0J-249998D01*
G01*
X165925000Y-89450002D01*
G75*
G02*
X165675002Y-89700000I-249998J0D01*
G01*
X165149998Y-89700000D01*
G75*
G02*
X164900000Y-89450002I0J249998D01*
G01*
G37*
G36*
G01*
X163075000Y-89450002D02*
X163075000Y-88549998D01*
G75*
G02*
X163324998Y-88300000I249998J0D01*
G01*
X163850002Y-88300000D01*
G75*
G02*
X164100000Y-88549998I0J-249998D01*
G01*
X164100000Y-89450002D01*
G75*
G02*
X163850002Y-89700000I-249998J0D01*
G01*
X163324998Y-89700000D01*
G75*
G02*
X163075000Y-89450002I0J249998D01*
G01*
G37*
%TD*%
%TO.C,R4*%
G36*
G01*
X172100000Y-75049998D02*
X172100000Y-75950002D01*
G75*
G02*
X171850002Y-76200000I-249998J0D01*
G01*
X171324998Y-76200000D01*
G75*
G02*
X171075000Y-75950002I0J249998D01*
G01*
X171075000Y-75049998D01*
G75*
G02*
X171324998Y-74800000I249998J0D01*
G01*
X171850002Y-74800000D01*
G75*
G02*
X172100000Y-75049998I0J-249998D01*
G01*
G37*
G36*
G01*
X173925000Y-75049998D02*
X173925000Y-75950002D01*
G75*
G02*
X173675002Y-76200000I-249998J0D01*
G01*
X173149998Y-76200000D01*
G75*
G02*
X172900000Y-75950002I0J249998D01*
G01*
X172900000Y-75049998D01*
G75*
G02*
X173149998Y-74800000I249998J0D01*
G01*
X173675002Y-74800000D01*
G75*
G02*
X173925000Y-75049998I0J-249998D01*
G01*
G37*
%TD*%
%TO.C,R3*%
G36*
G01*
X172100000Y-65049998D02*
X172100000Y-65950002D01*
G75*
G02*
X171850002Y-66200000I-249998J0D01*
G01*
X171324998Y-66200000D01*
G75*
G02*
X171075000Y-65950002I0J249998D01*
G01*
X171075000Y-65049998D01*
G75*
G02*
X171324998Y-64800000I249998J0D01*
G01*
X171850002Y-64800000D01*
G75*
G02*
X172100000Y-65049998I0J-249998D01*
G01*
G37*
G36*
G01*
X173925000Y-65049998D02*
X173925000Y-65950002D01*
G75*
G02*
X173675002Y-66200000I-249998J0D01*
G01*
X173149998Y-66200000D01*
G75*
G02*
X172900000Y-65950002I0J249998D01*
G01*
X172900000Y-65049998D01*
G75*
G02*
X173149998Y-64800000I249998J0D01*
G01*
X173675002Y-64800000D01*
G75*
G02*
X173925000Y-65049998I0J-249998D01*
G01*
G37*
%TD*%
%TO.C,R2*%
G36*
G01*
X172900000Y-80950002D02*
X172900000Y-80049998D01*
G75*
G02*
X173149998Y-79800000I249998J0D01*
G01*
X173675002Y-79800000D01*
G75*
G02*
X173925000Y-80049998I0J-249998D01*
G01*
X173925000Y-80950002D01*
G75*
G02*
X173675002Y-81200000I-249998J0D01*
G01*
X173149998Y-81200000D01*
G75*
G02*
X172900000Y-80950002I0J249998D01*
G01*
G37*
G36*
G01*
X171075000Y-80950002D02*
X171075000Y-80049998D01*
G75*
G02*
X171324998Y-79800000I249998J0D01*
G01*
X171850002Y-79800000D01*
G75*
G02*
X172100000Y-80049998I0J-249998D01*
G01*
X172100000Y-80950002D01*
G75*
G02*
X171850002Y-81200000I-249998J0D01*
G01*
X171324998Y-81200000D01*
G75*
G02*
X171075000Y-80950002I0J249998D01*
G01*
G37*
%TD*%
%TO.C,R1*%
G36*
G01*
X172900000Y-70950002D02*
X172900000Y-70049998D01*
G75*
G02*
X173149998Y-69800000I249998J0D01*
G01*
X173675002Y-69800000D01*
G75*
G02*
X173925000Y-70049998I0J-249998D01*
G01*
X173925000Y-70950002D01*
G75*
G02*
X173675002Y-71200000I-249998J0D01*
G01*
X173149998Y-71200000D01*
G75*
G02*
X172900000Y-70950002I0J249998D01*
G01*
G37*
G36*
G01*
X171075000Y-70950002D02*
X171075000Y-70049998D01*
G75*
G02*
X171324998Y-69800000I249998J0D01*
G01*
X171850002Y-69800000D01*
G75*
G02*
X172100000Y-70049998I0J-249998D01*
G01*
X172100000Y-70950002D01*
G75*
G02*
X171850002Y-71200000I-249998J0D01*
G01*
X171324998Y-71200000D01*
G75*
G02*
X171075000Y-70950002I0J249998D01*
G01*
G37*
%TD*%
D22*
%TO.C,Q8*%
X159500000Y-138000000D03*
X161500000Y-137050000D03*
X161500000Y-138950000D03*
%TD*%
%TO.C,Q7*%
X159500000Y-128000000D03*
X161500000Y-127050000D03*
X161500000Y-128950000D03*
%TD*%
%TO.C,Q6*%
X159500000Y-118000000D03*
X161500000Y-117050000D03*
X161500000Y-118950000D03*
%TD*%
%TO.C,Q5*%
X159500000Y-108000000D03*
X161500000Y-107050000D03*
X161500000Y-108950000D03*
%TD*%
%TO.C,Q4*%
X159500000Y-98000000D03*
X161500000Y-97050000D03*
X161500000Y-98950000D03*
%TD*%
%TO.C,Q3*%
X159500000Y-88000000D03*
X161500000Y-87050000D03*
X161500000Y-88950000D03*
%TD*%
D23*
%TO.C,J19*%
X214475000Y-62025000D03*
X213625000Y-62025000D03*
X212775000Y-62025000D03*
X211925000Y-62025000D03*
X211075000Y-62025000D03*
X210225000Y-62025000D03*
X209375000Y-62025000D03*
X208525000Y-62025000D03*
X208525000Y-60675000D03*
X209375000Y-60675000D03*
X210225000Y-60675000D03*
X211075000Y-60675000D03*
X211925000Y-60675000D03*
X212775000Y-60675000D03*
X213625000Y-60675000D03*
X214475000Y-60675000D03*
D24*
X215825000Y-61045000D03*
X207175000Y-61045000D03*
D25*
X207175000Y-57665000D03*
X215825000Y-57665000D03*
%TD*%
D23*
%TO.C,J18*%
X203475000Y-62025000D03*
X202625000Y-62025000D03*
X201775000Y-62025000D03*
X200925000Y-62025000D03*
X200075000Y-62025000D03*
X199225000Y-62025000D03*
X198375000Y-62025000D03*
X197525000Y-62025000D03*
X197525000Y-60675000D03*
X198375000Y-60675000D03*
X199225000Y-60675000D03*
X200075000Y-60675000D03*
X200925000Y-60675000D03*
X201775000Y-60675000D03*
X202625000Y-60675000D03*
X203475000Y-60675000D03*
D24*
X204825000Y-61045000D03*
X196175000Y-61045000D03*
D25*
X196175000Y-57665000D03*
X204825000Y-57665000D03*
%TD*%
D26*
%TO.C,J17*%
X178930000Y-64350000D03*
X192070000Y-64350000D03*
G36*
G01*
X189750000Y-63625000D02*
X189750000Y-64375000D01*
G75*
G02*
X189375000Y-64750000I-375000J0D01*
G01*
X188625000Y-64750000D01*
G75*
G02*
X188250000Y-64375000I0J375000D01*
G01*
X188250000Y-63625000D01*
G75*
G02*
X188625000Y-63250000I375000J0D01*
G01*
X189375000Y-63250000D01*
G75*
G02*
X189750000Y-63625000I0J-375000D01*
G01*
G37*
G36*
G01*
X187250000Y-63625000D02*
X187250000Y-64375000D01*
G75*
G02*
X186875000Y-64750000I-375000J0D01*
G01*
X186125000Y-64750000D01*
G75*
G02*
X185750000Y-64375000I0J375000D01*
G01*
X185750000Y-63625000D01*
G75*
G02*
X186125000Y-63250000I375000J0D01*
G01*
X186875000Y-63250000D01*
G75*
G02*
X187250000Y-63625000I0J-375000D01*
G01*
G37*
G36*
G01*
X185250000Y-63625000D02*
X185250000Y-64375000D01*
G75*
G02*
X184875000Y-64750000I-375000J0D01*
G01*
X184125000Y-64750000D01*
G75*
G02*
X183750000Y-64375000I0J375000D01*
G01*
X183750000Y-63625000D01*
G75*
G02*
X184125000Y-63250000I375000J0D01*
G01*
X184875000Y-63250000D01*
G75*
G02*
X185250000Y-63625000I0J-375000D01*
G01*
G37*
G36*
G01*
X182750000Y-63625000D02*
X182750000Y-64375000D01*
G75*
G02*
X182375000Y-64750000I-375000J0D01*
G01*
X181625000Y-64750000D01*
G75*
G02*
X181250000Y-64375000I0J375000D01*
G01*
X181250000Y-63625000D01*
G75*
G02*
X181625000Y-63250000I375000J0D01*
G01*
X182375000Y-63250000D01*
G75*
G02*
X182750000Y-63625000I0J-375000D01*
G01*
G37*
X192070000Y-58670000D03*
X178930000Y-58670000D03*
G36*
G01*
X189750000Y-61005000D02*
X189750000Y-61755000D01*
G75*
G02*
X189375000Y-62130000I-375000J0D01*
G01*
X188625000Y-62130000D01*
G75*
G02*
X188250000Y-61755000I0J375000D01*
G01*
X188250000Y-61005000D01*
G75*
G02*
X188625000Y-60630000I375000J0D01*
G01*
X189375000Y-60630000D01*
G75*
G02*
X189750000Y-61005000I0J-375000D01*
G01*
G37*
G36*
G01*
X187250000Y-61005000D02*
X187250000Y-61755000D01*
G75*
G02*
X186875000Y-62130000I-375000J0D01*
G01*
X186125000Y-62130000D01*
G75*
G02*
X185750000Y-61755000I0J375000D01*
G01*
X185750000Y-61005000D01*
G75*
G02*
X186125000Y-60630000I375000J0D01*
G01*
X186875000Y-60630000D01*
G75*
G02*
X187250000Y-61005000I0J-375000D01*
G01*
G37*
G36*
G01*
X185250000Y-61005000D02*
X185250000Y-61755000D01*
G75*
G02*
X184875000Y-62130000I-375000J0D01*
G01*
X184125000Y-62130000D01*
G75*
G02*
X183750000Y-61755000I0J375000D01*
G01*
X183750000Y-61005000D01*
G75*
G02*
X184125000Y-60630000I375000J0D01*
G01*
X184875000Y-60630000D01*
G75*
G02*
X185250000Y-61005000I0J-375000D01*
G01*
G37*
G36*
G01*
X182750000Y-61005000D02*
X182750000Y-61755000D01*
G75*
G02*
X182375000Y-62130000I-375000J0D01*
G01*
X181625000Y-62130000D01*
G75*
G02*
X181250000Y-61755000I0J375000D01*
G01*
X181250000Y-61005000D01*
G75*
G02*
X181625000Y-60630000I375000J0D01*
G01*
X182375000Y-60630000D01*
G75*
G02*
X182750000Y-61005000I0J-375000D01*
G01*
G37*
%TD*%
D27*
%TO.C,D8*%
X156000000Y-140150000D03*
X156000000Y-135850000D03*
%TD*%
%TO.C,D7*%
X156000000Y-130150000D03*
X156000000Y-125850000D03*
%TD*%
%TO.C,D6*%
X156000000Y-120150000D03*
X156000000Y-115850000D03*
%TD*%
%TO.C,D5*%
X156000000Y-110150000D03*
X156000000Y-105850000D03*
%TD*%
%TO.C,D4*%
X156000000Y-100150000D03*
X156000000Y-95850000D03*
%TD*%
%TO.C,D3*%
X156000000Y-90150000D03*
X156000000Y-85850000D03*
%TD*%
%TO.C,D2*%
X156000000Y-80150000D03*
X156000000Y-75850000D03*
%TD*%
%TO.C,D1*%
X156000000Y-70150000D03*
X156000000Y-65850000D03*
%TD*%
M02*
