M48
; DRILL file {KiCad 5.1.9-73d0e3b20d~88~ubuntu20.04.1} date Sat Sep 25 00:34:56 2021
; FORMAT={-:-/ absolute / inch / decimal}
; #@! TF.CreationDate,2021-09-25T00:34:56+05:30
; #@! TF.GenerationSoftware,Kicad,Pcbnew,5.1.9-73d0e3b20d~88~ubuntu20.04.1
FMAT,2
INCH
T1C0.0157
T2C0.0197
T3C0.0236
T4C0.0315
T5C0.0362
T6C0.0402
T7C0.0512
T8C0.0906
T9C0.1260
T10C0.1200
%
G90
G05
T1
X5.9055Y-2.7165
X5.9055Y-2.815
X5.9055Y-3.1102
X5.9055Y-3.2087
X6.0039Y-2.2638
X6.0039Y-2.3622
X6.0039Y-2.4606
X6.0039Y-2.7165
X6.0039Y-2.815
X6.0039Y-3.1102
X6.0039Y-3.2087
X6.1024Y-2.2638
X6.1024Y-2.3622
X6.1024Y-2.4606
X6.2008Y-2.2638
X6.2008Y-2.3622
X6.2008Y-2.4606
X6.2402Y-3.2087
X6.2402Y-3.2677
X6.2992Y-2.2638
X6.2992Y-2.3622
X6.2992Y-2.4606
X6.2992Y-2.5591
X6.2992Y-2.815
X6.2992Y-2.9331
X6.3386Y-3.2087
X6.3386Y-3.2677
X6.3976Y-2.2638
X6.3976Y-2.3622
X6.3976Y-2.4606
X6.3976Y-2.5591
X6.3976Y-2.815
X6.3976Y-2.9331
X6.437Y-3.2087
X6.437Y-3.2677
X6.4409Y-3.3701
X6.4409Y-3.7638
X6.4409Y-4.1575
X6.4409Y-4.5512
X6.4409Y-4.9449
X6.4409Y-5.3386
X6.4961Y-2.2638
X6.4961Y-2.3622
X6.4961Y-2.4606
X6.4961Y-2.5591
X6.4961Y-2.815
X6.4961Y-2.9331
X6.5354Y-2.9724
X6.5354Y-3.0709
X6.5354Y-3.1693
X6.5354Y-3.2087
X6.5354Y-3.2677
X6.5945Y-2.2638
X6.5945Y-2.3622
X6.5945Y-2.4606
X6.7559Y-2.5236
X6.7559Y-2.9173
X7.7766Y-2.3888
X7.7766Y-2.4419
X7.81Y-2.3888
X7.81Y-2.4419
X7.8435Y-2.3888
X7.8435Y-2.4419
X7.877Y-2.3888
X7.877Y-2.4419
X7.9104Y-2.3888
X7.9104Y-2.4419
X7.9439Y-2.3888
X7.9439Y-2.4419
X7.9774Y-2.3888
X7.9774Y-2.4419
X8.0108Y-2.3888
X8.0108Y-2.4419
X8.2096Y-2.3888
X8.2096Y-2.4419
X8.2431Y-2.3888
X8.2431Y-2.4419
X8.2766Y-2.3888
X8.2766Y-2.4419
X8.31Y-2.3888
X8.31Y-2.4419
X8.3435Y-2.3888
X8.3435Y-2.4419
X8.377Y-2.3888
X8.377Y-2.4419
X8.4104Y-2.3888
X8.4104Y-2.4419
X8.4439Y-2.3888
X8.4439Y-2.4419
T2
X5.6142Y-2.3228
X5.6142Y-5.9449
X5.6418Y-2.256
X5.6418Y-2.3896
X5.6418Y-5.8781
X5.6418Y-6.0117
X5.7087Y-2.2283
X5.7087Y-2.4173
X5.7087Y-5.8504
X5.7087Y-6.0394
X5.7755Y-2.256
X5.7755Y-2.3896
X5.7755Y-5.8781
X5.7755Y-6.0117
X5.8031Y-2.3228
X5.8031Y-5.9449
X9.2362Y-2.3228
X9.2362Y-5.9449
X9.2639Y-2.256
X9.2639Y-2.3896
X9.2639Y-5.8781
X9.2639Y-6.0117
X9.3307Y-2.2283
X9.3307Y-2.4173
X9.3307Y-5.8504
X9.3307Y-6.0394
X9.3975Y-2.256
X9.3975Y-2.3896
X9.3975Y-5.8781
X9.3975Y-6.0117
X9.4252Y-2.3228
X9.4252Y-5.9449
T4
X7.7354Y-2.6772
X7.7354Y-2.7953
X8.0354Y-2.6772
X8.0354Y-2.7953
X8.1685Y-2.6772
X8.1685Y-2.7953
X8.4685Y-2.6772
X8.4685Y-2.7953
X8.7008Y-2.5787
X8.7008Y-2.5787
X8.7008Y-2.9724
X8.7008Y-2.9724
X8.7008Y-3.3661
X8.7008Y-3.3661
X8.7008Y-3.7598
X8.7008Y-3.7598
X8.7008Y-4.1535
X8.7008Y-4.1535
X8.7008Y-4.5472
X8.7008Y-4.5472
X8.7008Y-4.9409
X8.7008Y-4.9409
X8.7008Y-5.3346
X8.7008Y-5.3346
X8.7008Y-5.5315
X8.7008Y-5.5315
X9.0008Y-2.5787
X9.0008Y-2.9724
X9.0008Y-3.3661
X9.0008Y-3.7598
X9.0008Y-4.1535
X9.0008Y-4.5472
X9.0008Y-4.9409
X9.0008Y-5.3346
X9.0008Y-5.5315
T5
X7.1654Y-2.4165
X7.1654Y-2.5197
X7.2638Y-2.4165
X7.2638Y-2.5197
X7.3425Y-2.4165
X7.3425Y-2.5197
X7.4409Y-2.4165
X7.4409Y-2.5197
T6
X7.2378Y-3.1762
X7.2378Y-3.2762
X7.2378Y-3.3762
X7.2378Y-3.4762
X7.2378Y-3.5762
X7.2378Y-3.6762
X7.2378Y-3.7762
X7.2378Y-3.8762
X7.2378Y-3.9762
X7.2378Y-4.0762
X7.2378Y-4.1762
X7.2378Y-4.2662
X7.2378Y-4.3762
X7.2378Y-4.4762
X7.2378Y-4.5762
X7.4378Y-3.1762
X7.4378Y-3.2762
X7.4378Y-3.3762
X7.4378Y-3.4762
X7.4378Y-3.5762
X7.4378Y-3.6762
X7.4378Y-3.7762
X7.4378Y-3.8762
X7.4378Y-3.9762
X7.4378Y-4.0762
X7.4378Y-4.1762
X7.4378Y-4.2662
X7.4378Y-4.3762
X7.4378Y-4.4762
X7.4378Y-4.5762
X7.5878Y-4.6962
X7.5878Y-4.8962
X7.6878Y-4.6962
X7.6878Y-4.8962
X7.7878Y-4.6962
X7.7878Y-4.8962
X7.8878Y-4.6962
X7.8878Y-4.8962
X7.9878Y-4.6962
X7.9878Y-4.8962
X8.0878Y-4.6962
X8.0878Y-4.8962
X8.2378Y-3.1762
X8.2378Y-3.2762
X8.2378Y-3.3762
X8.2378Y-3.4762
X8.2378Y-3.5762
X8.2378Y-3.6762
X8.2378Y-3.7762
X8.2378Y-3.8762
X8.2378Y-3.9762
X8.2378Y-4.0762
X8.2378Y-4.1762
X8.2378Y-4.2762
X8.2378Y-4.3762
X8.2378Y-4.4762
X8.2378Y-4.5762
X8.4378Y-3.1762
X8.4378Y-3.2762
X8.4378Y-3.3762
X8.4378Y-3.4762
X8.4378Y-3.5762
X8.4378Y-3.6762
X8.4378Y-3.7762
X8.4378Y-3.8762
X8.4378Y-3.9762
X8.4378Y-4.0762
X8.4378Y-4.1762
X8.4378Y-4.2762
X8.4378Y-4.3762
X8.4378Y-4.4762
X8.4378Y-4.5762
T7
X5.748Y-2.5787
X5.748Y-2.7756
X5.748Y-2.9724
X5.748Y-3.1693
X5.748Y-3.3661
X5.748Y-3.563
X5.748Y-3.7598
X5.748Y-3.9567
X5.748Y-4.1535
X5.748Y-4.3504
X5.748Y-4.5472
X5.748Y-4.7441
X5.748Y-4.9409
X5.748Y-5.1378
X5.748Y-5.3346
X5.748Y-5.5315
X6.0433Y-5.8858
X6.2402Y-5.8858
X6.437Y-5.8858
X6.6339Y-5.8858
X6.8307Y-5.8858
X7.0276Y-5.8858
X7.2244Y-5.8858
X7.4213Y-5.8858
X7.6181Y-5.8858
X7.815Y-5.8858
X8.0118Y-5.8858
X8.2087Y-5.8858
X8.4055Y-5.8858
X8.6024Y-5.8858
X8.7992Y-5.8858
X8.9961Y-5.8858
X9.2717Y-2.5787
X9.2717Y-2.7756
X9.2717Y-2.9724
X9.2717Y-3.1693
X9.2717Y-3.3661
X9.2717Y-3.563
X9.2717Y-3.7598
X9.2717Y-3.9567
X9.2717Y-4.1535
X9.2717Y-4.3504
X9.2717Y-4.5472
X9.2717Y-4.7441
X9.2717Y-4.9409
X9.2717Y-5.1378
X9.2717Y-5.3346
X9.2717Y-5.5315
T8
X7.0445Y-2.3098
X7.0445Y-2.5335
X7.5618Y-2.3098
X7.5618Y-2.5335
T9
X5.7087Y-2.3228
X5.7087Y-5.9449
X9.3307Y-2.3228
X9.3307Y-5.9449
T10
X7.4378Y-4.6962
X8.2378Y-4.6962
T3
G00X7.7234Y-2.286
M15
G01X7.7234Y-2.2545
M16
G05
G00X7.7234Y-2.4329
M15
G01X7.7234Y-2.3738
M16
G05
G00X8.064Y-2.286
M15
G01X8.064Y-2.2545
M16
G05
G00X8.064Y-2.4329
M15
G01X8.064Y-2.3738
M16
G05
G00X8.1565Y-2.286
M15
G01X8.1565Y-2.2545
M16
G05
G00X8.1565Y-2.4329
M15
G01X8.1565Y-2.3738
M16
G05
G00X8.497Y-2.286
M15
G01X8.497Y-2.2545
M16
G05
G00X8.497Y-2.4329
M15
G01X8.497Y-2.3738
M16
G05
T0
M30
