%TF.GenerationSoftware,KiCad,Pcbnew,5.1.9-73d0e3b20d~88~ubuntu20.04.1*%
%TF.CreationDate,2021-09-25T00:34:52+05:30*%
%TF.ProjectId,veloce,76656c6f-6365-42e6-9b69-6361645f7063,rev?*%
%TF.SameCoordinates,Original*%
%TF.FileFunction,Profile,NP*%
%FSLAX46Y46*%
G04 Gerber Fmt 4.6, Leading zero omitted, Abs format (unit mm)*
G04 Created by KiCad (PCBNEW 5.1.9-73d0e3b20d~88~ubuntu20.04.1) date 2021-09-25 00:34:52*
%MOMM*%
%LPD*%
G01*
G04 APERTURE LIST*
%TA.AperFunction,Profile*%
%ADD10C,0.050000*%
%TD*%
G04 APERTURE END LIST*
D10*
X185500000Y-152000000D02*
X185500000Y-147000000D01*
X186500000Y-152000000D02*
G75*
G02*
X185500000Y-152000000I-500000J0D01*
G01*
X185500000Y-147000000D02*
G75*
G02*
X186500000Y-147000000I500000J0D01*
G01*
X186500000Y-147000000D02*
X186500000Y-152000000D01*
X176500000Y-152000000D02*
G75*
G02*
X175500000Y-152000000I-500000J0D01*
G01*
X176500000Y-147000000D02*
X176500000Y-152000000D01*
X175500000Y-152000000D02*
X175500000Y-147000000D01*
X175500000Y-147000000D02*
G75*
G02*
X176500000Y-147000000I500000J0D01*
G01*
X165500000Y-147000000D02*
G75*
G02*
X166500000Y-147000000I500000J0D01*
G01*
X166500000Y-152000000D02*
G75*
G02*
X165500000Y-152000000I-500000J0D01*
G01*
X166500000Y-147000000D02*
X166500000Y-152000000D01*
X165500000Y-152000000D02*
X165500000Y-147000000D01*
X241000000Y-151000000D02*
G75*
G02*
X237000000Y-155000000I-4000000J0D01*
G01*
X145000000Y-155000000D02*
G75*
G02*
X141000000Y-151000000I0J4000000D01*
G01*
X141000000Y-59000000D02*
G75*
G02*
X145000000Y-55000000I4000000J0D01*
G01*
X237000000Y-55000000D02*
G75*
G02*
X241000000Y-59000000I0J-4000000D01*
G01*
X141000000Y-151000000D02*
X141000000Y-59000000D01*
X237000000Y-155000000D02*
X145000000Y-155000000D01*
X241000000Y-59000000D02*
X241000000Y-151000000D01*
X145000000Y-55000000D02*
X237000000Y-55000000D01*
M02*
