%TF.GenerationSoftware,KiCad,Pcbnew,5.1.9-73d0e3b20d~88~ubuntu20.04.1*%
%TF.CreationDate,2021-09-23T17:55:38+05:30*%
%TF.ProjectId,veloce,76656c6f-6365-42e6-9b69-6361645f7063,rev?*%
%TF.SameCoordinates,Original*%
%TF.FileFunction,Legend,Bot*%
%TF.FilePolarity,Positive*%
%FSLAX46Y46*%
G04 Gerber Fmt 4.6, Leading zero omitted, Abs format (unit mm)*
G04 Created by KiCad (PCBNEW 5.1.9-73d0e3b20d~88~ubuntu20.04.1) date 2021-09-23 17:55:38*
%MOMM*%
%LPD*%
G01*
G04 APERTURE LIST*
%ADD10C,0.120000*%
%ADD11C,0.150000*%
G04 APERTURE END LIST*
D10*
X222700000Y-67000000D02*
G75*
G03*
X222700000Y-67000000I-200000J0D01*
G01*
X222600000Y-67000000D02*
G75*
G03*
X222600000Y-67000000I-100000J0D01*
G01*
X219700000Y-67000000D02*
G75*
G03*
X219700000Y-67000000I-200000J0D01*
G01*
X219600000Y-67000000D02*
G75*
G03*
X219600000Y-67000000I-100000J0D01*
G01*
X219500000Y-70500000D02*
X219500000Y-67000000D01*
X216000000Y-70500000D02*
X219500000Y-70500000D01*
X222500000Y-70500000D02*
X222500000Y-67000000D01*
X228500000Y-70500000D02*
X222500000Y-70500000D01*
X222700000Y-142000000D02*
G75*
G03*
X222700000Y-142000000I-200000J0D01*
G01*
X222600000Y-142000000D02*
G75*
G03*
X222600000Y-142000000I-100000J0D01*
G01*
X219700000Y-142000000D02*
G75*
G03*
X219700000Y-142000000I-200000J0D01*
G01*
X219600000Y-142000000D02*
G75*
G03*
X219600000Y-142000000I-100000J0D01*
G01*
X222500000Y-144000000D02*
X228500000Y-144000000D01*
X222500000Y-142000000D02*
X222500000Y-144000000D01*
X219500000Y-144000000D02*
X219500000Y-142000000D01*
X213500000Y-144000000D02*
X219500000Y-144000000D01*
%TO.C,JP1*%
X219800000Y-139300000D02*
X220100000Y-139000000D01*
X219500000Y-139000000D02*
X220100000Y-139000000D01*
X219800000Y-139300000D02*
X219500000Y-139000000D01*
X218700000Y-140200000D02*
X218700000Y-140800000D01*
X222600000Y-139500000D02*
X219400000Y-139500000D01*
X223300000Y-140800000D02*
X223300000Y-140200000D01*
X219400000Y-141500000D02*
X222600000Y-141500000D01*
X222600000Y-141500000D02*
G75*
G03*
X223300000Y-140800000I0J700000D01*
G01*
X223300000Y-140200000D02*
G75*
G03*
X222600000Y-139500000I-700000J0D01*
G01*
X219400000Y-139500000D02*
G75*
G03*
X218700000Y-140200000I0J-700000D01*
G01*
X218700000Y-140800000D02*
G75*
G03*
X219400000Y-141500000I700000J0D01*
G01*
%TO.C,JP9*%
X219800000Y-134300000D02*
X220100000Y-134000000D01*
X219500000Y-134000000D02*
X220100000Y-134000000D01*
X219800000Y-134300000D02*
X219500000Y-134000000D01*
X218700000Y-135200000D02*
X218700000Y-135800000D01*
X222600000Y-134500000D02*
X219400000Y-134500000D01*
X223300000Y-135800000D02*
X223300000Y-135200000D01*
X219400000Y-136500000D02*
X222600000Y-136500000D01*
X222600000Y-136500000D02*
G75*
G03*
X223300000Y-135800000I0J700000D01*
G01*
X223300000Y-135200000D02*
G75*
G03*
X222600000Y-134500000I-700000J0D01*
G01*
X219400000Y-134500000D02*
G75*
G03*
X218700000Y-135200000I0J-700000D01*
G01*
X218700000Y-135800000D02*
G75*
G03*
X219400000Y-136500000I700000J0D01*
G01*
%TO.C,JP8*%
X219800000Y-124300000D02*
X220100000Y-124000000D01*
X219500000Y-124000000D02*
X220100000Y-124000000D01*
X219800000Y-124300000D02*
X219500000Y-124000000D01*
X218700000Y-125200000D02*
X218700000Y-125800000D01*
X222600000Y-124500000D02*
X219400000Y-124500000D01*
X223300000Y-125800000D02*
X223300000Y-125200000D01*
X219400000Y-126500000D02*
X222600000Y-126500000D01*
X222600000Y-126500000D02*
G75*
G03*
X223300000Y-125800000I0J700000D01*
G01*
X223300000Y-125200000D02*
G75*
G03*
X222600000Y-124500000I-700000J0D01*
G01*
X219400000Y-124500000D02*
G75*
G03*
X218700000Y-125200000I0J-700000D01*
G01*
X218700000Y-125800000D02*
G75*
G03*
X219400000Y-126500000I700000J0D01*
G01*
%TO.C,JP7*%
X219800000Y-114300000D02*
X220100000Y-114000000D01*
X219500000Y-114000000D02*
X220100000Y-114000000D01*
X219800000Y-114300000D02*
X219500000Y-114000000D01*
X218700000Y-115200000D02*
X218700000Y-115800000D01*
X222600000Y-114500000D02*
X219400000Y-114500000D01*
X223300000Y-115800000D02*
X223300000Y-115200000D01*
X219400000Y-116500000D02*
X222600000Y-116500000D01*
X222600000Y-116500000D02*
G75*
G03*
X223300000Y-115800000I0J700000D01*
G01*
X223300000Y-115200000D02*
G75*
G03*
X222600000Y-114500000I-700000J0D01*
G01*
X219400000Y-114500000D02*
G75*
G03*
X218700000Y-115200000I0J-700000D01*
G01*
X218700000Y-115800000D02*
G75*
G03*
X219400000Y-116500000I700000J0D01*
G01*
%TO.C,JP6*%
X219800000Y-104300000D02*
X220100000Y-104000000D01*
X219500000Y-104000000D02*
X220100000Y-104000000D01*
X219800000Y-104300000D02*
X219500000Y-104000000D01*
X218700000Y-105200000D02*
X218700000Y-105800000D01*
X222600000Y-104500000D02*
X219400000Y-104500000D01*
X223300000Y-105800000D02*
X223300000Y-105200000D01*
X219400000Y-106500000D02*
X222600000Y-106500000D01*
X222600000Y-106500000D02*
G75*
G03*
X223300000Y-105800000I0J700000D01*
G01*
X223300000Y-105200000D02*
G75*
G03*
X222600000Y-104500000I-700000J0D01*
G01*
X219400000Y-104500000D02*
G75*
G03*
X218700000Y-105200000I0J-700000D01*
G01*
X218700000Y-105800000D02*
G75*
G03*
X219400000Y-106500000I700000J0D01*
G01*
%TO.C,JP5*%
X219800000Y-94300000D02*
X220100000Y-94000000D01*
X219500000Y-94000000D02*
X220100000Y-94000000D01*
X219800000Y-94300000D02*
X219500000Y-94000000D01*
X218700000Y-95200000D02*
X218700000Y-95800000D01*
X222600000Y-94500000D02*
X219400000Y-94500000D01*
X223300000Y-95800000D02*
X223300000Y-95200000D01*
X219400000Y-96500000D02*
X222600000Y-96500000D01*
X222600000Y-96500000D02*
G75*
G03*
X223300000Y-95800000I0J700000D01*
G01*
X223300000Y-95200000D02*
G75*
G03*
X222600000Y-94500000I-700000J0D01*
G01*
X219400000Y-94500000D02*
G75*
G03*
X218700000Y-95200000I0J-700000D01*
G01*
X218700000Y-95800000D02*
G75*
G03*
X219400000Y-96500000I700000J0D01*
G01*
%TO.C,JP4*%
X219800000Y-84300000D02*
X220100000Y-84000000D01*
X219500000Y-84000000D02*
X220100000Y-84000000D01*
X219800000Y-84300000D02*
X219500000Y-84000000D01*
X218700000Y-85200000D02*
X218700000Y-85800000D01*
X222600000Y-84500000D02*
X219400000Y-84500000D01*
X223300000Y-85800000D02*
X223300000Y-85200000D01*
X219400000Y-86500000D02*
X222600000Y-86500000D01*
X222600000Y-86500000D02*
G75*
G03*
X223300000Y-85800000I0J700000D01*
G01*
X223300000Y-85200000D02*
G75*
G03*
X222600000Y-84500000I-700000J0D01*
G01*
X219400000Y-84500000D02*
G75*
G03*
X218700000Y-85200000I0J-700000D01*
G01*
X218700000Y-85800000D02*
G75*
G03*
X219400000Y-86500000I700000J0D01*
G01*
%TO.C,JP3*%
X219800000Y-74300000D02*
X220100000Y-74000000D01*
X219500000Y-74000000D02*
X220100000Y-74000000D01*
X219800000Y-74300000D02*
X219500000Y-74000000D01*
X218700000Y-75200000D02*
X218700000Y-75800000D01*
X222600000Y-74500000D02*
X219400000Y-74500000D01*
X223300000Y-75800000D02*
X223300000Y-75200000D01*
X219400000Y-76500000D02*
X222600000Y-76500000D01*
X222600000Y-76500000D02*
G75*
G03*
X223300000Y-75800000I0J700000D01*
G01*
X223300000Y-75200000D02*
G75*
G03*
X222600000Y-74500000I-700000J0D01*
G01*
X219400000Y-74500000D02*
G75*
G03*
X218700000Y-75200000I0J-700000D01*
G01*
X218700000Y-75800000D02*
G75*
G03*
X219400000Y-76500000I700000J0D01*
G01*
%TO.C,JP2*%
X219800000Y-64300000D02*
X220100000Y-64000000D01*
X219500000Y-64000000D02*
X220100000Y-64000000D01*
X219800000Y-64300000D02*
X219500000Y-64000000D01*
X218700000Y-65200000D02*
X218700000Y-65800000D01*
X222600000Y-64500000D02*
X219400000Y-64500000D01*
X223300000Y-65800000D02*
X223300000Y-65200000D01*
X219400000Y-66500000D02*
X222600000Y-66500000D01*
X222600000Y-66500000D02*
G75*
G03*
X223300000Y-65800000I0J700000D01*
G01*
X223300000Y-65200000D02*
G75*
G03*
X222600000Y-64500000I-700000J0D01*
G01*
X219400000Y-64500000D02*
G75*
G03*
X218700000Y-65200000I0J-700000D01*
G01*
X218700000Y-65800000D02*
G75*
G03*
X219400000Y-66500000I700000J0D01*
G01*
%TO.C,JP1*%
D11*
X225833333Y-139952380D02*
X225833333Y-140666666D01*
X225880952Y-140809523D01*
X225976190Y-140904761D01*
X226119047Y-140952380D01*
X226214285Y-140952380D01*
X225357142Y-140952380D02*
X225357142Y-139952380D01*
X224976190Y-139952380D01*
X224880952Y-140000000D01*
X224833333Y-140047619D01*
X224785714Y-140142857D01*
X224785714Y-140285714D01*
X224833333Y-140380952D01*
X224880952Y-140428571D01*
X224976190Y-140476190D01*
X225357142Y-140476190D01*
X223833333Y-140952380D02*
X224404761Y-140952380D01*
X224119047Y-140952380D02*
X224119047Y-139952380D01*
X224214285Y-140095238D01*
X224309523Y-140190476D01*
X224404761Y-140238095D01*
X219119047Y-143452380D02*
X219119047Y-142452380D01*
X218738095Y-142452380D01*
X218642857Y-142500000D01*
X218595238Y-142547619D01*
X218547619Y-142642857D01*
X218547619Y-142785714D01*
X218595238Y-142880952D01*
X218642857Y-142928571D01*
X218738095Y-142976190D01*
X219119047Y-142976190D01*
X218119047Y-142452380D02*
X218119047Y-143261904D01*
X218071428Y-143357142D01*
X218023809Y-143404761D01*
X217928571Y-143452380D01*
X217738095Y-143452380D01*
X217642857Y-143404761D01*
X217595238Y-143357142D01*
X217547619Y-143261904D01*
X217547619Y-142452380D01*
X216595238Y-143452380D02*
X217071428Y-143452380D01*
X217071428Y-142452380D01*
X215785714Y-143452380D02*
X216261904Y-143452380D01*
X216261904Y-142452380D01*
X215452380Y-142452380D02*
X215452380Y-143261904D01*
X215404761Y-143357142D01*
X215357142Y-143404761D01*
X215261904Y-143452380D01*
X215071428Y-143452380D01*
X214976190Y-143404761D01*
X214928571Y-143357142D01*
X214880952Y-143261904D01*
X214880952Y-142452380D01*
X214404761Y-143452380D02*
X214404761Y-142452380D01*
X214023809Y-142452380D01*
X213928571Y-142500000D01*
X213880952Y-142547619D01*
X213833333Y-142642857D01*
X213833333Y-142785714D01*
X213880952Y-142880952D01*
X213928571Y-142928571D01*
X214023809Y-142976190D01*
X214404761Y-142976190D01*
X228119047Y-143452380D02*
X228119047Y-142452380D01*
X227738095Y-142452380D01*
X227642857Y-142500000D01*
X227595238Y-142547619D01*
X227547619Y-142642857D01*
X227547619Y-142785714D01*
X227595238Y-142880952D01*
X227642857Y-142928571D01*
X227738095Y-142976190D01*
X228119047Y-142976190D01*
X227119047Y-142452380D02*
X227119047Y-143261904D01*
X227071428Y-143357142D01*
X227023809Y-143404761D01*
X226928571Y-143452380D01*
X226738095Y-143452380D01*
X226642857Y-143404761D01*
X226595238Y-143357142D01*
X226547619Y-143261904D01*
X226547619Y-142452380D01*
X225595238Y-143452380D02*
X226071428Y-143452380D01*
X226071428Y-142452380D01*
X224785714Y-143452380D02*
X225261904Y-143452380D01*
X225261904Y-142452380D01*
X224452380Y-143452380D02*
X224452380Y-142452380D01*
X224214285Y-142452380D01*
X224071428Y-142500000D01*
X223976190Y-142595238D01*
X223928571Y-142690476D01*
X223880952Y-142880952D01*
X223880952Y-143023809D01*
X223928571Y-143214285D01*
X223976190Y-143309523D01*
X224071428Y-143404761D01*
X224214285Y-143452380D01*
X224452380Y-143452380D01*
X223452380Y-143452380D02*
X223452380Y-142452380D01*
X222880952Y-143452380D01*
X222880952Y-142452380D01*
%TO.C,JP9*%
X225643333Y-134952380D02*
X225643333Y-135666666D01*
X225690952Y-135809523D01*
X225786190Y-135904761D01*
X225929047Y-135952380D01*
X226024285Y-135952380D01*
X225167142Y-135952380D02*
X225167142Y-134952380D01*
X224786190Y-134952380D01*
X224690952Y-135000000D01*
X224643333Y-135047619D01*
X224595714Y-135142857D01*
X224595714Y-135285714D01*
X224643333Y-135380952D01*
X224690952Y-135428571D01*
X224786190Y-135476190D01*
X225167142Y-135476190D01*
X224119523Y-135952380D02*
X223929047Y-135952380D01*
X223833809Y-135904761D01*
X223786190Y-135857142D01*
X223690952Y-135714285D01*
X223643333Y-135523809D01*
X223643333Y-135142857D01*
X223690952Y-135047619D01*
X223738571Y-135000000D01*
X223833809Y-134952380D01*
X224024285Y-134952380D01*
X224119523Y-135000000D01*
X224167142Y-135047619D01*
X224214761Y-135142857D01*
X224214761Y-135380952D01*
X224167142Y-135476190D01*
X224119523Y-135523809D01*
X224024285Y-135571428D01*
X223833809Y-135571428D01*
X223738571Y-135523809D01*
X223690952Y-135476190D01*
X223643333Y-135380952D01*
%TO.C,JP8*%
X225643333Y-124952380D02*
X225643333Y-125666666D01*
X225690952Y-125809523D01*
X225786190Y-125904761D01*
X225929047Y-125952380D01*
X226024285Y-125952380D01*
X225167142Y-125952380D02*
X225167142Y-124952380D01*
X224786190Y-124952380D01*
X224690952Y-125000000D01*
X224643333Y-125047619D01*
X224595714Y-125142857D01*
X224595714Y-125285714D01*
X224643333Y-125380952D01*
X224690952Y-125428571D01*
X224786190Y-125476190D01*
X225167142Y-125476190D01*
X224024285Y-125380952D02*
X224119523Y-125333333D01*
X224167142Y-125285714D01*
X224214761Y-125190476D01*
X224214761Y-125142857D01*
X224167142Y-125047619D01*
X224119523Y-125000000D01*
X224024285Y-124952380D01*
X223833809Y-124952380D01*
X223738571Y-125000000D01*
X223690952Y-125047619D01*
X223643333Y-125142857D01*
X223643333Y-125190476D01*
X223690952Y-125285714D01*
X223738571Y-125333333D01*
X223833809Y-125380952D01*
X224024285Y-125380952D01*
X224119523Y-125428571D01*
X224167142Y-125476190D01*
X224214761Y-125571428D01*
X224214761Y-125761904D01*
X224167142Y-125857142D01*
X224119523Y-125904761D01*
X224024285Y-125952380D01*
X223833809Y-125952380D01*
X223738571Y-125904761D01*
X223690952Y-125857142D01*
X223643333Y-125761904D01*
X223643333Y-125571428D01*
X223690952Y-125476190D01*
X223738571Y-125428571D01*
X223833809Y-125380952D01*
%TO.C,JP7*%
X225643333Y-114952380D02*
X225643333Y-115666666D01*
X225690952Y-115809523D01*
X225786190Y-115904761D01*
X225929047Y-115952380D01*
X226024285Y-115952380D01*
X225167142Y-115952380D02*
X225167142Y-114952380D01*
X224786190Y-114952380D01*
X224690952Y-115000000D01*
X224643333Y-115047619D01*
X224595714Y-115142857D01*
X224595714Y-115285714D01*
X224643333Y-115380952D01*
X224690952Y-115428571D01*
X224786190Y-115476190D01*
X225167142Y-115476190D01*
X224262380Y-114952380D02*
X223595714Y-114952380D01*
X224024285Y-115952380D01*
%TO.C,JP6*%
X225643333Y-104952380D02*
X225643333Y-105666666D01*
X225690952Y-105809523D01*
X225786190Y-105904761D01*
X225929047Y-105952380D01*
X226024285Y-105952380D01*
X225167142Y-105952380D02*
X225167142Y-104952380D01*
X224786190Y-104952380D01*
X224690952Y-105000000D01*
X224643333Y-105047619D01*
X224595714Y-105142857D01*
X224595714Y-105285714D01*
X224643333Y-105380952D01*
X224690952Y-105428571D01*
X224786190Y-105476190D01*
X225167142Y-105476190D01*
X223738571Y-104952380D02*
X223929047Y-104952380D01*
X224024285Y-105000000D01*
X224071904Y-105047619D01*
X224167142Y-105190476D01*
X224214761Y-105380952D01*
X224214761Y-105761904D01*
X224167142Y-105857142D01*
X224119523Y-105904761D01*
X224024285Y-105952380D01*
X223833809Y-105952380D01*
X223738571Y-105904761D01*
X223690952Y-105857142D01*
X223643333Y-105761904D01*
X223643333Y-105523809D01*
X223690952Y-105428571D01*
X223738571Y-105380952D01*
X223833809Y-105333333D01*
X224024285Y-105333333D01*
X224119523Y-105380952D01*
X224167142Y-105428571D01*
X224214761Y-105523809D01*
%TO.C,JP5*%
X225643333Y-94952380D02*
X225643333Y-95666666D01*
X225690952Y-95809523D01*
X225786190Y-95904761D01*
X225929047Y-95952380D01*
X226024285Y-95952380D01*
X225167142Y-95952380D02*
X225167142Y-94952380D01*
X224786190Y-94952380D01*
X224690952Y-95000000D01*
X224643333Y-95047619D01*
X224595714Y-95142857D01*
X224595714Y-95285714D01*
X224643333Y-95380952D01*
X224690952Y-95428571D01*
X224786190Y-95476190D01*
X225167142Y-95476190D01*
X223690952Y-94952380D02*
X224167142Y-94952380D01*
X224214761Y-95428571D01*
X224167142Y-95380952D01*
X224071904Y-95333333D01*
X223833809Y-95333333D01*
X223738571Y-95380952D01*
X223690952Y-95428571D01*
X223643333Y-95523809D01*
X223643333Y-95761904D01*
X223690952Y-95857142D01*
X223738571Y-95904761D01*
X223833809Y-95952380D01*
X224071904Y-95952380D01*
X224167142Y-95904761D01*
X224214761Y-95857142D01*
%TO.C,JP4*%
X225643333Y-84952380D02*
X225643333Y-85666666D01*
X225690952Y-85809523D01*
X225786190Y-85904761D01*
X225929047Y-85952380D01*
X226024285Y-85952380D01*
X225167142Y-85952380D02*
X225167142Y-84952380D01*
X224786190Y-84952380D01*
X224690952Y-85000000D01*
X224643333Y-85047619D01*
X224595714Y-85142857D01*
X224595714Y-85285714D01*
X224643333Y-85380952D01*
X224690952Y-85428571D01*
X224786190Y-85476190D01*
X225167142Y-85476190D01*
X223738571Y-85285714D02*
X223738571Y-85952380D01*
X223976666Y-84904761D02*
X224214761Y-85619047D01*
X223595714Y-85619047D01*
%TO.C,JP3*%
X225643333Y-74952380D02*
X225643333Y-75666666D01*
X225690952Y-75809523D01*
X225786190Y-75904761D01*
X225929047Y-75952380D01*
X226024285Y-75952380D01*
X225167142Y-75952380D02*
X225167142Y-74952380D01*
X224786190Y-74952380D01*
X224690952Y-75000000D01*
X224643333Y-75047619D01*
X224595714Y-75142857D01*
X224595714Y-75285714D01*
X224643333Y-75380952D01*
X224690952Y-75428571D01*
X224786190Y-75476190D01*
X225167142Y-75476190D01*
X224262380Y-74952380D02*
X223643333Y-74952380D01*
X223976666Y-75333333D01*
X223833809Y-75333333D01*
X223738571Y-75380952D01*
X223690952Y-75428571D01*
X223643333Y-75523809D01*
X223643333Y-75761904D01*
X223690952Y-75857142D01*
X223738571Y-75904761D01*
X223833809Y-75952380D01*
X224119523Y-75952380D01*
X224214761Y-75904761D01*
X224262380Y-75857142D01*
%TO.C,JP2*%
X225643333Y-64952380D02*
X225643333Y-65666666D01*
X225690952Y-65809523D01*
X225786190Y-65904761D01*
X225929047Y-65952380D01*
X226024285Y-65952380D01*
X225167142Y-65952380D02*
X225167142Y-64952380D01*
X224786190Y-64952380D01*
X224690952Y-65000000D01*
X224643333Y-65047619D01*
X224595714Y-65142857D01*
X224595714Y-65285714D01*
X224643333Y-65380952D01*
X224690952Y-65428571D01*
X224786190Y-65476190D01*
X225167142Y-65476190D01*
X224214761Y-65047619D02*
X224167142Y-65000000D01*
X224071904Y-64952380D01*
X223833809Y-64952380D01*
X223738571Y-65000000D01*
X223690952Y-65047619D01*
X223643333Y-65142857D01*
X223643333Y-65238095D01*
X223690952Y-65380952D01*
X224262380Y-65952380D01*
X223643333Y-65952380D01*
X219119047Y-69952380D02*
X219119047Y-68952380D01*
X218738095Y-68952380D01*
X218642857Y-69000000D01*
X218595238Y-69047619D01*
X218547619Y-69142857D01*
X218547619Y-69285714D01*
X218595238Y-69380952D01*
X218642857Y-69428571D01*
X218738095Y-69476190D01*
X219119047Y-69476190D01*
X218119047Y-68952380D02*
X218119047Y-69761904D01*
X218071428Y-69857142D01*
X218023809Y-69904761D01*
X217928571Y-69952380D01*
X217738095Y-69952380D01*
X217642857Y-69904761D01*
X217595238Y-69857142D01*
X217547619Y-69761904D01*
X217547619Y-68952380D01*
X216595238Y-69952380D02*
X217071428Y-69952380D01*
X217071428Y-68952380D01*
X215785714Y-69952380D02*
X216261904Y-69952380D01*
X216261904Y-68952380D01*
X215452380Y-68952380D02*
X215452380Y-69761904D01*
X215404761Y-69857142D01*
X215357142Y-69904761D01*
X215261904Y-69952380D01*
X215071428Y-69952380D01*
X214976190Y-69904761D01*
X214928571Y-69857142D01*
X214880952Y-69761904D01*
X214880952Y-68952380D01*
X214404761Y-69952380D02*
X214404761Y-68952380D01*
X214023809Y-68952380D01*
X213928571Y-69000000D01*
X213880952Y-69047619D01*
X213833333Y-69142857D01*
X213833333Y-69285714D01*
X213880952Y-69380952D01*
X213928571Y-69428571D01*
X214023809Y-69476190D01*
X214404761Y-69476190D01*
X228119047Y-69952380D02*
X228119047Y-68952380D01*
X227738095Y-68952380D01*
X227642857Y-69000000D01*
X227595238Y-69047619D01*
X227547619Y-69142857D01*
X227547619Y-69285714D01*
X227595238Y-69380952D01*
X227642857Y-69428571D01*
X227738095Y-69476190D01*
X228119047Y-69476190D01*
X227119047Y-68952380D02*
X227119047Y-69761904D01*
X227071428Y-69857142D01*
X227023809Y-69904761D01*
X226928571Y-69952380D01*
X226738095Y-69952380D01*
X226642857Y-69904761D01*
X226595238Y-69857142D01*
X226547619Y-69761904D01*
X226547619Y-68952380D01*
X225595238Y-69952380D02*
X226071428Y-69952380D01*
X226071428Y-68952380D01*
X224785714Y-69952380D02*
X225261904Y-69952380D01*
X225261904Y-68952380D01*
X224452380Y-69952380D02*
X224452380Y-68952380D01*
X224214285Y-68952380D01*
X224071428Y-69000000D01*
X223976190Y-69095238D01*
X223928571Y-69190476D01*
X223880952Y-69380952D01*
X223880952Y-69523809D01*
X223928571Y-69714285D01*
X223976190Y-69809523D01*
X224071428Y-69904761D01*
X224214285Y-69952380D01*
X224452380Y-69952380D01*
X223452380Y-69952380D02*
X223452380Y-68952380D01*
X222880952Y-69952380D01*
X222880952Y-68952380D01*
%TD*%
M02*
