%TF.GenerationSoftware,KiCad,Pcbnew,5.1.9-73d0e3b20d~88~ubuntu20.04.1*%
%TF.CreationDate,2021-09-23T17:55:38+05:30*%
%TF.ProjectId,veloce,76656c6f-6365-42e6-9b69-6361645f7063,rev?*%
%TF.SameCoordinates,Original*%
%TF.FileFunction,Copper,L1,Top*%
%TF.FilePolarity,Positive*%
%FSLAX46Y46*%
G04 Gerber Fmt 4.6, Leading zero omitted, Abs format (unit mm)*
G04 Created by KiCad (PCBNEW 5.1.9-73d0e3b20d~88~ubuntu20.04.1) date 2021-09-23 17:55:38*
%MOMM*%
%LPD*%
G01*
G04 APERTURE LIST*
%TA.AperFunction,SMDPad,CuDef*%
%ADD10R,5.918200X4.368800*%
%TD*%
%TA.AperFunction,SMDPad,CuDef*%
%ADD11R,2.489200X0.939800*%
%TD*%
%TA.AperFunction,ComponentPad*%
%ADD12R,1.600000X1.600000*%
%TD*%
%TA.AperFunction,ComponentPad*%
%ADD13O,1.800000X2.600000*%
%TD*%
%TA.AperFunction,ComponentPad*%
%ADD14O,2.600000X1.800000*%
%TD*%
%TA.AperFunction,WasherPad*%
%ADD15C,3.800000*%
%TD*%
%TA.AperFunction,ComponentPad*%
%ADD16C,0.800000*%
%TD*%
%TA.AperFunction,ComponentPad*%
%ADD17C,6.400000*%
%TD*%
%TA.AperFunction,ComponentPad*%
%ADD18O,1.600000X1.600000*%
%TD*%
%TA.AperFunction,ComponentPad*%
%ADD19C,1.600000*%
%TD*%
%TA.AperFunction,ComponentPad*%
%ADD20C,2.600000*%
%TD*%
%TA.AperFunction,ComponentPad*%
%ADD21R,2.600000X2.600000*%
%TD*%
%TA.AperFunction,SMDPad,CuDef*%
%ADD22R,0.900000X0.800000*%
%TD*%
%TA.AperFunction,ComponentPad*%
%ADD23C,0.650000*%
%TD*%
%TA.AperFunction,ComponentPad*%
%ADD24O,1.108000X2.516000*%
%TD*%
%TA.AperFunction,ComponentPad*%
%ADD25O,1.108000X2.216000*%
%TD*%
%TA.AperFunction,ComponentPad*%
%ADD26C,3.300000*%
%TD*%
%TA.AperFunction,SMDPad,CuDef*%
%ADD27R,2.300000X2.500000*%
%TD*%
%TA.AperFunction,ViaPad*%
%ADD28C,0.800000*%
%TD*%
%TA.AperFunction,Conductor*%
%ADD29C,2.000000*%
%TD*%
%TA.AperFunction,Conductor*%
%ADD30C,1.000000*%
%TD*%
%TA.AperFunction,Conductor*%
%ADD31C,0.500000*%
%TD*%
%TA.AperFunction,Conductor*%
%ADD32C,0.254000*%
%TD*%
%TA.AperFunction,Conductor*%
%ADD33C,0.100000*%
%TD*%
G04 APERTURE END LIST*
D10*
%TO.P,Q1,3*%
%TO.N,/OP1*%
X161544200Y-68000000D03*
D11*
%TO.P,Q1,2*%
%TO.N,/GND*%
X168643500Y-65714000D03*
%TO.P,Q1,1*%
%TO.N,Net-(Q1-Pad1)*%
X168643500Y-70286000D03*
%TD*%
D10*
%TO.P,Q2,3*%
%TO.N,/OP2*%
X161544200Y-78000000D03*
D11*
%TO.P,Q2,2*%
%TO.N,/GND*%
X168643500Y-75714000D03*
%TO.P,Q2,1*%
%TO.N,Net-(Q2-Pad1)*%
X168643500Y-80286000D03*
%TD*%
D12*
%TO.P,JP1,2*%
%TO.N,Net-(JP1-Pad2)*%
X221000000Y-140500000D03*
%TD*%
%TO.P,JP9,2*%
%TO.N,Net-(JP9-Pad2)*%
X221000000Y-135500000D03*
%TD*%
%TO.P,JP8,2*%
%TO.N,Net-(JP8-Pad2)*%
X221000000Y-125500000D03*
%TD*%
%TO.P,JP7,2*%
%TO.N,Net-(JP7-Pad2)*%
X221000000Y-115500000D03*
%TD*%
%TO.P,JP6,2*%
%TO.N,Net-(JP6-Pad2)*%
X221000000Y-105500000D03*
%TD*%
%TO.P,JP5,2*%
%TO.N,Net-(JP5-Pad2)*%
X221000000Y-95500000D03*
%TD*%
%TO.P,JP4,2*%
%TO.N,Net-(JP4-Pad2)*%
X221000000Y-85500000D03*
%TD*%
%TO.P,JP3,2*%
%TO.N,Net-(JP3-Pad2)*%
X221000000Y-75500000D03*
%TD*%
%TO.P,JP2,2*%
%TO.N,Net-(JP2-Pad2)*%
X221000000Y-65500000D03*
%TD*%
D13*
%TO.P,U1,36*%
%TO.N,Net-(U1-Pad36)*%
X205430000Y-124364000D03*
%TO.P,U1,35*%
%TO.N,Net-(U1-Pad35)*%
X202890000Y-124364000D03*
%TO.P,U1,34*%
%TO.N,Net-(U1-Pad34)*%
X200350000Y-124364000D03*
%TO.P,U1,33*%
%TO.N,Net-(U1-Pad33)*%
X197810000Y-124364000D03*
%TO.P,U1,32*%
%TO.N,Net-(U1-Pad32)*%
X195270000Y-124364000D03*
%TO.P,U1,31*%
%TO.N,Net-(U1-Pad31)*%
X192730000Y-124364000D03*
D14*
%TO.P,U1,24*%
%TO.N,/IN3*%
X214320000Y-95916000D03*
%TO.P,U1,25*%
%TO.N,/IN2*%
X214320000Y-93376000D03*
%TO.P,U1,20*%
%TO.N,/IN7*%
X214320000Y-106076000D03*
%TO.P,U1,21*%
%TO.N,/IN6*%
X214320000Y-103536000D03*
%TO.P,U1,22*%
%TO.N,/IN5*%
X214320000Y-100996000D03*
%TO.P,U1,23*%
%TO.N,/IN4*%
X214320000Y-98456000D03*
%TO.P,U1,30*%
%TO.N,Net-(U1-Pad30)*%
X214320000Y-80676000D03*
%TO.P,U1,29*%
%TO.N,Net-(U1-Pad29)*%
X214320000Y-83216000D03*
%TO.P,U1,28*%
%TO.N,Net-(U1-Pad28)*%
X214320000Y-85756000D03*
%TO.P,U1,27*%
%TO.N,Net-(U1-Pad27)*%
X214320000Y-88296000D03*
%TO.P,U1,26*%
%TO.N,/IN1*%
X214320000Y-90836000D03*
%TO.P,U1,16*%
%TO.N,/5V*%
X214320000Y-116236000D03*
%TO.P,U1,17*%
%TO.N,Net-(U1-Pad17)*%
X214320000Y-113696000D03*
%TO.P,U1,18*%
%TO.N,/BRAKE*%
X214320000Y-111156000D03*
%TO.P,U1,19*%
%TO.N,/IN8*%
X214320000Y-108616000D03*
%TO.P,U1,2*%
%TO.N,Net-(U1-Pad2)*%
X183840000Y-83216000D03*
%TO.P,U1,1*%
%TO.N,Net-(U1-Pad1)*%
%TA.AperFunction,ComponentPad*%
G36*
G01*
X182540000Y-81126000D02*
X182540000Y-80226000D01*
G75*
G02*
X182990000Y-79776000I450000J0D01*
G01*
X184690000Y-79776000D01*
G75*
G02*
X185140000Y-80226000I0J-450000D01*
G01*
X185140000Y-81126000D01*
G75*
G02*
X184690000Y-81576000I-450000J0D01*
G01*
X182990000Y-81576000D01*
G75*
G02*
X182540000Y-81126000I0J450000D01*
G01*
G37*
%TD.AperFunction*%
%TO.P,U1,7*%
%TO.N,/OUT2*%
X183840000Y-95916000D03*
%TO.P,U1,6*%
%TO.N,/OUT1*%
X183840000Y-93376000D03*
%TO.P,U1,5*%
%TO.N,Net-(U1-Pad5)*%
X183840000Y-90836000D03*
%TO.P,U1,4*%
%TO.N,Net-(U1-Pad4)*%
X183840000Y-88296000D03*
%TO.P,U1,3*%
%TO.N,Net-(U1-Pad3)*%
X183840000Y-85756000D03*
%TO.P,U1,15*%
%TO.N,/GND*%
X183840000Y-116236000D03*
%TO.P,U1,14*%
%TO.N,/3V3*%
X183840000Y-113696000D03*
%TO.P,U1,13*%
%TO.N,/OUT8*%
X183840000Y-111156000D03*
%TO.P,U1,12*%
%TO.N,/OUT7*%
X183840000Y-108362000D03*
%TO.P,U1,11*%
%TO.N,/OUT6*%
X183840000Y-106076000D03*
%TO.P,U1,10*%
%TO.N,/OUT5*%
X183840000Y-103536000D03*
%TO.P,U1,9*%
%TO.N,/OUT4*%
X183840000Y-100996000D03*
%TO.P,U1,8*%
%TO.N,/OUT3*%
X183840000Y-98456000D03*
%TO.P,U1,30*%
%TO.N,Net-(U1-Pad30)*%
X209240000Y-80676000D03*
%TO.P,U1,29*%
%TO.N,Net-(U1-Pad29)*%
X209240000Y-83216000D03*
%TO.P,U1,28*%
%TO.N,Net-(U1-Pad28)*%
X209240000Y-85756000D03*
%TO.P,U1,27*%
%TO.N,Net-(U1-Pad27)*%
X209240000Y-88296000D03*
%TO.P,U1,26*%
%TO.N,/IN1*%
X209240000Y-90836000D03*
%TO.P,U1,15*%
%TO.N,/GND*%
X188920000Y-116236000D03*
%TO.P,U1,14*%
%TO.N,/3V3*%
X188920000Y-113696000D03*
%TO.P,U1,13*%
%TO.N,/OUT8*%
X188920000Y-111156000D03*
%TO.P,U1,12*%
%TO.N,/OUT7*%
X188920000Y-108362000D03*
%TO.P,U1,11*%
%TO.N,/OUT6*%
X188920000Y-106076000D03*
D13*
%TO.P,U1,36*%
%TO.N,Net-(U1-Pad36)*%
X205430000Y-119284000D03*
%TO.P,U1,35*%
%TO.N,Net-(U1-Pad35)*%
X202890000Y-119284000D03*
%TO.P,U1,34*%
%TO.N,Net-(U1-Pad34)*%
X200350000Y-119284000D03*
%TO.P,U1,33*%
%TO.N,Net-(U1-Pad33)*%
X197810000Y-119284000D03*
%TO.P,U1,32*%
%TO.N,Net-(U1-Pad32)*%
X195270000Y-119284000D03*
%TO.P,U1,31*%
%TO.N,Net-(U1-Pad31)*%
X192730000Y-119284000D03*
D15*
%TO.P,U1,*%
%TO.N,*%
X209240000Y-119284000D03*
X188920000Y-119284000D03*
D14*
%TO.P,U1,16*%
%TO.N,/5V*%
X209240000Y-116236000D03*
%TO.P,U1,10*%
%TO.N,/OUT5*%
X188920000Y-103536000D03*
%TO.P,U1,17*%
%TO.N,Net-(U1-Pad17)*%
X209240000Y-113696000D03*
%TO.P,U1,9*%
%TO.N,/OUT4*%
X188920000Y-100996000D03*
%TO.P,U1,18*%
%TO.N,/BRAKE*%
X209240000Y-111156000D03*
%TO.P,U1,8*%
%TO.N,/OUT3*%
X188920000Y-98456000D03*
%TO.P,U1,19*%
%TO.N,/IN8*%
X209240000Y-108616000D03*
%TO.P,U1,7*%
%TO.N,/OUT2*%
X188920000Y-95916000D03*
%TO.P,U1,20*%
%TO.N,/IN7*%
X209240000Y-106076000D03*
%TO.P,U1,6*%
%TO.N,/OUT1*%
X188920000Y-93376000D03*
%TO.P,U1,21*%
%TO.N,/IN6*%
X209240000Y-103536000D03*
%TO.P,U1,5*%
%TO.N,Net-(U1-Pad5)*%
X188920000Y-90836000D03*
%TO.P,U1,22*%
%TO.N,/IN5*%
X209240000Y-100996000D03*
%TO.P,U1,4*%
%TO.N,Net-(U1-Pad4)*%
X188920000Y-88296000D03*
%TO.P,U1,23*%
%TO.N,/IN4*%
X209240000Y-98456000D03*
%TO.P,U1,3*%
%TO.N,Net-(U1-Pad3)*%
X188920000Y-85756000D03*
%TO.P,U1,24*%
%TO.N,/IN3*%
X209240000Y-95916000D03*
%TO.P,U1,2*%
%TO.N,Net-(U1-Pad2)*%
X188920000Y-83216000D03*
%TO.P,U1,25*%
%TO.N,/IN2*%
X209240000Y-93376000D03*
%TO.P,U1,1*%
%TO.N,Net-(U1-Pad1)*%
%TA.AperFunction,ComponentPad*%
G36*
G01*
X187620000Y-81126000D02*
X187620000Y-80226000D01*
G75*
G02*
X188070000Y-79776000I450000J0D01*
G01*
X189770000Y-79776000D01*
G75*
G02*
X190220000Y-80226000I0J-450000D01*
G01*
X190220000Y-81126000D01*
G75*
G02*
X189770000Y-81576000I-450000J0D01*
G01*
X188070000Y-81576000D01*
G75*
G02*
X187620000Y-81126000I0J450000D01*
G01*
G37*
%TD.AperFunction*%
%TD*%
%TO.P,J16,1*%
%TO.N,/GND*%
%TA.AperFunction,ComponentPad*%
G36*
G01*
X222200000Y-150150000D02*
X222200000Y-148850000D01*
G75*
G02*
X222850000Y-148200000I650000J0D01*
G01*
X224150000Y-148200000D01*
G75*
G02*
X224800000Y-148850000I0J-650000D01*
G01*
X224800000Y-150150000D01*
G75*
G02*
X224150000Y-150800000I-650000J0D01*
G01*
X222850000Y-150800000D01*
G75*
G02*
X222200000Y-150150000I0J650000D01*
G01*
G37*
%TD.AperFunction*%
%TO.P,J16,2*%
%TO.N,/BRAKE*%
%TA.AperFunction,ComponentPad*%
G36*
G01*
X227200000Y-150150000D02*
X227200000Y-148850000D01*
G75*
G02*
X227850000Y-148200000I650000J0D01*
G01*
X229150000Y-148200000D01*
G75*
G02*
X229800000Y-148850000I0J-650000D01*
G01*
X229800000Y-150150000D01*
G75*
G02*
X229150000Y-150800000I-650000J0D01*
G01*
X227850000Y-150800000D01*
G75*
G02*
X227200000Y-150150000I0J650000D01*
G01*
G37*
%TD.AperFunction*%
%TD*%
%TO.P,J15,1*%
%TO.N,/GND*%
%TA.AperFunction,ComponentPad*%
G36*
G01*
X212200000Y-150150000D02*
X212200000Y-148850000D01*
G75*
G02*
X212850000Y-148200000I650000J0D01*
G01*
X214150000Y-148200000D01*
G75*
G02*
X214800000Y-148850000I0J-650000D01*
G01*
X214800000Y-150150000D01*
G75*
G02*
X214150000Y-150800000I-650000J0D01*
G01*
X212850000Y-150800000D01*
G75*
G02*
X212200000Y-150150000I0J650000D01*
G01*
G37*
%TD.AperFunction*%
%TO.P,J15,2*%
%TA.AperFunction,ComponentPad*%
G36*
G01*
X217200000Y-150150000D02*
X217200000Y-148850000D01*
G75*
G02*
X217850000Y-148200000I650000J0D01*
G01*
X219150000Y-148200000D01*
G75*
G02*
X219800000Y-148850000I0J-650000D01*
G01*
X219800000Y-150150000D01*
G75*
G02*
X219150000Y-150800000I-650000J0D01*
G01*
X217850000Y-150800000D01*
G75*
G02*
X217200000Y-150150000I0J650000D01*
G01*
G37*
%TD.AperFunction*%
%TD*%
%TO.P,J14,1*%
%TO.N,/GND*%
%TA.AperFunction,ComponentPad*%
G36*
G01*
X202200000Y-150150000D02*
X202200000Y-148850000D01*
G75*
G02*
X202850000Y-148200000I650000J0D01*
G01*
X204150000Y-148200000D01*
G75*
G02*
X204800000Y-148850000I0J-650000D01*
G01*
X204800000Y-150150000D01*
G75*
G02*
X204150000Y-150800000I-650000J0D01*
G01*
X202850000Y-150800000D01*
G75*
G02*
X202200000Y-150150000I0J650000D01*
G01*
G37*
%TD.AperFunction*%
%TO.P,J14,2*%
%TA.AperFunction,ComponentPad*%
G36*
G01*
X207200000Y-150150000D02*
X207200000Y-148850000D01*
G75*
G02*
X207850000Y-148200000I650000J0D01*
G01*
X209150000Y-148200000D01*
G75*
G02*
X209800000Y-148850000I0J-650000D01*
G01*
X209800000Y-150150000D01*
G75*
G02*
X209150000Y-150800000I-650000J0D01*
G01*
X207850000Y-150800000D01*
G75*
G02*
X207200000Y-150150000I0J650000D01*
G01*
G37*
%TD.AperFunction*%
%TD*%
%TO.P,J13,1*%
%TO.N,/GND*%
%TA.AperFunction,ComponentPad*%
G36*
G01*
X192200000Y-150150000D02*
X192200000Y-148850000D01*
G75*
G02*
X192850000Y-148200000I650000J0D01*
G01*
X194150000Y-148200000D01*
G75*
G02*
X194800000Y-148850000I0J-650000D01*
G01*
X194800000Y-150150000D01*
G75*
G02*
X194150000Y-150800000I-650000J0D01*
G01*
X192850000Y-150800000D01*
G75*
G02*
X192200000Y-150150000I0J650000D01*
G01*
G37*
%TD.AperFunction*%
%TO.P,J13,2*%
%TA.AperFunction,ComponentPad*%
G36*
G01*
X197200000Y-150150000D02*
X197200000Y-148850000D01*
G75*
G02*
X197850000Y-148200000I650000J0D01*
G01*
X199150000Y-148200000D01*
G75*
G02*
X199800000Y-148850000I0J-650000D01*
G01*
X199800000Y-150150000D01*
G75*
G02*
X199150000Y-150800000I-650000J0D01*
G01*
X197850000Y-150800000D01*
G75*
G02*
X197200000Y-150150000I0J650000D01*
G01*
G37*
%TD.AperFunction*%
%TD*%
%TO.P,J12,1*%
%TO.N,/5V*%
%TA.AperFunction,ComponentPad*%
G36*
G01*
X182200000Y-150150000D02*
X182200000Y-148850000D01*
G75*
G02*
X182850000Y-148200000I650000J0D01*
G01*
X184150000Y-148200000D01*
G75*
G02*
X184800000Y-148850000I0J-650000D01*
G01*
X184800000Y-150150000D01*
G75*
G02*
X184150000Y-150800000I-650000J0D01*
G01*
X182850000Y-150800000D01*
G75*
G02*
X182200000Y-150150000I0J650000D01*
G01*
G37*
%TD.AperFunction*%
%TO.P,J12,2*%
%TO.N,/GND*%
%TA.AperFunction,ComponentPad*%
G36*
G01*
X187200000Y-150150000D02*
X187200000Y-148850000D01*
G75*
G02*
X187850000Y-148200000I650000J0D01*
G01*
X189150000Y-148200000D01*
G75*
G02*
X189800000Y-148850000I0J-650000D01*
G01*
X189800000Y-150150000D01*
G75*
G02*
X189150000Y-150800000I-650000J0D01*
G01*
X187850000Y-150800000D01*
G75*
G02*
X187200000Y-150150000I0J650000D01*
G01*
G37*
%TD.AperFunction*%
%TD*%
%TO.P,J11,1*%
%TO.N,/12V*%
%TA.AperFunction,ComponentPad*%
G36*
G01*
X172200000Y-150150000D02*
X172200000Y-148850000D01*
G75*
G02*
X172850000Y-148200000I650000J0D01*
G01*
X174150000Y-148200000D01*
G75*
G02*
X174800000Y-148850000I0J-650000D01*
G01*
X174800000Y-150150000D01*
G75*
G02*
X174150000Y-150800000I-650000J0D01*
G01*
X172850000Y-150800000D01*
G75*
G02*
X172200000Y-150150000I0J650000D01*
G01*
G37*
%TD.AperFunction*%
%TO.P,J11,2*%
%TO.N,/5V*%
%TA.AperFunction,ComponentPad*%
G36*
G01*
X177200000Y-150150000D02*
X177200000Y-148850000D01*
G75*
G02*
X177850000Y-148200000I650000J0D01*
G01*
X179150000Y-148200000D01*
G75*
G02*
X179800000Y-148850000I0J-650000D01*
G01*
X179800000Y-150150000D01*
G75*
G02*
X179150000Y-150800000I-650000J0D01*
G01*
X177850000Y-150800000D01*
G75*
G02*
X177200000Y-150150000I0J650000D01*
G01*
G37*
%TD.AperFunction*%
%TD*%
%TO.P,J10,1*%
%TO.N,/72V*%
%TA.AperFunction,ComponentPad*%
G36*
G01*
X162200000Y-150150000D02*
X162200000Y-148850000D01*
G75*
G02*
X162850000Y-148200000I650000J0D01*
G01*
X164150000Y-148200000D01*
G75*
G02*
X164800000Y-148850000I0J-650000D01*
G01*
X164800000Y-150150000D01*
G75*
G02*
X164150000Y-150800000I-650000J0D01*
G01*
X162850000Y-150800000D01*
G75*
G02*
X162200000Y-150150000I0J650000D01*
G01*
G37*
%TD.AperFunction*%
%TO.P,J10,2*%
%TO.N,/12V*%
%TA.AperFunction,ComponentPad*%
G36*
G01*
X167200000Y-150150000D02*
X167200000Y-148850000D01*
G75*
G02*
X167850000Y-148200000I650000J0D01*
G01*
X169150000Y-148200000D01*
G75*
G02*
X169800000Y-148850000I0J-650000D01*
G01*
X169800000Y-150150000D01*
G75*
G02*
X169150000Y-150800000I-650000J0D01*
G01*
X167850000Y-150800000D01*
G75*
G02*
X167200000Y-150150000I0J650000D01*
G01*
G37*
%TD.AperFunction*%
%TD*%
%TO.P,J9,1*%
%TO.N,/72V*%
%TA.AperFunction,ComponentPad*%
G36*
G01*
X152200000Y-150150000D02*
X152200000Y-148850000D01*
G75*
G02*
X152850000Y-148200000I650000J0D01*
G01*
X154150000Y-148200000D01*
G75*
G02*
X154800000Y-148850000I0J-650000D01*
G01*
X154800000Y-150150000D01*
G75*
G02*
X154150000Y-150800000I-650000J0D01*
G01*
X152850000Y-150800000D01*
G75*
G02*
X152200000Y-150150000I0J650000D01*
G01*
G37*
%TD.AperFunction*%
%TO.P,J9,2*%
%TA.AperFunction,ComponentPad*%
G36*
G01*
X157200000Y-150150000D02*
X157200000Y-148850000D01*
G75*
G02*
X157850000Y-148200000I650000J0D01*
G01*
X159150000Y-148200000D01*
G75*
G02*
X159800000Y-148850000I0J-650000D01*
G01*
X159800000Y-150150000D01*
G75*
G02*
X159150000Y-150800000I-650000J0D01*
G01*
X157850000Y-150800000D01*
G75*
G02*
X157200000Y-150150000I0J650000D01*
G01*
G37*
%TD.AperFunction*%
%TD*%
%TO.P,J8,1*%
%TO.N,/12V*%
%TA.AperFunction,ComponentPad*%
G36*
G01*
X145350000Y-134200000D02*
X146650000Y-134200000D01*
G75*
G02*
X147300000Y-134850000I0J-650000D01*
G01*
X147300000Y-136150000D01*
G75*
G02*
X146650000Y-136800000I-650000J0D01*
G01*
X145350000Y-136800000D01*
G75*
G02*
X144700000Y-136150000I0J650000D01*
G01*
X144700000Y-134850000D01*
G75*
G02*
X145350000Y-134200000I650000J0D01*
G01*
G37*
%TD.AperFunction*%
%TO.P,J8,2*%
%TO.N,/OP8*%
%TA.AperFunction,ComponentPad*%
G36*
G01*
X145350000Y-139200000D02*
X146650000Y-139200000D01*
G75*
G02*
X147300000Y-139850000I0J-650000D01*
G01*
X147300000Y-141150000D01*
G75*
G02*
X146650000Y-141800000I-650000J0D01*
G01*
X145350000Y-141800000D01*
G75*
G02*
X144700000Y-141150000I0J650000D01*
G01*
X144700000Y-139850000D01*
G75*
G02*
X145350000Y-139200000I650000J0D01*
G01*
G37*
%TD.AperFunction*%
%TD*%
%TO.P,J7,1*%
%TO.N,/12V*%
%TA.AperFunction,ComponentPad*%
G36*
G01*
X145350000Y-124200000D02*
X146650000Y-124200000D01*
G75*
G02*
X147300000Y-124850000I0J-650000D01*
G01*
X147300000Y-126150000D01*
G75*
G02*
X146650000Y-126800000I-650000J0D01*
G01*
X145350000Y-126800000D01*
G75*
G02*
X144700000Y-126150000I0J650000D01*
G01*
X144700000Y-124850000D01*
G75*
G02*
X145350000Y-124200000I650000J0D01*
G01*
G37*
%TD.AperFunction*%
%TO.P,J7,2*%
%TO.N,/OP7*%
%TA.AperFunction,ComponentPad*%
G36*
G01*
X145350000Y-129200000D02*
X146650000Y-129200000D01*
G75*
G02*
X147300000Y-129850000I0J-650000D01*
G01*
X147300000Y-131150000D01*
G75*
G02*
X146650000Y-131800000I-650000J0D01*
G01*
X145350000Y-131800000D01*
G75*
G02*
X144700000Y-131150000I0J650000D01*
G01*
X144700000Y-129850000D01*
G75*
G02*
X145350000Y-129200000I650000J0D01*
G01*
G37*
%TD.AperFunction*%
%TD*%
%TO.P,J6,1*%
%TO.N,/12V*%
%TA.AperFunction,ComponentPad*%
G36*
G01*
X145350000Y-114200000D02*
X146650000Y-114200000D01*
G75*
G02*
X147300000Y-114850000I0J-650000D01*
G01*
X147300000Y-116150000D01*
G75*
G02*
X146650000Y-116800000I-650000J0D01*
G01*
X145350000Y-116800000D01*
G75*
G02*
X144700000Y-116150000I0J650000D01*
G01*
X144700000Y-114850000D01*
G75*
G02*
X145350000Y-114200000I650000J0D01*
G01*
G37*
%TD.AperFunction*%
%TO.P,J6,2*%
%TO.N,/OP6*%
%TA.AperFunction,ComponentPad*%
G36*
G01*
X145350000Y-119200000D02*
X146650000Y-119200000D01*
G75*
G02*
X147300000Y-119850000I0J-650000D01*
G01*
X147300000Y-121150000D01*
G75*
G02*
X146650000Y-121800000I-650000J0D01*
G01*
X145350000Y-121800000D01*
G75*
G02*
X144700000Y-121150000I0J650000D01*
G01*
X144700000Y-119850000D01*
G75*
G02*
X145350000Y-119200000I650000J0D01*
G01*
G37*
%TD.AperFunction*%
%TD*%
%TO.P,J5,1*%
%TO.N,/12V*%
%TA.AperFunction,ComponentPad*%
G36*
G01*
X145350000Y-104200000D02*
X146650000Y-104200000D01*
G75*
G02*
X147300000Y-104850000I0J-650000D01*
G01*
X147300000Y-106150000D01*
G75*
G02*
X146650000Y-106800000I-650000J0D01*
G01*
X145350000Y-106800000D01*
G75*
G02*
X144700000Y-106150000I0J650000D01*
G01*
X144700000Y-104850000D01*
G75*
G02*
X145350000Y-104200000I650000J0D01*
G01*
G37*
%TD.AperFunction*%
%TO.P,J5,2*%
%TO.N,/OP5*%
%TA.AperFunction,ComponentPad*%
G36*
G01*
X145350000Y-109200000D02*
X146650000Y-109200000D01*
G75*
G02*
X147300000Y-109850000I0J-650000D01*
G01*
X147300000Y-111150000D01*
G75*
G02*
X146650000Y-111800000I-650000J0D01*
G01*
X145350000Y-111800000D01*
G75*
G02*
X144700000Y-111150000I0J650000D01*
G01*
X144700000Y-109850000D01*
G75*
G02*
X145350000Y-109200000I650000J0D01*
G01*
G37*
%TD.AperFunction*%
%TD*%
%TO.P,J4,1*%
%TO.N,/12V*%
%TA.AperFunction,ComponentPad*%
G36*
G01*
X145350000Y-94200000D02*
X146650000Y-94200000D01*
G75*
G02*
X147300000Y-94850000I0J-650000D01*
G01*
X147300000Y-96150000D01*
G75*
G02*
X146650000Y-96800000I-650000J0D01*
G01*
X145350000Y-96800000D01*
G75*
G02*
X144700000Y-96150000I0J650000D01*
G01*
X144700000Y-94850000D01*
G75*
G02*
X145350000Y-94200000I650000J0D01*
G01*
G37*
%TD.AperFunction*%
%TO.P,J4,2*%
%TO.N,/OP4*%
%TA.AperFunction,ComponentPad*%
G36*
G01*
X145350000Y-99200000D02*
X146650000Y-99200000D01*
G75*
G02*
X147300000Y-99850000I0J-650000D01*
G01*
X147300000Y-101150000D01*
G75*
G02*
X146650000Y-101800000I-650000J0D01*
G01*
X145350000Y-101800000D01*
G75*
G02*
X144700000Y-101150000I0J650000D01*
G01*
X144700000Y-99850000D01*
G75*
G02*
X145350000Y-99200000I650000J0D01*
G01*
G37*
%TD.AperFunction*%
%TD*%
%TO.P,J3,1*%
%TO.N,/12V*%
%TA.AperFunction,ComponentPad*%
G36*
G01*
X145350000Y-84200000D02*
X146650000Y-84200000D01*
G75*
G02*
X147300000Y-84850000I0J-650000D01*
G01*
X147300000Y-86150000D01*
G75*
G02*
X146650000Y-86800000I-650000J0D01*
G01*
X145350000Y-86800000D01*
G75*
G02*
X144700000Y-86150000I0J650000D01*
G01*
X144700000Y-84850000D01*
G75*
G02*
X145350000Y-84200000I650000J0D01*
G01*
G37*
%TD.AperFunction*%
%TO.P,J3,2*%
%TO.N,/OP3*%
%TA.AperFunction,ComponentPad*%
G36*
G01*
X145350000Y-89200000D02*
X146650000Y-89200000D01*
G75*
G02*
X147300000Y-89850000I0J-650000D01*
G01*
X147300000Y-91150000D01*
G75*
G02*
X146650000Y-91800000I-650000J0D01*
G01*
X145350000Y-91800000D01*
G75*
G02*
X144700000Y-91150000I0J650000D01*
G01*
X144700000Y-89850000D01*
G75*
G02*
X145350000Y-89200000I650000J0D01*
G01*
G37*
%TD.AperFunction*%
%TD*%
%TO.P,J2,1*%
%TO.N,/12V*%
%TA.AperFunction,ComponentPad*%
G36*
G01*
X145350000Y-74200000D02*
X146650000Y-74200000D01*
G75*
G02*
X147300000Y-74850000I0J-650000D01*
G01*
X147300000Y-76150000D01*
G75*
G02*
X146650000Y-76800000I-650000J0D01*
G01*
X145350000Y-76800000D01*
G75*
G02*
X144700000Y-76150000I0J650000D01*
G01*
X144700000Y-74850000D01*
G75*
G02*
X145350000Y-74200000I650000J0D01*
G01*
G37*
%TD.AperFunction*%
%TO.P,J2,2*%
%TO.N,/OP2*%
%TA.AperFunction,ComponentPad*%
G36*
G01*
X145350000Y-79200000D02*
X146650000Y-79200000D01*
G75*
G02*
X147300000Y-79850000I0J-650000D01*
G01*
X147300000Y-81150000D01*
G75*
G02*
X146650000Y-81800000I-650000J0D01*
G01*
X145350000Y-81800000D01*
G75*
G02*
X144700000Y-81150000I0J650000D01*
G01*
X144700000Y-79850000D01*
G75*
G02*
X145350000Y-79200000I650000J0D01*
G01*
G37*
%TD.AperFunction*%
%TD*%
%TO.P,J1,1*%
%TO.N,/12V*%
%TA.AperFunction,ComponentPad*%
G36*
G01*
X145350000Y-64200000D02*
X146650000Y-64200000D01*
G75*
G02*
X147300000Y-64850000I0J-650000D01*
G01*
X147300000Y-66150000D01*
G75*
G02*
X146650000Y-66800000I-650000J0D01*
G01*
X145350000Y-66800000D01*
G75*
G02*
X144700000Y-66150000I0J650000D01*
G01*
X144700000Y-64850000D01*
G75*
G02*
X145350000Y-64200000I650000J0D01*
G01*
G37*
%TD.AperFunction*%
%TO.P,J1,2*%
%TO.N,/OP1*%
%TA.AperFunction,ComponentPad*%
G36*
G01*
X145350000Y-69200000D02*
X146650000Y-69200000D01*
G75*
G02*
X147300000Y-69850000I0J-650000D01*
G01*
X147300000Y-71150000D01*
G75*
G02*
X146650000Y-71800000I-650000J0D01*
G01*
X145350000Y-71800000D01*
G75*
G02*
X144700000Y-71150000I0J650000D01*
G01*
X144700000Y-69850000D01*
G75*
G02*
X145350000Y-69200000I650000J0D01*
G01*
G37*
%TD.AperFunction*%
%TD*%
D16*
%TO.P,H4,1*%
%TO.N,N/C*%
X146697056Y-149302944D03*
X145000000Y-148600000D03*
X143302944Y-149302944D03*
X142600000Y-151000000D03*
X143302944Y-152697056D03*
X145000000Y-153400000D03*
X146697056Y-152697056D03*
X147400000Y-151000000D03*
D17*
X145000000Y-151000000D03*
%TD*%
D16*
%TO.P,H3,1*%
%TO.N,N/C*%
X238697056Y-57302944D03*
X237000000Y-56600000D03*
X235302944Y-57302944D03*
X234600000Y-59000000D03*
X235302944Y-60697056D03*
X237000000Y-61400000D03*
X238697056Y-60697056D03*
X239400000Y-59000000D03*
D17*
X237000000Y-59000000D03*
%TD*%
D16*
%TO.P,H2,1*%
%TO.N,N/C*%
X238697056Y-149302944D03*
X237000000Y-148600000D03*
X235302944Y-149302944D03*
X234600000Y-151000000D03*
X235302944Y-152697056D03*
X237000000Y-153400000D03*
X238697056Y-152697056D03*
X239400000Y-151000000D03*
D17*
X237000000Y-151000000D03*
%TD*%
D16*
%TO.P,H1,1*%
%TO.N,N/C*%
X146697056Y-57302944D03*
X145000000Y-56600000D03*
X143302944Y-57302944D03*
X142600000Y-59000000D03*
X143302944Y-60697056D03*
X145000000Y-61400000D03*
X146697056Y-60697056D03*
X147400000Y-59000000D03*
D17*
X145000000Y-59000000D03*
%TD*%
D18*
%TO.P,R29,2*%
%TO.N,/IN8*%
X228620000Y-135500000D03*
D19*
%TO.P,R29,1*%
%TO.N,Net-(JP9-Pad2)*%
X221000000Y-135500000D03*
%TD*%
D18*
%TO.P,R28,2*%
%TO.N,Net-(JP8-Pad2)*%
X221000000Y-125500000D03*
D19*
%TO.P,R28,1*%
%TO.N,/IN7*%
X228620000Y-125500000D03*
%TD*%
D18*
%TO.P,R27,2*%
%TO.N,/IN6*%
X228620000Y-115500000D03*
D19*
%TO.P,R27,1*%
%TO.N,Net-(JP7-Pad2)*%
X221000000Y-115500000D03*
%TD*%
D18*
%TO.P,R26,2*%
%TO.N,Net-(JP6-Pad2)*%
X221000000Y-105500000D03*
D19*
%TO.P,R26,1*%
%TO.N,/IN5*%
X228620000Y-105500000D03*
%TD*%
D18*
%TO.P,R25,2*%
%TO.N,/IN4*%
X228620000Y-95500000D03*
D19*
%TO.P,R25,1*%
%TO.N,Net-(JP5-Pad2)*%
X221000000Y-95500000D03*
%TD*%
D18*
%TO.P,R24,2*%
%TO.N,Net-(JP4-Pad2)*%
X221000000Y-85500000D03*
D19*
%TO.P,R24,1*%
%TO.N,/IN3*%
X228620000Y-85500000D03*
%TD*%
D18*
%TO.P,R23,2*%
%TO.N,/IN2*%
X228620000Y-75500000D03*
D19*
%TO.P,R23,1*%
%TO.N,Net-(JP3-Pad2)*%
X221000000Y-75500000D03*
%TD*%
D18*
%TO.P,R22,2*%
%TO.N,Net-(JP2-Pad2)*%
X221000000Y-65500000D03*
D19*
%TO.P,R22,1*%
%TO.N,/IN1*%
X228620000Y-65500000D03*
%TD*%
D18*
%TO.P,R21,2*%
%TO.N,Net-(JP1-Pad2)*%
X221000000Y-140500000D03*
D19*
%TO.P,R21,1*%
%TO.N,/BRAKE*%
X228620000Y-140500000D03*
%TD*%
D18*
%TO.P,R20,2*%
%TO.N,Net-(J19-PadB5)*%
X215120000Y-71000000D03*
D19*
%TO.P,R20,1*%
%TO.N,/5V*%
X207500000Y-71000000D03*
%TD*%
D18*
%TO.P,R19,2*%
%TO.N,Net-(J19-PadA5)*%
X215120000Y-68000000D03*
D19*
%TO.P,R19,1*%
%TO.N,/5V*%
X207500000Y-68000000D03*
%TD*%
D18*
%TO.P,R18,2*%
%TO.N,Net-(J18-PadB5)*%
X204120000Y-71000000D03*
D19*
%TO.P,R18,1*%
%TO.N,/5V*%
X196500000Y-71000000D03*
%TD*%
D18*
%TO.P,R17,2*%
%TO.N,Net-(J18-PadA5)*%
X204120000Y-68000000D03*
D19*
%TO.P,R17,1*%
%TO.N,/5V*%
X196500000Y-68000000D03*
%TD*%
D20*
%TO.P,J20,16*%
%TO.N,/GND*%
X235500000Y-65500000D03*
%TO.P,J20,15*%
%TO.N,/IN1*%
X235500000Y-70500000D03*
%TO.P,J20,14*%
%TO.N,/GND*%
X235500000Y-75500000D03*
%TO.P,J20,13*%
%TO.N,/IN2*%
X235500000Y-80500000D03*
%TO.P,J20,12*%
%TO.N,/GND*%
X235500000Y-85500000D03*
%TO.P,J20,11*%
%TO.N,/IN3*%
X235500000Y-90500000D03*
%TO.P,J20,10*%
%TO.N,/GND*%
X235500000Y-95500000D03*
%TO.P,J20,9*%
%TO.N,/IN4*%
X235500000Y-100500000D03*
%TO.P,J20,8*%
%TO.N,/GND*%
X235500000Y-105500000D03*
%TO.P,J20,7*%
%TO.N,/IN5*%
X235500000Y-110500000D03*
%TO.P,J20,6*%
%TO.N,/GND*%
X235500000Y-115500000D03*
%TO.P,J20,5*%
%TO.N,/IN6*%
X235500000Y-120500000D03*
%TO.P,J20,4*%
%TO.N,/GND*%
X235500000Y-125500000D03*
%TO.P,J20,3*%
%TO.N,/IN7*%
X235500000Y-130500000D03*
%TO.P,J20,2*%
%TO.N,/GND*%
X235500000Y-135500000D03*
D21*
%TO.P,J20,1*%
%TO.N,/IN8*%
X235500000Y-140500000D03*
%TD*%
%TO.P,R16,2*%
%TO.N,/GND*%
%TA.AperFunction,SMDPad,CuDef*%
G36*
G01*
X164100000Y-136549998D02*
X164100000Y-137450002D01*
G75*
G02*
X163850002Y-137700000I-249998J0D01*
G01*
X163324998Y-137700000D01*
G75*
G02*
X163075000Y-137450002I0J249998D01*
G01*
X163075000Y-136549998D01*
G75*
G02*
X163324998Y-136300000I249998J0D01*
G01*
X163850002Y-136300000D01*
G75*
G02*
X164100000Y-136549998I0J-249998D01*
G01*
G37*
%TD.AperFunction*%
%TO.P,R16,1*%
%TO.N,/OUT8*%
%TA.AperFunction,SMDPad,CuDef*%
G36*
G01*
X165925000Y-136549998D02*
X165925000Y-137450002D01*
G75*
G02*
X165675002Y-137700000I-249998J0D01*
G01*
X165149998Y-137700000D01*
G75*
G02*
X164900000Y-137450002I0J249998D01*
G01*
X164900000Y-136549998D01*
G75*
G02*
X165149998Y-136300000I249998J0D01*
G01*
X165675002Y-136300000D01*
G75*
G02*
X165925000Y-136549998I0J-249998D01*
G01*
G37*
%TD.AperFunction*%
%TD*%
%TO.P,R15,2*%
%TO.N,/GND*%
%TA.AperFunction,SMDPad,CuDef*%
G36*
G01*
X164100000Y-126549998D02*
X164100000Y-127450002D01*
G75*
G02*
X163850002Y-127700000I-249998J0D01*
G01*
X163324998Y-127700000D01*
G75*
G02*
X163075000Y-127450002I0J249998D01*
G01*
X163075000Y-126549998D01*
G75*
G02*
X163324998Y-126300000I249998J0D01*
G01*
X163850002Y-126300000D01*
G75*
G02*
X164100000Y-126549998I0J-249998D01*
G01*
G37*
%TD.AperFunction*%
%TO.P,R15,1*%
%TO.N,/OUT7*%
%TA.AperFunction,SMDPad,CuDef*%
G36*
G01*
X165925000Y-126549998D02*
X165925000Y-127450002D01*
G75*
G02*
X165675002Y-127700000I-249998J0D01*
G01*
X165149998Y-127700000D01*
G75*
G02*
X164900000Y-127450002I0J249998D01*
G01*
X164900000Y-126549998D01*
G75*
G02*
X165149998Y-126300000I249998J0D01*
G01*
X165675002Y-126300000D01*
G75*
G02*
X165925000Y-126549998I0J-249998D01*
G01*
G37*
%TD.AperFunction*%
%TD*%
%TO.P,R14,2*%
%TO.N,/OUT8*%
%TA.AperFunction,SMDPad,CuDef*%
G36*
G01*
X164900000Y-139450002D02*
X164900000Y-138549998D01*
G75*
G02*
X165149998Y-138300000I249998J0D01*
G01*
X165675002Y-138300000D01*
G75*
G02*
X165925000Y-138549998I0J-249998D01*
G01*
X165925000Y-139450002D01*
G75*
G02*
X165675002Y-139700000I-249998J0D01*
G01*
X165149998Y-139700000D01*
G75*
G02*
X164900000Y-139450002I0J249998D01*
G01*
G37*
%TD.AperFunction*%
%TO.P,R14,1*%
%TO.N,Net-(Q8-Pad1)*%
%TA.AperFunction,SMDPad,CuDef*%
G36*
G01*
X163075000Y-139450002D02*
X163075000Y-138549998D01*
G75*
G02*
X163324998Y-138300000I249998J0D01*
G01*
X163850002Y-138300000D01*
G75*
G02*
X164100000Y-138549998I0J-249998D01*
G01*
X164100000Y-139450002D01*
G75*
G02*
X163850002Y-139700000I-249998J0D01*
G01*
X163324998Y-139700000D01*
G75*
G02*
X163075000Y-139450002I0J249998D01*
G01*
G37*
%TD.AperFunction*%
%TD*%
%TO.P,R13,2*%
%TO.N,/OUT7*%
%TA.AperFunction,SMDPad,CuDef*%
G36*
G01*
X164900000Y-129450002D02*
X164900000Y-128549998D01*
G75*
G02*
X165149998Y-128300000I249998J0D01*
G01*
X165675002Y-128300000D01*
G75*
G02*
X165925000Y-128549998I0J-249998D01*
G01*
X165925000Y-129450002D01*
G75*
G02*
X165675002Y-129700000I-249998J0D01*
G01*
X165149998Y-129700000D01*
G75*
G02*
X164900000Y-129450002I0J249998D01*
G01*
G37*
%TD.AperFunction*%
%TO.P,R13,1*%
%TO.N,Net-(Q7-Pad1)*%
%TA.AperFunction,SMDPad,CuDef*%
G36*
G01*
X163075000Y-129450002D02*
X163075000Y-128549998D01*
G75*
G02*
X163324998Y-128300000I249998J0D01*
G01*
X163850002Y-128300000D01*
G75*
G02*
X164100000Y-128549998I0J-249998D01*
G01*
X164100000Y-129450002D01*
G75*
G02*
X163850002Y-129700000I-249998J0D01*
G01*
X163324998Y-129700000D01*
G75*
G02*
X163075000Y-129450002I0J249998D01*
G01*
G37*
%TD.AperFunction*%
%TD*%
%TO.P,R12,2*%
%TO.N,/GND*%
%TA.AperFunction,SMDPad,CuDef*%
G36*
G01*
X164100000Y-116549998D02*
X164100000Y-117450002D01*
G75*
G02*
X163850002Y-117700000I-249998J0D01*
G01*
X163324998Y-117700000D01*
G75*
G02*
X163075000Y-117450002I0J249998D01*
G01*
X163075000Y-116549998D01*
G75*
G02*
X163324998Y-116300000I249998J0D01*
G01*
X163850002Y-116300000D01*
G75*
G02*
X164100000Y-116549998I0J-249998D01*
G01*
G37*
%TD.AperFunction*%
%TO.P,R12,1*%
%TO.N,/OUT6*%
%TA.AperFunction,SMDPad,CuDef*%
G36*
G01*
X165925000Y-116549998D02*
X165925000Y-117450002D01*
G75*
G02*
X165675002Y-117700000I-249998J0D01*
G01*
X165149998Y-117700000D01*
G75*
G02*
X164900000Y-117450002I0J249998D01*
G01*
X164900000Y-116549998D01*
G75*
G02*
X165149998Y-116300000I249998J0D01*
G01*
X165675002Y-116300000D01*
G75*
G02*
X165925000Y-116549998I0J-249998D01*
G01*
G37*
%TD.AperFunction*%
%TD*%
%TO.P,R11,2*%
%TO.N,/GND*%
%TA.AperFunction,SMDPad,CuDef*%
G36*
G01*
X164100000Y-106549998D02*
X164100000Y-107450002D01*
G75*
G02*
X163850002Y-107700000I-249998J0D01*
G01*
X163324998Y-107700000D01*
G75*
G02*
X163075000Y-107450002I0J249998D01*
G01*
X163075000Y-106549998D01*
G75*
G02*
X163324998Y-106300000I249998J0D01*
G01*
X163850002Y-106300000D01*
G75*
G02*
X164100000Y-106549998I0J-249998D01*
G01*
G37*
%TD.AperFunction*%
%TO.P,R11,1*%
%TO.N,/OUT5*%
%TA.AperFunction,SMDPad,CuDef*%
G36*
G01*
X165925000Y-106549998D02*
X165925000Y-107450002D01*
G75*
G02*
X165675002Y-107700000I-249998J0D01*
G01*
X165149998Y-107700000D01*
G75*
G02*
X164900000Y-107450002I0J249998D01*
G01*
X164900000Y-106549998D01*
G75*
G02*
X165149998Y-106300000I249998J0D01*
G01*
X165675002Y-106300000D01*
G75*
G02*
X165925000Y-106549998I0J-249998D01*
G01*
G37*
%TD.AperFunction*%
%TD*%
%TO.P,R10,2*%
%TO.N,/OUT6*%
%TA.AperFunction,SMDPad,CuDef*%
G36*
G01*
X164900000Y-119450002D02*
X164900000Y-118549998D01*
G75*
G02*
X165149998Y-118300000I249998J0D01*
G01*
X165675002Y-118300000D01*
G75*
G02*
X165925000Y-118549998I0J-249998D01*
G01*
X165925000Y-119450002D01*
G75*
G02*
X165675002Y-119700000I-249998J0D01*
G01*
X165149998Y-119700000D01*
G75*
G02*
X164900000Y-119450002I0J249998D01*
G01*
G37*
%TD.AperFunction*%
%TO.P,R10,1*%
%TO.N,Net-(Q6-Pad1)*%
%TA.AperFunction,SMDPad,CuDef*%
G36*
G01*
X163075000Y-119450002D02*
X163075000Y-118549998D01*
G75*
G02*
X163324998Y-118300000I249998J0D01*
G01*
X163850002Y-118300000D01*
G75*
G02*
X164100000Y-118549998I0J-249998D01*
G01*
X164100000Y-119450002D01*
G75*
G02*
X163850002Y-119700000I-249998J0D01*
G01*
X163324998Y-119700000D01*
G75*
G02*
X163075000Y-119450002I0J249998D01*
G01*
G37*
%TD.AperFunction*%
%TD*%
%TO.P,R9,2*%
%TO.N,/OUT5*%
%TA.AperFunction,SMDPad,CuDef*%
G36*
G01*
X164900000Y-109450002D02*
X164900000Y-108549998D01*
G75*
G02*
X165149998Y-108300000I249998J0D01*
G01*
X165675002Y-108300000D01*
G75*
G02*
X165925000Y-108549998I0J-249998D01*
G01*
X165925000Y-109450002D01*
G75*
G02*
X165675002Y-109700000I-249998J0D01*
G01*
X165149998Y-109700000D01*
G75*
G02*
X164900000Y-109450002I0J249998D01*
G01*
G37*
%TD.AperFunction*%
%TO.P,R9,1*%
%TO.N,Net-(Q5-Pad1)*%
%TA.AperFunction,SMDPad,CuDef*%
G36*
G01*
X163075000Y-109450002D02*
X163075000Y-108549998D01*
G75*
G02*
X163324998Y-108300000I249998J0D01*
G01*
X163850002Y-108300000D01*
G75*
G02*
X164100000Y-108549998I0J-249998D01*
G01*
X164100000Y-109450002D01*
G75*
G02*
X163850002Y-109700000I-249998J0D01*
G01*
X163324998Y-109700000D01*
G75*
G02*
X163075000Y-109450002I0J249998D01*
G01*
G37*
%TD.AperFunction*%
%TD*%
%TO.P,R8,2*%
%TO.N,/GND*%
%TA.AperFunction,SMDPad,CuDef*%
G36*
G01*
X164100000Y-96549998D02*
X164100000Y-97450002D01*
G75*
G02*
X163850002Y-97700000I-249998J0D01*
G01*
X163324998Y-97700000D01*
G75*
G02*
X163075000Y-97450002I0J249998D01*
G01*
X163075000Y-96549998D01*
G75*
G02*
X163324998Y-96300000I249998J0D01*
G01*
X163850002Y-96300000D01*
G75*
G02*
X164100000Y-96549998I0J-249998D01*
G01*
G37*
%TD.AperFunction*%
%TO.P,R8,1*%
%TO.N,/OUT4*%
%TA.AperFunction,SMDPad,CuDef*%
G36*
G01*
X165925000Y-96549998D02*
X165925000Y-97450002D01*
G75*
G02*
X165675002Y-97700000I-249998J0D01*
G01*
X165149998Y-97700000D01*
G75*
G02*
X164900000Y-97450002I0J249998D01*
G01*
X164900000Y-96549998D01*
G75*
G02*
X165149998Y-96300000I249998J0D01*
G01*
X165675002Y-96300000D01*
G75*
G02*
X165925000Y-96549998I0J-249998D01*
G01*
G37*
%TD.AperFunction*%
%TD*%
%TO.P,R7,2*%
%TO.N,/GND*%
%TA.AperFunction,SMDPad,CuDef*%
G36*
G01*
X164100000Y-86549998D02*
X164100000Y-87450002D01*
G75*
G02*
X163850002Y-87700000I-249998J0D01*
G01*
X163324998Y-87700000D01*
G75*
G02*
X163075000Y-87450002I0J249998D01*
G01*
X163075000Y-86549998D01*
G75*
G02*
X163324998Y-86300000I249998J0D01*
G01*
X163850002Y-86300000D01*
G75*
G02*
X164100000Y-86549998I0J-249998D01*
G01*
G37*
%TD.AperFunction*%
%TO.P,R7,1*%
%TO.N,/OUT3*%
%TA.AperFunction,SMDPad,CuDef*%
G36*
G01*
X165925000Y-86549998D02*
X165925000Y-87450002D01*
G75*
G02*
X165675002Y-87700000I-249998J0D01*
G01*
X165149998Y-87700000D01*
G75*
G02*
X164900000Y-87450002I0J249998D01*
G01*
X164900000Y-86549998D01*
G75*
G02*
X165149998Y-86300000I249998J0D01*
G01*
X165675002Y-86300000D01*
G75*
G02*
X165925000Y-86549998I0J-249998D01*
G01*
G37*
%TD.AperFunction*%
%TD*%
%TO.P,R6,2*%
%TO.N,/OUT4*%
%TA.AperFunction,SMDPad,CuDef*%
G36*
G01*
X164900000Y-99450002D02*
X164900000Y-98549998D01*
G75*
G02*
X165149998Y-98300000I249998J0D01*
G01*
X165675002Y-98300000D01*
G75*
G02*
X165925000Y-98549998I0J-249998D01*
G01*
X165925000Y-99450002D01*
G75*
G02*
X165675002Y-99700000I-249998J0D01*
G01*
X165149998Y-99700000D01*
G75*
G02*
X164900000Y-99450002I0J249998D01*
G01*
G37*
%TD.AperFunction*%
%TO.P,R6,1*%
%TO.N,Net-(Q4-Pad1)*%
%TA.AperFunction,SMDPad,CuDef*%
G36*
G01*
X163075000Y-99450002D02*
X163075000Y-98549998D01*
G75*
G02*
X163324998Y-98300000I249998J0D01*
G01*
X163850002Y-98300000D01*
G75*
G02*
X164100000Y-98549998I0J-249998D01*
G01*
X164100000Y-99450002D01*
G75*
G02*
X163850002Y-99700000I-249998J0D01*
G01*
X163324998Y-99700000D01*
G75*
G02*
X163075000Y-99450002I0J249998D01*
G01*
G37*
%TD.AperFunction*%
%TD*%
%TO.P,R5,2*%
%TO.N,/OUT3*%
%TA.AperFunction,SMDPad,CuDef*%
G36*
G01*
X164900000Y-89450002D02*
X164900000Y-88549998D01*
G75*
G02*
X165149998Y-88300000I249998J0D01*
G01*
X165675002Y-88300000D01*
G75*
G02*
X165925000Y-88549998I0J-249998D01*
G01*
X165925000Y-89450002D01*
G75*
G02*
X165675002Y-89700000I-249998J0D01*
G01*
X165149998Y-89700000D01*
G75*
G02*
X164900000Y-89450002I0J249998D01*
G01*
G37*
%TD.AperFunction*%
%TO.P,R5,1*%
%TO.N,Net-(Q3-Pad1)*%
%TA.AperFunction,SMDPad,CuDef*%
G36*
G01*
X163075000Y-89450002D02*
X163075000Y-88549998D01*
G75*
G02*
X163324998Y-88300000I249998J0D01*
G01*
X163850002Y-88300000D01*
G75*
G02*
X164100000Y-88549998I0J-249998D01*
G01*
X164100000Y-89450002D01*
G75*
G02*
X163850002Y-89700000I-249998J0D01*
G01*
X163324998Y-89700000D01*
G75*
G02*
X163075000Y-89450002I0J249998D01*
G01*
G37*
%TD.AperFunction*%
%TD*%
%TO.P,R4,2*%
%TO.N,/GND*%
%TA.AperFunction,SMDPad,CuDef*%
G36*
G01*
X172100000Y-75049998D02*
X172100000Y-75950002D01*
G75*
G02*
X171850002Y-76200000I-249998J0D01*
G01*
X171324998Y-76200000D01*
G75*
G02*
X171075000Y-75950002I0J249998D01*
G01*
X171075000Y-75049998D01*
G75*
G02*
X171324998Y-74800000I249998J0D01*
G01*
X171850002Y-74800000D01*
G75*
G02*
X172100000Y-75049998I0J-249998D01*
G01*
G37*
%TD.AperFunction*%
%TO.P,R4,1*%
%TO.N,/OUT2*%
%TA.AperFunction,SMDPad,CuDef*%
G36*
G01*
X173925000Y-75049998D02*
X173925000Y-75950002D01*
G75*
G02*
X173675002Y-76200000I-249998J0D01*
G01*
X173149998Y-76200000D01*
G75*
G02*
X172900000Y-75950002I0J249998D01*
G01*
X172900000Y-75049998D01*
G75*
G02*
X173149998Y-74800000I249998J0D01*
G01*
X173675002Y-74800000D01*
G75*
G02*
X173925000Y-75049998I0J-249998D01*
G01*
G37*
%TD.AperFunction*%
%TD*%
%TO.P,R3,2*%
%TO.N,/GND*%
%TA.AperFunction,SMDPad,CuDef*%
G36*
G01*
X172100000Y-65049998D02*
X172100000Y-65950002D01*
G75*
G02*
X171850002Y-66200000I-249998J0D01*
G01*
X171324998Y-66200000D01*
G75*
G02*
X171075000Y-65950002I0J249998D01*
G01*
X171075000Y-65049998D01*
G75*
G02*
X171324998Y-64800000I249998J0D01*
G01*
X171850002Y-64800000D01*
G75*
G02*
X172100000Y-65049998I0J-249998D01*
G01*
G37*
%TD.AperFunction*%
%TO.P,R3,1*%
%TO.N,/OUT1*%
%TA.AperFunction,SMDPad,CuDef*%
G36*
G01*
X173925000Y-65049998D02*
X173925000Y-65950002D01*
G75*
G02*
X173675002Y-66200000I-249998J0D01*
G01*
X173149998Y-66200000D01*
G75*
G02*
X172900000Y-65950002I0J249998D01*
G01*
X172900000Y-65049998D01*
G75*
G02*
X173149998Y-64800000I249998J0D01*
G01*
X173675002Y-64800000D01*
G75*
G02*
X173925000Y-65049998I0J-249998D01*
G01*
G37*
%TD.AperFunction*%
%TD*%
%TO.P,R2,2*%
%TO.N,/OUT2*%
%TA.AperFunction,SMDPad,CuDef*%
G36*
G01*
X172900000Y-80950002D02*
X172900000Y-80049998D01*
G75*
G02*
X173149998Y-79800000I249998J0D01*
G01*
X173675002Y-79800000D01*
G75*
G02*
X173925000Y-80049998I0J-249998D01*
G01*
X173925000Y-80950002D01*
G75*
G02*
X173675002Y-81200000I-249998J0D01*
G01*
X173149998Y-81200000D01*
G75*
G02*
X172900000Y-80950002I0J249998D01*
G01*
G37*
%TD.AperFunction*%
%TO.P,R2,1*%
%TO.N,Net-(Q2-Pad1)*%
%TA.AperFunction,SMDPad,CuDef*%
G36*
G01*
X171075000Y-80950002D02*
X171075000Y-80049998D01*
G75*
G02*
X171324998Y-79800000I249998J0D01*
G01*
X171850002Y-79800000D01*
G75*
G02*
X172100000Y-80049998I0J-249998D01*
G01*
X172100000Y-80950002D01*
G75*
G02*
X171850002Y-81200000I-249998J0D01*
G01*
X171324998Y-81200000D01*
G75*
G02*
X171075000Y-80950002I0J249998D01*
G01*
G37*
%TD.AperFunction*%
%TD*%
%TO.P,R1,2*%
%TO.N,/OUT1*%
%TA.AperFunction,SMDPad,CuDef*%
G36*
G01*
X172900000Y-70950002D02*
X172900000Y-70049998D01*
G75*
G02*
X173149998Y-69800000I249998J0D01*
G01*
X173675002Y-69800000D01*
G75*
G02*
X173925000Y-70049998I0J-249998D01*
G01*
X173925000Y-70950002D01*
G75*
G02*
X173675002Y-71200000I-249998J0D01*
G01*
X173149998Y-71200000D01*
G75*
G02*
X172900000Y-70950002I0J249998D01*
G01*
G37*
%TD.AperFunction*%
%TO.P,R1,1*%
%TO.N,Net-(Q1-Pad1)*%
%TA.AperFunction,SMDPad,CuDef*%
G36*
G01*
X171075000Y-70950002D02*
X171075000Y-70049998D01*
G75*
G02*
X171324998Y-69800000I249998J0D01*
G01*
X171850002Y-69800000D01*
G75*
G02*
X172100000Y-70049998I0J-249998D01*
G01*
X172100000Y-70950002D01*
G75*
G02*
X171850002Y-71200000I-249998J0D01*
G01*
X171324998Y-71200000D01*
G75*
G02*
X171075000Y-70950002I0J249998D01*
G01*
G37*
%TD.AperFunction*%
%TD*%
D22*
%TO.P,Q8,3*%
%TO.N,/OP8*%
X159500000Y-138000000D03*
%TO.P,Q8,2*%
%TO.N,/GND*%
X161500000Y-137050000D03*
%TO.P,Q8,1*%
%TO.N,Net-(Q8-Pad1)*%
X161500000Y-138950000D03*
%TD*%
%TO.P,Q7,3*%
%TO.N,/OP7*%
X159500000Y-128000000D03*
%TO.P,Q7,2*%
%TO.N,/GND*%
X161500000Y-127050000D03*
%TO.P,Q7,1*%
%TO.N,Net-(Q7-Pad1)*%
X161500000Y-128950000D03*
%TD*%
%TO.P,Q6,3*%
%TO.N,/OP6*%
X159500000Y-118000000D03*
%TO.P,Q6,2*%
%TO.N,/GND*%
X161500000Y-117050000D03*
%TO.P,Q6,1*%
%TO.N,Net-(Q6-Pad1)*%
X161500000Y-118950000D03*
%TD*%
%TO.P,Q5,3*%
%TO.N,/OP5*%
X159500000Y-108000000D03*
%TO.P,Q5,2*%
%TO.N,/GND*%
X161500000Y-107050000D03*
%TO.P,Q5,1*%
%TO.N,Net-(Q5-Pad1)*%
X161500000Y-108950000D03*
%TD*%
%TO.P,Q4,3*%
%TO.N,/OP4*%
X159500000Y-98000000D03*
%TO.P,Q4,2*%
%TO.N,/GND*%
X161500000Y-97050000D03*
%TO.P,Q4,1*%
%TO.N,Net-(Q4-Pad1)*%
X161500000Y-98950000D03*
%TD*%
%TO.P,Q3,3*%
%TO.N,/OP3*%
X159500000Y-88000000D03*
%TO.P,Q3,2*%
%TO.N,/GND*%
X161500000Y-87050000D03*
%TO.P,Q3,1*%
%TO.N,Net-(Q3-Pad1)*%
X161500000Y-88950000D03*
%TD*%
D23*
%TO.P,J19,A1*%
%TO.N,/GND*%
X214475000Y-62025000D03*
%TO.P,J19,A4*%
%TO.N,/5V*%
X213625000Y-62025000D03*
%TO.P,J19,A5*%
%TO.N,Net-(J19-PadA5)*%
X212775000Y-62025000D03*
%TO.P,J19,A6*%
%TO.N,Net-(J19-PadA6)*%
X211925000Y-62025000D03*
%TO.P,J19,A7*%
%TO.N,Net-(J19-PadA7)*%
X211075000Y-62025000D03*
%TO.P,J19,A8*%
%TO.N,Net-(J19-PadA8)*%
X210225000Y-62025000D03*
%TO.P,J19,A9*%
%TO.N,/5V*%
X209375000Y-62025000D03*
%TO.P,J19,A12*%
%TO.N,/GND*%
X208525000Y-62025000D03*
%TO.P,J19,B1*%
X208525000Y-60675000D03*
%TO.P,J19,B4*%
%TO.N,/5V*%
X209375000Y-60675000D03*
%TO.P,J19,B5*%
%TO.N,Net-(J19-PadB5)*%
X210225000Y-60675000D03*
%TO.P,J19,B6*%
%TO.N,Net-(J19-PadB6)*%
X211075000Y-60675000D03*
%TO.P,J19,B7*%
%TO.N,Net-(J19-PadB7)*%
X211925000Y-60675000D03*
%TO.P,J19,B8*%
%TO.N,Net-(J19-PadB8)*%
X212775000Y-60675000D03*
%TO.P,J19,B9*%
%TO.N,/5V*%
X213625000Y-60675000D03*
%TO.P,J19,B12*%
%TO.N,/GND*%
X214475000Y-60675000D03*
D24*
%TO.P,J19,S1*%
X215825000Y-61045000D03*
X207175000Y-61045000D03*
D25*
X207175000Y-57665000D03*
X215825000Y-57665000D03*
%TD*%
D23*
%TO.P,J18,A1*%
%TO.N,/GND*%
X203475000Y-62025000D03*
%TO.P,J18,A4*%
%TO.N,/5V*%
X202625000Y-62025000D03*
%TO.P,J18,A5*%
%TO.N,Net-(J18-PadA5)*%
X201775000Y-62025000D03*
%TO.P,J18,A6*%
%TO.N,Net-(J18-PadA6)*%
X200925000Y-62025000D03*
%TO.P,J18,A7*%
%TO.N,Net-(J18-PadA7)*%
X200075000Y-62025000D03*
%TO.P,J18,A8*%
%TO.N,Net-(J18-PadA8)*%
X199225000Y-62025000D03*
%TO.P,J18,A9*%
%TO.N,/5V*%
X198375000Y-62025000D03*
%TO.P,J18,A12*%
%TO.N,/GND*%
X197525000Y-62025000D03*
%TO.P,J18,B1*%
X197525000Y-60675000D03*
%TO.P,J18,B4*%
%TO.N,/5V*%
X198375000Y-60675000D03*
%TO.P,J18,B5*%
%TO.N,Net-(J18-PadB5)*%
X199225000Y-60675000D03*
%TO.P,J18,B6*%
%TO.N,Net-(J18-PadB6)*%
X200075000Y-60675000D03*
%TO.P,J18,B7*%
%TO.N,Net-(J18-PadB7)*%
X200925000Y-60675000D03*
%TO.P,J18,B8*%
%TO.N,Net-(J18-PadB8)*%
X201775000Y-60675000D03*
%TO.P,J18,B9*%
%TO.N,/5V*%
X202625000Y-60675000D03*
%TO.P,J18,B12*%
%TO.N,/GND*%
X203475000Y-60675000D03*
D24*
%TO.P,J18,S1*%
X204825000Y-61045000D03*
X196175000Y-61045000D03*
D25*
X196175000Y-57665000D03*
X204825000Y-57665000D03*
%TD*%
D26*
%TO.P,J17,9*%
%TO.N,/GND*%
X178930000Y-64350000D03*
X192070000Y-64350000D03*
%TO.P,J17,1*%
%TO.N,/5V*%
%TA.AperFunction,ComponentPad*%
G36*
G01*
X189750000Y-63625000D02*
X189750000Y-64375000D01*
G75*
G02*
X189375000Y-64750000I-375000J0D01*
G01*
X188625000Y-64750000D01*
G75*
G02*
X188250000Y-64375000I0J375000D01*
G01*
X188250000Y-63625000D01*
G75*
G02*
X188625000Y-63250000I375000J0D01*
G01*
X189375000Y-63250000D01*
G75*
G02*
X189750000Y-63625000I0J-375000D01*
G01*
G37*
%TD.AperFunction*%
%TO.P,J17,2*%
%TO.N,Net-(J17-Pad2)*%
%TA.AperFunction,ComponentPad*%
G36*
G01*
X187250000Y-63625000D02*
X187250000Y-64375000D01*
G75*
G02*
X186875000Y-64750000I-375000J0D01*
G01*
X186125000Y-64750000D01*
G75*
G02*
X185750000Y-64375000I0J375000D01*
G01*
X185750000Y-63625000D01*
G75*
G02*
X186125000Y-63250000I375000J0D01*
G01*
X186875000Y-63250000D01*
G75*
G02*
X187250000Y-63625000I0J-375000D01*
G01*
G37*
%TD.AperFunction*%
%TO.P,J17,3*%
%TO.N,Net-(J17-Pad3)*%
%TA.AperFunction,ComponentPad*%
G36*
G01*
X185250000Y-63625000D02*
X185250000Y-64375000D01*
G75*
G02*
X184875000Y-64750000I-375000J0D01*
G01*
X184125000Y-64750000D01*
G75*
G02*
X183750000Y-64375000I0J375000D01*
G01*
X183750000Y-63625000D01*
G75*
G02*
X184125000Y-63250000I375000J0D01*
G01*
X184875000Y-63250000D01*
G75*
G02*
X185250000Y-63625000I0J-375000D01*
G01*
G37*
%TD.AperFunction*%
%TO.P,J17,4*%
%TO.N,/GND*%
%TA.AperFunction,ComponentPad*%
G36*
G01*
X182750000Y-63625000D02*
X182750000Y-64375000D01*
G75*
G02*
X182375000Y-64750000I-375000J0D01*
G01*
X181625000Y-64750000D01*
G75*
G02*
X181250000Y-64375000I0J375000D01*
G01*
X181250000Y-63625000D01*
G75*
G02*
X181625000Y-63250000I375000J0D01*
G01*
X182375000Y-63250000D01*
G75*
G02*
X182750000Y-63625000I0J-375000D01*
G01*
G37*
%TD.AperFunction*%
%TO.P,J17,9*%
X192070000Y-58670000D03*
X178930000Y-58670000D03*
%TO.P,J17,5*%
%TO.N,/5V*%
%TA.AperFunction,ComponentPad*%
G36*
G01*
X189750000Y-61005000D02*
X189750000Y-61755000D01*
G75*
G02*
X189375000Y-62130000I-375000J0D01*
G01*
X188625000Y-62130000D01*
G75*
G02*
X188250000Y-61755000I0J375000D01*
G01*
X188250000Y-61005000D01*
G75*
G02*
X188625000Y-60630000I375000J0D01*
G01*
X189375000Y-60630000D01*
G75*
G02*
X189750000Y-61005000I0J-375000D01*
G01*
G37*
%TD.AperFunction*%
%TO.P,J17,6*%
%TO.N,Net-(J17-Pad6)*%
%TA.AperFunction,ComponentPad*%
G36*
G01*
X187250000Y-61005000D02*
X187250000Y-61755000D01*
G75*
G02*
X186875000Y-62130000I-375000J0D01*
G01*
X186125000Y-62130000D01*
G75*
G02*
X185750000Y-61755000I0J375000D01*
G01*
X185750000Y-61005000D01*
G75*
G02*
X186125000Y-60630000I375000J0D01*
G01*
X186875000Y-60630000D01*
G75*
G02*
X187250000Y-61005000I0J-375000D01*
G01*
G37*
%TD.AperFunction*%
%TO.P,J17,7*%
%TO.N,Net-(J17-Pad7)*%
%TA.AperFunction,ComponentPad*%
G36*
G01*
X185250000Y-61005000D02*
X185250000Y-61755000D01*
G75*
G02*
X184875000Y-62130000I-375000J0D01*
G01*
X184125000Y-62130000D01*
G75*
G02*
X183750000Y-61755000I0J375000D01*
G01*
X183750000Y-61005000D01*
G75*
G02*
X184125000Y-60630000I375000J0D01*
G01*
X184875000Y-60630000D01*
G75*
G02*
X185250000Y-61005000I0J-375000D01*
G01*
G37*
%TD.AperFunction*%
%TO.P,J17,8*%
%TO.N,/GND*%
%TA.AperFunction,ComponentPad*%
G36*
G01*
X182750000Y-61005000D02*
X182750000Y-61755000D01*
G75*
G02*
X182375000Y-62130000I-375000J0D01*
G01*
X181625000Y-62130000D01*
G75*
G02*
X181250000Y-61755000I0J375000D01*
G01*
X181250000Y-61005000D01*
G75*
G02*
X181625000Y-60630000I375000J0D01*
G01*
X182375000Y-60630000D01*
G75*
G02*
X182750000Y-61005000I0J-375000D01*
G01*
G37*
%TD.AperFunction*%
%TD*%
D27*
%TO.P,D8,2*%
%TO.N,/OP8*%
X156000000Y-140150000D03*
%TO.P,D8,1*%
%TO.N,/12V*%
X156000000Y-135850000D03*
%TD*%
%TO.P,D7,2*%
%TO.N,/OP7*%
X156000000Y-130150000D03*
%TO.P,D7,1*%
%TO.N,/12V*%
X156000000Y-125850000D03*
%TD*%
%TO.P,D6,2*%
%TO.N,/OP6*%
X156000000Y-120150000D03*
%TO.P,D6,1*%
%TO.N,/12V*%
X156000000Y-115850000D03*
%TD*%
%TO.P,D5,2*%
%TO.N,/OP5*%
X156000000Y-110150000D03*
%TO.P,D5,1*%
%TO.N,/12V*%
X156000000Y-105850000D03*
%TD*%
%TO.P,D4,2*%
%TO.N,/OP4*%
X156000000Y-100150000D03*
%TO.P,D4,1*%
%TO.N,/12V*%
X156000000Y-95850000D03*
%TD*%
%TO.P,D3,2*%
%TO.N,/OP3*%
X156000000Y-90150000D03*
%TO.P,D3,1*%
%TO.N,/12V*%
X156000000Y-85850000D03*
%TD*%
%TO.P,D2,2*%
%TO.N,/OP2*%
X156000000Y-80150000D03*
%TO.P,D2,1*%
%TO.N,/12V*%
X156000000Y-75850000D03*
%TD*%
%TO.P,D1,2*%
%TO.N,/OP1*%
X156000000Y-70150000D03*
%TO.P,D1,1*%
%TO.N,/12V*%
X156000000Y-65850000D03*
%TD*%
D28*
%TO.N,/GND*%
X163600000Y-135600000D03*
X163600000Y-125600000D03*
X163600000Y-115600000D03*
X163600000Y-105600000D03*
X163600000Y-95600000D03*
X163600000Y-85600000D03*
X171600000Y-74100000D03*
X171600000Y-64100000D03*
%TO.N,/OP1*%
X152500000Y-57500000D03*
X152500000Y-60000000D03*
X155000000Y-60000000D03*
X155000000Y-57500000D03*
X157500000Y-57500000D03*
X157500000Y-60000000D03*
X160000000Y-60000000D03*
X160000000Y-57500000D03*
X162500000Y-57500000D03*
X162500000Y-60000000D03*
X165000000Y-60000000D03*
X165000000Y-57500000D03*
X165000000Y-62500000D03*
X162500000Y-62500000D03*
X160000000Y-62500000D03*
X160000000Y-65000000D03*
X162500000Y-65000000D03*
X165000000Y-65000000D03*
X152500000Y-62500000D03*
X155000000Y-62500000D03*
X157500000Y-62500000D03*
X165000000Y-71500000D03*
X162500000Y-71500000D03*
X160000000Y-71500000D03*
X152500000Y-71500000D03*
X150000000Y-71500000D03*
X150000000Y-69000000D03*
X152500000Y-69000000D03*
X167500000Y-57500000D03*
X167500000Y-60000000D03*
X167500000Y-62500000D03*
%TO.N,/OP2*%
X160000000Y-74500000D03*
X162500000Y-74500000D03*
X165000000Y-74500000D03*
X166000000Y-78000000D03*
X166000000Y-75500000D03*
X166000000Y-80500000D03*
X166000000Y-83000000D03*
X163500000Y-83000000D03*
X161000000Y-83000000D03*
X158500000Y-83000000D03*
X158500000Y-81500000D03*
X161000000Y-81500000D03*
X163500000Y-81500000D03*
X166000000Y-81500000D03*
X152500000Y-79000000D03*
X152500000Y-81500000D03*
X150000000Y-81500000D03*
X150000000Y-79000000D03*
%TD*%
D29*
%TO.N,/12V*%
X151650000Y-135850000D02*
X156000000Y-135850000D01*
X151300000Y-135500000D02*
X151650000Y-135850000D01*
X146000000Y-135500000D02*
X151300000Y-135500000D01*
X151850000Y-125850000D02*
X156000000Y-125850000D01*
X151500000Y-125500000D02*
X151850000Y-125850000D01*
X146000000Y-125500000D02*
X151500000Y-125500000D01*
X146000000Y-115500000D02*
X151300000Y-115500000D01*
X151650000Y-115850000D02*
X156000000Y-115850000D01*
X151300000Y-115500000D02*
X151650000Y-115850000D01*
X146000000Y-105500000D02*
X151300000Y-105500000D01*
X151650000Y-105850000D02*
X156000000Y-105850000D01*
X151300000Y-105500000D02*
X151650000Y-105850000D01*
X146000000Y-95500000D02*
X151400000Y-95500000D01*
X151750000Y-95850000D02*
X156000000Y-95850000D01*
X151400000Y-95500000D02*
X151750000Y-95850000D01*
X146000000Y-85500000D02*
X151300000Y-85500000D01*
X151650000Y-85850000D02*
X156000000Y-85850000D01*
X151300000Y-85500000D02*
X151650000Y-85850000D01*
X143400000Y-65500000D02*
X146000000Y-65500000D01*
X142225010Y-66674990D02*
X143400000Y-65500000D01*
X142400000Y-75500000D02*
X142225010Y-75325010D01*
X146000000Y-75500000D02*
X142400000Y-75500000D01*
X142225010Y-75325010D02*
X142225010Y-66674990D01*
X142250020Y-85500000D02*
X142225010Y-85474990D01*
X146000000Y-85500000D02*
X142250020Y-85500000D01*
X142225010Y-85474990D02*
X142225010Y-75325010D01*
X142300000Y-95500000D02*
X142225010Y-95574990D01*
X146000000Y-95500000D02*
X142300000Y-95500000D01*
X142225010Y-95574990D02*
X142225010Y-85474990D01*
X142300000Y-105500000D02*
X142225010Y-105425010D01*
X146000000Y-105500000D02*
X142300000Y-105500000D01*
X142225010Y-105425010D02*
X142225010Y-95574990D01*
X142250020Y-115500000D02*
X142225010Y-115474990D01*
X146000000Y-115500000D02*
X142250020Y-115500000D01*
X142225010Y-115474990D02*
X142225010Y-105425010D01*
X142400000Y-125500000D02*
X142225010Y-125325010D01*
X146000000Y-125500000D02*
X142400000Y-125500000D01*
X142225010Y-125325010D02*
X142225010Y-115474990D01*
X142225010Y-135574990D02*
X142225010Y-125325010D01*
X166300000Y-144300000D02*
X143700000Y-144300000D01*
X143700000Y-144300000D02*
X142225010Y-142825010D01*
X142300000Y-135500000D02*
X142225010Y-135574990D01*
X146000000Y-135500000D02*
X142300000Y-135500000D01*
X142225010Y-142825010D02*
X142225010Y-135574990D01*
X168500000Y-146500000D02*
X166300000Y-144300000D01*
X168500000Y-149500000D02*
X168500000Y-146500000D01*
X155650000Y-75500000D02*
X156000000Y-75850000D01*
X146000000Y-75500000D02*
X155650000Y-75500000D01*
X155650000Y-65500000D02*
X156000000Y-65850000D01*
X146000000Y-65500000D02*
X155650000Y-65500000D01*
D30*
%TO.N,/GND*%
X163537500Y-137050000D02*
X163587500Y-137000000D01*
X161500000Y-137050000D02*
X163537500Y-137050000D01*
X163537500Y-127050000D02*
X163587500Y-127000000D01*
X161500000Y-127050000D02*
X163537500Y-127050000D01*
X163537500Y-117050000D02*
X163587500Y-117000000D01*
X161500000Y-117050000D02*
X163537500Y-117050000D01*
X163537500Y-107050000D02*
X163587500Y-107000000D01*
X161500000Y-107050000D02*
X163537500Y-107050000D01*
X163537500Y-97050000D02*
X163587500Y-97000000D01*
X161500000Y-97050000D02*
X163537500Y-97050000D01*
X163537500Y-87050000D02*
X163587500Y-87000000D01*
X161500000Y-87050000D02*
X163537500Y-87050000D01*
X171373500Y-75714000D02*
X171587500Y-75500000D01*
X168643500Y-75714000D02*
X171373500Y-75714000D01*
X171373500Y-65714000D02*
X171587500Y-65500000D01*
X168643500Y-65714000D02*
X171373500Y-65714000D01*
X163587500Y-135612500D02*
X163600000Y-135600000D01*
X163587500Y-137000000D02*
X163587500Y-135612500D01*
X163587500Y-125612500D02*
X163600000Y-125600000D01*
X163587500Y-127000000D02*
X163587500Y-125612500D01*
X163587500Y-115612500D02*
X163600000Y-115600000D01*
X163587500Y-117000000D02*
X163587500Y-115612500D01*
X163587500Y-105612500D02*
X163600000Y-105600000D01*
X163587500Y-107000000D02*
X163587500Y-105612500D01*
X163587500Y-95612500D02*
X163600000Y-95600000D01*
X163587500Y-97000000D02*
X163587500Y-95612500D01*
X163587500Y-85612500D02*
X163600000Y-85600000D01*
X163587500Y-87000000D02*
X163587500Y-85612500D01*
X171587500Y-74112500D02*
X171600000Y-74100000D01*
X171587500Y-75500000D02*
X171587500Y-74112500D01*
X171587500Y-64112500D02*
X171600000Y-64100000D01*
X171587500Y-65500000D02*
X171587500Y-64112500D01*
D31*
%TO.N,/5V*%
X196500000Y-71000000D02*
X196500000Y-68000000D01*
X207500000Y-71000000D02*
X207500000Y-68000000D01*
X196500000Y-71000000D02*
X190000000Y-71000000D01*
X189000000Y-70000000D02*
X189000000Y-64000000D01*
X190000000Y-71000000D02*
X189000000Y-70000000D01*
X196500000Y-68000000D02*
X196500000Y-65600000D01*
X198375000Y-63725000D02*
X198375000Y-62025000D01*
X196500000Y-65600000D02*
X198375000Y-63725000D01*
X196500000Y-71000000D02*
X196500000Y-73000000D01*
X196500000Y-73000000D02*
X197400000Y-73900000D01*
X207500000Y-73100000D02*
X206700000Y-73900000D01*
X207500000Y-71000000D02*
X207500000Y-73100000D01*
X201900000Y-73900000D02*
X206700000Y-73900000D01*
X197400000Y-73900000D02*
X201900000Y-73900000D01*
X214320000Y-116236000D02*
X214320000Y-139980000D01*
X214320000Y-139980000D02*
X212900000Y-141400000D01*
X212900000Y-141400000D02*
X184600000Y-141400000D01*
X183500000Y-142500000D02*
X184600000Y-141400000D01*
X183500000Y-149500000D02*
X183500000Y-142500000D01*
X201900000Y-76100000D02*
X201900000Y-73900000D01*
X203900000Y-114400000D02*
X203900000Y-78100000D01*
X203900000Y-78100000D02*
X201900000Y-76100000D01*
X205736000Y-116236000D02*
X203900000Y-114400000D01*
X209240000Y-116236000D02*
X205736000Y-116236000D01*
X209375000Y-63625000D02*
X209375000Y-62025000D01*
X207500000Y-65500000D02*
X209375000Y-63625000D01*
X207500000Y-68000000D02*
X207500000Y-65500000D01*
X209240000Y-116236000D02*
X214320000Y-116236000D01*
%TO.N,/BRAKE*%
X228620000Y-149380000D02*
X228500000Y-149500000D01*
X228620000Y-140500000D02*
X228620000Y-149380000D01*
X221556000Y-111156000D02*
X214320000Y-111156000D01*
X223500000Y-113100000D02*
X221556000Y-111156000D01*
X223500000Y-135380000D02*
X223500000Y-113100000D01*
X228620000Y-140500000D02*
X223500000Y-135380000D01*
X209240000Y-111156000D02*
X214320000Y-111156000D01*
%TO.N,Net-(J18-PadA5)*%
X201775000Y-62025000D02*
X201775000Y-67375000D01*
X202400000Y-68000000D02*
X204120000Y-68000000D01*
X201775000Y-67375000D02*
X202400000Y-68000000D01*
%TO.N,Net-(J18-PadB5)*%
X204120000Y-71000000D02*
X205100000Y-71000000D01*
X205100000Y-71000000D02*
X206000000Y-70100000D01*
X206000000Y-70100000D02*
X206000000Y-59800000D01*
X206000000Y-59800000D02*
X205500000Y-59300000D01*
X205500000Y-59300000D02*
X199700000Y-59300000D01*
X199225000Y-59775000D02*
X199225000Y-60675000D01*
X199700000Y-59300000D02*
X199225000Y-59775000D01*
%TO.N,Net-(J19-PadA5)*%
X212775000Y-62025000D02*
X212775000Y-67275000D01*
X213500000Y-68000000D02*
X215120000Y-68000000D01*
X212775000Y-67275000D02*
X213500000Y-68000000D01*
%TO.N,Net-(J19-PadB5)*%
X215120000Y-71000000D02*
X216400000Y-71000000D01*
X216400000Y-71000000D02*
X217200000Y-70200000D01*
X217200000Y-70200000D02*
X217200000Y-59900000D01*
X217200000Y-59900000D02*
X216600000Y-59300000D01*
X216600000Y-59300000D02*
X210900000Y-59300000D01*
X210225000Y-59975000D02*
X210225000Y-60675000D01*
X210900000Y-59300000D02*
X210225000Y-59975000D01*
%TO.N,/IN8*%
X216616000Y-108616000D02*
X214320000Y-108616000D01*
X217500000Y-109500000D02*
X216616000Y-108616000D01*
X222500000Y-109500000D02*
X217500000Y-109500000D01*
X225000000Y-112000000D02*
X222500000Y-109500000D01*
X225000000Y-131880000D02*
X225000000Y-112000000D01*
X228620000Y-135500000D02*
X225000000Y-131880000D01*
X233620000Y-140500000D02*
X228620000Y-135500000D01*
X235500000Y-140500000D02*
X233620000Y-140500000D01*
X214320000Y-108616000D02*
X209240000Y-108616000D01*
%TO.N,/IN7*%
X218400000Y-108000000D02*
X216476000Y-106076000D01*
X223600000Y-108000000D02*
X218400000Y-108000000D01*
X216476000Y-106076000D02*
X214320000Y-106076000D01*
X226500000Y-110900000D02*
X223600000Y-108000000D01*
X226500000Y-123380000D02*
X226500000Y-110900000D01*
X228620000Y-125500000D02*
X226500000Y-123380000D01*
X233620000Y-130500000D02*
X228620000Y-125500000D01*
X235500000Y-130500000D02*
X233620000Y-130500000D01*
X209240000Y-106076000D02*
X214320000Y-106076000D01*
%TO.N,/IN6*%
X223436000Y-103536000D02*
X214320000Y-103536000D01*
X228620000Y-108720000D02*
X223436000Y-103536000D01*
X228620000Y-115500000D02*
X228620000Y-108720000D01*
X233620000Y-120500000D02*
X228620000Y-115500000D01*
X235500000Y-120500000D02*
X233620000Y-120500000D01*
X214320000Y-103536000D02*
X209240000Y-103536000D01*
%TO.N,/IN5*%
X224116000Y-100996000D02*
X214320000Y-100996000D01*
X228620000Y-105500000D02*
X224116000Y-100996000D01*
X233620000Y-110500000D02*
X228620000Y-105500000D01*
X235500000Y-110500000D02*
X233620000Y-110500000D01*
X209240000Y-100996000D02*
X214320000Y-100996000D01*
%TO.N,/IN4*%
X233800000Y-100500000D02*
X235500000Y-100500000D01*
X231756000Y-98456000D02*
X233800000Y-100500000D01*
X228620000Y-98432000D02*
X228644000Y-98456000D01*
X228620000Y-95500000D02*
X228620000Y-98432000D01*
X228644000Y-98456000D02*
X231756000Y-98456000D01*
X214320000Y-98456000D02*
X228644000Y-98456000D01*
X214320000Y-98456000D02*
X209240000Y-98456000D01*
%TO.N,/IN3*%
X215784000Y-95916000D02*
X214320000Y-95916000D01*
X218700000Y-93000000D02*
X215784000Y-95916000D01*
X222500000Y-93000000D02*
X218700000Y-93000000D01*
X225000000Y-90500000D02*
X224500000Y-91000000D01*
X224500000Y-91000000D02*
X222500000Y-93000000D01*
X228620000Y-85500000D02*
X228620000Y-90480000D01*
X228600000Y-90500000D02*
X225000000Y-90500000D01*
X228620000Y-90480000D02*
X228600000Y-90500000D01*
X235500000Y-90500000D02*
X228600000Y-90500000D01*
X209240000Y-95916000D02*
X214320000Y-95916000D01*
%TO.N,/IN2*%
X216574000Y-93376000D02*
X214320000Y-93376000D01*
X222000000Y-92000000D02*
X217950000Y-92000000D01*
X225500000Y-88500000D02*
X222000000Y-92000000D01*
X217950000Y-92000000D02*
X216574000Y-93376000D01*
X226500000Y-80500000D02*
X225500000Y-81500000D01*
X225500000Y-81500000D02*
X225500000Y-88500000D01*
X228620000Y-80480000D02*
X228600000Y-80500000D01*
X228620000Y-75500000D02*
X228620000Y-80480000D01*
X228600000Y-80500000D02*
X226500000Y-80500000D01*
X235500000Y-80500000D02*
X228600000Y-80500000D01*
X214320000Y-93376000D02*
X209240000Y-93376000D01*
%TO.N,/IN1*%
X221664000Y-90836000D02*
X214320000Y-90836000D01*
X224000000Y-88500000D02*
X221664000Y-90836000D01*
X225000000Y-70500000D02*
X224000000Y-71500000D01*
X224000000Y-71500000D02*
X224000000Y-88500000D01*
X228620000Y-70480000D02*
X228600000Y-70500000D01*
X228620000Y-65500000D02*
X228620000Y-70480000D01*
X228600000Y-70500000D02*
X225000000Y-70500000D01*
X235500000Y-70500000D02*
X228600000Y-70500000D01*
X209240000Y-90836000D02*
X214320000Y-90836000D01*
%TO.N,/3V3*%
X188920000Y-113696000D02*
X183840000Y-113696000D01*
%TO.N,Net-(Q1-Pad1)*%
X171373500Y-70286000D02*
X171587500Y-70500000D01*
X168643500Y-70286000D02*
X171373500Y-70286000D01*
%TO.N,Net-(Q2-Pad1)*%
X171373500Y-80286000D02*
X171587500Y-80500000D01*
X168643500Y-80286000D02*
X171373500Y-80286000D01*
%TO.N,Net-(Q3-Pad1)*%
X163537500Y-88950000D02*
X163587500Y-89000000D01*
X161500000Y-88950000D02*
X163537500Y-88950000D01*
%TO.N,Net-(Q4-Pad1)*%
X163537500Y-98950000D02*
X163587500Y-99000000D01*
X161500000Y-98950000D02*
X163537500Y-98950000D01*
%TO.N,Net-(Q5-Pad1)*%
X163537500Y-108950000D02*
X163587500Y-109000000D01*
X161500000Y-108950000D02*
X163537500Y-108950000D01*
%TO.N,Net-(Q6-Pad1)*%
X163537500Y-118950000D02*
X163587500Y-119000000D01*
X161500000Y-118950000D02*
X163537500Y-118950000D01*
%TO.N,Net-(Q7-Pad1)*%
X163537500Y-128950000D02*
X163587500Y-129000000D01*
X161500000Y-128950000D02*
X163537500Y-128950000D01*
%TO.N,Net-(Q8-Pad1)*%
X163537500Y-138950000D02*
X163587500Y-139000000D01*
X161500000Y-138950000D02*
X163537500Y-138950000D01*
%TO.N,/OUT1*%
X173412500Y-70500000D02*
X173412500Y-65500000D01*
X180500000Y-70500000D02*
X173412500Y-70500000D01*
X181500000Y-71500000D02*
X180500000Y-70500000D01*
X181500000Y-92500000D02*
X181500000Y-71500000D01*
X182376000Y-93376000D02*
X181500000Y-92500000D01*
X183840000Y-93376000D02*
X182376000Y-93376000D01*
X188920000Y-93376000D02*
X183840000Y-93376000D01*
%TO.N,/OUT2*%
X173412500Y-80500000D02*
X173412500Y-75500000D01*
X180500000Y-94000000D02*
X180500000Y-81500000D01*
X182416000Y-95916000D02*
X180500000Y-94000000D01*
X183840000Y-95916000D02*
X182416000Y-95916000D01*
X173412500Y-75500000D02*
X179500000Y-75500000D01*
X180500000Y-76500000D02*
X180500000Y-81500000D01*
X179500000Y-75500000D02*
X180500000Y-76500000D01*
X183840000Y-95916000D02*
X188920000Y-95916000D01*
%TO.N,/OUT3*%
X165412500Y-89000000D02*
X165412500Y-87000000D01*
X182456000Y-98456000D02*
X183840000Y-98456000D01*
X165412500Y-89000000D02*
X165412500Y-93412500D01*
X188920000Y-98456000D02*
X183840000Y-98456000D01*
X179300000Y-95300000D02*
X182456000Y-98456000D01*
X167300000Y-95300000D02*
X179300000Y-95300000D01*
X165412500Y-93412500D02*
X167300000Y-95300000D01*
%TO.N,/OUT4*%
X165412500Y-99000000D02*
X165412500Y-97000000D01*
X183840000Y-100996000D02*
X188920000Y-100996000D01*
X178608000Y-99000000D02*
X180604000Y-100996000D01*
X165412500Y-99000000D02*
X178608000Y-99000000D01*
X183840000Y-100996000D02*
X180604000Y-100996000D01*
%TO.N,/OUT5*%
X165412500Y-109000000D02*
X165412500Y-107000000D01*
X177250000Y-107000000D02*
X165412500Y-107000000D01*
X180714000Y-103536000D02*
X177250000Y-107000000D01*
X183840000Y-103536000D02*
X180714000Y-103536000D01*
X188920000Y-103536000D02*
X183840000Y-103536000D01*
%TO.N,/OUT6*%
X165412500Y-119000000D02*
X165412500Y-117000000D01*
X177500000Y-110000000D02*
X181424000Y-106076000D01*
X181424000Y-106076000D02*
X183840000Y-106076000D01*
X176500000Y-117000000D02*
X177500000Y-116000000D01*
X177500000Y-116000000D02*
X177500000Y-110000000D01*
X165412500Y-117000000D02*
X176500000Y-117000000D01*
X183840000Y-106076000D02*
X188920000Y-106076000D01*
%TO.N,/OUT7*%
X165412500Y-129000000D02*
X165412500Y-127000000D01*
X177500000Y-127000000D02*
X165412500Y-127000000D01*
X179000000Y-125500000D02*
X177500000Y-127000000D01*
X179000000Y-111250000D02*
X179000000Y-125500000D01*
X181888000Y-108362000D02*
X179000000Y-111250000D01*
X183840000Y-108362000D02*
X181888000Y-108362000D01*
X188920000Y-108362000D02*
X183840000Y-108362000D01*
%TO.N,/OUT8*%
X165412500Y-139000000D02*
X165412500Y-137000000D01*
X180500000Y-135250000D02*
X178750000Y-137000000D01*
X180500000Y-112500000D02*
X180500000Y-135250000D01*
X181844000Y-111156000D02*
X180500000Y-112500000D01*
X178750000Y-137000000D02*
X165412500Y-137000000D01*
X183840000Y-111156000D02*
X181844000Y-111156000D01*
X183840000Y-111156000D02*
X188920000Y-111156000D01*
%TO.N,Net-(U1-Pad1)*%
X183840000Y-80676000D02*
X188920000Y-80676000D01*
%TO.N,Net-(U1-Pad2)*%
X188920000Y-83216000D02*
X183840000Y-83216000D01*
%TO.N,Net-(U1-Pad3)*%
X183840000Y-85756000D02*
X188920000Y-85756000D01*
%TO.N,Net-(U1-Pad4)*%
X188920000Y-88296000D02*
X183840000Y-88296000D01*
%TO.N,Net-(U1-Pad5)*%
X183840000Y-90836000D02*
X188920000Y-90836000D01*
%TO.N,Net-(U1-Pad17)*%
X214320000Y-113696000D02*
X209240000Y-113696000D01*
%TO.N,Net-(U1-Pad31)*%
X192730000Y-119284000D02*
X192730000Y-124364000D01*
%TO.N,Net-(U1-Pad32)*%
X195270000Y-124364000D02*
X195270000Y-119284000D01*
%TO.N,Net-(U1-Pad33)*%
X197810000Y-119284000D02*
X197810000Y-124364000D01*
%TO.N,Net-(U1-Pad34)*%
X200350000Y-124364000D02*
X200350000Y-119284000D01*
%TO.N,Net-(U1-Pad35)*%
X202890000Y-119284000D02*
X202890000Y-124364000D01*
%TO.N,Net-(U1-Pad36)*%
X205430000Y-124364000D02*
X205430000Y-119284000D01*
%TO.N,Net-(U1-Pad27)*%
X214320000Y-88296000D02*
X209240000Y-88296000D01*
%TO.N,Net-(U1-Pad28)*%
X209240000Y-85756000D02*
X214320000Y-85756000D01*
%TO.N,Net-(U1-Pad29)*%
X214320000Y-83216000D02*
X209240000Y-83216000D01*
%TO.N,Net-(U1-Pad30)*%
X209240000Y-80676000D02*
X214320000Y-80676000D01*
D30*
%TO.N,/OP3*%
X146000000Y-90500000D02*
X151000000Y-90500000D01*
X151350000Y-90150000D02*
X156000000Y-90150000D01*
X151000000Y-90500000D02*
X151350000Y-90150000D01*
X156000000Y-90150000D02*
X159150000Y-90150000D01*
X159500000Y-89800000D02*
X159500000Y-88000000D01*
X159150000Y-90150000D02*
X159500000Y-89800000D01*
%TO.N,/OP4*%
X146000000Y-100500000D02*
X151400000Y-100500000D01*
X151750000Y-100150000D02*
X156000000Y-100150000D01*
X151400000Y-100500000D02*
X151750000Y-100150000D01*
X156000000Y-100150000D02*
X159250000Y-100150000D01*
X159500000Y-99900000D02*
X159500000Y-98000000D01*
X159250000Y-100150000D02*
X159500000Y-99900000D01*
%TO.N,/OP5*%
X146000000Y-110500000D02*
X151300000Y-110500000D01*
X151650000Y-110150000D02*
X156000000Y-110150000D01*
X151300000Y-110500000D02*
X151650000Y-110150000D01*
X156000000Y-110150000D02*
X159050000Y-110150000D01*
X159500000Y-109700000D02*
X159500000Y-108000000D01*
X159050000Y-110150000D02*
X159500000Y-109700000D01*
%TO.N,/OP6*%
X146000000Y-120500000D02*
X151500000Y-120500000D01*
X151850000Y-120150000D02*
X156000000Y-120150000D01*
X151500000Y-120500000D02*
X151850000Y-120150000D01*
X156000000Y-120150000D02*
X159150000Y-120150000D01*
X159500000Y-119800000D02*
X159500000Y-118000000D01*
X159150000Y-120150000D02*
X159500000Y-119800000D01*
%TO.N,/OP7*%
X151900000Y-130150000D02*
X156000000Y-130150000D01*
X151550000Y-130500000D02*
X151900000Y-130150000D01*
X146000000Y-130500000D02*
X151550000Y-130500000D01*
X159500000Y-129700000D02*
X159500000Y-128000000D01*
X159050000Y-130150000D02*
X159500000Y-129700000D01*
X156000000Y-130150000D02*
X159050000Y-130150000D01*
%TO.N,/OP8*%
X151750000Y-140150000D02*
X156000000Y-140150000D01*
X151400000Y-140500000D02*
X151750000Y-140150000D01*
X146000000Y-140500000D02*
X151400000Y-140500000D01*
X159500000Y-139700000D02*
X159500000Y-138000000D01*
X159050000Y-140150000D02*
X159500000Y-139700000D01*
X156000000Y-140150000D02*
X159050000Y-140150000D01*
%TD*%
D32*
%TO.N,/OP2*%
X166096257Y-74140769D02*
X166185955Y-74177923D01*
X166262976Y-74237024D01*
X166322077Y-74314045D01*
X166359231Y-74403743D01*
X166373000Y-74508328D01*
X166373000Y-82241672D01*
X166359231Y-82346257D01*
X166322077Y-82435955D01*
X166262976Y-82512976D01*
X166185955Y-82572077D01*
X166096257Y-82609231D01*
X165991672Y-82623000D01*
X145008328Y-82623000D01*
X144903743Y-82609231D01*
X144814045Y-82572077D01*
X144737024Y-82512976D01*
X144677923Y-82435955D01*
X144677898Y-82435895D01*
X144700000Y-82438072D01*
X145714250Y-82435000D01*
X145873000Y-82276250D01*
X145873000Y-80627000D01*
X146127000Y-80627000D01*
X146127000Y-82276250D01*
X146285750Y-82435000D01*
X147300000Y-82438072D01*
X147424482Y-82425812D01*
X147544180Y-82389502D01*
X147654494Y-82330537D01*
X147751185Y-82251185D01*
X147830537Y-82154494D01*
X147889502Y-82044180D01*
X147925812Y-81924482D01*
X147938072Y-81800000D01*
X147936861Y-81400000D01*
X154211928Y-81400000D01*
X154224188Y-81524482D01*
X154260498Y-81644180D01*
X154319463Y-81754494D01*
X154398815Y-81851185D01*
X154495506Y-81930537D01*
X154605820Y-81989502D01*
X154725518Y-82025812D01*
X154850000Y-82038072D01*
X155714250Y-82035000D01*
X155873000Y-81876250D01*
X155873000Y-80277000D01*
X156127000Y-80277000D01*
X156127000Y-81876250D01*
X156285750Y-82035000D01*
X157150000Y-82038072D01*
X157274482Y-82025812D01*
X157394180Y-81989502D01*
X157504494Y-81930537D01*
X157601185Y-81851185D01*
X157680537Y-81754494D01*
X157739502Y-81644180D01*
X157775812Y-81524482D01*
X157788072Y-81400000D01*
X157785000Y-80435750D01*
X157626250Y-80277000D01*
X156127000Y-80277000D01*
X155873000Y-80277000D01*
X154373750Y-80277000D01*
X154215000Y-80435750D01*
X154211928Y-81400000D01*
X147936861Y-81400000D01*
X147935000Y-80785750D01*
X147776250Y-80627000D01*
X146127000Y-80627000D01*
X145873000Y-80627000D01*
X145853000Y-80627000D01*
X145853000Y-80373000D01*
X145873000Y-80373000D01*
X145873000Y-78723750D01*
X146127000Y-78723750D01*
X146127000Y-80373000D01*
X147776250Y-80373000D01*
X147935000Y-80214250D01*
X147938072Y-79200000D01*
X147925812Y-79075518D01*
X147889502Y-78955820D01*
X147830537Y-78845506D01*
X147751185Y-78748815D01*
X147654494Y-78669463D01*
X147544180Y-78610498D01*
X147424482Y-78574188D01*
X147300000Y-78561928D01*
X146285750Y-78565000D01*
X146127000Y-78723750D01*
X145873000Y-78723750D01*
X145714250Y-78565000D01*
X144700000Y-78561928D01*
X144677898Y-78564105D01*
X144677923Y-78564045D01*
X144737024Y-78487024D01*
X144814045Y-78427923D01*
X144903743Y-78390769D01*
X145008328Y-78377000D01*
X154486322Y-78377000D01*
X154398815Y-78448815D01*
X154319463Y-78545506D01*
X154260498Y-78655820D01*
X154224188Y-78775518D01*
X154211928Y-78900000D01*
X154215000Y-79864250D01*
X154373750Y-80023000D01*
X155873000Y-80023000D01*
X155873000Y-80003000D01*
X156127000Y-80003000D01*
X156127000Y-80023000D01*
X157626250Y-80023000D01*
X157785000Y-79864250D01*
X157788072Y-78900000D01*
X157775812Y-78775518D01*
X157739502Y-78655820D01*
X157680537Y-78545506D01*
X157601185Y-78448815D01*
X157512667Y-78376170D01*
X157516577Y-78375914D01*
X157645987Y-78358877D01*
X157678011Y-78350296D01*
X157798601Y-78300346D01*
X157827313Y-78283768D01*
X157930866Y-78204308D01*
X157954308Y-78180866D01*
X157995640Y-78127002D01*
X158108848Y-78127002D01*
X157950100Y-78285750D01*
X157947028Y-80184400D01*
X157959288Y-80308882D01*
X157995598Y-80428580D01*
X158054563Y-80538894D01*
X158133915Y-80635585D01*
X158230606Y-80714937D01*
X158340920Y-80773902D01*
X158460618Y-80810212D01*
X158585100Y-80822472D01*
X161258450Y-80819400D01*
X161417200Y-80660650D01*
X161417200Y-78127000D01*
X161671200Y-78127000D01*
X161671200Y-80660650D01*
X161829950Y-80819400D01*
X164503300Y-80822472D01*
X164627782Y-80810212D01*
X164747480Y-80773902D01*
X164857794Y-80714937D01*
X164954485Y-80635585D01*
X165033837Y-80538894D01*
X165092802Y-80428580D01*
X165129112Y-80308882D01*
X165141372Y-80184400D01*
X165138300Y-78285750D01*
X164979550Y-78127000D01*
X161671200Y-78127000D01*
X161417200Y-78127000D01*
X161397200Y-78127000D01*
X161397200Y-77873000D01*
X161417200Y-77873000D01*
X161417200Y-75339350D01*
X161671200Y-75339350D01*
X161671200Y-77873000D01*
X164979550Y-77873000D01*
X165138300Y-77714250D01*
X165141372Y-75815600D01*
X165129112Y-75691118D01*
X165092802Y-75571420D01*
X165033837Y-75461106D01*
X164954485Y-75364415D01*
X164857794Y-75285063D01*
X164747480Y-75226098D01*
X164627782Y-75189788D01*
X164503300Y-75177528D01*
X161829950Y-75180600D01*
X161671200Y-75339350D01*
X161417200Y-75339350D01*
X161258450Y-75180600D01*
X158585100Y-75177528D01*
X158460618Y-75189788D01*
X158340920Y-75226098D01*
X158230606Y-75285063D01*
X158133915Y-75364415D01*
X158127000Y-75372841D01*
X158127000Y-74508328D01*
X158140769Y-74403743D01*
X158177923Y-74314045D01*
X158237024Y-74237024D01*
X158314045Y-74177923D01*
X158403743Y-74140769D01*
X158508328Y-74127000D01*
X165991672Y-74127000D01*
X166096257Y-74140769D01*
%TA.AperFunction,Conductor*%
D33*
G36*
X166096257Y-74140769D02*
G01*
X166185955Y-74177923D01*
X166262976Y-74237024D01*
X166322077Y-74314045D01*
X166359231Y-74403743D01*
X166373000Y-74508328D01*
X166373000Y-82241672D01*
X166359231Y-82346257D01*
X166322077Y-82435955D01*
X166262976Y-82512976D01*
X166185955Y-82572077D01*
X166096257Y-82609231D01*
X165991672Y-82623000D01*
X145008328Y-82623000D01*
X144903743Y-82609231D01*
X144814045Y-82572077D01*
X144737024Y-82512976D01*
X144677923Y-82435955D01*
X144677898Y-82435895D01*
X144700000Y-82438072D01*
X145714250Y-82435000D01*
X145873000Y-82276250D01*
X145873000Y-80627000D01*
X146127000Y-80627000D01*
X146127000Y-82276250D01*
X146285750Y-82435000D01*
X147300000Y-82438072D01*
X147424482Y-82425812D01*
X147544180Y-82389502D01*
X147654494Y-82330537D01*
X147751185Y-82251185D01*
X147830537Y-82154494D01*
X147889502Y-82044180D01*
X147925812Y-81924482D01*
X147938072Y-81800000D01*
X147936861Y-81400000D01*
X154211928Y-81400000D01*
X154224188Y-81524482D01*
X154260498Y-81644180D01*
X154319463Y-81754494D01*
X154398815Y-81851185D01*
X154495506Y-81930537D01*
X154605820Y-81989502D01*
X154725518Y-82025812D01*
X154850000Y-82038072D01*
X155714250Y-82035000D01*
X155873000Y-81876250D01*
X155873000Y-80277000D01*
X156127000Y-80277000D01*
X156127000Y-81876250D01*
X156285750Y-82035000D01*
X157150000Y-82038072D01*
X157274482Y-82025812D01*
X157394180Y-81989502D01*
X157504494Y-81930537D01*
X157601185Y-81851185D01*
X157680537Y-81754494D01*
X157739502Y-81644180D01*
X157775812Y-81524482D01*
X157788072Y-81400000D01*
X157785000Y-80435750D01*
X157626250Y-80277000D01*
X156127000Y-80277000D01*
X155873000Y-80277000D01*
X154373750Y-80277000D01*
X154215000Y-80435750D01*
X154211928Y-81400000D01*
X147936861Y-81400000D01*
X147935000Y-80785750D01*
X147776250Y-80627000D01*
X146127000Y-80627000D01*
X145873000Y-80627000D01*
X145853000Y-80627000D01*
X145853000Y-80373000D01*
X145873000Y-80373000D01*
X145873000Y-78723750D01*
X146127000Y-78723750D01*
X146127000Y-80373000D01*
X147776250Y-80373000D01*
X147935000Y-80214250D01*
X147938072Y-79200000D01*
X147925812Y-79075518D01*
X147889502Y-78955820D01*
X147830537Y-78845506D01*
X147751185Y-78748815D01*
X147654494Y-78669463D01*
X147544180Y-78610498D01*
X147424482Y-78574188D01*
X147300000Y-78561928D01*
X146285750Y-78565000D01*
X146127000Y-78723750D01*
X145873000Y-78723750D01*
X145714250Y-78565000D01*
X144700000Y-78561928D01*
X144677898Y-78564105D01*
X144677923Y-78564045D01*
X144737024Y-78487024D01*
X144814045Y-78427923D01*
X144903743Y-78390769D01*
X145008328Y-78377000D01*
X154486322Y-78377000D01*
X154398815Y-78448815D01*
X154319463Y-78545506D01*
X154260498Y-78655820D01*
X154224188Y-78775518D01*
X154211928Y-78900000D01*
X154215000Y-79864250D01*
X154373750Y-80023000D01*
X155873000Y-80023000D01*
X155873000Y-80003000D01*
X156127000Y-80003000D01*
X156127000Y-80023000D01*
X157626250Y-80023000D01*
X157785000Y-79864250D01*
X157788072Y-78900000D01*
X157775812Y-78775518D01*
X157739502Y-78655820D01*
X157680537Y-78545506D01*
X157601185Y-78448815D01*
X157512667Y-78376170D01*
X157516577Y-78375914D01*
X157645987Y-78358877D01*
X157678011Y-78350296D01*
X157798601Y-78300346D01*
X157827313Y-78283768D01*
X157930866Y-78204308D01*
X157954308Y-78180866D01*
X157995640Y-78127002D01*
X158108848Y-78127002D01*
X157950100Y-78285750D01*
X157947028Y-80184400D01*
X157959288Y-80308882D01*
X157995598Y-80428580D01*
X158054563Y-80538894D01*
X158133915Y-80635585D01*
X158230606Y-80714937D01*
X158340920Y-80773902D01*
X158460618Y-80810212D01*
X158585100Y-80822472D01*
X161258450Y-80819400D01*
X161417200Y-80660650D01*
X161417200Y-78127000D01*
X161671200Y-78127000D01*
X161671200Y-80660650D01*
X161829950Y-80819400D01*
X164503300Y-80822472D01*
X164627782Y-80810212D01*
X164747480Y-80773902D01*
X164857794Y-80714937D01*
X164954485Y-80635585D01*
X165033837Y-80538894D01*
X165092802Y-80428580D01*
X165129112Y-80308882D01*
X165141372Y-80184400D01*
X165138300Y-78285750D01*
X164979550Y-78127000D01*
X161671200Y-78127000D01*
X161417200Y-78127000D01*
X161397200Y-78127000D01*
X161397200Y-77873000D01*
X161417200Y-77873000D01*
X161417200Y-75339350D01*
X161671200Y-75339350D01*
X161671200Y-77873000D01*
X164979550Y-77873000D01*
X165138300Y-77714250D01*
X165141372Y-75815600D01*
X165129112Y-75691118D01*
X165092802Y-75571420D01*
X165033837Y-75461106D01*
X164954485Y-75364415D01*
X164857794Y-75285063D01*
X164747480Y-75226098D01*
X164627782Y-75189788D01*
X164503300Y-75177528D01*
X161829950Y-75180600D01*
X161671200Y-75339350D01*
X161417200Y-75339350D01*
X161258450Y-75180600D01*
X158585100Y-75177528D01*
X158460618Y-75189788D01*
X158340920Y-75226098D01*
X158230606Y-75285063D01*
X158133915Y-75364415D01*
X158127000Y-75372841D01*
X158127000Y-74508328D01*
X158140769Y-74403743D01*
X158177923Y-74314045D01*
X158237024Y-74237024D01*
X158314045Y-74177923D01*
X158403743Y-74140769D01*
X158508328Y-74127000D01*
X165991672Y-74127000D01*
X166096257Y-74140769D01*
G37*
%TD.AperFunction*%
%TD*%
D32*
%TO.N,/OP2*%
X166296119Y-81638662D02*
X166335215Y-81664785D01*
X166361338Y-81703881D01*
X166394470Y-81870447D01*
X166401697Y-81894272D01*
X166413433Y-81916228D01*
X166467626Y-81997334D01*
X166483420Y-82016579D01*
X166502666Y-82032374D01*
X166583772Y-82086567D01*
X166605729Y-82098303D01*
X166629553Y-82105530D01*
X166725224Y-82124560D01*
X166750000Y-82127000D01*
X178991672Y-82127000D01*
X179096257Y-82140769D01*
X179185955Y-82177923D01*
X179262976Y-82237024D01*
X179322077Y-82314045D01*
X179359231Y-82403743D01*
X179373000Y-82508328D01*
X179373000Y-92991672D01*
X179359231Y-93096257D01*
X179322077Y-93185955D01*
X179262976Y-93262976D01*
X179185955Y-93322077D01*
X179096257Y-93359231D01*
X178991672Y-93373000D01*
X167508328Y-93373000D01*
X167403743Y-93359231D01*
X167314045Y-93322077D01*
X167237024Y-93262976D01*
X167177923Y-93185955D01*
X167140769Y-93096257D01*
X167127000Y-92991672D01*
X167127000Y-84000000D01*
X167125914Y-83983423D01*
X167108877Y-83854013D01*
X167100296Y-83821989D01*
X167050346Y-83701399D01*
X167033768Y-83672687D01*
X166954308Y-83569134D01*
X166930866Y-83545692D01*
X166827313Y-83466232D01*
X166798601Y-83449654D01*
X166678011Y-83399704D01*
X166645987Y-83391123D01*
X166516577Y-83374086D01*
X166500000Y-83373000D01*
X158384992Y-83373000D01*
X158298856Y-83359357D01*
X158230162Y-83324356D01*
X158175644Y-83269838D01*
X158140643Y-83201144D01*
X158127000Y-83115008D01*
X158127000Y-83000000D01*
X158124560Y-82975224D01*
X158105530Y-82879553D01*
X158098303Y-82855728D01*
X158086567Y-82833772D01*
X158032374Y-82752666D01*
X158016580Y-82733421D01*
X157997334Y-82717626D01*
X157916228Y-82663433D01*
X157894271Y-82651697D01*
X157870447Y-82644470D01*
X157703881Y-82611338D01*
X157664785Y-82585215D01*
X157638662Y-82546119D01*
X157627000Y-82487491D01*
X157627000Y-82008328D01*
X157640769Y-81903743D01*
X157677923Y-81814045D01*
X157737024Y-81737024D01*
X157814045Y-81677923D01*
X157903743Y-81640769D01*
X158008328Y-81627000D01*
X166237491Y-81627000D01*
X166296119Y-81638662D01*
%TA.AperFunction,Conductor*%
D33*
G36*
X166296119Y-81638662D02*
G01*
X166335215Y-81664785D01*
X166361338Y-81703881D01*
X166394470Y-81870447D01*
X166401697Y-81894272D01*
X166413433Y-81916228D01*
X166467626Y-81997334D01*
X166483420Y-82016579D01*
X166502666Y-82032374D01*
X166583772Y-82086567D01*
X166605729Y-82098303D01*
X166629553Y-82105530D01*
X166725224Y-82124560D01*
X166750000Y-82127000D01*
X178991672Y-82127000D01*
X179096257Y-82140769D01*
X179185955Y-82177923D01*
X179262976Y-82237024D01*
X179322077Y-82314045D01*
X179359231Y-82403743D01*
X179373000Y-82508328D01*
X179373000Y-92991672D01*
X179359231Y-93096257D01*
X179322077Y-93185955D01*
X179262976Y-93262976D01*
X179185955Y-93322077D01*
X179096257Y-93359231D01*
X178991672Y-93373000D01*
X167508328Y-93373000D01*
X167403743Y-93359231D01*
X167314045Y-93322077D01*
X167237024Y-93262976D01*
X167177923Y-93185955D01*
X167140769Y-93096257D01*
X167127000Y-92991672D01*
X167127000Y-84000000D01*
X167125914Y-83983423D01*
X167108877Y-83854013D01*
X167100296Y-83821989D01*
X167050346Y-83701399D01*
X167033768Y-83672687D01*
X166954308Y-83569134D01*
X166930866Y-83545692D01*
X166827313Y-83466232D01*
X166798601Y-83449654D01*
X166678011Y-83399704D01*
X166645987Y-83391123D01*
X166516577Y-83374086D01*
X166500000Y-83373000D01*
X158384992Y-83373000D01*
X158298856Y-83359357D01*
X158230162Y-83324356D01*
X158175644Y-83269838D01*
X158140643Y-83201144D01*
X158127000Y-83115008D01*
X158127000Y-83000000D01*
X158124560Y-82975224D01*
X158105530Y-82879553D01*
X158098303Y-82855728D01*
X158086567Y-82833772D01*
X158032374Y-82752666D01*
X158016580Y-82733421D01*
X157997334Y-82717626D01*
X157916228Y-82663433D01*
X157894271Y-82651697D01*
X157870447Y-82644470D01*
X157703881Y-82611338D01*
X157664785Y-82585215D01*
X157638662Y-82546119D01*
X157627000Y-82487491D01*
X157627000Y-82008328D01*
X157640769Y-81903743D01*
X157677923Y-81814045D01*
X157737024Y-81737024D01*
X157814045Y-81677923D01*
X157903743Y-81640769D01*
X158008328Y-81627000D01*
X166237491Y-81627000D01*
X166296119Y-81638662D01*
G37*
%TD.AperFunction*%
%TD*%
D32*
%TO.N,/OP1*%
X174685955Y-55677923D02*
X174762976Y-55737024D01*
X174822077Y-55814045D01*
X174859231Y-55903743D01*
X174873000Y-56008328D01*
X174873000Y-62491672D01*
X174859231Y-62596257D01*
X174822077Y-62685955D01*
X174762976Y-62762976D01*
X174685955Y-62822077D01*
X174596257Y-62859231D01*
X174491672Y-62873000D01*
X167000000Y-62873000D01*
X166983423Y-62874086D01*
X166854013Y-62891123D01*
X166821989Y-62899704D01*
X166701399Y-62949654D01*
X166672687Y-62966232D01*
X166569134Y-63045692D01*
X166545692Y-63069134D01*
X166466232Y-63172687D01*
X166449654Y-63201399D01*
X166399704Y-63321989D01*
X166391123Y-63354013D01*
X166374086Y-63483423D01*
X166373000Y-63500000D01*
X166373000Y-72241672D01*
X166359231Y-72346257D01*
X166322077Y-72435955D01*
X166262976Y-72512976D01*
X166185955Y-72572077D01*
X166096257Y-72609231D01*
X165991672Y-72623000D01*
X145008328Y-72623000D01*
X144903743Y-72609231D01*
X144814045Y-72572077D01*
X144737024Y-72512976D01*
X144677923Y-72435955D01*
X144677898Y-72435895D01*
X144700000Y-72438072D01*
X145714250Y-72435000D01*
X145873000Y-72276250D01*
X145873000Y-70627000D01*
X146127000Y-70627000D01*
X146127000Y-72276250D01*
X146285750Y-72435000D01*
X147300000Y-72438072D01*
X147424482Y-72425812D01*
X147544180Y-72389502D01*
X147654494Y-72330537D01*
X147751185Y-72251185D01*
X147830537Y-72154494D01*
X147889502Y-72044180D01*
X147925812Y-71924482D01*
X147938072Y-71800000D01*
X147936861Y-71400000D01*
X154211928Y-71400000D01*
X154224188Y-71524482D01*
X154260498Y-71644180D01*
X154319463Y-71754494D01*
X154398815Y-71851185D01*
X154495506Y-71930537D01*
X154605820Y-71989502D01*
X154725518Y-72025812D01*
X154850000Y-72038072D01*
X155714250Y-72035000D01*
X155873000Y-71876250D01*
X155873000Y-70277000D01*
X156127000Y-70277000D01*
X156127000Y-71876250D01*
X156285750Y-72035000D01*
X157150000Y-72038072D01*
X157274482Y-72025812D01*
X157394180Y-71989502D01*
X157504494Y-71930537D01*
X157601185Y-71851185D01*
X157680537Y-71754494D01*
X157739502Y-71644180D01*
X157775812Y-71524482D01*
X157788072Y-71400000D01*
X157785000Y-70435750D01*
X157626250Y-70277000D01*
X156127000Y-70277000D01*
X155873000Y-70277000D01*
X154373750Y-70277000D01*
X154215000Y-70435750D01*
X154211928Y-71400000D01*
X147936861Y-71400000D01*
X147935000Y-70785750D01*
X147776250Y-70627000D01*
X146127000Y-70627000D01*
X145873000Y-70627000D01*
X145853000Y-70627000D01*
X145853000Y-70373000D01*
X145873000Y-70373000D01*
X145873000Y-68723750D01*
X146127000Y-68723750D01*
X146127000Y-70373000D01*
X147776250Y-70373000D01*
X147935000Y-70214250D01*
X147938072Y-69200000D01*
X147925812Y-69075518D01*
X147889502Y-68955820D01*
X147830537Y-68845506D01*
X147751185Y-68748815D01*
X147654494Y-68669463D01*
X147544180Y-68610498D01*
X147424482Y-68574188D01*
X147300000Y-68561928D01*
X146285750Y-68565000D01*
X146127000Y-68723750D01*
X145873000Y-68723750D01*
X145714250Y-68565000D01*
X144700000Y-68561928D01*
X144677898Y-68564105D01*
X144677923Y-68564045D01*
X144737024Y-68487024D01*
X144814045Y-68427923D01*
X144903743Y-68390769D01*
X145008328Y-68377000D01*
X154486322Y-68377000D01*
X154398815Y-68448815D01*
X154319463Y-68545506D01*
X154260498Y-68655820D01*
X154224188Y-68775518D01*
X154211928Y-68900000D01*
X154215000Y-69864250D01*
X154373750Y-70023000D01*
X155873000Y-70023000D01*
X155873000Y-70003000D01*
X156127000Y-70003000D01*
X156127000Y-70023000D01*
X157626250Y-70023000D01*
X157785000Y-69864250D01*
X157788072Y-68900000D01*
X157775812Y-68775518D01*
X157739502Y-68655820D01*
X157680537Y-68545506D01*
X157601185Y-68448815D01*
X157512667Y-68376170D01*
X157516577Y-68375914D01*
X157645987Y-68358877D01*
X157678011Y-68350296D01*
X157798601Y-68300346D01*
X157827313Y-68283768D01*
X157930866Y-68204308D01*
X157954308Y-68180866D01*
X157995640Y-68127002D01*
X158108848Y-68127002D01*
X157950100Y-68285750D01*
X157947028Y-70184400D01*
X157959288Y-70308882D01*
X157995598Y-70428580D01*
X158054563Y-70538894D01*
X158133915Y-70635585D01*
X158230606Y-70714937D01*
X158340920Y-70773902D01*
X158460618Y-70810212D01*
X158585100Y-70822472D01*
X161258450Y-70819400D01*
X161417200Y-70660650D01*
X161417200Y-68127000D01*
X161671200Y-68127000D01*
X161671200Y-70660650D01*
X161829950Y-70819400D01*
X164503300Y-70822472D01*
X164627782Y-70810212D01*
X164747480Y-70773902D01*
X164857794Y-70714937D01*
X164954485Y-70635585D01*
X165033837Y-70538894D01*
X165092802Y-70428580D01*
X165129112Y-70308882D01*
X165141372Y-70184400D01*
X165138300Y-68285750D01*
X164979550Y-68127000D01*
X161671200Y-68127000D01*
X161417200Y-68127000D01*
X161397200Y-68127000D01*
X161397200Y-67873000D01*
X161417200Y-67873000D01*
X161417200Y-65339350D01*
X161671200Y-65339350D01*
X161671200Y-67873000D01*
X164979550Y-67873000D01*
X165138300Y-67714250D01*
X165141372Y-65815600D01*
X165129112Y-65691118D01*
X165092802Y-65571420D01*
X165033837Y-65461106D01*
X164954485Y-65364415D01*
X164857794Y-65285063D01*
X164747480Y-65226098D01*
X164627782Y-65189788D01*
X164503300Y-65177528D01*
X161829950Y-65180600D01*
X161671200Y-65339350D01*
X161417200Y-65339350D01*
X161258450Y-65180600D01*
X158585100Y-65177528D01*
X158460618Y-65189788D01*
X158340920Y-65226098D01*
X158230606Y-65285063D01*
X158133915Y-65364415D01*
X158127000Y-65372841D01*
X158127000Y-63500000D01*
X158125914Y-63483423D01*
X158108877Y-63354013D01*
X158100296Y-63321989D01*
X158050346Y-63201399D01*
X158033768Y-63172687D01*
X157954308Y-63069134D01*
X157930866Y-63045692D01*
X157827313Y-62966232D01*
X157798601Y-62949654D01*
X157678011Y-62899704D01*
X157645987Y-62891123D01*
X157516577Y-62874086D01*
X157500000Y-62873000D01*
X150508328Y-62873000D01*
X150403743Y-62859231D01*
X150314045Y-62822077D01*
X150237024Y-62762976D01*
X150177923Y-62685955D01*
X150140769Y-62596257D01*
X150127000Y-62491672D01*
X150127000Y-56008328D01*
X150140769Y-55903743D01*
X150177923Y-55814045D01*
X150237024Y-55737024D01*
X150314045Y-55677923D01*
X150357315Y-55660000D01*
X174642685Y-55660000D01*
X174685955Y-55677923D01*
%TA.AperFunction,Conductor*%
D33*
G36*
X174685955Y-55677923D02*
G01*
X174762976Y-55737024D01*
X174822077Y-55814045D01*
X174859231Y-55903743D01*
X174873000Y-56008328D01*
X174873000Y-62491672D01*
X174859231Y-62596257D01*
X174822077Y-62685955D01*
X174762976Y-62762976D01*
X174685955Y-62822077D01*
X174596257Y-62859231D01*
X174491672Y-62873000D01*
X167000000Y-62873000D01*
X166983423Y-62874086D01*
X166854013Y-62891123D01*
X166821989Y-62899704D01*
X166701399Y-62949654D01*
X166672687Y-62966232D01*
X166569134Y-63045692D01*
X166545692Y-63069134D01*
X166466232Y-63172687D01*
X166449654Y-63201399D01*
X166399704Y-63321989D01*
X166391123Y-63354013D01*
X166374086Y-63483423D01*
X166373000Y-63500000D01*
X166373000Y-72241672D01*
X166359231Y-72346257D01*
X166322077Y-72435955D01*
X166262976Y-72512976D01*
X166185955Y-72572077D01*
X166096257Y-72609231D01*
X165991672Y-72623000D01*
X145008328Y-72623000D01*
X144903743Y-72609231D01*
X144814045Y-72572077D01*
X144737024Y-72512976D01*
X144677923Y-72435955D01*
X144677898Y-72435895D01*
X144700000Y-72438072D01*
X145714250Y-72435000D01*
X145873000Y-72276250D01*
X145873000Y-70627000D01*
X146127000Y-70627000D01*
X146127000Y-72276250D01*
X146285750Y-72435000D01*
X147300000Y-72438072D01*
X147424482Y-72425812D01*
X147544180Y-72389502D01*
X147654494Y-72330537D01*
X147751185Y-72251185D01*
X147830537Y-72154494D01*
X147889502Y-72044180D01*
X147925812Y-71924482D01*
X147938072Y-71800000D01*
X147936861Y-71400000D01*
X154211928Y-71400000D01*
X154224188Y-71524482D01*
X154260498Y-71644180D01*
X154319463Y-71754494D01*
X154398815Y-71851185D01*
X154495506Y-71930537D01*
X154605820Y-71989502D01*
X154725518Y-72025812D01*
X154850000Y-72038072D01*
X155714250Y-72035000D01*
X155873000Y-71876250D01*
X155873000Y-70277000D01*
X156127000Y-70277000D01*
X156127000Y-71876250D01*
X156285750Y-72035000D01*
X157150000Y-72038072D01*
X157274482Y-72025812D01*
X157394180Y-71989502D01*
X157504494Y-71930537D01*
X157601185Y-71851185D01*
X157680537Y-71754494D01*
X157739502Y-71644180D01*
X157775812Y-71524482D01*
X157788072Y-71400000D01*
X157785000Y-70435750D01*
X157626250Y-70277000D01*
X156127000Y-70277000D01*
X155873000Y-70277000D01*
X154373750Y-70277000D01*
X154215000Y-70435750D01*
X154211928Y-71400000D01*
X147936861Y-71400000D01*
X147935000Y-70785750D01*
X147776250Y-70627000D01*
X146127000Y-70627000D01*
X145873000Y-70627000D01*
X145853000Y-70627000D01*
X145853000Y-70373000D01*
X145873000Y-70373000D01*
X145873000Y-68723750D01*
X146127000Y-68723750D01*
X146127000Y-70373000D01*
X147776250Y-70373000D01*
X147935000Y-70214250D01*
X147938072Y-69200000D01*
X147925812Y-69075518D01*
X147889502Y-68955820D01*
X147830537Y-68845506D01*
X147751185Y-68748815D01*
X147654494Y-68669463D01*
X147544180Y-68610498D01*
X147424482Y-68574188D01*
X147300000Y-68561928D01*
X146285750Y-68565000D01*
X146127000Y-68723750D01*
X145873000Y-68723750D01*
X145714250Y-68565000D01*
X144700000Y-68561928D01*
X144677898Y-68564105D01*
X144677923Y-68564045D01*
X144737024Y-68487024D01*
X144814045Y-68427923D01*
X144903743Y-68390769D01*
X145008328Y-68377000D01*
X154486322Y-68377000D01*
X154398815Y-68448815D01*
X154319463Y-68545506D01*
X154260498Y-68655820D01*
X154224188Y-68775518D01*
X154211928Y-68900000D01*
X154215000Y-69864250D01*
X154373750Y-70023000D01*
X155873000Y-70023000D01*
X155873000Y-70003000D01*
X156127000Y-70003000D01*
X156127000Y-70023000D01*
X157626250Y-70023000D01*
X157785000Y-69864250D01*
X157788072Y-68900000D01*
X157775812Y-68775518D01*
X157739502Y-68655820D01*
X157680537Y-68545506D01*
X157601185Y-68448815D01*
X157512667Y-68376170D01*
X157516577Y-68375914D01*
X157645987Y-68358877D01*
X157678011Y-68350296D01*
X157798601Y-68300346D01*
X157827313Y-68283768D01*
X157930866Y-68204308D01*
X157954308Y-68180866D01*
X157995640Y-68127002D01*
X158108848Y-68127002D01*
X157950100Y-68285750D01*
X157947028Y-70184400D01*
X157959288Y-70308882D01*
X157995598Y-70428580D01*
X158054563Y-70538894D01*
X158133915Y-70635585D01*
X158230606Y-70714937D01*
X158340920Y-70773902D01*
X158460618Y-70810212D01*
X158585100Y-70822472D01*
X161258450Y-70819400D01*
X161417200Y-70660650D01*
X161417200Y-68127000D01*
X161671200Y-68127000D01*
X161671200Y-70660650D01*
X161829950Y-70819400D01*
X164503300Y-70822472D01*
X164627782Y-70810212D01*
X164747480Y-70773902D01*
X164857794Y-70714937D01*
X164954485Y-70635585D01*
X165033837Y-70538894D01*
X165092802Y-70428580D01*
X165129112Y-70308882D01*
X165141372Y-70184400D01*
X165138300Y-68285750D01*
X164979550Y-68127000D01*
X161671200Y-68127000D01*
X161417200Y-68127000D01*
X161397200Y-68127000D01*
X161397200Y-67873000D01*
X161417200Y-67873000D01*
X161417200Y-65339350D01*
X161671200Y-65339350D01*
X161671200Y-67873000D01*
X164979550Y-67873000D01*
X165138300Y-67714250D01*
X165141372Y-65815600D01*
X165129112Y-65691118D01*
X165092802Y-65571420D01*
X165033837Y-65461106D01*
X164954485Y-65364415D01*
X164857794Y-65285063D01*
X164747480Y-65226098D01*
X164627782Y-65189788D01*
X164503300Y-65177528D01*
X161829950Y-65180600D01*
X161671200Y-65339350D01*
X161417200Y-65339350D01*
X161258450Y-65180600D01*
X158585100Y-65177528D01*
X158460618Y-65189788D01*
X158340920Y-65226098D01*
X158230606Y-65285063D01*
X158133915Y-65364415D01*
X158127000Y-65372841D01*
X158127000Y-63500000D01*
X158125914Y-63483423D01*
X158108877Y-63354013D01*
X158100296Y-63321989D01*
X158050346Y-63201399D01*
X158033768Y-63172687D01*
X157954308Y-63069134D01*
X157930866Y-63045692D01*
X157827313Y-62966232D01*
X157798601Y-62949654D01*
X157678011Y-62899704D01*
X157645987Y-62891123D01*
X157516577Y-62874086D01*
X157500000Y-62873000D01*
X150508328Y-62873000D01*
X150403743Y-62859231D01*
X150314045Y-62822077D01*
X150237024Y-62762976D01*
X150177923Y-62685955D01*
X150140769Y-62596257D01*
X150127000Y-62491672D01*
X150127000Y-56008328D01*
X150140769Y-55903743D01*
X150177923Y-55814045D01*
X150237024Y-55737024D01*
X150314045Y-55677923D01*
X150357315Y-55660000D01*
X174642685Y-55660000D01*
X174685955Y-55677923D01*
G37*
%TD.AperFunction*%
%TD*%
M02*
