M48
; DRILL file {KiCad 5.1.12-84ad8e8a86~92~ubuntu20.04.1} date Mon Dec 20 15:55:25 2021
; FORMAT={-:-/ absolute / metric / decimal}
; #@! TF.CreationDate,2021-12-20T15:55:25+05:30
; #@! TF.GenerationSoftware,Kicad,Pcbnew,5.1.12-84ad8e8a86~92~ubuntu20.04.1
FMAT,2
METRIC
T1C0.400
T2C0.500
T3C0.800
T4C0.920
T5C1.000
T6C1.020
T7C1.300
T8C1.500
T9C2.300
T10C3.200
T11C3.048
T12C3.200
%
G90
G05
T1
X62.38Y-132.57
X68.8Y-51.7
X68.8Y-53.2
X68.8Y-61.7
X68.8Y-63.2
X68.8Y-71.7
X68.8Y-73.2
X68.8Y-81.7
X68.8Y-83.2
X68.8Y-91.7
X68.8Y-93.2
X68.8Y-101.7
X68.8Y-103.2
X68.8Y-111.7
X68.8Y-113.2
X68.8Y-121.7
X68.8Y-123.2
X70.3Y-51.7
X70.3Y-53.2
X70.3Y-55.5
X70.3Y-57.0
X70.3Y-58.5
X70.3Y-61.7
X70.3Y-63.2
X70.3Y-65.5
X70.3Y-67.0
X70.3Y-68.5
X70.3Y-71.7
X70.3Y-73.2
X70.3Y-75.5
X70.3Y-77.0
X70.3Y-78.5
X70.3Y-81.7
X70.3Y-83.2
X70.3Y-85.5
X70.3Y-87.0
X70.3Y-88.5
X70.3Y-91.7
X70.3Y-93.2
X70.3Y-95.5
X70.3Y-97.0
X70.3Y-98.5
X70.3Y-101.7
X70.3Y-103.2
X70.3Y-105.5
X70.3Y-107.0
X70.3Y-108.5
X70.3Y-111.7
X70.3Y-113.2
X70.3Y-115.5
X70.3Y-117.0
X70.3Y-118.5
X70.3Y-121.7
X70.3Y-123.2
X70.3Y-125.5
X70.3Y-127.0
X70.3Y-128.5
X71.8Y-51.7
X71.8Y-53.2
X71.8Y-55.5
X71.8Y-57.0
X71.8Y-58.5
X71.8Y-61.7
X71.8Y-63.2
X71.8Y-65.5
X71.8Y-67.0
X71.8Y-68.5
X71.8Y-71.7
X71.8Y-73.2
X71.8Y-75.5
X71.8Y-77.0
X71.8Y-78.5
X71.8Y-81.7
X71.8Y-83.2
X71.8Y-85.5
X71.8Y-87.0
X71.8Y-88.5
X71.8Y-91.7
X71.8Y-93.2
X71.8Y-95.5
X71.8Y-97.0
X71.8Y-98.5
X71.8Y-101.7
X71.8Y-103.2
X71.8Y-105.5
X71.8Y-107.0
X71.8Y-108.5
X71.8Y-111.7
X71.8Y-113.2
X71.8Y-115.5
X71.8Y-117.0
X71.8Y-118.5
X71.8Y-121.7
X71.8Y-123.2
X71.8Y-125.5
X71.8Y-127.0
X71.8Y-128.5
X73.3Y-51.7
X73.3Y-53.2
X73.3Y-55.5
X73.3Y-57.0
X73.3Y-58.5
X73.3Y-61.7
X73.3Y-63.2
X73.3Y-65.5
X73.3Y-67.0
X73.3Y-68.5
X73.3Y-71.7
X73.3Y-73.2
X73.3Y-75.5
X73.3Y-77.0
X73.3Y-78.5
X73.3Y-81.7
X73.3Y-83.2
X73.3Y-85.5
X73.3Y-87.0
X73.3Y-88.5
X73.3Y-91.7
X73.3Y-93.2
X73.3Y-95.5
X73.3Y-97.0
X73.3Y-98.5
X73.3Y-101.7
X73.3Y-103.2
X73.3Y-105.5
X73.3Y-107.0
X73.3Y-108.5
X73.3Y-111.7
X73.3Y-113.2
X73.3Y-115.5
X73.3Y-117.0
X73.3Y-118.5
X73.3Y-121.7
X73.3Y-123.2
X73.3Y-125.5
X73.3Y-127.0
X73.3Y-128.5
X74.8Y-51.7
X74.8Y-53.2
X74.8Y-61.7
X74.8Y-63.2
X74.8Y-71.7
X74.8Y-73.2
X74.8Y-81.7
X74.8Y-83.2
X74.8Y-91.7
X74.8Y-93.2
X74.8Y-101.7
X74.8Y-103.2
X74.8Y-111.7
X74.8Y-113.2
X74.8Y-121.7
X74.8Y-123.2
X77.6Y-132.55
X79.5Y-61.0
X79.5Y-71.0
X79.5Y-91.0
X79.5Y-101.0
X79.5Y-111.0
X79.5Y-121.0
X79.5Y-131.0
X79.5Y-81.0
X81.59Y-53.0
X81.59Y-63.11
X81.59Y-73.11
X81.59Y-83.11
X81.59Y-93.11
X81.59Y-103.11
X81.59Y-113.12
X81.59Y-123.12
X84.5Y-58.6
X84.5Y-68.6
X84.5Y-78.6
X84.5Y-88.6
X84.5Y-98.6
X84.5Y-108.6
X84.5Y-118.6
X84.5Y-128.6
X97.12Y-132.56
T2
X45.2Y-55.55
X45.2Y-144.45
X47.6Y-53.15
X47.6Y-57.95
X47.6Y-142.05
X47.6Y-146.85
X49.2Y-53.15
X49.2Y-57.95
X49.2Y-142.05
X49.2Y-146.85
X50.8Y-53.15
X50.8Y-57.95
X50.8Y-142.05
X50.8Y-146.85
X53.2Y-55.55
X53.2Y-144.45
X146.8Y-55.55
X146.8Y-144.45
X149.2Y-53.15
X149.2Y-57.95
X149.2Y-142.05
X149.2Y-146.85
X150.8Y-53.15
X150.8Y-57.95
X150.8Y-142.05
X150.8Y-146.85
X152.4Y-53.15
X152.4Y-57.95
X152.4Y-142.05
X152.4Y-146.85
X154.8Y-55.55
X154.8Y-144.45
T3
X132.7Y-67.5
X132.7Y-67.5
X132.7Y-77.5
X132.7Y-77.5
X132.7Y-87.5
X132.7Y-87.5
X132.7Y-92.7
X132.7Y-92.7
X132.7Y-107.5
X132.7Y-107.5
X132.7Y-117.5
X132.7Y-117.5
X132.7Y-123.7
X132.7Y-123.7
X132.7Y-127.7
X132.7Y-127.7
X132.7Y-131.7
X132.7Y-131.7
X140.32Y-67.5
X140.32Y-77.5
X140.32Y-87.5
X140.32Y-92.7
X140.32Y-107.5
X140.32Y-117.5
X140.32Y-123.7
X140.32Y-127.7
X140.32Y-131.7
T4
X128.5Y-55.38
X128.5Y-58.0
X131.0Y-55.38
X131.0Y-58.0
X133.0Y-55.38
X133.0Y-58.0
X135.5Y-55.38
X135.5Y-58.0
T6
X90.26Y-52.496
X90.26Y-55.036
X90.26Y-57.576
X90.26Y-60.116
X90.26Y-62.656
X90.26Y-65.196
X90.26Y-67.736
X90.26Y-70.276
X90.26Y-72.816
X90.26Y-75.356
X90.26Y-77.896
X90.26Y-80.182
X90.26Y-82.976
X90.26Y-85.516
X90.26Y-88.056
X94.07Y-52.496
X94.07Y-55.036
X94.07Y-57.576
X94.07Y-60.116
X94.07Y-62.656
X94.07Y-65.196
X94.07Y-67.736
X94.07Y-70.276
X94.07Y-72.816
X94.07Y-75.356
X94.07Y-77.896
X94.07Y-80.182
X94.07Y-82.976
X94.07Y-85.516
X94.07Y-88.056
X99.15Y-91.104
X99.15Y-96.184
X101.69Y-91.104
X101.69Y-96.184
X104.23Y-91.104
X104.23Y-96.184
X106.77Y-91.104
X106.77Y-96.184
X109.31Y-91.104
X109.31Y-96.184
X111.85Y-91.104
X111.85Y-96.184
X116.93Y-52.496
X116.93Y-55.036
X116.93Y-57.576
X116.93Y-60.116
X116.93Y-62.656
X116.93Y-65.196
X116.93Y-67.736
X116.93Y-70.276
X116.93Y-72.816
X116.93Y-75.356
X116.93Y-77.896
X116.93Y-80.436
X116.93Y-82.976
X116.93Y-85.516
X116.93Y-88.056
X120.74Y-52.496
X120.74Y-55.036
X120.74Y-57.576
X120.74Y-60.116
X120.74Y-62.656
X120.74Y-65.196
X120.74Y-67.736
X120.74Y-70.276
X120.74Y-72.816
X120.74Y-75.356
X120.74Y-77.896
X120.74Y-80.436
X120.74Y-82.976
X120.74Y-85.516
X120.74Y-88.056
T7
X53.0Y-62.5
X53.0Y-67.5
X53.0Y-72.5
X53.0Y-77.5
X53.0Y-82.5
X53.0Y-87.5
X53.0Y-92.5
X53.0Y-97.5
X53.0Y-102.5
X53.0Y-107.5
X53.0Y-112.5
X53.0Y-117.5
X53.0Y-122.5
X53.0Y-127.5
X53.0Y-132.5
X53.0Y-137.5
X62.5Y-145.0
X67.5Y-145.0
X72.5Y-145.0
X77.5Y-145.0
X82.5Y-145.0
X87.5Y-145.0
X92.5Y-145.0
X97.5Y-145.0
X102.5Y-145.0
X107.5Y-145.0
X112.5Y-145.0
X117.5Y-145.0
X122.5Y-145.0
X127.5Y-145.0
X132.5Y-145.0
X137.5Y-145.0
X147.0Y-62.5
X147.0Y-67.5
X147.0Y-72.5
X147.0Y-77.5
X147.0Y-82.5
X147.0Y-87.5
X147.0Y-92.5
X147.0Y-97.5
X147.0Y-102.5
X147.0Y-107.5
X147.0Y-112.5
X147.0Y-117.5
X147.0Y-122.5
X147.0Y-127.5
X147.0Y-132.5
X147.0Y-137.5
T8
X65.0Y-135.5
X70.0Y-135.5
X75.0Y-135.5
X84.5Y-135.5
X89.5Y-125.5
X89.5Y-135.5
X94.5Y-125.5
X94.5Y-135.5
X102.5Y-125.5
X102.5Y-135.5
X107.5Y-125.5
X107.5Y-135.5
X112.5Y-125.5
X112.5Y-135.5
T9
X125.43Y-52.67
X125.43Y-58.35
X138.57Y-52.67
X138.57Y-58.35
T11
X95.34Y-91.104
X115.66Y-91.104
T12
X118.7Y-131.3
X134.7Y-101.3
T5
X118.795Y-97.145G85X117.805Y-96.155
G05
X117.734Y-136.516G85X118.866Y-135.384
G05
X135.595Y-96.155G85X134.605Y-97.145
G05
X135.666Y-136.516G85X134.534Y-135.384
G05
T10
X47.6Y-55.55G85X50.8Y-55.55
G05
X47.6Y-144.45G85X50.8Y-144.45
G05
X149.2Y-55.55G85X152.4Y-55.55
G05
X149.2Y-144.45G85X152.4Y-144.45
G05
T0
M30
